  999
DXF file created by gear template generator. 2022-07-29T01:12:13
  999
G1:Toothspacing=2.8  Teeth=17  Spur gear  Angle=20.0  Addendum=.2
  999
G2:Toothspacing=2.8  Teeth=34  Spur gear  Angle=20.0  Addendum=.2
  0
SECTION
  2
HEADER
  9
$MEASUREMENT
  70
1
  0
ENDSEC
  0
SECTION
  2
TABLES
  0
TABLE
  2
LTYPE
  70
1
  0
LTYPE
  2
Continuous
  3
_
  70
0
  72
65
  73
0
  40
0.0
  0
ENDTAB
  0
TABLE
  2
LAYER
  70
4
  0
LAYER
  2
profile
  70
0
  62
7
  6
Continuous
  0
LAYER
  2
construction
  70
0
  62
5
  6
Continuous
  0
LAYER
  2
grid
  70
0
  62
3
  6
Continuous
  0
LAYER
  2
labels
  70
0
  62
1
  6
Continuous
  0
ENDTAB
  0
TABLE
  2
STYLE
  70
1
  0
STYLE
  2
ARIAL
  3
Arial.ttf
  70
0
  40
0.0
  41
1.0
  50
0.0
  71
0
  42
1.0
  0
ENDTAB
  0
ENDSEC
  0
SECTION
  2
ENTITIES
  0
POLYLINE
  8
a
  66
1
  10
0.0
  20
0.0
  70
1
  0
VERTEX
  8
a
  10
15.1119
  20
16.5621
  30
0.0
  70
0
  0
VERTEX
  8
a
  10
15.15249
  20
16.49551
  30
0.0
  70
0
  0
VERTEX
  8
a
  10
15.18842
  20
16.47257
  30
0.0
  70
0
  0
VERTEX
  8
a
  10
15.22353
  20
16.45756
  30
0.0
  70
0
  0
VERTEX
  8
a
  10
15.29259
  20
16.43939
  30
0.0
  70
0
  0
VERTEX
  8
a
  10
15.36089
  20
16.42926
  30
0.0
  70
0
  0
VERTEX
  8
a
  10
15.4285
  20
16.42683
  30
0.0
  70
0
  0
VERTEX
  8
a
  10
15.56468
  20
16.41001
  30
0.0
  70
0
  0
VERTEX
  8
a
  10
15.70161
  20
16.38195
  30
0.0
  70
0
  0
VERTEX
  8
a
  10
15.83897
  20
16.34474
  30
0.0
  70
0
  0
VERTEX
  8
a
  10
15.97655
  20
16.29942
  30
0.0
  70
0
  0
VERTEX
  8
a
  10
16.11416
  20
16.24663
  30
0.0
  70
0
  0
VERTEX
  8
a
  10
16.25164
  20
16.18682
  30
0.0
  70
0
  0
VERTEX
  8
a
  10
16.38882
  20
16.12028
  30
0.0
  70
0
  0
VERTEX
  8
a
  10
16.49141
  20
16.06612
  30
0.0
  70
0
  0
VERTEX
  8
a
  10
16.47254
  20
15.21514
  30
0.0
  70
0
  0
VERTEX
  8
a
  10
16.36764
  20
15.16559
  30
0.0
  70
0
  0
VERTEX
  8
a
  10
16.22765
  20
15.1052
  30
0.0
  70
0
  0
VERTEX
  8
a
  10
16.08765
  20
15.05154
  30
0.0
  70
0
  0
VERTEX
  8
a
  10
15.94784
  20
15.0049
  30
0.0
  70
0
  0
VERTEX
  8
a
  10
15.80838
  20
14.96573
  30
0.0
  70
0
  0
VERTEX
  8
a
  10
15.66951
  20
14.93465
  30
0.0
  70
0
  0
VERTEX
  8
a
  10
15.53147
  20
14.91268
  30
0.0
  70
0
  0
VERTEX
  8
a
  10
15.39468
  20
14.90192
  30
0.0
  70
0
  0
VERTEX
  8
a
  10
15.32702
  20
14.90248
  30
0.0
  70
0
  0
VERTEX
  8
a
  10
15.25835
  20
14.8954
  30
0.0
  70
0
  0
VERTEX
  8
a
  10
15.18855
  20
14.88031
  30
0.0
  70
0
  0
VERTEX
  8
a
  10
15.15281
  20
14.86687
  30
0.0
  70
0
  0
VERTEX
  8
a
  10
15.1159
  20
14.84555
  30
0.0
  70
0
  0
VERTEX
  8
a
  10
15.0724
  20
14.78081
  30
0.0
  70
0
  0
VERTEX
  8
a
  10
14.91526
  20
14.0325
  30
0.0
  70
0
  0
VERTEX
  8
a
  10
14.92905
  20
13.95574
  30
0.0
  70
0
  0
VERTEX
  8
a
  10
14.95427
  20
13.92137
  30
0.0
  70
0
  0
VERTEX
  8
a
  10
14.98159
  20
13.89469
  30
0.0
  70
0
  0
VERTEX
  8
a
  10
15.03942
  20
13.8528
  30
0.0
  70
0
  0
VERTEX
  8
a
  10
15.09945
  20
13.81869
  30
0.0
  70
0
  0
VERTEX
  8
a
  10
15.16162
  20
13.79199
  30
0.0
  70
0
  0
VERTEX
  8
a
  10
15.28252
  20
13.72712
  30
0.0
  70
0
  0
VERTEX
  8
a
  10
15.40006
  20
13.65149
  30
0.0
  70
0
  0
VERTEX
  8
a
  10
15.51471
  20
13.56717
  30
0.0
  70
0
  0
VERTEX
  8
a
  10
15.62663
  20
13.47521
  30
0.0
  70
0
  0
VERTEX
  8
a
  10
15.73588
  20
13.37628
  30
0.0
  70
0
  0
VERTEX
  8
a
  10
15.84246
  20
13.27084
  30
0.0
  70
0
  0
VERTEX
  8
a
  10
15.94634
  20
13.15924
  30
0.0
  70
0
  0
VERTEX
  8
a
  10
16.02245
  20
13.07168
  30
0.0
  70
0
  0
VERTEX
  8
a
  10
15.69744
  20
12.28498
  30
0.0
  70
0
  0
VERTEX
  8
a
  10
15.58172
  20
12.27666
  30
0.0
  70
0
  0
VERTEX
  8
a
  10
15.42937
  20
12.27093
  30
0.0
  70
0
  0
VERTEX
  8
a
  10
15.27944
  20
12.27146
  30
0.0
  70
0
  0
VERTEX
  8
a
  10
15.13222
  20
12.27848
  30
0.0
  70
0
  0
VERTEX
  8
a
  10
14.98803
  20
12.29233
  30
0.0
  70
0
  0
VERTEX
  8
a
  10
14.8473
  20
12.31351
  30
0.0
  70
0
  0
VERTEX
  8
a
  10
14.71066
  20
12.3429
  30
0.0
  70
0
  0
VERTEX
  8
a
  10
14.57922
  20
12.38227
  30
0.0
  70
0
  0
VERTEX
  8
a
  10
14.51633
  20
12.40724
  30
0.0
  70
0
  0
VERTEX
  8
a
  10
14.44973
  20
12.42544
  30
0.0
  70
0
  0
VERTEX
  8
a
  10
14.3792
  20
12.43658
  30
0.0
  70
0
  0
VERTEX
  8
a
  10
14.34101
  20
12.43697
  30
0.0
  70
0
  0
VERTEX
  8
a
  10
14.29889
  20
12.43042
  30
0.0
  70
0
  0
VERTEX
  8
a
  10
14.23495
  20
12.38577
  30
0.0
  70
0
  0
VERTEX
  8
a
  10
13.8181
  20
11.74475
  30
0.0
  70
0
  0
VERTEX
  8
a
  10
13.80323
  20
11.66819
  30
0.0
  70
0
  0
VERTEX
  8
a
  10
13.81433
  20
11.62704
  30
0.0
  70
0
  0
VERTEX
  8
a
  10
13.83017
  20
11.59229
  30
0.0
  70
0
  0
VERTEX
  8
a
  10
13.86896
  20
11.53234
  30
0.0
  70
0
  0
VERTEX
  8
a
  10
13.91261
  20
11.47884
  30
0.0
  70
0
  0
VERTEX
  8
a
  10
13.96094
  20
11.43149
  30
0.0
  70
0
  0
VERTEX
  8
a
  10
14.05025
  20
11.32732
  30
0.0
  70
0
  0
VERTEX
  8
a
  10
14.13253
  20
11.21434
  30
0.0
  70
0
  0
VERTEX
  8
a
  10
14.20897
  20
11.0943
  30
0.0
  70
0
  0
VERTEX
  8
a
  10
14.28011
  20
10.96812
  30
0.0
  70
0
  0
VERTEX
  8
a
  10
14.34625
  20
10.8364
  30
0.0
  70
0
  0
VERTEX
  8
a
  10
14.40755
  20
10.69958
  30
0.0
  70
0
  0
VERTEX
  8
a
  10
14.4641
  20
10.55799
  30
0.0
  70
0
  0
VERTEX
  8
a
  10
14.50343
  20
10.44885
  30
0.0
  70
0
  0
VERTEX
  8
a
  10
13.91618
  20
9.83268
  30
0.0
  70
0
  0
VERTEX
  8
a
  10
13.80528
  20
9.86673
  30
0.0
  70
0
  0
VERTEX
  8
a
  10
13.66114
  20
9.91642
  30
0.0
  70
0
  0
VERTEX
  8
a
  10
13.52153
  20
9.97107
  30
0.0
  70
0
  0
VERTEX
  8
a
  10
13.38678
  20
10.0308
  30
0.0
  70
0
  0
VERTEX
  8
a
  10
13.25734
  20
10.0958
  30
0.0
  70
0
  0
VERTEX
  8
a
  10
13.13376
  20
10.16639
  30
0.0
  70
0
  0
VERTEX
  8
a
  10
13.01696
  20
10.24315
  30
0.0
  70
0
  0
VERTEX
  8
a
  10
12.90862
  20
10.32735
  30
0.0
  70
0
  0
VERTEX
  8
a
  10
12.859
  20
10.37335
  30
0.0
  70
0
  0
VERTEX
  8
a
  10
12.80347
  20
10.41439
  30
0.0
  70
0
  0
VERTEX
  8
a
  10
12.74172
  20
10.45025
  30
0.0
  70
0
  0
VERTEX
  8
a
  10
12.70626
  20
10.46441
  30
0.0
  70
0
  0
VERTEX
  8
a
  10
12.66462
  20
10.47351
  30
0.0
  70
0
  0
VERTEX
  8
a
  10
12.58886
  20
10.45498
  30
0.0
  70
0
  0
VERTEX
  8
a
  10
11.9686
  20
10.00783
  30
0.0
  70
0
  0
VERTEX
  8
a
  10
11.92708
  20
9.94181
  30
0.0
  70
0
  0
VERTEX
  8
a
  10
11.92256
  20
9.89943
  30
0.0
  70
0
  0
VERTEX
  8
a
  10
11.92478
  20
9.86131
  30
0.0
  70
0
  0
VERTEX
  8
a
  10
11.93929
  20
9.79139
  30
0.0
  70
0
  0
VERTEX
  8
a
  10
11.96067
  20
9.72574
  30
0.0
  70
0
  0
VERTEX
  8
a
  10
11.98863
  20
9.66412
  30
0.0
  70
0
  0
VERTEX
  8
a
  10
12.03427
  20
9.53473
  30
0.0
  70
0
  0
VERTEX
  8
a
  10
12.07019
  20
9.39965
  30
0.0
  70
0
  0
VERTEX
  8
a
  10
12.09811
  20
9.2601
  30
0.0
  70
0
  0
VERTEX
  8
a
  10
12.11886
  20
9.11675
  30
0.0
  70
0
  0
VERTEX
  8
a
  10
12.13295
  20
8.97003
  30
0.0
  70
0
  0
VERTEX
  8
a
  10
12.14068
  20
8.8203
  30
0.0
  70
0
  0
VERTEX
  8
a
  10
12.14227
  20
8.66785
  30
0.0
  70
0
  0
VERTEX
  8
a
  10
12.13952
  20
8.55187
  30
0.0
  70
0
  0
VERTEX
  8
a
  10
11.36934
  20
8.18945
  30
0.0
  70
0
  0
VERTEX
  8
a
  10
11.27822
  20
8.26126
  30
0.0
  70
0
  0
VERTEX
  8
a
  10
11.16177
  20
8.35966
  30
0.0
  70
0
  0
VERTEX
  8
a
  10
11.05133
  20
8.46106
  30
0.0
  70
0
  0
VERTEX
  8
a
  10
10.94726
  20
8.56543
  30
0.0
  70
0
  0
VERTEX
  8
a
  10
10.85003
  20
8.6728
  30
0.0
  70
0
  0
VERTEX
  8
a
  10
10.7603
  20
8.78327
  30
0.0
  70
0
  0
VERTEX
  8
a
  10
10.67912
  20
8.89704
  30
0.0
  70
0
  0
VERTEX
  8
a
  10
10.60851
  20
9.01469
  30
0.0
  70
0
  0
VERTEX
  8
a
  10
10.57886
  20
9.07551
  30
0.0
  70
0
  0
VERTEX
  8
a
  10
10.5419
  20
9.13383
  30
0.0
  70
0
  0
VERTEX
  8
a
  10
10.49728
  20
9.18958
  30
0.0
  70
0
  0
VERTEX
  8
a
  10
10.46932
  20
9.21559
  30
0.0
  70
0
  0
VERTEX
  8
a
  10
10.43378
  20
9.23912
  30
0.0
  70
0
  0
VERTEX
  8
a
  10
10.35645
  20
9.24921
  30
0.0
  70
0
  0
VERTEX
  8
a
  10
9.61654
  20
9.05632
  30
0.0
  70
0
  0
VERTEX
  8
a
  10
9.55398
  20
9.00976
  30
0.0
  70
0
  0
VERTEX
  8
a
  10
9.53445
  20
8.97186
  30
0.0
  70
0
  0
VERTEX
  8
a
  10
9.52275
  20
8.93552
  30
0.0
  70
0
  0
VERTEX
  8
a
  10
9.51102
  20
8.86508
  30
0.0
  70
0
  0
VERTEX
  8
a
  10
9.50724
  20
8.79614
  30
0.0
  70
0
  0
VERTEX
  8
a
  10
9.51106
  20
8.72858
  30
0.0
  70
0
  0
VERTEX
  8
a
  10
9.50688
  20
8.59144
  30
0.0
  70
0
  0
VERTEX
  8
a
  10
9.49157
  20
8.45251
  30
0.0
  70
0
  0
VERTEX
  8
a
  10
9.46719
  20
8.3123
  30
0.0
  70
0
  0
VERTEX
  8
a
  10
9.43476
  20
8.17112
  30
0.0
  70
0
  0
VERTEX
  8
a
  10
9.3949
  20
8.02923
  30
0.0
  70
0
  0
VERTEX
  8
a
  10
9.34802
  20
7.88682
  30
0.0
  70
0
  0
VERTEX
  8
a
  10
9.29443
  20
7.74408
  30
0.0
  70
0
  0
VERTEX
  8
a
  10
9.24997
  20
7.63693
  30
0.0
  70
0
  0
VERTEX
  8
a
  10
8.40087
  20
7.5772
  30
0.0
  70
0
  0
VERTEX
  8
a
  10
8.34185
  20
7.67708
  30
0.0
  70
0
  0
VERTEX
  8
a
  10
8.2688
  20
7.81091
  30
0.0
  70
0
  0
VERTEX
  8
a
  10
8.20245
  20
7.94535
  30
0.0
  70
0
  0
VERTEX
  8
a
  10
8.14312
  20
8.08027
  30
0.0
  70
0
  0
VERTEX
  8
a
  10
8.09124
  20
8.21551
  30
0.0
  70
0
  0
VERTEX
  8
a
  10
8.04748
  20
8.35093
  30
0.0
  70
0
  0
VERTEX
  8
a
  10
8.01287
  20
8.48635
  30
0.0
  70
0
  0
VERTEX
  8
a
  10
7.98953
  20
8.62156
  30
0.0
  70
0
  0
VERTEX
  8
a
  10
7.98385
  20
8.68898
  30
0.0
  70
0
  0
VERTEX
  8
a
  10
7.97046
  20
8.75671
  30
0.0
  70
0
  0
VERTEX
  8
a
  10
7.94899
  20
8.82482
  30
0.0
  70
0
  0
VERTEX
  8
a
  10
7.93232
  20
8.85917
  30
0.0
  70
0
  0
VERTEX
  8
a
  10
7.90768
  20
8.89396
  30
0.0
  70
0
  0
VERTEX
  8
a
  10
7.83921
  20
8.9313
  30
0.0
  70
0
  0
VERTEX
  8
a
  10
7.07959
  20
9.01872
  30
0.0
  70
0
  0
VERTEX
  8
a
  10
7.00443
  20
8.9979
  30
0.0
  70
0
  0
VERTEX
  8
a
  10
6.97253
  20
8.96962
  30
0.0
  70
0
  0
VERTEX
  8
a
  10
6.94849
  20
8.93996
  30
0.0
  70
0
  0
VERTEX
  8
a
  10
6.91211
  20
8.87851
  30
0.0
  70
0
  0
VERTEX
  8
a
  10
6.88368
  20
8.81559
  30
0.0
  70
0
  0
VERTEX
  8
a
  10
6.86284
  20
8.75122
  30
0.0
  70
0
  0
VERTEX
  8
a
  10
6.80939
  20
8.62484
  30
0.0
  70
0
  0
VERTEX
  8
a
  10
6.74493
  20
8.50083
  30
0.0
  70
0
  0
VERTEX
  8
a
  10
6.67155
  20
8.37889
  30
0.0
  70
0
  0
VERTEX
  8
a
  10
6.59031
  20
8.25896
  30
0.0
  70
0
  0
VERTEX
  8
a
  10
6.50188
  20
8.14105
  30
0.0
  70
0
  0
VERTEX
  8
a
  10
6.40672
  20
8.02519
  30
0.0
  70
0
  0
VERTEX
  8
a
  10
6.30519
  20
7.91146
  30
0.0
  70
0
  0
VERTEX
  8
a
  10
6.22502
  20
7.8276
  30
0.0
  70
0
  0
VERTEX
  8
a
  10
5.41169
  20
8.07863
  30
0.0
  70
0
  0
VERTEX
  8
a
  10
5.39273
  20
8.19309
  30
0.0
  70
0
  0
VERTEX
  8
a
  10
5.37296
  20
8.34427
  30
0.0
  70
0
  0
VERTEX
  8
a
  10
5.35966
  20
8.4936
  30
0.0
  70
0
  0
VERTEX
  8
a
  10
5.35307
  20
8.64084
  30
0.0
  70
0
  0
VERTEX
  8
a
  10
5.35355
  20
8.78569
  30
0.0
  70
0
  0
VERTEX
  8
a
  10
5.36166
  20
8.92778
  30
0.0
  70
0
  0
VERTEX
  8
a
  10
5.37831
  20
9.06655
  30
0.0
  70
0
  0
VERTEX
  8
a
  10
5.4054
  20
9.20106
  30
0.0
  70
0
  0
VERTEX
  8
a
  10
5.42445
  20
9.26598
  30
0.0
  70
0
  0
VERTEX
  8
a
  10
5.43643
  20
9.33398
  30
0.0
  70
0
  0
VERTEX
  8
a
  10
5.44102
  20
9.40524
  30
0.0
  70
0
  0
VERTEX
  8
a
  10
5.43788
  20
9.4433
  30
0.0
  70
0
  0
VERTEX
  8
a
  10
5.42747
  20
9.48463
  30
0.0
  70
0
  0
VERTEX
  8
a
  10
5.37711
  20
9.54419
  30
0.0
  70
0
  0
VERTEX
  8
a
  10
4.70037
  20
9.90011
  30
0.0
  70
0
  0
VERTEX
  8
a
  10
4.62276
  20
9.90785
  30
0.0
  70
0
  0
VERTEX
  8
a
  10
4.5828
  20
9.89301
  30
0.0
  70
0
  0
VERTEX
  8
a
  10
4.54967
  20
9.87403
  30
0.0
  70
0
  0
VERTEX
  8
a
  10
4.49355
  20
9.82987
  30
0.0
  70
0
  0
VERTEX
  8
a
  10
4.44431
  20
9.78147
  30
0.0
  70
0
  0
VERTEX
  8
a
  10
4.40162
  20
9.72898
  30
0.0
  70
0
  0
VERTEX
  8
a
  10
4.30613
  20
9.63044
  30
0.0
  70
0
  0
VERTEX
  8
a
  10
4.20123
  20
9.53808
  30
0.0
  70
0
  0
VERTEX
  8
a
  10
4.08875
  20
9.45089
  30
0.0
  70
0
  0
VERTEX
  8
a
  10
3.96968
  20
9.36841
  30
0.0
  70
0
  0
VERTEX
  8
a
  10
3.84462
  20
9.2904
  30
0.0
  70
0
  0
VERTEX
  8
a
  10
3.71404
  20
9.21674
  30
0.0
  70
0
  0
VERTEX
  8
a
  10
3.57827
  20
9.14737
  30
0.0
  70
0
  0
VERTEX
  8
a
  10
3.47323
  20
9.09813
  30
0.0
  70
0
  0
VERTEX
  8
a
  10
2.8055
  20
9.62602
  30
0.0
  70
0
  0
VERTEX
  8
a
  10
2.82917
  20
9.7396
  30
0.0
  70
0
  0
VERTEX
  8
a
  10
2.86535
  20
9.88771
  30
0.0
  70
0
  0
VERTEX
  8
a
  10
2.90689
  20
10.03176
  30
0.0
  70
0
  0
VERTEX
  8
a
  10
2.95393
  20
10.17144
  30
0.0
  70
0
  0
VERTEX
  8
a
  10
3.00671
  20
10.30634
  30
0.0
  70
0
  0
VERTEX
  8
a
  10
3.0656
  20
10.4359
  30
0.0
  70
0
  0
VERTEX
  8
a
  10
3.13125
  20
10.55928
  30
0.0
  70
0
  0
VERTEX
  8
a
  10
3.2051
  20
10.67493
  30
0.0
  70
0
  0
VERTEX
  8
a
  10
3.24632
  20
10.72858
  30
0.0
  70
0
  0
VERTEX
  8
a
  10
3.28206
  20
10.78766
  30
0.0
  70
0
  0
VERTEX
  8
a
  10
3.31207
  20
10.85245
  30
0.0
  70
0
  0
VERTEX
  8
a
  10
3.32289
  20
10.88907
  30
0.0
  70
0
  0
VERTEX
  8
a
  10
3.32812
  20
10.93138
  30
0.0
  70
0
  0
VERTEX
  8
a
  10
3.30268
  20
11.0051
  30
0.0
  70
0
  0
VERTEX
  8
a
  10
2.8002
  20
11.58146
  30
0.0
  70
0
  0
VERTEX
  8
a
  10
2.73064
  20
11.61671
  30
0.0
  70
0
  0
VERTEX
  8
a
  10
2.68801
  20
11.6173
  30
0.0
  70
0
  0
VERTEX
  8
a
  10
2.65026
  20
11.61158
  30
0.0
  70
0
  0
VERTEX
  8
a
  10
2.58198
  20
11.59067
  30
0.0
  70
0
  0
VERTEX
  8
a
  10
2.51858
  20
11.56333
  30
0.0
  70
0
  0
VERTEX
  8
a
  10
2.45981
  20
11.5298
  30
0.0
  70
0
  0
VERTEX
  8
a
  10
2.33518
  20
11.47241
  30
0.0
  70
0
  0
VERTEX
  8
a
  10
2.20399
  20
11.42419
  30
0.0
  70
0
  0
VERTEX
  8
a
  10
2.06761
  20
11.38351
  30
0.0
  70
0
  0
VERTEX
  8
a
  10
1.92678
  20
11.34962
  30
0.0
  70
0
  0
VERTEX
  8
a
  10
1.78199
  20
11.32205
  30
0.0
  70
0
  0
VERTEX
  8
a
  10
1.63362
  20
11.30054
  30
0.0
  70
0
  0
VERTEX
  8
a
  10
1.48196
  20
11.28489
  30
0.0
  70
0
  0
VERTEX
  8
a
  10
1.36622
  20
11.27693
  30
0.0
  70
0
  0
VERTEX
  8
a
  10
0.93428
  20
12.01038
  30
0.0
  70
0
  0
VERTEX
  8
a
  10
0.99738
  20
12.10774
  30
0.0
  70
0
  0
VERTEX
  8
a
  10
1.08462
  20
12.23278
  30
0.0
  70
0
  0
VERTEX
  8
a
  10
1.17539
  20
12.3521
  30
0.0
  70
0
  0
VERTEX
  8
a
  10
1.26972
  20
12.46535
  30
0.0
  70
0
  0
VERTEX
  8
a
  10
1.36766
  20
12.57207
  30
0.0
  70
0
  0
VERTEX
  8
a
  10
1.46937
  20
12.67161
  30
0.0
  70
0
  0
VERTEX
  8
a
  10
1.57517
  20
12.76295
  30
0.0
  70
0
  0
VERTEX
  8
a
  10
1.6858
  20
12.84411
  30
0.0
  70
0
  0
VERTEX
  8
a
  10
1.74363
  20
12.87925
  30
0.0
  70
0
  0
VERTEX
  8
a
  10
1.79829
  20
12.92143
  30
0.0
  70
0
  0
VERTEX
  8
a
  10
1.84969
  20
12.971
  30
0.0
  70
0
  0
VERTEX
  8
a
  10
1.873
  20
13.00124
  30
0.0
  70
0
  0
VERTEX
  8
a
  10
1.89316
  20
13.0388
  30
0.0
  70
0
  0
VERTEX
  8
a
  10
1.89607
  20
13.11674
  30
0.0
  70
0
  0
VERTEX
  8
a
  10
1.63573
  20
13.83569
  30
0.0
  70
0
  0
VERTEX
  8
a
  10
1.58359
  20
13.89369
  30
0.0
  70
0
  0
VERTEX
  8
a
  10
1.54406
  20
13.90964
  30
0.0
  70
0
  0
VERTEX
  8
a
  10
1.50679
  20
13.91794
  30
0.0
  70
0
  0
VERTEX
  8
a
  10
1.43557
  20
13.92311
  30
0.0
  70
0
  0
VERTEX
  8
a
  10
1.36657
  20
13.92051
  30
0.0
  70
0
  0
VERTEX
  8
a
  10
1.29966
  20
13.91048
  30
0.0
  70
0
  0
VERTEX
  8
a
  10
1.16271
  20
13.90199
  30
0.0
  70
0
  0
VERTEX
  8
a
  10
1.02296
  20
13.90441
  30
0.0
  70
0
  0
VERTEX
  8
a
  10
0.8811
  20
13.91575
  30
0.0
  70
0
  0
VERTEX
  8
a
  10
0.73754
  20
13.93502
  30
0.0
  70
0
  0
VERTEX
  8
a
  10
0.59257
  20
13.96162
  30
0.0
  70
0
  0
VERTEX
  8
a
  10
0.44644
  20
13.99516
  30
0.0
  70
0
  0
VERTEX
  8
a
  10
0.29937
  20
14.03535
  30
0.0
  70
0
  0
VERTEX
  8
a
  10
0.18857
  20
14.06974
  30
0.0
  70
0
  0
VERTEX
  8
a
  10
0.05075
  20
14.9097
  30
0.0
  70
0
  0
VERTEX
  8
a
  10
0.14476
  20
14.97768
  30
0.0
  70
0
  0
VERTEX
  8
a
  10
0.27128
  20
15.06277
  30
0.0
  70
0
  0
VERTEX
  8
a
  10
0.39902
  20
15.14124
  30
0.0
  70
0
  0
VERTEX
  8
a
  10
0.52789
  20
15.21277
  30
0.0
  70
0
  0
VERTEX
  8
a
  10
0.65777
  20
15.2769
  30
0.0
  70
0
  0
VERTEX
  8
a
  10
0.78857
  20
15.33297
  30
0.0
  70
0
  0
VERTEX
  8
a
  10
0.92022
  20
15.37993
  30
0.0
  70
0
  0
VERTEX
  8
a
  10
1.0527
  20
15.41564
  30
0.0
  70
0
  0
VERTEX
  8
a
  10
1.11932
  20
15.42752
  30
0.0
  70
0
  0
VERTEX
  8
a
  10
1.18552
  20
15.4471
  30
0.0
  70
0
  0
VERTEX
  8
a
  10
1.25136
  20
15.47476
  30
0.0
  70
0
  0
VERTEX
  8
a
  10
1.28402
  20
15.49454
  30
0.0
  70
0
  0
VERTEX
  8
a
  10
1.31639
  20
15.52228
  30
0.0
  70
0
  0
VERTEX
  8
a
  10
1.34725
  20
15.5939
  30
0.0
  70
0
  0
VERTEX
  8
a
  10
1.36421
  20
16.35835
  30
0.0
  70
0
  0
VERTEX
  8
a
  10
1.33655
  20
16.43127
  30
0.0
  70
0
  0
VERTEX
  8
a
  10
1.30545
  20
16.46042
  30
0.0
  70
0
  0
VERTEX
  8
a
  10
1.27369
  20
16.48162
  30
0.0
  70
0
  0
VERTEX
  8
a
  10
1.20914
  20
16.51218
  30
0.0
  70
0
  0
VERTEX
  8
a
  10
1.14387
  20
16.53468
  30
0.0
  70
0
  0
VERTEX
  8
a
  10
1.07785
  20
16.5495
  30
0.0
  70
0
  0
VERTEX
  8
a
  10
0.94708
  20
16.59105
  30
0.0
  70
0
  0
VERTEX
  8
a
  10
0.81765
  20
16.64379
  30
0.0
  70
0
  0
VERTEX
  8
a
  10
0.68946
  20
16.70561
  30
0.0
  70
0
  0
VERTEX
  8
a
  10
0.56255
  20
16.77544
  30
0.0
  70
0
  0
VERTEX
  8
a
  10
0.43698
  20
16.85261
  30
0.0
  70
0
  0
VERTEX
  8
a
  10
0.31284
  20
16.93667
  30
0.0
  70
0
  0
VERTEX
  8
a
  10
0.19022
  20
17.02728
  30
0.0
  70
0
  0
VERTEX
  8
a
  10
0.09932
  20
17.09937
  30
0.0
  70
0
  0
VERTEX
  8
a
  10
0.27424
  20
17.93239
  30
0.0
  70
0
  0
VERTEX
  8
a
  10
0.38646
  20
17.96183
  30
0.0
  70
0
  0
VERTEX
  8
a
  10
0.53517
  20
17.99546
  30
0.0
  70
0
  0
VERTEX
  8
a
  10
0.68264
  20
18.02249
  30
0.0
  70
0
  0
VERTEX
  8
a
  10
0.82864
  20
18.04264
  30
0.0
  70
0
  0
VERTEX
  8
a
  10
0.97292
  20
18.05552
  30
0.0
  70
0
  0
VERTEX
  8
a
  10
1.11514
  20
18.06056
  30
0.0
  70
0
  0
VERTEX
  8
a
  10
1.25486
  20
18.05678
  30
0.0
  70
0
  0
VERTEX
  8
a
  10
1.3913
  20
18.04223
  30
0.0
  70
0
  0
VERTEX
  8
a
  10
1.4577
  20
18.02924
  30
0.0
  70
0
  0
VERTEX
  8
a
  10
1.52651
  20
18.02358
  30
0.0
  70
0
  0
VERTEX
  8
a
  10
1.5979
  20
18.0256
  30
0.0
  70
0
  0
VERTEX
  8
a
  10
1.6355
  20
18.03223
  30
0.0
  70
0
  0
VERTEX
  8
a
  10
1.6757
  20
18.04641
  30
0.0
  70
0
  0
VERTEX
  8
a
  10
1.73035
  20
18.10205
  30
0.0
  70
0
  0
VERTEX
  8
a
  10
2.02231
  20
18.80875
  30
0.0
  70
0
  0
VERTEX
  8
a
  10
2.02286
  20
18.88674
  30
0.0
  70
0
  0
VERTEX
  8
a
  10
2.00439
  20
18.92515
  30
0.0
  70
0
  0
VERTEX
  8
a
  10
1.98244
  20
18.9564
  30
0.0
  70
0
  0
VERTEX
  8
a
  10
1.93329
  20
19.0082
  30
0.0
  70
0
  0
VERTEX
  8
a
  10
1.88055
  20
19.05276
  30
0.0
  70
0
  0
VERTEX
  8
a
  10
1.82435
  20
19.09043
  30
0.0
  70
0
  0
VERTEX
  8
a
  10
1.71742
  20
19.17642
  30
0.0
  70
0
  0
VERTEX
  8
a
  10
1.61578
  20
19.27236
  30
0.0
  70
0
  0
VERTEX
  8
a
  10
1.51858
  20
19.3763
  30
0.0
  70
0
  0
VERTEX
  8
a
  10
1.42546
  20
19.48726
  30
0.0
  70
0
  0
VERTEX
  8
a
  10
1.33625
  20
19.60459
  30
0.0
  70
0
  0
VERTEX
  8
a
  10
1.25086
  20
19.72782
  30
0.0
  70
0
  0
VERTEX
  8
a
  10
1.16925
  20
19.8566
  30
0.0
  70
0
  0
VERTEX
  8
a
  10
1.11053
  20
19.95666
  30
0.0
  70
0
  0
VERTEX
  8
a
  10
1.57456
  20
20.67024
  30
0.0
  70
0
  0
VERTEX
  8
a
  10
1.68983
  20
20.65715
  30
0.0
  70
0
  0
VERTEX
  8
a
  10
1.84065
  20
20.63479
  30
0.0
  70
0
  0
VERTEX
  8
a
  10
1.98792
  20
20.60672
  30
0.0
  70
0
  0
VERTEX
  8
a
  10
2.13135
  20
20.57277
  30
0.0
  70
0
  0
VERTEX
  8
a
  10
2.27054
  20
20.53266
  30
0.0
  70
0
  0
VERTEX
  8
a
  10
2.40498
  20
20.48598
  30
0.0
  70
0
  0
VERTEX
  8
a
  10
2.5339
  20
20.43199
  30
0.0
  70
0
  0
VERTEX
  8
a
  10
2.65586
  20
20.36913
  30
0.0
  70
0
  0
VERTEX
  8
a
  10
2.71309
  20
20.33303
  30
0.0
  70
0
  0
VERTEX
  8
a
  10
2.77521
  20
20.3029
  30
0.0
  70
0
  0
VERTEX
  8
a
  10
2.8425
  20
20.27899
  30
0.0
  70
0
  0
VERTEX
  8
a
  10
2.87996
  20
20.2716
  30
0.0
  70
0
  0
VERTEX
  8
a
  10
2.92257
  20
20.27029
  30
0.0
  70
0
  0
VERTEX
  8
a
  10
2.99363
  20
20.30243
  30
0.0
  70
0
  0
VERTEX
  8
a
  10
3.52116
  20
20.85594
  30
0.0
  70
0
  0
VERTEX
  8
a
  10
3.54985
  20
20.92846
  30
0.0
  70
0
  0
VERTEX
  8
a
  10
3.54651
  20
20.97096
  30
0.0
  70
0
  0
VERTEX
  8
a
  10
3.53732
  20
21.00802
  30
0.0
  70
0
  0
VERTEX
  8
a
  10
3.5102
  20
21.07409
  30
0.0
  70
0
  0
VERTEX
  8
a
  10
3.47713
  20
21.13469
  30
0.0
  70
0
  0
VERTEX
  8
a
  10
3.43832
  20
21.19012
  30
0.0
  70
0
  0
VERTEX
  8
a
  10
3.36968
  20
21.30892
  30
0.0
  70
0
  0
VERTEX
  8
a
  10
3.30955
  20
21.4351
  30
0.0
  70
0
  0
VERTEX
  8
a
  10
3.25647
  20
21.56714
  30
0.0
  70
0
  0
VERTEX
  8
a
  10
3.20972
  20
21.70424
  30
0.0
  70
0
  0
VERTEX
  8
a
  10
3.16892
  20
21.84587
  30
0.0
  70
0
  0
VERTEX
  8
a
  10
3.13381
  20
21.99163
  30
0.0
  70
0
  0
VERTEX
  8
a
  10
3.10423
  20
22.1412
  30
0.0
  70
0
  0
VERTEX
  8
a
  10
3.08562
  20
22.25571
  30
0.0
  70
0
  0
VERTEX
  8
a
  10
3.7761
  20
22.75348
  30
0.0
  70
0
  0
VERTEX
  8
a
  10
3.87886
  20
22.69963
  30
0.0
  70
0
  0
VERTEX
  8
a
  10
4.01141
  20
22.6243
  30
0.0
  70
0
  0
VERTEX
  8
a
  10
4.1386
  20
22.54493
  30
0.0
  70
0
  0
VERTEX
  8
a
  10
4.26008
  20
22.46145
  30
0.0
  70
0
  0
VERTEX
  8
a
  10
4.37538
  20
22.37377
  30
0.0
  70
0
  0
VERTEX
  8
a
  10
4.48387
  20
22.28168
  30
0.0
  70
0
  0
VERTEX
  8
a
  10
4.58458
  20
22.18476
  30
0.0
  70
0
  0
VERTEX
  8
a
  10
4.67561
  20
22.08209
  30
0.0
  70
0
  0
VERTEX
  8
a
  10
4.71593
  20
22.02775
  30
0.0
  70
0
  0
VERTEX
  8
a
  10
4.76297
  20
21.97722
  30
0.0
  70
0
  0
VERTEX
  8
a
  10
4.81708
  20
21.93061
  30
0.0
  70
0
  0
VERTEX
  8
a
  10
4.84934
  20
21.91019
  30
0.0
  70
0
  0
VERTEX
  8
a
  10
4.8886
  20
21.89358
  30
0.0
  70
0
  0
VERTEX
  8
a
  10
4.96647
  20
21.89788
  30
0.0
  70
0
  0
VERTEX
  8
a
  10
5.65833
  20
22.22344
  30
0.0
  70
0
  0
VERTEX
  8
a
  10
5.71128
  20
22.28071
  30
0.0
  70
0
  0
VERTEX
  8
a
  10
5.72351
  20
22.32154
  30
0.0
  70
0
  0
VERTEX
  8
a
  10
5.72834
  20
22.35942
  30
0.0
  70
0
  0
VERTEX
  8
a
  10
5.72692
  20
22.43082
  30
0.0
  70
0
  0
VERTEX
  8
a
  10
5.71796
  20
22.49928
  30
0.0
  70
0
  0
VERTEX
  8
a
  10
5.7018
  20
22.56498
  30
0.0
  70
0
  0
VERTEX
  8
a
  10
5.68071
  20
22.70056
  30
0.0
  70
0
  0
VERTEX
  8
a
  10
5.67023
  20
22.83994
  30
0.0
  70
0
  0
VERTEX
  8
a
  10
5.66843
  20
22.98224
  30
0.0
  70
0
  0
VERTEX
  8
a
  10
5.67437
  20
23.12697
  30
0.0
  70
0
  0
VERTEX
  8
a
  10
5.68748
  20
23.27377
  30
0.0
  70
0
  0
VERTEX
  8
a
  10
5.70739
  20
23.42237
  30
0.0
  70
0
  0
VERTEX
  8
a
  10
5.73384
  20
23.57252
  30
0.0
  70
0
  0
VERTEX
  8
a
  10
5.75786
  20
23.68602
  30
0.0
  70
0
  0
VERTEX
  8
a
  10
6.58152
  20
23.90075
  30
0.0
  70
0
  0
VERTEX
  8
a
  10
6.65789
  20
23.81342
  30
0.0
  70
0
  0
VERTEX
  8
a
  10
6.75428
  20
23.69529
  30
0.0
  70
0
  0
VERTEX
  8
a
  10
6.84421
  20
23.57533
  30
0.0
  70
0
  0
VERTEX
  8
a
  10
6.92732
  20
23.45361
  30
0.0
  70
0
  0
VERTEX
  8
a
  10
7.00317
  20
23.3302
  30
0.0
  70
0
  0
VERTEX
  8
a
  10
7.07107
  20
23.20513
  30
0.0
  70
0
  0
VERTEX
  8
a
  10
7.12997
  20
23.07838
  30
0.0
  70
0
  0
VERTEX
  8
a
  10
7.17775
  20
22.94976
  30
0.0
  70
0
  0
VERTEX
  8
a
  10
7.19573
  20
22.88453
  30
0.0
  70
0
  0
VERTEX
  8
a
  10
7.22134
  20
22.82041
  30
0.0
  70
0
  0
VERTEX
  8
a
  10
7.25495
  20
22.75741
  30
0.0
  70
0
  0
VERTEX
  8
a
  10
7.27766
  20
22.72671
  30
0.0
  70
0
  0
VERTEX
  8
a
  10
7.30827
  20
22.69704
  30
0.0
  70
0
  0
VERTEX
  8
a
  10
7.38243
  20
22.67292
  30
0.0
  70
0
  0
VERTEX
  8
a
  10
8.14518
  20
22.72657
  30
0.0
  70
0
  0
VERTEX
  8
a
  10
8.21524
  20
22.76084
  30
0.0
  70
0
  0
VERTEX
  8
a
  10
8.2414
  20
22.7945
  30
0.0
  70
0
  0
VERTEX
  8
a
  10
8.25958
  20
22.82807
  30
0.0
  70
0
  0
VERTEX
  8
a
  10
8.28405
  20
22.89516
  30
0.0
  70
0
  0
VERTEX
  8
a
  10
8.30043
  20
22.96223
  30
0.0
  70
0
  0
VERTEX
  8
a
  10
8.30909
  20
23.02934
  30
0.0
  70
0
  0
VERTEX
  8
a
  10
8.3384
  20
23.16338
  30
0.0
  70
0
  0
VERTEX
  8
a
  10
8.37898
  20
23.29713
  30
0.0
  70
0
  0
VERTEX
  8
a
  10
8.4287
  20
23.43047
  30
0.0
  70
0
  0
VERTEX
  8
a
  10
8.48652
  20
23.56329
  30
0.0
  70
0
  0
VERTEX
  8
a
  10
8.55178
  20
23.69544
  30
0.0
  70
0
  0
VERTEX
  8
a
  10
8.62403
  20
23.82681
  30
0.0
  70
0
  0
VERTEX
  8
a
  10
8.70294
  20
23.95727
  30
0.0
  70
0
  0
VERTEX
  8
a
  10
8.76633
  20
24.05443
  30
0.0
  70
0
  0
VERTEX
  8
a
  10
9.61194
  20
23.95712
  30
0.0
  70
0
  0
VERTEX
  8
a
  10
9.65161
  20
23.84809
  30
0.0
  70
0
  0
VERTEX
  8
a
  10
9.69882
  20
23.70313
  30
0.0
  70
0
  0
VERTEX
  8
a
  10
9.73934
  20
23.55878
  30
0.0
  70
0
  0
VERTEX
  8
a
  10
9.77287
  20
23.41525
  30
0.0
  70
0
  0
VERTEX
  8
a
  10
9.79901
  20
23.27278
  30
0.0
  70
0
  0
VERTEX
  8
a
  10
9.81715
  20
23.13163
  30
0.0
  70
0
  0
VERTEX
  8
a
  10
9.82628
  20
22.99216
  30
0.0
  70
0
  0
VERTEX
  8
a
  10
9.82438
  20
22.85496
  30
0.0
  70
0
  0
VERTEX
  8
a
  10
9.81757
  20
22.78764
  30
0.0
  70
0
  0
VERTEX
  8
a
  10
9.81829
  20
22.7186
  30
0.0
  70
0
  0
VERTEX
  8
a
  10
9.82688
  20
22.64771
  30
0.0
  70
0
  0
VERTEX
  8
a
  10
9.83696
  20
22.61088
  30
0.0
  70
0
  0
VERTEX
  8
a
  10
9.85478
  20
22.57216
  30
0.0
  70
0
  0
VERTEX
  8
a
  10
9.91523
  20
22.52287
  30
0.0
  70
0
  0
VERTEX
  8
a
  10
10.64585
  20
22.29736
  30
0.0
  70
0
  0
VERTEX
  8
a
  10
10.72356
  20
22.30401
  30
0.0
  70
0
  0
VERTEX
  8
a
  10
10.76011
  20
22.32595
  30
0.0
  70
0
  0
VERTEX
  8
a
  10
10.78919
  20
22.35069
  30
0.0
  70
0
  0
VERTEX
  8
a
  10
10.83624
  20
22.40441
  30
0.0
  70
0
  0
VERTEX
  8
a
  10
10.87574
  20
22.46103
  30
0.0
  70
0
  0
VERTEX
  8
a
  10
10.90806
  20
22.52048
  30
0.0
  70
0
  0
VERTEX
  8
a
  10
10.98382
  20
22.63488
  30
0.0
  70
0
  0
VERTEX
  8
a
  10
11.06997
  20
22.74494
  30
0.0
  70
0
  0
VERTEX
  8
a
  10
11.16451
  20
22.85132
  30
0.0
  70
0
  0
VERTEX
  8
a
  10
11.2664
  20
22.95427
  30
0.0
  70
0
  0
VERTEX
  8
a
  10
11.37499
  20
23.05393
  30
0.0
  70
0
  0
VERTEX
  8
a
  10
11.48982
  20
23.15033
  30
0.0
  70
0
  0
VERTEX
  8
a
  10
11.61052
  20
23.24347
  30
0.0
  70
0
  0
VERTEX
  8
a
  10
11.70473
  20
23.31117
  30
0.0
  70
0
  0
VERTEX
  8
a
  10
12.45809
  20
22.91496
  30
0.0
  70
0
  0
VERTEX
  8
a
  10
12.45569
  20
22.79897
  30
0.0
  70
0
  0
VERTEX
  8
a
  10
12.44734
  20
22.64674
  30
0.0
  70
0
  0
VERTEX
  8
a
  10
12.43298
  20
22.4975
  30
0.0
  70
0
  0
VERTEX
  8
a
  10
12.41241
  20
22.35155
  30
0.0
  70
0
  0
VERTEX
  8
a
  10
12.38531
  20
22.20926
  30
0.0
  70
0
  0
VERTEX
  8
a
  10
12.35123
  20
22.07109
  30
0.0
  70
0
  0
VERTEX
  8
a
  10
12.30937
  20
21.93774
  30
0.0
  70
0
  0
VERTEX
  8
a
  10
12.25803
  20
21.81049
  30
0.0
  70
0
  0
VERTEX
  8
a
  10
12.22737
  20
21.75017
  30
0.0
  70
0
  0
VERTEX
  8
a
  10
12.2031
  20
21.68554
  30
0.0
  70
0
  0
VERTEX
  8
a
  10
12.1855
  20
21.61633
  30
0.0
  70
0
  0
VERTEX
  8
a
  10
12.18159
  20
21.57835
  30
0.0
  70
0
  0
VERTEX
  8
a
  10
12.18423
  20
21.5358
  30
0.0
  70
0
  0
VERTEX
  8
a
  10
12.22278
  20
21.46801
  30
0.0
  70
0
  0
VERTEX
  8
a
  10
12.82261
  20
20.9938
  30
0.0
  70
0
  0
VERTEX
  8
a
  10
12.89747
  20
20.97192
  30
0.0
  70
0
  0
VERTEX
  8
a
  10
12.93947
  20
20.97918
  30
0.0
  70
0
  0
VERTEX
  8
a
  10
12.97553
  20
20.99174
  30
0.0
  70
0
  0
VERTEX
  8
a
  10
13.03881
  20
21.02484
  30
0.0
  70
0
  0
VERTEX
  8
a
  10
13.0961
  20
21.06337
  30
0.0
  70
0
  0
VERTEX
  8
a
  10
13.14771
  20
21.10712
  30
0.0
  70
0
  0
VERTEX
  8
a
  10
13.25968
  20
21.18643
  30
0.0
  70
0
  0
VERTEX
  8
a
  10
13.37977
  20
21.25794
  30
0.0
  70
0
  0
VERTEX
  8
a
  10
13.50635
  20
21.32298
  30
0.0
  70
0
  0
VERTEX
  8
a
  10
13.63855
  20
21.38218
  30
0.0
  70
0
  0
VERTEX
  8
a
  10
13.77581
  20
21.43588
  30
0.0
  70
0
  0
VERTEX
  8
a
  10
13.91771
  20
21.48429
  30
0.0
  70
0
  0
VERTEX
  8
a
  10
14.06391
  20
21.52754
  30
0.0
  70
0
  0
VERTEX
  8
a
  10
14.17622
  20
21.55663
  30
0.0
  70
0
  0
VERTEX
  8
a
  10
14.73557
  20
20.91504
  30
0.0
  70
0
  0
VERTEX
  8
a
  10
14.69144
  20
20.80774
  30
0.0
  70
0
  0
VERTEX
  8
a
  10
14.62866
  20
20.6688
  30
0.0
  70
0
  0
VERTEX
  8
a
  10
14.56136
  20
20.53483
  30
0.0
  70
0
  0
VERTEX
  8
a
  10
14.48945
  20
20.40618
  30
0.0
  70
0
  0
VERTEX
  8
a
  10
14.41278
  20
20.28328
  30
0.0
  70
0
  0
VERTEX
  8
a
  10
14.33109
  20
20.16674
  30
0.0
  70
0
  0
VERTEX
  8
a
  10
14.24388
  20
20.05752
  30
0.0
  70
0
  0
VERTEX
  8
a
  10
14.15004
  20
19.95741
  30
0.0
  70
0
  0
VERTEX
  8
a
  10
14.09966
  20
19.91225
  30
0.0
  70
0
  0
VERTEX
  8
a
  10
14.05368
  20
19.86074
  30
0.0
  70
0
  0
VERTEX
  8
a
  10
14.01227
  20
19.80257
  30
0.0
  70
0
  0
VERTEX
  8
a
  10
13.9949
  20
19.76856
  30
0.0
  70
0
  0
VERTEX
  8
a
  10
13.98199
  20
19.72794
  30
0.0
  70
0
  0
VERTEX
  8
a
  10
13.99346
  20
19.65079
  30
0.0
  70
0
  0
VERTEX
  8
a
  10
14.38147
  20
18.99192
  30
0.0
  70
0
  0
VERTEX
  8
a
  10
14.44337
  20
18.94448
  30
0.0
  70
0
  0
VERTEX
  8
a
  10
14.48516
  20
18.93607
  30
0.0
  70
0
  0
VERTEX
  8
a
  10
14.52332
  20
18.93476
  30
0.0
  70
0
  0
VERTEX
  8
a
  10
14.59428
  20
18.94276
  30
0.0
  70
0
  0
VERTEX
  8
a
  10
14.66163
  20
18.958
  30
0.0
  70
0
  0
VERTEX
  8
a
  10
14.72556
  20
18.98015
  30
0.0
  70
0
  0
VERTEX
  8
a
  10
14.85861
  20
19.01366
  30
0.0
  70
0
  0
VERTEX
  8
a
  10
14.99643
  20
19.03696
  30
0.0
  70
0
  0
VERTEX
  8
a
  10
15.13796
  20
19.05188
  30
0.0
  70
0
  0
VERTEX
  8
a
  10
15.28262
  20
19.05932
  30
0.0
  70
0
  0
VERTEX
  8
a
  10
15.43001
  20
19.05981
  30
0.0
  70
0
  0
VERTEX
  8
a
  10
15.57981
  20
19.0537
  30
0.0
  70
0
  0
VERTEX
  8
a
  10
15.73176
  20
19.04121
  30
0.0
  70
0
  0
VERTEX
  8
a
  10
15.84699
  20
19.02777
  30
0.0
  70
0
  0
VERTEX
  8
a
  10
16.1368
  20
18.22744
  30
0.0
  70
0
  0
VERTEX
  8
a
  10
16.05689
  20
18.14333
  30
0.0
  70
0
  0
VERTEX
  8
a
  10
15.94816
  20
18.03645
  30
0.0
  70
0
  0
VERTEX
  8
a
  10
15.83701
  20
17.93584
  30
0.0
  70
0
  0
VERTEX
  8
a
  10
15.72348
  20
17.84185
  30
0.0
  70
0
  0
VERTEX
  8
a
  10
15.60759
  20
17.75494
  30
0.0
  70
0
  0
VERTEX
  8
a
  10
15.48932
  20
17.67579
  30
0.0
  70
0
  0
VERTEX
  8
a
  10
15.36854
  20
17.60545
  30
0.0
  70
0
  0
VERTEX
  8
a
  10
15.24488
  20
17.546
  30
0.0
  70
0
  0
VERTEX
  8
a
  10
15.18159
  20
17.52208
  30
0.0
  70
0
  0
VERTEX
  8
a
  10
15.1201
  20
17.49067
  30
0.0
  70
0
  0
VERTEX
  8
a
  10
15.06047
  20
17.45138
  30
0.0
  70
0
  0
VERTEX
  8
a
  10
15.032
  20
17.42594
  30
0.0
  70
0
  0
VERTEX
  8
a
  10
15.00528
  20
17.39272
  30
0.0
  70
0
  0
VERTEX
  8
a
  10
14.9881
  20
17.31665
  30
0.0
  70
0
  0
SEQEND
  0
CIRCLE
  8
a
  10
8.2475
  20
15.82327
  30
0.0
  40
3.5
 0
LINE
 8
a
 10
5.49833
 20
15.82327
 30
0
 11
10.99666
 21
15.82327
 31
 0
 0
LINE
 8
a
 10
8.2475
 20
13.07411
 30
0
 11
8.2475
 21
18.57244
 31
 0
  0
POLYLINE
  8
a
  66
1
  10
0.0
  20
0.0
  70
1
  0
VERTEX
  8
a
  10
16.49858
  20
16.14587
  30
0.0
  70
0
  0
VERTEX
  8
a
  10
16.44287
  20
16.15809
  30
0.0
  70
0
  0
VERTEX
  8
a
  10
16.38719
  20
16.17144
  30
0.0
  70
0
  0
VERTEX
  8
a
  10
16.27594
  20
16.20124
  30
0.0
  70
0
  0
VERTEX
  8
a
  10
16.05392
  20
16.27178
  30
0.0
  70
0
  0
VERTEX
  8
a
  10
15.83261
  20
16.35516
  30
0.0
  70
0
  0
VERTEX
  8
a
  10
15.61214
  20
16.45005
  30
0.0
  70
0
  0
VERTEX
  8
a
  10
15.39266
  20
16.55558
  30
0.0
  70
0
  0
VERTEX
  8
a
  10
15.17428
  20
16.67115
  30
0.0
  70
0
  0
VERTEX
  8
a
  10
15.24548
  20
17.54481
  30
0.0
  70
0
  0
VERTEX
  8
a
  10
15.47968
  20
17.62349
  30
0.0
  70
0
  0
VERTEX
  8
a
  10
15.71336
  20
17.6921
  30
0.0
  70
0
  0
VERTEX
  8
a
  10
15.94628
  20
17.75004
  30
0.0
  70
0
  0
VERTEX
  8
a
  10
16.17817
  20
17.79648
  30
0.0
  70
0
  0
VERTEX
  8
a
  10
16.40868
  20
17.83015
  30
0.0
  70
0
  0
VERTEX
  8
a
  10
16.52329
  20
17.84155
  30
0.0
  70
0
  0
VERTEX
  8
a
  10
16.5804
  20
17.84571
  30
0.0
  70
0
  0
VERTEX
  8
a
  10
16.63735
  20
17.84874
  30
0.0
  70
0
  0
VERTEX
  8
a
  10
16.80435
  20
18.80038
  30
0.0
  70
0
  0
VERTEX
  8
a
  10
16.75183
  20
18.82263
  30
0.0
  70
0
  0
VERTEX
  8
a
  10
16.69955
  20
18.84598
  30
0.0
  70
0
  0
VERTEX
  8
a
  10
16.59567
  20
18.89572
  30
0.0
  70
0
  0
VERTEX
  8
a
  10
16.39039
  20
19.00586
  30
0.0
  70
0
  0
VERTEX
  8
a
  10
16.18817
  20
19.12848
  30
0.0
  70
0
  0
VERTEX
  8
a
  10
15.98889
  20
19.26226
  30
0.0
  70
0
  0
VERTEX
  8
a
  10
15.79253
  20
19.40633
  30
0.0
  70
0
  0
VERTEX
  8
a
  10
15.59911
  20
19.56005
  30
0.0
  70
0
  0
VERTEX
  8
a
  10
15.82963
  20
20.40576
  30
0.0
  70
0
  0
VERTEX
  8
a
  10
16.07431
  20
20.44006
  30
0.0
  70
0
  0
VERTEX
  8
a
  10
16.31661
  20
20.46456
  30
0.0
  70
0
  0
VERTEX
  8
a
  10
16.55621
  20
20.47872
  30
0.0
  70
0
  0
VERTEX
  8
a
  10
16.79269
  20
20.48176
  30
0.0
  70
0
  0
VERTEX
  8
a
  10
17.02546
  20
20.4725
  30
0.0
  70
0
  0
VERTEX
  8
a
  10
17.14021
  20
20.46264
  30
0.0
  70
0
  0
VERTEX
  8
a
  10
17.19711
  20
20.45624
  30
0.0
  70
0
  0
VERTEX
  8
a
  10
17.25366
  20
20.44875
  30
0.0
  70
0
  0
VERTEX
  8
a
  10
17.59267
  20
21.35351
  30
0.0
  70
0
  0
VERTEX
  8
a
  10
17.54513
  20
21.38502
  30
0.0
  70
0
  0
VERTEX
  8
a
  10
17.49803
  20
21.41759
  30
0.0
  70
0
  0
VERTEX
  8
a
  10
17.40506
  20
21.48557
  30
0.0
  70
0
  0
VERTEX
  8
a
  10
17.22351
  20
21.63155
  30
0.0
  70
0
  0
VERTEX
  8
a
  10
17.04727
  20
21.78924
  30
0.0
  70
0
  0
VERTEX
  8
a
  10
16.87597
  20
21.95736
  30
0.0
  70
0
  0
VERTEX
  8
a
  10
16.70943
  20
22.13506
  30
0.0
  70
0
  0
VERTEX
  8
a
  10
16.54755
  20
22.3217
  30
0.0
  70
0
  0
VERTEX
  8
a
  10
16.92954
  20
23.11065
  30
0.0
  70
0
  0
VERTEX
  8
a
  10
17.17635
  20
23.09942
  30
0.0
  70
0
  0
VERTEX
  8
a
  10
17.41903
  20
23.07898
  30
0.0
  70
0
  0
VERTEX
  8
a
  10
17.65715
  20
23.04886
  30
0.0
  70
0
  0
VERTEX
  8
a
  10
17.89016
  20
23.00841
  30
0.0
  70
0
  0
VERTEX
  8
a
  10
18.11727
  20
22.95652
  30
0.0
  70
0
  0
VERTEX
  8
a
  10
18.22826
  20
22.92575
  30
0.0
  70
0
  0
VERTEX
  8
a
  10
18.28301
  20
22.909
  30
0.0
  70
0
  0
VERTEX
  8
a
  10
18.33721
  20
22.89125
  30
0.0
  70
0
  0
VERTEX
  8
a
  10
18.83671
  20
23.71831
  30
0.0
  70
0
  0
VERTEX
  8
a
  10
18.79577
  20
23.75802
  30
0.0
  70
0
  0
VERTEX
  8
a
  10
18.75546
  20
23.79869
  30
0.0
  70
0
  0
VERTEX
  8
a
  10
18.67656
  20
23.88259
  30
0.0
  70
0
  0
VERTEX
  8
a
  10
18.52492
  20
24.05945
  30
0.0
  70
0
  0
VERTEX
  8
a
  10
18.38066
  20
24.24684
  30
0.0
  70
0
  0
VERTEX
  8
a
  10
18.24317
  20
24.44358
  30
0.0
  70
0
  0
VERTEX
  8
a
  10
18.11211
  20
24.64885
  30
0.0
  70
0
  0
VERTEX
  8
a
  10
17.98728
  20
24.86206
  30
0.0
  70
0
  0
VERTEX
  8
a
  10
18.50774
  20
25.56739
  30
0.0
  70
0
  0
VERTEX
  8
a
  10
18.74828
  20
25.51099
  30
0.0
  70
0
  0
VERTEX
  8
a
  10
18.98308
  20
25.4463
  30
0.0
  70
0
  0
VERTEX
  8
a
  10
19.21161
  20
25.37295
  30
0.0
  70
0
  0
VERTEX
  8
a
  10
19.43322
  20
25.29037
  30
0.0
  70
0
  0
VERTEX
  8
a
  10
19.64693
  20
25.19764
  30
0.0
  70
0
  0
VERTEX
  8
a
  10
19.75037
  20
25.14699
  30
0.0
  70
0
  0
VERTEX
  8
a
  10
19.80111
  20
25.12047
  30
0.0
  70
0
  0
VERTEX
  8
a
  10
19.85113
  20
25.09306
  30
0.0
  70
0
  0
VERTEX
  8
a
  10
20.49409
  20
25.81425
  30
0.0
  70
0
  0
VERTEX
  8
a
  10
20.46114
  20
25.86082
  30
0.0
  70
0
  0
VERTEX
  8
a
  10
20.42899
  20
25.90819
  30
0.0
  70
0
  0
VERTEX
  8
a
  10
20.36686
  20
26.00517
  30
0.0
  70
0
  0
VERTEX
  8
a
  10
20.2503
  20
26.20687
  30
0.0
  70
0
  0
VERTEX
  8
a
  10
20.14292
  20
26.41758
  30
0.0
  70
0
  0
VERTEX
  8
a
  10
20.04392
  20
26.63623
  30
0.0
  70
0
  0
VERTEX
  8
a
  10
19.95282
  20
26.86209
  30
0.0
  70
0
  0
VERTEX
  8
a
  10
19.86929
  20
27.09461
  30
0.0
  70
0
  0
VERTEX
  8
a
  10
20.51049
  20
27.69229
  30
0.0
  70
0
  0
VERTEX
  8
a
  10
20.73658
  20
27.59266
  30
0.0
  70
0
  0
VERTEX
  8
a
  10
20.95549
  20
27.48593
  30
0.0
  70
0
  0
VERTEX
  8
a
  10
21.16665
  20
27.37183
  30
0.0
  70
0
  0
VERTEX
  8
a
  10
21.36931
  20
27.24993
  30
0.0
  70
0
  0
VERTEX
  8
a
  10
21.56234
  20
27.11951
  30
0.0
  70
0
  0
VERTEX
  8
a
  10
21.65471
  20
27.05073
  30
0.0
  70
0
  0
VERTEX
  8
a
  10
21.69972
  20
27.01533
  30
0.0
  70
0
  0
VERTEX
  8
a
  10
21.74385
  20
26.9792
  30
0.0
  70
0
  0
VERTEX
  8
a
  10
22.50838
  20
27.56997
  30
0.0
  70
0
  0
VERTEX
  8
a
  10
22.48455
  20
27.62179
  30
0.0
  70
0
  0
VERTEX
  8
a
  10
22.46166
  20
27.67427
  30
0.0
  70
0
  0
VERTEX
  8
a
  10
22.4184
  20
27.78101
  30
0.0
  70
0
  0
VERTEX
  8
a
  10
22.34089
  20
28.0007
  30
0.0
  70
0
  0
VERTEX
  8
a
  10
22.27406
  20
28.22755
  30
0.0
  70
0
  0
VERTEX
  8
a
  10
22.21692
  20
28.46067
  30
0.0
  70
0
  0
VERTEX
  8
a
  10
22.16887
  20
28.69942
  30
0.0
  70
0
  0
VERTEX
  8
a
  10
22.12949
  20
28.94333
  30
0.0
  70
0
  0
VERTEX
  8
a
  10
22.86959
  20
29.41302
  30
0.0
  70
0
  0
VERTEX
  8
a
  10
23.07352
  20
29.27353
  30
0.0
  70
0
  0
VERTEX
  8
a
  10
23.26909
  20
29.1284
  30
0.0
  70
0
  0
VERTEX
  8
a
  10
23.4557
  20
28.97744
  30
0.0
  70
0
  0
VERTEX
  8
a
  10
23.6325
  20
28.82038
  30
0.0
  70
0
  0
VERTEX
  8
a
  10
23.79829
  20
28.65671
  30
0.0
  70
0
  0
VERTEX
  8
a
  10
23.87645
  20
28.57212
  30
0.0
  70
0
  0
VERTEX
  8
a
  10
23.91418
  20
28.52906
  30
0.0
  70
0
  0
VERTEX
  8
a
  10
23.95093
  20
28.48543
  30
0.0
  70
0
  0
VERTEX
  8
a
  10
24.81099
  20
28.92566
  30
0.0
  70
0
  0
VERTEX
  8
a
  10
24.79709
  20
28.98098
  30
0.0
  70
0
  0
VERTEX
  8
a
  10
24.78422
  20
29.03677
  30
0.0
  70
0
  0
VERTEX
  8
a
  10
24.76131
  20
29.14964
  30
0.0
  70
0
  0
VERTEX
  8
a
  10
24.7255
  20
29.37984
  30
0.0
  70
0
  0
VERTEX
  8
a
  10
24.70149
  20
29.61511
  30
0.0
  70
0
  0
VERTEX
  8
a
  10
24.68816
  20
29.85475
  30
0.0
  70
0
  0
VERTEX
  8
a
  10
24.68479
  20
30.09827
  30
0.0
  70
0
  0
VERTEX
  8
a
  10
24.6909
  20
30.34526
  30
0.0
  70
0
  0
VERTEX
  8
a
  10
25.50471
  20
30.67096
  30
0.0
  70
0
  0
VERTEX
  8
a
  10
25.67954
  20
30.49638
  30
0.0
  70
0
  0
VERTEX
  8
a
  10
25.84511
  20
30.31778
  30
0.0
  70
0
  0
VERTEX
  8
a
  10
26.0008
  20
30.1351
  30
0.0
  70
0
  0
VERTEX
  8
a
  10
26.14573
  20
29.94823
  30
0.0
  70
0
  0
VERTEX
  8
a
  10
26.27862
  20
29.75688
  30
0.0
  70
0
  0
VERTEX
  8
a
  10
26.33991
  20
29.65937
  30
0.0
  70
0
  0
VERTEX
  8
a
  10
26.36909
  20
29.61011
  30
0.0
  70
0
  0
VERTEX
  8
a
  10
26.39719
  20
29.56047
  30
0.0
  70
0
  0
VERTEX
  8
a
  10
27.3235
  20
29.83517
  30
0.0
  70
0
  0
VERTEX
  8
a
  10
27.32
  20
29.8921
  30
0.0
  70
0
  0
VERTEX
  8
a
  10
27.3176
  20
29.94931
  30
0.0
  70
0
  0
VERTEX
  8
a
  10
27.31582
  20
30.06447
  30
0.0
  70
0
  0
VERTEX
  8
a
  10
27.32291
  20
30.29732
  30
0.0
  70
0
  0
VERTEX
  8
a
  10
27.34254
  20
30.533
  30
0.0
  70
0
  0
VERTEX
  8
a
  10
27.37348
  20
30.77101
  30
0.0
  70
0
  0
VERTEX
  8
a
  10
27.41492
  20
31.011
  30
0.0
  70
0
  0
VERTEX
  8
a
  10
27.46631
  20
31.25267
  30
0.0
  70
0
  0
VERTEX
  8
a
  10
28.3261
  20
31.42328
  30
0.0
  70
0
  0
VERTEX
  8
a
  10
28.46587
  20
31.21955
  30
0.0
  70
0
  0
VERTEX
  8
a
  10
28.59581
  20
31.01356
  30
0.0
  70
0
  0
VERTEX
  8
a
  10
28.71528
  20
30.80539
  30
0.0
  70
0
  0
VERTEX
  8
a
  10
28.82341
  20
30.59507
  30
0.0
  70
0
  0
VERTEX
  8
a
  10
28.91888
  20
30.38256
  30
0.0
  70
0
  0
VERTEX
  8
a
  10
28.9612
  20
30.27545
  30
0.0
  70
0
  0
VERTEX
  8
a
  10
28.98083
  20
30.22166
  30
0.0
  70
0
  0
VERTEX
  8
a
  10
28.99933
  20
30.16771
  30
0.0
  70
0
  0
VERTEX
  8
a
  10
29.96035
  20
30.26752
  30
0.0
  70
0
  0
VERTEX
  8
a
  10
29.96737
  20
30.32412
  30
0.0
  70
0
  0
VERTEX
  8
a
  10
29.97553
  20
30.3808
  30
0.0
  70
0
  0
VERTEX
  8
a
  10
29.99494
  20
30.49432
  30
0.0
  70
0
  0
VERTEX
  8
a
  10
30.04469
  20
30.72191
  30
0.0
  70
0
  0
VERTEX
  8
a
  10
30.1073
  20
30.94997
  30
0.0
  70
0
  0
VERTEX
  8
a
  10
30.18144
  20
31.17824
  30
0.0
  70
0
  0
VERTEX
  8
a
  10
30.26627
  20
31.40653
  30
0.0
  70
0
  0
VERTEX
  8
a
  10
30.36119
  20
31.63464
  30
0.0
  70
0
  0
VERTEX
  8
a
  10
31.2377
  20
31.64436
  30
0.0
  70
0
  0
VERTEX
  8
a
  10
31.33765
  20
31.41841
  30
0.0
  70
0
  0
VERTEX
  8
a
  10
31.42753
  20
31.19206
  30
0.0
  70
0
  0
VERTEX
  8
a
  10
31.50671
  20
30.96548
  30
0.0
  70
0
  0
VERTEX
  8
a
  10
31.57435
  20
30.73887
  30
0.0
  70
0
  0
VERTEX
  8
a
  10
31.62914
  20
30.51244
  30
0.0
  70
0
  0
VERTEX
  8
a
  10
31.65107
  20
30.39938
  30
0.0
  70
0
  0
VERTEX
  8
a
  10
31.66048
  20
30.3429
  30
0.0
  70
0
  0
VERTEX
  8
a
  10
31.66875
  20
30.28646
  30
0.0
  70
0
  0
VERTEX
  8
a
  10
32.63175
  20
30.20799
  30
0.0
  70
0
  0
VERTEX
  8
a
  10
32.64905
  20
30.26234
  30
0.0
  70
0
  0
VERTEX
  8
a
  10
32.66748
  20
30.31655
  30
0.0
  70
0
  0
VERTEX
  8
a
  10
32.70742
  20
30.42457
  30
0.0
  70
0
  0
VERTEX
  8
a
  10
32.79815
  20
30.63914
  30
0.0
  70
0
  0
VERTEX
  8
a
  10
32.90159
  20
30.85181
  30
0.0
  70
0
  0
VERTEX
  8
a
  10
33.01642
  20
31.06258
  30
0.0
  70
0
  0
VERTEX
  8
a
  10
33.14175
  20
31.2714
  30
0.0
  70
0
  0
VERTEX
  8
a
  10
33.27697
  20
31.47817
  30
0.0
  70
0
  0
VERTEX
  8
a
  10
34.14034
  20
31.32667
  30
0.0
  70
0
  0
VERTEX
  8
a
  10
34.19707
  20
31.08621
  30
0.0
  70
0
  0
VERTEX
  8
a
  10
34.24383
  20
30.84719
  30
0.0
  70
0
  0
VERTEX
  8
a
  10
34.28003
  20
30.60992
  30
0.0
  70
0
  0
VERTEX
  8
a
  10
34.30488
  20
30.37474
  30
0.0
  70
0
  0
VERTEX
  8
a
  10
34.31713
  20
30.1421
  30
0.0
  70
0
  0
VERTEX
  8
a
  10
34.31791
  20
30.02693
  30
0.0
  70
0
  0
VERTEX
  8
a
  10
34.31678
  20
29.96968
  30
0.0
  70
0
  0
VERTEX
  8
a
  10
34.31454
  20
29.91269
  30
0.0
  70
0
  0
VERTEX
  8
a
  10
35.24672
  20
29.6586
  30
0.0
  70
0
  0
VERTEX
  8
a
  10
35.27371
  20
29.70885
  30
0.0
  70
0
  0
VERTEX
  8
a
  10
35.30179
  20
29.75875
  30
0.0
  70
0
  0
VERTEX
  8
a
  10
35.3609
  20
29.85759
  30
0.0
  70
0
  0
VERTEX
  8
a
  10
35.48951
  20
30.05184
  30
0.0
  70
0
  0
VERTEX
  8
a
  10
35.63027
  20
30.24188
  30
0.0
  70
0
  0
VERTEX
  8
a
  10
35.78187
  20
30.42796
  30
0.0
  70
0
  0
VERTEX
  8
a
  10
35.94344
  20
30.61019
  30
0.0
  70
0
  0
VERTEX
  8
a
  10
36.11435
  20
30.7886
  30
0.0
  70
0
  0
VERTEX
  8
a
  10
36.93518
  20
30.48103
  30
0.0
  70
0
  0
VERTEX
  8
a
  10
36.94677
  20
30.23424
  30
0.0
  70
0
  0
VERTEX
  8
a
  10
36.9488
  20
29.99071
  30
0.0
  70
0
  0
VERTEX
  8
a
  10
36.94079
  20
29.75082
  30
0.0
  70
0
  0
VERTEX
  8
a
  10
36.92201
  20
29.51508
  30
0.0
  70
0
  0
VERTEX
  8
a
  10
36.8913
  20
29.28415
  30
0.0
  70
0
  0
VERTEX
  8
a
  10
36.8709
  20
29.1708
  30
0.0
  70
0
  0
VERTEX
  8
a
  10
36.85927
  20
29.11473
  30
0.0
  70
0
  0
VERTEX
  8
a
  10
36.8466
  20
29.05912
  30
0.0
  70
0
  0
VERTEX
  8
a
  10
37.71622
  20
28.63807
  30
0.0
  70
0
  0
VERTEX
  8
a
  10
37.75198
  20
28.6825
  30
0.0
  70
0
  0
VERTEX
  8
a
  10
37.78876
  20
28.72639
  30
0.0
  70
0
  0
VERTEX
  8
a
  10
37.86502
  20
28.81269
  30
0.0
  70
0
  0
VERTEX
  8
a
  10
38.02713
  20
28.98
  30
0.0
  70
0
  0
VERTEX
  8
a
  10
38.20041
  20
29.14094
  30
0.0
  70
0
  0
VERTEX
  8
a
  10
38.38363
  20
29.296
  30
0.0
  70
0
  0
VERTEX
  8
a
  10
38.57593
  20
29.44543
  30
0.0
  70
0
  0
VERTEX
  8
a
  10
38.77671
  20
29.5894
  30
0.0
  70
0
  0
VERTEX
  8
a
  10
39.52705
  20
29.13624
  30
0.0
  70
0
  0
VERTEX
  8
a
  10
39.49309
  20
28.89152
  30
0.0
  70
0
  0
VERTEX
  8
a
  10
39.45034
  20
28.65176
  30
0.0
  70
0
  0
VERTEX
  8
a
  10
39.39839
  20
28.41743
  30
0.0
  70
0
  0
VERTEX
  8
a
  10
39.33661
  20
28.18916
  30
0.0
  70
0
  0
VERTEX
  8
a
  10
39.26399
  20
27.9678
  30
0.0
  70
0
  0
VERTEX
  8
a
  10
39.22311
  20
27.86013
  30
0.0
  70
0
  0
VERTEX
  8
a
  10
39.20138
  20
27.80715
  30
0.0
  70
0
  0
VERTEX
  8
a
  10
39.17871
  20
27.75482
  30
0.0
  70
0
  0
VERTEX
  8
a
  10
39.95615
  20
27.18114
  30
0.0
  70
0
  0
VERTEX
  8
a
  10
39.99947
  20
27.21825
  30
0.0
  70
0
  0
VERTEX
  8
a
  10
40.04368
  20
27.25463
  30
0.0
  70
0
  0
VERTEX
  8
a
  10
40.1345
  20
27.32545
  30
0.0
  70
0
  0
VERTEX
  8
a
  10
40.3246
  20
27.46012
  30
0.0
  70
0
  0
VERTEX
  8
a
  10
40.5245
  20
27.58648
  30
0.0
  70
0
  0
VERTEX
  8
a
  10
40.73308
  20
27.70523
  30
0.0
  70
0
  0
VERTEX
  8
a
  10
40.94957
  20
27.81679
  30
0.0
  70
0
  0
VERTEX
  8
a
  10
41.17339
  20
27.92141
  30
0.0
  70
0
  0
VERTEX
  8
a
  10
41.82769
  20
27.3381
  30
0.0
  70
0
  0
VERTEX
  8
a
  10
41.74934
  20
27.10378
  30
0.0
  70
0
  0
VERTEX
  8
a
  10
41.66326
  20
26.87596
  30
0.0
  70
0
  0
VERTEX
  8
a
  10
41.56914
  20
26.65517
  30
0.0
  70
0
  0
VERTEX
  8
a
  10
41.46646
  20
26.44213
  30
0.0
  70
0
  0
VERTEX
  8
a
  10
41.3544
  20
26.23788
  30
0.0
  70
0
  0
VERTEX
  8
a
  10
41.29443
  20
26.13956
  30
0.0
  70
0
  0
VERTEX
  8
a
  10
41.26334
  20
26.09148
  30
0.0
  70
0
  0
VERTEX
  8
a
  10
41.23143
  20
26.0442
  30
0.0
  70
0
  0
VERTEX
  8
a
  10
41.89023
  20
25.33744
  30
0.0
  70
0
  0
VERTEX
  8
a
  10
41.93963
  20
25.36595
  30
0.0
  70
0
  0
VERTEX
  8
a
  10
41.98977
  20
25.39359
  30
0.0
  70
0
  0
VERTEX
  8
a
  10
42.09206
  20
25.44652
  30
0.0
  70
0
  0
VERTEX
  8
a
  10
42.30366
  20
25.54396
  30
0.0
  70
0
  0
VERTEX
  8
a
  10
42.52338
  20
25.63144
  30
0.0
  70
0
  0
VERTEX
  8
a
  10
42.75023
  20
25.70984
  30
0.0
  70
0
  0
VERTEX
  8
a
  10
42.98354
  20
25.77972
  30
0.0
  70
0
  0
VERTEX
  8
a
  10
43.22277
  20
25.84144
  30
0.0
  70
0
  0
VERTEX
  8
a
  10
43.75874
  20
25.14783
  30
0.0
  70
0
  0
VERTEX
  8
a
  10
43.63867
  20
24.9319
  30
0.0
  70
0
  0
VERTEX
  8
a
  10
43.5122
  20
24.72377
  30
0.0
  70
0
  0
VERTEX
  8
a
  10
43.3791
  20
24.52403
  30
0.0
  70
0
  0
VERTEX
  8
a
  10
43.23903
  20
24.33349
  30
0.0
  70
0
  0
VERTEX
  8
a
  10
43.09135
  20
24.15331
  30
0.0
  70
0
  0
VERTEX
  8
a
  10
43.01433
  20
24.06768
  30
0.0
  70
0
  0
VERTEX
  8
a
  10
42.97494
  20
24.02613
  30
0.0
  70
0
  0
VERTEX
  8
a
  10
42.93489
  20
23.98552
  30
0.0
  70
0
  0
VERTEX
  8
a
  10
43.45259
  20
23.16974
  30
0.0
  70
0
  0
VERTEX
  8
a
  10
43.50639
  20
23.18869
  30
0.0
  70
0
  0
VERTEX
  8
a
  10
43.56076
  20
23.20665
  30
0.0
  70
0
  0
VERTEX
  8
a
  10
43.67104
  20
23.23988
  30
0.0
  70
0
  0
VERTEX
  8
a
  10
43.89694
  20
23.29678
  30
0.0
  70
0
  0
VERTEX
  8
a
  10
44.12899
  20
23.3424
  30
0.0
  70
0
  0
VERTEX
  8
a
  10
44.36639
  20
23.37778
  30
0.0
  70
0
  0
VERTEX
  8
a
  10
44.60856
  20
23.4036
  30
0.0
  70
0
  0
VERTEX
  8
a
  10
44.85506
  20
23.4203
  30
0.0
  70
0
  0
VERTEX
  8
a
  10
45.25445
  20
22.64002
  30
0.0
  70
0
  0
VERTEX
  8
a
  10
45.09675
  20
22.44983
  30
0.0
  70
0
  0
VERTEX
  8
a
  10
44.93419
  20
22.26849
  30
0.0
  70
0
  0
VERTEX
  8
a
  10
44.76666
  20
22.09661
  30
0.0
  70
0
  0
VERTEX
  8
a
  10
44.59395
  20
21.93504
  30
0.0
  70
0
  0
VERTEX
  8
a
  10
44.41569
  20
21.78507
  30
0.0
  70
0
  0
VERTEX
  8
a
  10
44.32424
  20
21.71505
  30
0.0
  70
0
  0
VERTEX
  8
a
  10
44.27788
  20
21.68145
  30
0.0
  70
0
  0
VERTEX
  8
a
  10
44.23105
  20
21.64889
  30
0.0
  70
0
  0
VERTEX
  8
a
  10
44.59005
  20
20.75187
  30
0.0
  70
0
  0
VERTEX
  8
a
  10
44.64641
  20
20.76061
  30
0.0
  70
0
  0
VERTEX
  8
a
  10
44.70315
  20
20.76827
  30
0.0
  70
0
  0
VERTEX
  8
a
  10
44.81766
  20
20.78067
  30
0.0
  70
0
  0
VERTEX
  8
a
  10
45.05017
  20
20.7951
  30
0.0
  70
0
  0
VERTEX
  8
a
  10
45.28665
  20
20.7973
  30
0.0
  70
0
  0
VERTEX
  8
a
  10
45.52651
  20
20.78845
  30
0.0
  70
0
  0
VERTEX
  8
a
  10
45.7693
  20
20.76934
  30
0.0
  70
0
  0
VERTEX
  8
a
  10
46.01467
  20
20.74046
  30
0.0
  70
0
  0
VERTEX
  8
a
  10
46.26389
  20
19.90008
  30
0.0
  70
0
  0
VERTEX
  8
a
  10
46.07392
  20
19.7421
  30
0.0
  70
0
  0
VERTEX
  8
a
  10
45.88081
  20
19.59372
  30
0.0
  70
0
  0
VERTEX
  8
a
  10
45.68455
  20
19.45555
  30
0.0
  70
0
  0
VERTEX
  8
a
  10
45.4851
  20
19.32847
  30
0.0
  70
0
  0
VERTEX
  8
a
  10
45.28231
  20
19.21381
  30
0.0
  70
0
  0
VERTEX
  8
a
  10
45.17956
  20
19.16178
  30
0.0
  70
0
  0
VERTEX
  8
a
  10
45.12781
  20
19.13727
  30
0.0
  70
0
  0
VERTEX
  8
a
  10
45.07579
  20
19.11387
  30
0.0
  70
0
  0
VERTEX
  8
a
  10
45.26385
  20
18.16616
  30
0.0
  70
0
  0
VERTEX
  8
a
  10
45.32086
  20
18.16439
  30
0.0
  70
0
  0
VERTEX
  8
a
  10
45.37804
  20
18.1615
  30
0.0
  70
0
  0
VERTEX
  8
a
  10
45.49288
  20
18.15265
  30
0.0
  70
0
  0
VERTEX
  8
a
  10
45.72408
  20
18.1241
  30
0.0
  70
0
  0
VERTEX
  8
a
  10
45.95694
  20
18.08281
  30
0.0
  70
0
  0
VERTEX
  8
a
  10
46.19109
  20
18.03005
  30
0.0
  70
0
  0
VERTEX
  8
a
  10
46.42623
  20
17.96664
  30
0.0
  70
0
  0
VERTEX
  8
a
  10
46.66212
  20
17.89317
  30
0.0
  70
0
  0
VERTEX
  8
a
  10
46.75267
  20
17.0213
  30
0.0
  70
0
  0
VERTEX
  8
a
  10
46.53692
  20
16.90093
  30
0.0
  70
0
  0
VERTEX
  8
a
  10
46.31982
  20
16.79055
  30
0.0
  70
0
  0
VERTEX
  8
a
  10
46.10152
  20
16.6908
  30
0.0
  70
0
  0
VERTEX
  8
a
  10
45.88211
  20
16.60253
  30
0.0
  70
0
  0
VERTEX
  8
a
  10
45.6617
  20
16.52708
  30
0.0
  70
0
  0
VERTEX
  8
a
  10
45.55114
  20
16.49482
  30
0.0
  70
0
  0
VERTEX
  8
a
  10
45.49577
  20
16.48024
  30
0.0
  70
0
  0
VERTEX
  8
a
  10
45.44034
  20
16.46679
  30
0.0
  70
0
  0
VERTEX
  8
a
  10
45.45106
  20
15.50067
  30
0.0
  70
0
  0
VERTEX
  8
a
  10
45.50677
  20
15.48845
  30
0.0
  70
0
  0
VERTEX
  8
a
  10
45.56245
  20
15.4751
  30
0.0
  70
0
  0
VERTEX
  8
a
  10
45.6737
  20
15.4453
  30
0.0
  70
0
  0
VERTEX
  8
a
  10
45.89573
  20
15.37476
  30
0.0
  70
0
  0
VERTEX
  8
a
  10
46.11703
  20
15.29138
  30
0.0
  70
0
  0
VERTEX
  8
a
  10
46.3375
  20
15.19649
  30
0.0
  70
0
  0
VERTEX
  8
a
  10
46.55699
  20
15.09096
  30
0.0
  70
0
  0
VERTEX
  8
a
  10
46.77536
  20
14.97539
  30
0.0
  70
0
  0
VERTEX
  8
a
  10
46.70416
  20
14.10173
  30
0.0
  70
0
  0
VERTEX
  8
a
  10
46.46996
  20
14.02305
  30
0.0
  70
0
  0
VERTEX
  8
a
  10
46.23628
  20
13.95444
  30
0.0
  70
0
  0
VERTEX
  8
a
  10
46.00336
  20
13.8965
  30
0.0
  70
0
  0
VERTEX
  8
a
  10
45.77148
  20
13.85006
  30
0.0
  70
0
  0
VERTEX
  8
a
  10
45.54096
  20
13.81639
  30
0.0
  70
0
  0
VERTEX
  8
a
  10
45.42635
  20
13.805
  30
0.0
  70
0
  0
VERTEX
  8
a
  10
45.36925
  20
13.80083
  30
0.0
  70
0
  0
VERTEX
  8
a
  10
45.31229
  20
13.7978
  30
0.0
  70
0
  0
VERTEX
  8
a
  10
45.14529
  20
12.84616
  30
0.0
  70
0
  0
VERTEX
  8
a
  10
45.19782
  20
12.82392
  30
0.0
  70
0
  0
VERTEX
  8
a
  10
45.25009
  20
12.80056
  30
0.0
  70
0
  0
VERTEX
  8
a
  10
45.35397
  20
12.75082
  30
0.0
  70
0
  0
VERTEX
  8
a
  10
45.55925
  20
12.64068
  30
0.0
  70
0
  0
VERTEX
  8
a
  10
45.76147
  20
12.51806
  30
0.0
  70
0
  0
VERTEX
  8
a
  10
45.96075
  20
12.38428
  30
0.0
  70
0
  0
VERTEX
  8
a
  10
46.15711
  20
12.24021
  30
0.0
  70
0
  0
VERTEX
  8
a
  10
46.35053
  20
12.08649
  30
0.0
  70
0
  0
VERTEX
  8
a
  10
46.12001
  20
11.24078
  30
0.0
  70
0
  0
VERTEX
  8
a
  10
45.87534
  20
11.20648
  30
0.0
  70
0
  0
VERTEX
  8
a
  10
45.63303
  20
11.18198
  30
0.0
  70
0
  0
VERTEX
  8
a
  10
45.39343
  20
11.16782
  30
0.0
  70
0
  0
VERTEX
  8
a
  10
45.15696
  20
11.16478
  30
0.0
  70
0
  0
VERTEX
  8
a
  10
44.92418
  20
11.17404
  30
0.0
  70
0
  0
VERTEX
  8
a
  10
44.80943
  20
11.1839
  30
0.0
  70
0
  0
VERTEX
  8
a
  10
44.75253
  20
11.1903
  30
0.0
  70
0
  0
VERTEX
  8
a
  10
44.69599
  20
11.19779
  30
0.0
  70
0
  0
VERTEX
  8
a
  10
44.35697
  20
10.29303
  30
0.0
  70
0
  0
VERTEX
  8
a
  10
44.40451
  20
10.26152
  30
0.0
  70
0
  0
VERTEX
  8
a
  10
44.45161
  20
10.22895
  30
0.0
  70
0
  0
VERTEX
  8
a
  10
44.54458
  20
10.16098
  30
0.0
  70
0
  0
VERTEX
  8
a
  10
44.72613
  20
10.01499
  30
0.0
  70
0
  0
VERTEX
  8
a
  10
44.90237
  20
9.8573
  30
0.0
  70
0
  0
VERTEX
  8
a
  10
45.07367
  20
9.68918
  30
0.0
  70
0
  0
VERTEX
  8
a
  10
45.24022
  20
9.51148
  30
0.0
  70
0
  0
VERTEX
  8
a
  10
45.4021
  20
9.32484
  30
0.0
  70
0
  0
VERTEX
  8
a
  10
45.0201
  20
8.53589
  30
0.0
  70
0
  0
VERTEX
  8
a
  10
44.77329
  20
8.54712
  30
0.0
  70
0
  0
VERTEX
  8
a
  10
44.53061
  20
8.56757
  30
0.0
  70
0
  0
VERTEX
  8
a
  10
44.29249
  20
8.59768
  30
0.0
  70
0
  0
VERTEX
  8
a
  10
44.05948
  20
8.63814
  30
0.0
  70
0
  0
VERTEX
  8
a
  10
43.83237
  20
8.69002
  30
0.0
  70
0
  0
VERTEX
  8
a
  10
43.72139
  20
8.72079
  30
0.0
  70
0
  0
VERTEX
  8
a
  10
43.66663
  20
8.73754
  30
0.0
  70
0
  0
VERTEX
  8
a
  10
43.61243
  20
8.75529
  30
0.0
  70
0
  0
VERTEX
  8
a
  10
43.11294
  20
7.92823
  30
0.0
  70
0
  0
VERTEX
  8
a
  10
43.15388
  20
7.88852
  30
0.0
  70
0
  0
VERTEX
  8
a
  10
43.19419
  20
7.84785
  30
0.0
  70
0
  0
VERTEX
  8
a
  10
43.27308
  20
7.76395
  30
0.0
  70
0
  0
VERTEX
  8
a
  10
43.42472
  20
7.58709
  30
0.0
  70
0
  0
VERTEX
  8
a
  10
43.56898
  20
7.3997
  30
0.0
  70
0
  0
VERTEX
  8
a
  10
43.70648
  20
7.20296
  30
0.0
  70
0
  0
VERTEX
  8
a
  10
43.83753
  20
6.99769
  30
0.0
  70
0
  0
VERTEX
  8
a
  10
43.96236
  20
6.78448
  30
0.0
  70
0
  0
VERTEX
  8
a
  10
43.4419
  20
6.07916
  30
0.0
  70
0
  0
VERTEX
  8
a
  10
43.20136
  20
6.13555
  30
0.0
  70
0
  0
VERTEX
  8
a
  10
42.96657
  20
6.20024
  30
0.0
  70
0
  0
VERTEX
  8
a
  10
42.73803
  20
6.27359
  30
0.0
  70
0
  0
VERTEX
  8
a
  10
42.51643
  20
6.35618
  30
0.0
  70
0
  0
VERTEX
  8
a
  10
42.30271
  20
6.44891
  30
0.0
  70
0
  0
VERTEX
  8
a
  10
42.19927
  20
6.49955
  30
0.0
  70
0
  0
VERTEX
  8
a
  10
42.14853
  20
6.52607
  30
0.0
  70
0
  0
VERTEX
  8
a
  10
42.09851
  20
6.55348
  30
0.0
  70
0
  0
VERTEX
  8
a
  10
41.45555
  20
5.83229
  30
0.0
  70
0
  0
VERTEX
  8
a
  10
41.4885
  20
5.78573
  30
0.0
  70
0
  0
VERTEX
  8
a
  10
41.52065
  20
5.73835
  30
0.0
  70
0
  0
VERTEX
  8
a
  10
41.58279
  20
5.64138
  30
0.0
  70
0
  0
VERTEX
  8
a
  10
41.69934
  20
5.43967
  30
0.0
  70
0
  0
VERTEX
  8
a
  10
41.80672
  20
5.22896
  30
0.0
  70
0
  0
VERTEX
  8
a
  10
41.90572
  20
5.01031
  30
0.0
  70
0
  0
VERTEX
  8
a
  10
41.99682
  20
4.78445
  30
0.0
  70
0
  0
VERTEX
  8
a
  10
42.08035
  20
4.55193
  30
0.0
  70
0
  0
VERTEX
  8
a
  10
41.43915
  20
3.95425
  30
0.0
  70
0
  0
VERTEX
  8
a
  10
41.21307
  20
4.05388
  30
0.0
  70
0
  0
VERTEX
  8
a
  10
40.99416
  20
4.16061
  30
0.0
  70
0
  0
VERTEX
  8
a
  10
40.78299
  20
4.27471
  30
0.0
  70
0
  0
VERTEX
  8
a
  10
40.58033
  20
4.39661
  30
0.0
  70
0
  0
VERTEX
  8
a
  10
40.3873
  20
4.52703
  30
0.0
  70
0
  0
VERTEX
  8
a
  10
40.29493
  20
4.59581
  30
0.0
  70
0
  0
VERTEX
  8
a
  10
40.24992
  20
4.63121
  30
0.0
  70
0
  0
VERTEX
  8
a
  10
40.20579
  20
4.66734
  30
0.0
  70
0
  0
VERTEX
  8
a
  10
39.44126
  20
4.07657
  30
0.0
  70
0
  0
VERTEX
  8
a
  10
39.46509
  20
4.02475
  30
0.0
  70
0
  0
VERTEX
  8
a
  10
39.48799
  20
3.97227
  30
0.0
  70
0
  0
VERTEX
  8
a
  10
39.53125
  20
3.86553
  30
0.0
  70
0
  0
VERTEX
  8
a
  10
39.60875
  20
3.64584
  30
0.0
  70
0
  0
VERTEX
  8
a
  10
39.67558
  20
3.41899
  30
0.0
  70
0
  0
VERTEX
  8
a
  10
39.73272
  20
3.18587
  30
0.0
  70
0
  0
VERTEX
  8
a
  10
39.78077
  20
2.94712
  30
0.0
  70
0
  0
VERTEX
  8
a
  10
39.82015
  20
2.70321
  30
0.0
  70
0
  0
VERTEX
  8
a
  10
39.08005
  20
2.23352
  30
0.0
  70
0
  0
VERTEX
  8
a
  10
38.87612
  20
2.37301
  30
0.0
  70
0
  0
VERTEX
  8
a
  10
38.68055
  20
2.51814
  30
0.0
  70
0
  0
VERTEX
  8
a
  10
38.49395
  20
2.6691
  30
0.0
  70
0
  0
VERTEX
  8
a
  10
38.31714
  20
2.82616
  30
0.0
  70
0
  0
VERTEX
  8
a
  10
38.15136
  20
2.98983
  30
0.0
  70
0
  0
VERTEX
  8
a
  10
38.0732
  20
3.07442
  30
0.0
  70
0
  0
VERTEX
  8
a
  10
38.03546
  20
3.11748
  30
0.0
  70
0
  0
VERTEX
  8
a
  10
37.99872
  20
3.16111
  30
0.0
  70
0
  0
VERTEX
  8
a
  10
37.13865
  20
2.72088
  30
0.0
  70
0
  0
VERTEX
  8
a
  10
37.15255
  20
2.66556
  30
0.0
  70
0
  0
VERTEX
  8
a
  10
37.16542
  20
2.60977
  30
0.0
  70
0
  0
VERTEX
  8
a
  10
37.18833
  20
2.4969
  30
0.0
  70
0
  0
VERTEX
  8
a
  10
37.22415
  20
2.2667
  30
0.0
  70
0
  0
VERTEX
  8
a
  10
37.24816
  20
2.03143
  30
0.0
  70
0
  0
VERTEX
  8
a
  10
37.26149
  20
1.79179
  30
0.0
  70
0
  0
VERTEX
  8
a
  10
37.26485
  20
1.54827
  30
0.0
  70
0
  0
VERTEX
  8
a
  10
37.25874
  20
1.30128
  30
0.0
  70
0
  0
VERTEX
  8
a
  10
36.44493
  20
0.97558
  30
0.0
  70
0
  0
VERTEX
  8
a
  10
36.27011
  20
1.15016
  30
0.0
  70
0
  0
VERTEX
  8
a
  10
36.10453
  20
1.32876
  30
0.0
  70
0
  0
VERTEX
  8
a
  10
35.94885
  20
1.51144
  30
0.0
  70
0
  0
VERTEX
  8
a
  10
35.80391
  20
1.69831
  30
0.0
  70
0
  0
VERTEX
  8
a
  10
35.67102
  20
1.88966
  30
0.0
  70
0
  0
VERTEX
  8
a
  10
35.60974
  20
1.98717
  30
0.0
  70
0
  0
VERTEX
  8
a
  10
35.58056
  20
2.03643
  30
0.0
  70
0
  0
VERTEX
  8
a
  10
35.55246
  20
2.08607
  30
0.0
  70
0
  0
VERTEX
  8
a
  10
34.62614
  20
1.81137
  30
0.0
  70
0
  0
VERTEX
  8
a
  10
34.62964
  20
1.75444
  30
0.0
  70
0
  0
VERTEX
  8
a
  10
34.63204
  20
1.69723
  30
0.0
  70
0
  0
VERTEX
  8
a
  10
34.63382
  20
1.58208
  30
0.0
  70
0
  0
VERTEX
  8
a
  10
34.62673
  20
1.34922
  30
0.0
  70
0
  0
VERTEX
  8
a
  10
34.6071
  20
1.11354
  30
0.0
  70
0
  0
VERTEX
  8
a
  10
34.57616
  20
0.87553
  30
0.0
  70
0
  0
VERTEX
  8
a
  10
34.53472
  20
0.63554
  30
0.0
  70
0
  0
VERTEX
  8
a
  10
34.48333
  20
0.39388
  30
0.0
  70
0
  0
VERTEX
  8
a
  10
33.62354
  20
0.22326
  30
0.0
  70
0
  0
VERTEX
  8
a
  10
33.48377
  20
0.42699
  30
0.0
  70
0
  0
VERTEX
  8
a
  10
33.35383
  20
0.63298
  30
0.0
  70
0
  0
VERTEX
  8
a
  10
33.23436
  20
0.84115
  30
0.0
  70
0
  0
VERTEX
  8
a
  10
33.12623
  20
1.05147
  30
0.0
  70
0
  0
VERTEX
  8
a
  10
33.03077
  20
1.26398
  30
0.0
  70
0
  0
VERTEX
  8
a
  10
32.98844
  20
1.37109
  30
0.0
  70
0
  0
VERTEX
  8
a
  10
32.96881
  20
1.42488
  30
0.0
  70
0
  0
VERTEX
  8
a
  10
32.95031
  20
1.47883
  30
0.0
  70
0
  0
VERTEX
  8
a
  10
31.98929
  20
1.37902
  30
0.0
  70
0
  0
VERTEX
  8
a
  10
31.98227
  20
1.32242
  30
0.0
  70
0
  0
VERTEX
  8
a
  10
31.97411
  20
1.26574
  30
0.0
  70
0
  0
VERTEX
  8
a
  10
31.9547
  20
1.15222
  30
0.0
  70
0
  0
VERTEX
  8
a
  10
31.90495
  20
0.92463
  30
0.0
  70
0
  0
VERTEX
  8
a
  10
31.84235
  20
0.69658
  30
0.0
  70
0
  0
VERTEX
  8
a
  10
31.7682
  20
0.4683
  30
0.0
  70
0
  0
VERTEX
  8
a
  10
31.68337
  20
0.24001
  30
0.0
  70
0
  0
VERTEX
  8
a
  10
31.58845
  20
0.0119
  30
0.0
  70
0
  0
VERTEX
  8
a
  10
30.71194
  20
0.00218
  30
0.0
  70
0
  0
VERTEX
  8
a
  10
30.61199
  20
0.22813
  30
0.0
  70
0
  0
VERTEX
  8
a
  10
30.52212
  20
0.45448
  30
0.0
  70
0
  0
VERTEX
  8
a
  10
30.44293
  20
0.68106
  30
0.0
  70
0
  0
VERTEX
  8
a
  10
30.37529
  20
0.90767
  30
0.0
  70
0
  0
VERTEX
  8
a
  10
30.3205
  20
1.1341
  30
0.0
  70
0
  0
VERTEX
  8
a
  10
30.29857
  20
1.24717
  30
0.0
  70
0
  0
VERTEX
  8
a
  10
30.28916
  20
1.30364
  30
0.0
  70
0
  0
VERTEX
  8
a
  10
30.28089
  20
1.36008
  30
0.0
  70
0
  0
VERTEX
  8
a
  10
29.3179
  20
1.43855
  30
0.0
  70
0
  0
VERTEX
  8
a
  10
29.30059
  20
1.3842
  30
0.0
  70
0
  0
VERTEX
  8
a
  10
29.28216
  20
1.32999
  30
0.0
  70
0
  0
VERTEX
  8
a
  10
29.24222
  20
1.22197
  30
0.0
  70
0
  0
VERTEX
  8
a
  10
29.15149
  20
1.0074
  30
0.0
  70
0
  0
VERTEX
  8
a
  10
29.04805
  20
0.79473
  30
0.0
  70
0
  0
VERTEX
  8
a
  10
28.93323
  20
0.58396
  30
0.0
  70
0
  0
VERTEX
  8
a
  10
28.80789
  20
0.37515
  30
0.0
  70
0
  0
VERTEX
  8
a
  10
28.67267
  20
0.16837
  30
0.0
  70
0
  0
VERTEX
  8
a
  10
27.8093
  20
0.31987
  30
0.0
  70
0
  0
VERTEX
  8
a
  10
27.75257
  20
0.56033
  30
0.0
  70
0
  0
VERTEX
  8
a
  10
27.70582
  20
0.79935
  30
0.0
  70
0
  0
VERTEX
  8
a
  10
27.66961
  20
1.03662
  30
0.0
  70
0
  0
VERTEX
  8
a
  10
27.64476
  20
1.2718
  30
0.0
  70
0
  0
VERTEX
  8
a
  10
27.63251
  20
1.50444
  30
0.0
  70
0
  0
VERTEX
  8
a
  10
27.63174
  20
1.61961
  30
0.0
  70
0
  0
VERTEX
  8
a
  10
27.63286
  20
1.67686
  30
0.0
  70
0
  0
VERTEX
  8
a
  10
27.6351
  20
1.73385
  30
0.0
  70
0
  0
VERTEX
  8
a
  10
26.70292
  20
1.98794
  30
0.0
  70
0
  0
VERTEX
  8
a
  10
26.67593
  20
1.93769
  30
0.0
  70
0
  0
VERTEX
  8
a
  10
26.64785
  20
1.8878
  30
0.0
  70
0
  0
VERTEX
  8
a
  10
26.58874
  20
1.78895
  30
0.0
  70
0
  0
VERTEX
  8
a
  10
26.46013
  20
1.5947
  30
0.0
  70
0
  0
VERTEX
  8
a
  10
26.31937
  20
1.40466
  30
0.0
  70
0
  0
VERTEX
  8
a
  10
26.16777
  20
1.21858
  30
0.0
  70
0
  0
VERTEX
  8
a
  10
26.0062
  20
1.03635
  30
0.0
  70
0
  0
VERTEX
  8
a
  10
25.83529
  20
0.85794
  30
0.0
  70
0
  0
VERTEX
  8
a
  10
25.01446
  20
1.16551
  30
0.0
  70
0
  0
VERTEX
  8
a
  10
25.00288
  20
1.4123
  30
0.0
  70
0
  0
VERTEX
  8
a
  10
25.00084
  20
1.65584
  30
0.0
  70
0
  0
VERTEX
  8
a
  10
25.00885
  20
1.89572
  30
0.0
  70
0
  0
VERTEX
  8
a
  10
25.02764
  20
2.13146
  30
0.0
  70
0
  0
VERTEX
  8
a
  10
25.05834
  20
2.3624
  30
0.0
  70
0
  0
VERTEX
  8
a
  10
25.07874
  20
2.47575
  30
0.0
  70
0
  0
VERTEX
  8
a
  10
25.09037
  20
2.53181
  30
0.0
  70
0
  0
VERTEX
  8
a
  10
25.10304
  20
2.58742
  30
0.0
  70
0
  0
VERTEX
  8
a
  10
24.23342
  20
3.00847
  30
0.0
  70
0
  0
VERTEX
  8
a
  10
24.19766
  20
2.96404
  30
0.0
  70
0
  0
VERTEX
  8
a
  10
24.16089
  20
2.92015
  30
0.0
  70
0
  0
VERTEX
  8
a
  10
24.08462
  20
2.83385
  30
0.0
  70
0
  0
VERTEX
  8
a
  10
23.92251
  20
2.66654
  30
0.0
  70
0
  0
VERTEX
  8
a
  10
23.74923
  20
2.5056
  30
0.0
  70
0
  0
VERTEX
  8
a
  10
23.56602
  20
2.35055
  30
0.0
  70
0
  0
VERTEX
  8
a
  10
23.37371
  20
2.20111
  30
0.0
  70
0
  0
VERTEX
  8
a
  10
23.17293
  20
2.05714
  30
0.0
  70
0
  0
VERTEX
  8
a
  10
22.42259
  20
2.5103
  30
0.0
  70
0
  0
VERTEX
  8
a
  10
22.45655
  20
2.75502
  30
0.0
  70
0
  0
VERTEX
  8
a
  10
22.4993
  20
2.99478
  30
0.0
  70
0
  0
VERTEX
  8
a
  10
22.55125
  20
3.22911
  30
0.0
  70
0
  0
VERTEX
  8
a
  10
22.61304
  20
3.45739
  30
0.0
  70
0
  0
VERTEX
  8
a
  10
22.68565
  20
3.67874
  30
0.0
  70
0
  0
VERTEX
  8
a
  10
22.72653
  20
3.78641
  30
0.0
  70
0
  0
VERTEX
  8
a
  10
22.74826
  20
3.83939
  30
0.0
  70
0
  0
VERTEX
  8
a
  10
22.77094
  20
3.89172
  30
0.0
  70
0
  0
VERTEX
  8
a
  10
21.9935
  20
4.4654
  30
0.0
  70
0
  0
VERTEX
  8
a
  10
21.95017
  20
4.4283
  30
0.0
  70
0
  0
VERTEX
  8
a
  10
21.90597
  20
4.39191
  30
0.0
  70
0
  0
VERTEX
  8
a
  10
21.81514
  20
4.32109
  30
0.0
  70
0
  0
VERTEX
  8
a
  10
21.62505
  20
4.18642
  30
0.0
  70
0
  0
VERTEX
  8
a
  10
21.42514
  20
4.06006
  30
0.0
  70
0
  0
VERTEX
  8
a
  10
21.21656
  20
3.94131
  30
0.0
  70
0
  0
VERTEX
  8
a
  10
21.00007
  20
3.82975
  30
0.0
  70
0
  0
VERTEX
  8
a
  10
20.77625
  20
3.72513
  30
0.0
  70
0
  0
VERTEX
  8
a
  10
20.12196
  20
4.30844
  30
0.0
  70
0
  0
VERTEX
  8
a
  10
20.20031
  20
4.54276
  30
0.0
  70
0
  0
VERTEX
  8
a
  10
20.28638
  20
4.77058
  30
0.0
  70
0
  0
VERTEX
  8
a
  10
20.38051
  20
4.99137
  30
0.0
  70
0
  0
VERTEX
  8
a
  10
20.48319
  20
5.20441
  30
0.0
  70
0
  0
VERTEX
  8
a
  10
20.59524
  20
5.40866
  30
0.0
  70
0
  0
VERTEX
  8
a
  10
20.65521
  20
5.50698
  30
0.0
  70
0
  0
VERTEX
  8
a
  10
20.6863
  20
5.55506
  30
0.0
  70
0
  0
VERTEX
  8
a
  10
20.71821
  20
5.60234
  30
0.0
  70
0
  0
VERTEX
  8
a
  10
20.05942
  20
6.3091
  30
0.0
  70
0
  0
VERTEX
  8
a
  10
20.01002
  20
6.28059
  30
0.0
  70
0
  0
VERTEX
  8
a
  10
19.95987
  20
6.25295
  30
0.0
  70
0
  0
VERTEX
  8
a
  10
19.85758
  20
6.20002
  30
0.0
  70
0
  0
VERTEX
  8
a
  10
19.64598
  20
6.10258
  30
0.0
  70
0
  0
VERTEX
  8
a
  10
19.42626
  20
6.0151
  30
0.0
  70
0
  0
VERTEX
  8
a
  10
19.19941
  20
5.9367
  30
0.0
  70
0
  0
VERTEX
  8
a
  10
18.96611
  20
5.86682
  30
0.0
  70
0
  0
VERTEX
  8
a
  10
18.72687
  20
5.80511
  30
0.0
  70
0
  0
VERTEX
  8
a
  10
18.1909
  20
6.49872
  30
0.0
  70
0
  0
VERTEX
  8
a
  10
18.31097
  20
6.71464
  30
0.0
  70
0
  0
VERTEX
  8
a
  10
18.43745
  20
6.92277
  30
0.0
  70
0
  0
VERTEX
  8
a
  10
18.57054
  20
7.12251
  30
0.0
  70
0
  0
VERTEX
  8
a
  10
18.71062
  20
7.31305
  30
0.0
  70
0
  0
VERTEX
  8
a
  10
18.85829
  20
7.49323
  30
0.0
  70
0
  0
VERTEX
  8
a
  10
18.93531
  20
7.57886
  30
0.0
  70
0
  0
VERTEX
  8
a
  10
18.97471
  20
7.62041
  30
0.0
  70
0
  0
VERTEX
  8
a
  10
19.01476
  20
7.66102
  30
0.0
  70
0
  0
VERTEX
  8
a
  10
18.49705
  20
8.4768
  30
0.0
  70
0
  0
VERTEX
  8
a
  10
18.44325
  20
8.45785
  30
0.0
  70
0
  0
VERTEX
  8
a
  10
18.38888
  20
8.43989
  30
0.0
  70
0
  0
VERTEX
  8
a
  10
18.27861
  20
8.40667
  30
0.0
  70
0
  0
VERTEX
  8
a
  10
18.0527
  20
8.34976
  30
0.0
  70
0
  0
VERTEX
  8
a
  10
17.82065
  20
8.30415
  30
0.0
  70
0
  0
VERTEX
  8
a
  10
17.58325
  20
8.26876
  30
0.0
  70
0
  0
VERTEX
  8
a
  10
17.34108
  20
8.24294
  30
0.0
  70
0
  0
VERTEX
  8
a
  10
17.09458
  20
8.22624
  30
0.0
  70
0
  0
VERTEX
  8
a
  10
16.69519
  20
9.00652
  30
0.0
  70
0
  0
VERTEX
  8
a
  10
16.85289
  20
9.19671
  30
0.0
  70
0
  0
VERTEX
  8
a
  10
17.01546
  20
9.37806
  30
0.0
  70
0
  0
VERTEX
  8
a
  10
17.18298
  20
9.54994
  30
0.0
  70
0
  0
VERTEX
  8
a
  10
17.35569
  20
9.7115
  30
0.0
  70
0
  0
VERTEX
  8
a
  10
17.53396
  20
9.86147
  30
0.0
  70
0
  0
VERTEX
  8
a
  10
17.6254
  20
9.93149
  30
0.0
  70
0
  0
VERTEX
  8
a
  10
17.67176
  20
9.96509
  30
0.0
  70
0
  0
VERTEX
  8
a
  10
17.71859
  20
9.99765
  30
0.0
  70
0
  0
VERTEX
  8
a
  10
17.35959
  20
10.89467
  30
0.0
  70
0
  0
VERTEX
  8
a
  10
17.30323
  20
10.88593
  30
0.0
  70
0
  0
VERTEX
  8
a
  10
17.24649
  20
10.87827
  30
0.0
  70
0
  0
VERTEX
  8
a
  10
17.13199
  20
10.86587
  30
0.0
  70
0
  0
VERTEX
  8
a
  10
16.89947
  20
10.85145
  30
0.0
  70
0
  0
VERTEX
  8
a
  10
16.66299
  20
10.84925
  30
0.0
  70
0
  0
VERTEX
  8
a
  10
16.42313
  20
10.85809
  30
0.0
  70
0
  0
VERTEX
  8
a
  10
16.18034
  20
10.87721
  30
0.0
  70
0
  0
VERTEX
  8
a
  10
15.93497
  20
10.90608
  30
0.0
  70
0
  0
VERTEX
  8
a
  10
15.68575
  20
11.74647
  30
0.0
  70
0
  0
VERTEX
  8
a
  10
15.87572
  20
11.90444
  30
0.0
  70
0
  0
VERTEX
  8
a
  10
16.06884
  20
12.05282
  30
0.0
  70
0
  0
VERTEX
  8
a
  10
16.26509
  20
12.19099
  30
0.0
  70
0
  0
VERTEX
  8
a
  10
16.46454
  20
12.31807
  30
0.0
  70
0
  0
VERTEX
  8
a
  10
16.66734
  20
12.43273
  30
0.0
  70
0
  0
VERTEX
  8
a
  10
16.77009
  20
12.48476
  30
0.0
  70
0
  0
VERTEX
  8
a
  10
16.82183
  20
12.50927
  30
0.0
  70
0
  0
VERTEX
  8
a
  10
16.87385
  20
12.53267
  30
0.0
  70
0
  0
VERTEX
  8
a
  10
16.68579
  20
13.48038
  30
0.0
  70
0
  0
VERTEX
  8
a
  10
16.62878
  20
13.48215
  30
0.0
  70
0
  0
VERTEX
  8
a
  10
16.5716
  20
13.48504
  30
0.0
  70
0
  0
VERTEX
  8
a
  10
16.45677
  20
13.49389
  30
0.0
  70
0
  0
VERTEX
  8
a
  10
16.22556
  20
13.52244
  30
0.0
  70
0
  0
VERTEX
  8
a
  10
15.9927
  20
13.56373
  30
0.0
  70
0
  0
VERTEX
  8
a
  10
15.75855
  20
13.61649
  30
0.0
  70
0
  0
VERTEX
  8
a
  10
15.52341
  20
13.6799
  30
0.0
  70
0
  0
VERTEX
  8
a
  10
15.28752
  20
13.75337
  30
0.0
  70
0
  0
VERTEX
  8
a
  10
15.19697
  20
14.62524
  30
0.0
  70
0
  0
VERTEX
  8
a
  10
15.41273
  20
14.74562
  30
0.0
  70
0
  0
VERTEX
  8
a
  10
15.62982
  20
14.85599
  30
0.0
  70
0
  0
VERTEX
  8
a
  10
15.84813
  20
14.95575
  30
0.0
  70
0
  0
VERTEX
  8
a
  10
16.06753
  20
15.04401
  30
0.0
  70
0
  0
VERTEX
  8
a
  10
16.28794
  20
15.11946
  30
0.0
  70
0
  0
VERTEX
  8
a
  10
16.3985
  20
15.15172
  30
0.0
  70
0
  0
VERTEX
  8
a
  10
16.45387
  20
15.1663
  30
0.0
  70
0
  0
VERTEX
  8
a
  10
16.5093
  20
15.17975
  30
0.0
  70
0
  0
SEQEND
  0
CIRCLE
  8
a
  10
30.97482
  20
15.82327
  30
0.0
  40
3.5
 0
LINE
 8
a
 10
25.7004
 20
15.82327
 30
0
 11
36.24924
 21
15.82327
 31
 0
 0
LINE
 8
a
 10
30.97482
 20
10.54885
 30
0
 11
30.97482
 21
21.09769
 31
 0
  0
TEXT
  8
labels
  10
0.0
  20
0.0
  30
0.0
  40
0.1
  1
G1:Toothspacing=2.8  Teeth=17  Spur gear  Angle=20.0  Addendum=.2
  41
1.0
  7
ARIAL
  0
TEXT
  8
labels
  10
0.0
  20
-0.2
  30
0.0
  40
0.1
  1
G2:Toothspacing=2.8  Teeth=34  Spur gear  Angle=20.0  Addendum=.2
  41
1.0
  7
ARIAL
  0
ENDSEC
  0
EOF
