<?xml version="1.0" standalone="no"?>
 <!DOCTYPE svg PUBLIC "-//W3C//DTD SVG 1.1//EN" 
 "http://www.w3.org/Graphics/SVG/1.1/DTD/svg11.dtd"> 
<svg
  xmlns:svg="http://www.w3.org/2000/svg"
  xmlns="http://www.w3.org/2000/svg"
  xmlns:xlink="http://www.w3.org/1999/xlink"
  version="1.1"
  width="29.700220cm" height="21.000720cm" viewBox="0 0 297002200 210007200">
<title>SVG Picture created as TurnsCounter-B_Silkscreen.svg date 2022/08/10 21:18:12 </title>
  <desc>Picture generated by PCBNEW </desc>
<g style="fill:#000000; fill-opacity:1.000000;stroke:#000000; stroke-opacity:1.000000;
stroke-linecap:round; stroke-linejoin:round;"
 transform="translate(0 0) scale(1 1)">
</g>
<g style="fill:#000000; fill-opacity:0.0; 
stroke:#000000; stroke-width:0.000000; stroke-opacity:1; 
stroke-linecap:round; stroke-linejoin:round;">
</g>
<g style="fill:#000000; fill-opacity:0.0; 
stroke:#000000; stroke-width:100000.000000; stroke-opacity:1; 
stroke-linecap:round; stroke-linejoin:round;">
</g>
<g style="fill:#000000; fill-opacity:1.0; 
stroke:#000000; stroke-width:1.000000; stroke-opacity:1; 
stroke-linecap:round; stroke-linejoin:round;">
<circle cx="157810000.000000" cy="80500000.000000" r="50001.000000" /> 
</g>
<g style="fill:#000000; fill-opacity:1.0; 
stroke:#000000; stroke-width:100000.000000; stroke-opacity:1; 
stroke-linecap:round; stroke-linejoin:round;">
</g>
<g style="fill:#000000; fill-opacity:0.0; 
stroke:#000000; stroke-width:100000.000000; stroke-opacity:1; 
stroke-linecap:round; stroke-linejoin:round;">
<path d="M188310000 45000000
L172570000 45000000
" />
<path d="M217525000 125000000
L217525000 44990000
" />
<path d="M188310000 125000000
L188310000 45000000
" />
<path d="M148310000 125000000
L148310000 84260000
" />
<path d="M188950000 125000000
L217525000 125000000
" />
<path d="M158910000 58650000
L172570000 45000000
" />
<path d="M188950000 44990000
L188950000 125000000
" />
<path d="M148310000 125000000
L188310000 125000000
" />
<path d="M217525000 44990000
L188950000 44990000
" />
<path d="M148310000.000000 84260007.000000 A14998677.000000 14998677.000000 0.0 0 0 158909999.702710 58650000.297608" />
</g>
<g style="fill:#000000; fill-opacity:0.0; 
stroke:#000000; stroke-width:150000.000000; stroke-opacity:1; 
stroke-linecap:round; stroke-linejoin:round;">
<g transform="rotate(-90.000000 209015000.000000 56000000.000000)">
<text x="209015000.000000" y="56500000.000000"
transform="scale(-1 1) translate(-418030000.000000 0)"
textLength="1757381.000000" font-size="1333333.000000" lengthAdjust="spacingAndGlyphs"
text-anchor="middle" opacity="0">R5</text>
</g>
<g class="stroked-text"><desc>R5</desc>
<path d="M209467380 55833333
L208991190 55500000
" />
<path d="M209467380 55261904
L208467380 55261904
L208467380 55642857
L208515000 55738095
L208562619 55785714
L208657857 55833333
L208800714 55833333
L208895952 55785714
L208943571 55738095
L208991190 55642857
L208991190 55261904
" />
<path d="M208467380 56738095
L208467380 56261904
L208943571 56214285
L208895952 56261904
L208848333 56357142
L208848333 56595238
L208895952 56690476
L208943571 56738095
L209038809 56785714
L209276904 56785714
L209372142 56738095
L209419761 56690476
L209467380 56595238
L209467380 56357142
L209419761 56261904
L209372142 56214285
" />
</g><g transform="rotate(-90.000000 179172000.000000 98600000.000000)">
<text x="179172000.000000" y="99100000.000000"
transform="scale(-1 1) translate(-358344000.000000 0)"
textLength="1757381.000000" font-size="1333333.000000" lengthAdjust="spacingAndGlyphs"
text-anchor="middle" opacity="0">R3</text>
</g>
<g class="stroked-text"><desc>R3</desc>
<path d="M179624380 98433333
L179148190 98100000
" />
<path d="M179624380 97861904
L178624380 97861904
L178624380 98242857
L178672000 98338095
L178719619 98385714
L178814857 98433333
L178957714 98433333
L179052952 98385714
L179100571 98338095
L179148190 98242857
L179148190 97861904
" />
<path d="M178624380 98766666
L178624380 99385714
L179005333 99052380
L179005333 99195238
L179052952 99290476
L179100571 99338095
L179195809 99385714
L179433904 99385714
L179529142 99338095
L179576761 99290476
L179624380 99195238
L179624380 98909523
L179576761 98814285
L179529142 98766666
" />
</g><text x="192435000.000000" y="59690000.000000"
transform="scale(-1 1) translate(-384870000.000000 0)"
textLength="1757381.000000" font-size="1333333.000000" lengthAdjust="spacingAndGlyphs"
text-anchor="middle" opacity="0">R9</text>
<g class="stroked-text"><desc>R9</desc>
<path d="M192601666 59642380
L192935000 59166190
" />
<path d="M193173095 59642380
L193173095 58642380
L192792142 58642380
L192696904 58690000
L192649285 58737619
L192601666 58832857
L192601666 58975714
L192649285 59070952
L192696904 59118571
L192792142 59166190
L193173095 59166190
" />
<path d="M192125476 59642380
L191935000 59642380
L191839761 59594761
L191792142 59547142
L191696904 59404285
L191649285 59213809
L191649285 58832857
L191696904 58737619
L191744523 58690000
L191839761 58642380
L192030238 58642380
L192125476 58690000
L192173095 58737619
L192220714 58832857
L192220714 59070952
L192173095 59166190
L192125476 59213809
L192030238 59261428
L191839761 59261428
L191744523 59213809
L191696904 59166190
L191649285 59070952
" />
</g><g transform="rotate(-90.000000 213912000.000000 52825000.000000)">
<text x="213912000.000000" y="53325000.000000"
transform="scale(-1 1) translate(-427824000.000000 0)"
textLength="1757381.000000" font-size="1333333.000000" lengthAdjust="spacingAndGlyphs"
text-anchor="middle" opacity="0">R7</text>
</g>
<g class="stroked-text"><desc>R7</desc>
<path d="M214364380 52658333
L213888190 52325000
" />
<path d="M214364380 52086904
L213364380 52086904
L213364380 52467857
L213412000 52563095
L213459619 52610714
L213554857 52658333
L213697714 52658333
L213792952 52610714
L213840571 52563095
L213888190 52467857
L213888190 52086904
" />
<path d="M213364380 52991666
L213364380 53658333
L214364380 53229761
" />
</g><text x="200690000.000000" y="69800000.000000"
transform="scale(-1 1) translate(-401380000.000000 0)"
textLength="2709762.000000" font-size="1333333.000000" lengthAdjust="spacingAndGlyphs"
text-anchor="middle" opacity="0">R10</text>
<g class="stroked-text"><desc>R10</desc>
<path d="M201332857 69752380
L201666190 69276190
" />
<path d="M201904285 69752380
L201904285 68752380
L201523333 68752380
L201428095 68800000
L201380476 68847619
L201332857 68942857
L201332857 69085714
L201380476 69180952
L201428095 69228571
L201523333 69276190
L201904285 69276190
" />
<path d="M200380476 69752380
L200951904 69752380
" />
<path d="M200666190 69752380
L200666190 68752380
L200761428 68895238
L200856666 68990476
L200951904 69038095
" />
<path d="M199761428 68752380
L199666190 68752380
L199570952 68800000
L199523333 68847619
L199475714 68942857
L199428095 69133333
L199428095 69371428
L199475714 69561904
L199523333 69657142
L199570952 69704761
L199666190 69752380
L199761428 69752380
L199856666 69704761
L199904285 69657142
L199951904 69561904
L199999523 69371428
L199999523 69133333
L199951904 68942857
L199904285 68847619
L199856666 68800000
L199761428 68752380
" />
</g><g transform="rotate(-90.000000 185242000.000000 101140000.000000)">
<text x="185242000.000000" y="101640000.000000"
transform="scale(-1 1) translate(-370484000.000000 0)"
textLength="1757381.000000" font-size="1333333.000000" lengthAdjust="spacingAndGlyphs"
text-anchor="middle" opacity="0">R4</text>
</g>
<g class="stroked-text"><desc>R4</desc>
<path d="M185694380 100973333
L185218190 100640000
" />
<path d="M185694380 100401904
L184694380 100401904
L184694380 100782857
L184742000 100878095
L184789619 100925714
L184884857 100973333
L185027714 100973333
L185122952 100925714
L185170571 100878095
L185218190 100782857
L185218190 100401904
" />
<path d="M185027714 101830476
L185694380 101830476
" />
<path d="M184646761 101592380
L185361047 101354285
L185361047 101973333
" />
</g><g transform="rotate(-90.000000 211372000.000000 52825000.000000)">
<text x="211372000.000000" y="53325000.000000"
transform="scale(-1 1) translate(-422744000.000000 0)"
textLength="1757381.000000" font-size="1333333.000000" lengthAdjust="spacingAndGlyphs"
text-anchor="middle" opacity="0">R6</text>
</g>
<g class="stroked-text"><desc>R6</desc>
<path d="M211824380 52658333
L211348190 52325000
" />
<path d="M211824380 52086904
L210824380 52086904
L210824380 52467857
L210872000 52563095
L210919619 52610714
L211014857 52658333
L211157714 52658333
L211252952 52610714
L211300571 52563095
L211348190 52467857
L211348190 52086904
" />
<path d="M210824380 53515476
L210824380 53325000
L210872000 53229761
L210919619 53182142
L211062476 53086904
L211252952 53039285
L211633904 53039285
L211729142 53086904
L211776761 53134523
L211824380 53229761
L211824380 53420238
L211776761 53515476
L211729142 53563095
L211633904 53610714
L211395809 53610714
L211300571 53563095
L211252952 53515476
L211205333 53420238
L211205333 53229761
L211252952 53134523
L211300571 53086904
L211395809 53039285
" />
</g><g transform="rotate(-90.000000 178872500.000000 101524888.000000)">
<text x="178872500.000000" y="102024888.000000"
transform="scale(-1 1) translate(-357745000.000000 0)"
textLength="1805000.000000" font-size="1333333.000000" lengthAdjust="spacingAndGlyphs"
text-anchor="middle" opacity="0">U2</text>
</g>
<g class="stroked-text"><desc>U2</desc>
<path d="M178324880 100762983
L179134404 100762983
L179229642 100810602
L179277261 100858221
L179324880 100953459
L179324880 101143935
L179277261 101239173
L179229642 101286792
L179134404 101334411
L178324880 101334411
" />
<path d="M178420119 101762983
L178372500 101810602
L178324880 101905840
L178324880 102143935
L178372500 102239173
L178420119 102286792
L178515357 102334411
L178610595 102334411
L178753452 102286792
L179324880 101715364
L179324880 102334411
" />
</g><text x="167995000.000000" y="116865000.000000"
transform="scale(-1 1) translate(-335990000.000000 0)"
textLength="1757381.000000" font-size="1333333.000000" lengthAdjust="spacingAndGlyphs"
text-anchor="middle" opacity="0">R1</text>
<g class="stroked-text"><desc>R1</desc>
<path d="M168161666 116817380
L168495000 116341190
" />
<path d="M168733095 116817380
L168733095 115817380
L168352142 115817380
L168256904 115865000
L168209285 115912619
L168161666 116007857
L168161666 116150714
L168209285 116245952
L168256904 116293571
L168352142 116341190
L168733095 116341190
" />
<path d="M167209285 116817380
L167780714 116817380
" />
<path d="M167495000 116817380
L167495000 115817380
L167590238 115960238
L167685476 116055476
L167780714 116103095
" />
</g><g transform="rotate(-90.000000 170125000.000000 109357500.000000)">
<text x="170125000.000000" y="109857500.000000"
transform="scale(-1 1) translate(-340250000.000000 0)"
textLength="1757381.000000" font-size="1333333.000000" lengthAdjust="spacingAndGlyphs"
text-anchor="middle" opacity="0">C7</text>
</g>
<g class="stroked-text"><desc>C7</desc>
<path d="M170482142 109190833
L170529761 109143214
L170577380 109000357
L170577380 108905119
L170529761 108762261
L170434523 108667023
L170339285 108619404
L170148809 108571785
L170005952 108571785
L169815476 108619404
L169720238 108667023
L169625000 108762261
L169577380 108905119
L169577380 109000357
L169625000 109143214
L169672619 109190833
" />
<path d="M169577380 109524166
L169577380 110190833
L170577380 109762261
" />
</g><g transform="rotate(-90.000000 179820000.000000 71025000.000000)">
<text x="179820000.000000" y="71525000.000000"
transform="scale(-1 1) translate(-359640000.000000 0)"
textLength="1805000.000000" font-size="1333333.000000" lengthAdjust="spacingAndGlyphs"
text-anchor="middle" opacity="0">U3</text>
</g>
<g class="stroked-text"><desc>U3</desc>
<path d="M179272380 70263095
L180081904 70263095
L180177142 70310714
L180224761 70358333
L180272380 70453571
L180272380 70644047
L180224761 70739285
L180177142 70786904
L180081904 70834523
L179272380 70834523
" />
<path d="M179272380 71215476
L179272380 71834523
L179653333 71501190
L179653333 71644047
L179700952 71739285
L179748571 71786904
L179843809 71834523
L180081904 71834523
L180177142 71786904
L180224761 71739285
L180272380 71644047
L180272380 71358333
L180224761 71263095
L180177142 71215476
" />
</g><text x="200690000.000000" y="59661000.000000"
transform="scale(-1 1) translate(-401380000.000000 0)"
textLength="2709762.000000" font-size="1333333.000000" lengthAdjust="spacingAndGlyphs"
text-anchor="middle" opacity="0">R11</text>
<g class="stroked-text"><desc>R11</desc>
<path d="M201332857 59613380
L201666190 59137190
" />
<path d="M201904285 59613380
L201904285 58613380
L201523333 58613380
L201428095 58661000
L201380476 58708619
L201332857 58803857
L201332857 58946714
L201380476 59041952
L201428095 59089571
L201523333 59137190
L201904285 59137190
" />
<path d="M200380476 59613380
L200951904 59613380
" />
<path d="M200666190 59613380
L200666190 58613380
L200761428 58756238
L200856666 58851476
L200951904 58899095
" />
<path d="M199428095 59613380
L199999523 59613380
" />
<path d="M199713809 59613380
L199713809 58613380
L199809047 58756238
L199904285 58851476
L199999523 58899095
" />
</g><text x="192435000.000000" y="69800000.000000"
transform="scale(-1 1) translate(-384870000.000000 0)"
textLength="1757381.000000" font-size="1333333.000000" lengthAdjust="spacingAndGlyphs"
text-anchor="middle" opacity="0">R8</text>
<g class="stroked-text"><desc>R8</desc>
<path d="M192601666 69752380
L192935000 69276190
" />
<path d="M193173095 69752380
L193173095 68752380
L192792142 68752380
L192696904 68800000
L192649285 68847619
L192601666 68942857
L192601666 69085714
L192649285 69180952
L192696904 69228571
L192792142 69276190
L193173095 69276190
" />
<path d="M192030238 69180952
L192125476 69133333
L192173095 69085714
L192220714 68990476
L192220714 68942857
L192173095 68847619
L192125476 68800000
L192030238 68752380
L191839761 68752380
L191744523 68800000
L191696904 68847619
L191649285 68942857
L191649285 68990476
L191696904 69085714
L191744523 69133333
L191839761 69180952
L192030238 69180952
L192125476 69228571
L192173095 69276190
L192220714 69371428
L192220714 69561904
L192173095 69657142
L192125476 69704761
L192030238 69752380
L191839761 69752380
L191744523 69704761
L191696904 69657142
L191649285 69561904
L191649285 69371428
L191696904 69276190
L191744523 69228571
L191839761 69180952
" />
</g><g transform="rotate(-90.000000 174725000.000000 93520000.000000)">
<text x="174725000.000000" y="94020000.000000"
transform="scale(-1 1) translate(-349450000.000000 0)"
textLength="1757381.000000" font-size="1333333.000000" lengthAdjust="spacingAndGlyphs"
text-anchor="middle" opacity="0">R2</text>
</g>
<g class="stroked-text"><desc>R2</desc>
<path d="M175177380 93353333
L174701190 93020000
" />
<path d="M175177380 92781904
L174177380 92781904
L174177380 93162857
L174225000 93258095
L174272619 93305714
L174367857 93353333
L174510714 93353333
L174605952 93305714
L174653571 93258095
L174701190 93162857
L174701190 92781904
" />
<path d="M174272619 93734285
L174225000 93781904
L174177380 93877142
L174177380 94115238
L174225000 94210476
L174272619 94258095
L174367857 94305714
L174463095 94305714
L174605952 94258095
L175177380 93686666
L175177380 94305714
" />
</g><g transform="rotate(-90.000000 160372000.000000 122428000.000000)">
<text x="160372000.000000" y="122928000.000000"
transform="scale(-1 1) translate(-320744000.000000 0)"
textLength="1757381.000000" font-size="1333333.000000" lengthAdjust="spacingAndGlyphs"
text-anchor="middle" opacity="0">C2</text>
</g>
<g class="stroked-text"><desc>C2</desc>
<path d="M160729142 122261333
L160776761 122213714
L160824380 122070857
L160824380 121975619
L160776761 121832761
L160681523 121737523
L160586285 121689904
L160395809 121642285
L160252952 121642285
L160062476 121689904
L159967238 121737523
L159872000 121832761
L159824380 121975619
L159824380 122070857
L159872000 122213714
L159919619 122261333
" />
<path d="M159919619 122642285
L159872000 122689904
L159824380 122785142
L159824380 123023238
L159872000 123118476
L159919619 123166095
L160014857 123213714
L160110095 123213714
L160252952 123166095
L160824380 122594666
L160824380 123213714
" />
</g><text x="177752500.000000" y="91620000.000000"
transform="scale(-1 1) translate(-355505000.000000 0)"
textLength="1757381.000000" font-size="1333333.000000" lengthAdjust="spacingAndGlyphs"
text-anchor="middle" opacity="0">C8</text>
<g class="stroked-text"><desc>C8</desc>
<path d="M177919166 91477142
L177966785 91524761
L178109642 91572380
L178204880 91572380
L178347738 91524761
L178442976 91429523
L178490595 91334285
L178538214 91143809
L178538214 91000952
L178490595 90810476
L178442976 90715238
L178347738 90620000
L178204880 90572380
L178109642 90572380
L177966785 90620000
L177919166 90667619
" />
<path d="M177347738 91000952
L177442976 90953333
L177490595 90905714
L177538214 90810476
L177538214 90762857
L177490595 90667619
L177442976 90620000
L177347738 90572380
L177157261 90572380
L177062023 90620000
L177014404 90667619
L176966785 90762857
L176966785 90810476
L177014404 90905714
L177062023 90953333
L177157261 91000952
L177347738 91000952
L177442976 91048571
L177490595 91096190
L177538214 91191428
L177538214 91381904
L177490595 91477142
L177442976 91524761
L177347738 91572380
L177157261 91572380
L177062023 91524761
L177014404 91477142
L176966785 91381904
L176966785 91191428
L177014404 91096190
L177062023 91048571
L177157261 91000952
" />
</g><text x="182600000.000000" y="66670000.000000"
transform="scale(-1 1) translate(-365200000.000000 0)"
textLength="2709762.000000" font-size="1333333.000000" lengthAdjust="spacingAndGlyphs"
text-anchor="middle" opacity="0">C10</text>
<g class="stroked-text"><desc>C10</desc>
<path d="M183242857 66527142
L183290476 66574761
L183433333 66622380
L183528571 66622380
L183671428 66574761
L183766666 66479523
L183814285 66384285
L183861904 66193809
L183861904 66050952
L183814285 65860476
L183766666 65765238
L183671428 65670000
L183528571 65622380
L183433333 65622380
L183290476 65670000
L183242857 65717619
" />
<path d="M182290476 66622380
L182861904 66622380
" />
<path d="M182576190 66622380
L182576190 65622380
L182671428 65765238
L182766666 65860476
L182861904 65908095
" />
<path d="M181671428 65622380
L181576190 65622380
L181480952 65670000
L181433333 65717619
L181385714 65812857
L181338095 66003333
L181338095 66241428
L181385714 66431904
L181433333 66527142
L181480952 66574761
L181576190 66622380
L181671428 66622380
L181766666 66574761
L181814285 66527142
L181861904 66431904
L181909523 66241428
L181909523 66003333
L181861904 65812857
L181814285 65717619
L181766666 65670000
L181671428 65622380
" />
</g></g>
<g style="fill:#000000; fill-opacity:0.0; 
stroke:#000000; stroke-width:120000.000000; stroke-opacity:1; 
stroke-linecap:round; stroke-linejoin:round;">
<path d="M206630000 53052064
L206630000 52597936
" />
<path d="M208100000 53052064
L208100000 52597936
" />
<path d="M181557000 98372936
L181557000 98827064
" />
<path d="M180087000 98372936
L180087000 98827064
" />
<path d="M192207936 58275000
L192662064 58275000
" />
<path d="M192207936 56805000
L192662064 56805000
" />
<path d="M212997000 53052064
L212997000 52597936
" />
<path d="M211527000 53052064
L211527000 52597936
" />
<path d="M200462936 68385000
L200917064 68385000
" />
<path d="M200462936 66915000
L200917064 66915000
" />
<path d="M186157000 100912936
L186157000 101367064
" />
<path d="M187627000 100912936
L187627000 101367064
" />
<path d="M210457000 53052064
L210457000 52597936
" />
<path d="M208987000 53052064
L208987000 52597936
" />
</g>
<g style="fill:#000000; fill-opacity:0.0; 
stroke:#000000; stroke-width:150000.000000; stroke-opacity:1; 
stroke-linecap:round; stroke-linejoin:round;">
<path d="M169197500 105149888
L169197500 104824888
" />
<path d="M169197500 105149888
L169522500 105149888
" />
<path d="M176447500 105149888
L176222500 105149888
" />
<path d="M169197500 97899888
L169522500 97899888
" />
<path d="M176222500 105149888
L176222500 106574888
" />
<path d="M169197500 97899888
L169197500 98224888
" />
<path d="M176447500 97899888
L176122500 97899888
" />
<path d="M176447500 105149888
L176447500 104824888
" />
<path d="M176447500 97899888
L176447500 98224888
" />
</g>
<g style="fill:#000000; fill-opacity:0.0; 
stroke:#000000; stroke-width:120000.000000; stroke-opacity:1; 
stroke-linecap:round; stroke-linejoin:round;">
<path d="M168222064 117280000
L167767936 117280000
" />
<path d="M168222064 118750000
L167767936 118750000
" />
<path d="M171070000 109096248
L171070000 109618752
" />
<path d="M172540000 109096248
L172540000 109618752
" />
<path d="M178715000 74885000
L178715000 76700000
" />
<path d="M178980000 67165000
L178715000 67165000
" />
<path d="M163360000 74885000
L163625000 74885000
" />
<path d="M163360000 67165000
L163625000 67165000
" />
<path d="M178980000 71025000
L178980000 74885000
" />
<path d="M163360000 71025000
L163360000 67165000
" />
<path d="M163360000 71025000
L163360000 74885000
" />
<path d="M178980000 74885000
L178715000 74885000
" />
<path d="M178980000 71025000
L178980000 67165000
" />
<path d="M200462936 58246000
L200917064 58246000
" />
<path d="M200462936 56776000
L200917064 56776000
" />
<path d="M192207936 66915000
L192662064 66915000
" />
<path d="M192207936 68385000
L192662064 68385000
" />
<path d="M173810000 93747064
L173810000 93292936
" />
<path d="M172340000 93747064
L172340000 93292936
" />
<path d="M161317000 122166748
L161317000 122689252
" />
<path d="M162787000 122166748
L162787000 122689252
" />
<path d="M177491248 88705000
L178013752 88705000
" />
<path d="M177491248 90175000
L178013752 90175000
" />
<path d="M182861252 68585000
L182338748 68585000
" />
<path d="M182861252 67115000
L182338748 67115000
" />
<g >
</g>
<g >
</g>
<g >
</g>
<g >
</g>
<g >
</g>
<g >
</g>
<g >
</g>
<g >
</g>
<g >
</g>
<g >
</g>
<g >
</g>
<g >
</g>
<g >
</g>
<g >
</g>
<g >
</g>
<g >
</g>
<g >
</g>
<g >
</g>
<g >
</g>
<g >
</g>
<g >
</g>
<g >
</g>
<g >
</g>
<g >
</g>
<g >
</g>
<g >
</g>
<g >
</g>
<g >
</g>
<g >
</g>
<g >
</g>
<g >
</g>
<g >
</g>
<g >
</g>
<g >
</g>
<g >
</g>
<g >
</g>
<g >
</g>
<g >
</g>
<g >
</g>
<g >
</g>
<g >
</g>
<g >
</g>
<g >
</g>
<g >
</g>
<g >
</g>
</g> 
</svg>
