%TF.GenerationSoftware,KiCad,Pcbnew,(6.0.7)*%
%TF.CreationDate,2022-08-22T18:42:59+08:00*%
%TF.ProjectId,TurnsCounter,5475726e-7343-46f7-956e-7465722e6b69,rev?*%
%TF.SameCoordinates,PX8d707f0PY7735940*%
%TF.FileFunction,Legend,Top*%
%TF.FilePolarity,Positive*%
%FSLAX46Y46*%
G04 Gerber Fmt 4.6, Leading zero omitted, Abs format (unit mm)*
G04 Created by KiCad (PCBNEW (6.0.7)) date 2022-08-22 18:42:59*
%MOMM*%
%LPD*%
G01*
G04 APERTURE LIST*
%ADD10C,0.150000*%
%ADD11C,0.120000*%
G04 APERTURE END LIST*
D10*
%TO.C,J10*%
X37147380Y43640477D02*
X37861666Y43640477D01*
X38004523Y43592858D01*
X38099761Y43497620D01*
X38147380Y43354762D01*
X38147380Y43259524D01*
X38147380Y44640477D02*
X38147380Y44069048D01*
X38147380Y44354762D02*
X37147380Y44354762D01*
X37290238Y44259524D01*
X37385476Y44164286D01*
X37433095Y44069048D01*
X37147380Y45259524D02*
X37147380Y45354762D01*
X37195000Y45450000D01*
X37242619Y45497620D01*
X37337857Y45545239D01*
X37528333Y45592858D01*
X37766428Y45592858D01*
X37956904Y45545239D01*
X38052142Y45497620D01*
X38099761Y45450000D01*
X38147380Y45354762D01*
X38147380Y45259524D01*
X38099761Y45164286D01*
X38052142Y45116667D01*
X37956904Y45069048D01*
X37766428Y45021429D01*
X37528333Y45021429D01*
X37337857Y45069048D01*
X37242619Y45116667D01*
X37195000Y45164286D01*
X37147380Y45259524D01*
%TO.C,J9*%
X12557380Y64436667D02*
X13271666Y64436667D01*
X13414523Y64389048D01*
X13509761Y64293810D01*
X13557380Y64150953D01*
X13557380Y64055715D01*
X13557380Y64960477D02*
X13557380Y65150953D01*
X13509761Y65246191D01*
X13462142Y65293810D01*
X13319285Y65389048D01*
X13128809Y65436667D01*
X12747857Y65436667D01*
X12652619Y65389048D01*
X12605000Y65341429D01*
X12557380Y65246191D01*
X12557380Y65055715D01*
X12605000Y64960477D01*
X12652619Y64912858D01*
X12747857Y64865239D01*
X12985952Y64865239D01*
X13081190Y64912858D01*
X13128809Y64960477D01*
X13176428Y65055715D01*
X13176428Y65246191D01*
X13128809Y65341429D01*
X13081190Y65389048D01*
X12985952Y65436667D01*
%TO.C,C9*%
X34078445Y55582858D02*
X34030826Y55535239D01*
X33887969Y55487620D01*
X33792731Y55487620D01*
X33649873Y55535239D01*
X33554635Y55630477D01*
X33507016Y55725715D01*
X33459397Y55916191D01*
X33459397Y56059048D01*
X33507016Y56249524D01*
X33554635Y56344762D01*
X33649873Y56440000D01*
X33792731Y56487620D01*
X33887969Y56487620D01*
X34030826Y56440000D01*
X34078445Y56392381D01*
X34554635Y55487620D02*
X34745112Y55487620D01*
X34840350Y55535239D01*
X34887969Y55582858D01*
X34983207Y55725715D01*
X35030826Y55916191D01*
X35030826Y56297143D01*
X34983207Y56392381D01*
X34935588Y56440000D01*
X34840350Y56487620D01*
X34649873Y56487620D01*
X34554635Y56440000D01*
X34507016Y56392381D01*
X34459397Y56297143D01*
X34459397Y56059048D01*
X34507016Y55963810D01*
X34554635Y55916191D01*
X34649873Y55868572D01*
X34840350Y55868572D01*
X34935588Y55916191D01*
X34983207Y55963810D01*
X35030826Y56059048D01*
%TO.C,J8*%
X39227380Y77771667D02*
X39941666Y77771667D01*
X40084523Y77724048D01*
X40179761Y77628810D01*
X40227380Y77485953D01*
X40227380Y77390715D01*
X39655952Y78390715D02*
X39608333Y78295477D01*
X39560714Y78247858D01*
X39465476Y78200239D01*
X39417857Y78200239D01*
X39322619Y78247858D01*
X39275000Y78295477D01*
X39227380Y78390715D01*
X39227380Y78581191D01*
X39275000Y78676429D01*
X39322619Y78724048D01*
X39417857Y78771667D01*
X39465476Y78771667D01*
X39560714Y78724048D01*
X39608333Y78676429D01*
X39655952Y78581191D01*
X39655952Y78390715D01*
X39703571Y78295477D01*
X39751190Y78247858D01*
X39846428Y78200239D01*
X40036904Y78200239D01*
X40132142Y78247858D01*
X40179761Y78295477D01*
X40227380Y78390715D01*
X40227380Y78581191D01*
X40179761Y78676429D01*
X40132142Y78724048D01*
X40036904Y78771667D01*
X39846428Y78771667D01*
X39751190Y78724048D01*
X39703571Y78676429D01*
X39655952Y78581191D01*
%TO.C,J1*%
X25374880Y14361667D02*
X26089166Y14361667D01*
X26232023Y14314048D01*
X26327261Y14218810D01*
X26374880Y14075953D01*
X26374880Y13980715D01*
X26374880Y15361667D02*
X26374880Y14790239D01*
X26374880Y15075953D02*
X25374880Y15075953D01*
X25517738Y14980715D01*
X25612976Y14885477D01*
X25660595Y14790239D01*
%TO.C,SW5*%
X49784761Y66051667D02*
X49832380Y66194524D01*
X49832380Y66432620D01*
X49784761Y66527858D01*
X49737142Y66575477D01*
X49641904Y66623096D01*
X49546666Y66623096D01*
X49451428Y66575477D01*
X49403809Y66527858D01*
X49356190Y66432620D01*
X49308571Y66242143D01*
X49260952Y66146905D01*
X49213333Y66099286D01*
X49118095Y66051667D01*
X49022857Y66051667D01*
X48927619Y66099286D01*
X48880000Y66146905D01*
X48832380Y66242143D01*
X48832380Y66480239D01*
X48880000Y66623096D01*
X48832380Y66956429D02*
X49832380Y67194524D01*
X49118095Y67385000D01*
X49832380Y67575477D01*
X48832380Y67813572D01*
X48832380Y68670715D02*
X48832380Y68194524D01*
X49308571Y68146905D01*
X49260952Y68194524D01*
X49213333Y68289762D01*
X49213333Y68527858D01*
X49260952Y68623096D01*
X49308571Y68670715D01*
X49403809Y68718334D01*
X49641904Y68718334D01*
X49737142Y68670715D01*
X49784761Y68623096D01*
X49832380Y68527858D01*
X49832380Y68289762D01*
X49784761Y68194524D01*
X49737142Y68146905D01*
%TO.C,J4*%
X-932620Y35109167D02*
X-218334Y35109167D01*
X-75477Y35061548D01*
X19761Y34966310D01*
X67380Y34823453D01*
X67380Y34728215D01*
X-599286Y36013929D02*
X67380Y36013929D01*
X-980239Y35775834D02*
X-265953Y35537739D01*
X-265953Y36156786D01*
%TO.C,J2*%
X37806666Y11340120D02*
X37806666Y10625834D01*
X37759047Y10482977D01*
X37663809Y10387739D01*
X37520952Y10340120D01*
X37425714Y10340120D01*
X38235238Y11244881D02*
X38282857Y11292500D01*
X38378095Y11340120D01*
X38616190Y11340120D01*
X38711428Y11292500D01*
X38759047Y11244881D01*
X38806666Y11149643D01*
X38806666Y11054405D01*
X38759047Y10911548D01*
X38187619Y10340120D01*
X38806666Y10340120D01*
%TO.C,C1*%
X28517142Y3528334D02*
X28564761Y3480715D01*
X28612380Y3337858D01*
X28612380Y3242620D01*
X28564761Y3099762D01*
X28469523Y3004524D01*
X28374285Y2956905D01*
X28183809Y2909286D01*
X28040952Y2909286D01*
X27850476Y2956905D01*
X27755238Y3004524D01*
X27660000Y3099762D01*
X27612380Y3242620D01*
X27612380Y3337858D01*
X27660000Y3480715D01*
X27707619Y3528334D01*
X28612380Y4480715D02*
X28612380Y3909286D01*
X28612380Y4195000D02*
X27612380Y4195000D01*
X27755238Y4099762D01*
X27850476Y4004524D01*
X27898095Y3909286D01*
%TO.C,J5*%
X3476666Y18732620D02*
X3476666Y18018334D01*
X3429047Y17875477D01*
X3333809Y17780239D01*
X3190952Y17732620D01*
X3095714Y17732620D01*
X4429047Y18732620D02*
X3952857Y18732620D01*
X3905238Y18256429D01*
X3952857Y18304048D01*
X4048095Y18351667D01*
X4286190Y18351667D01*
X4381428Y18304048D01*
X4429047Y18256429D01*
X4476666Y18161191D01*
X4476666Y17923096D01*
X4429047Y17827858D01*
X4381428Y17780239D01*
X4286190Y17732620D01*
X4048095Y17732620D01*
X3952857Y17780239D01*
X3905238Y17827858D01*
%TO.C,C4*%
X12769142Y3147334D02*
X12816761Y3099715D01*
X12864380Y2956858D01*
X12864380Y2861620D01*
X12816761Y2718762D01*
X12721523Y2623524D01*
X12626285Y2575905D01*
X12435809Y2528286D01*
X12292952Y2528286D01*
X12102476Y2575905D01*
X12007238Y2623524D01*
X11912000Y2718762D01*
X11864380Y2861620D01*
X11864380Y2956858D01*
X11912000Y3099715D01*
X11959619Y3147334D01*
X12197714Y4004477D02*
X12864380Y4004477D01*
X11816761Y3766381D02*
X12531047Y3528286D01*
X12531047Y4147334D01*
%TO.C,D3*%
X40737380Y1981905D02*
X39737380Y1981905D01*
X39737380Y2220000D01*
X39785000Y2362858D01*
X39880238Y2458096D01*
X39975476Y2505715D01*
X40165952Y2553334D01*
X40308809Y2553334D01*
X40499285Y2505715D01*
X40594523Y2458096D01*
X40689761Y2362858D01*
X40737380Y2220000D01*
X40737380Y1981905D01*
X39737380Y2886667D02*
X39737380Y3505715D01*
X40118333Y3172381D01*
X40118333Y3315239D01*
X40165952Y3410477D01*
X40213571Y3458096D01*
X40308809Y3505715D01*
X40546904Y3505715D01*
X40642142Y3458096D01*
X40689761Y3410477D01*
X40737380Y3315239D01*
X40737380Y3029524D01*
X40689761Y2934286D01*
X40642142Y2886667D01*
%TO.C,RV1*%
X14337380Y3754762D02*
X13861190Y3421429D01*
X14337380Y3183334D02*
X13337380Y3183334D01*
X13337380Y3564286D01*
X13385000Y3659524D01*
X13432619Y3707143D01*
X13527857Y3754762D01*
X13670714Y3754762D01*
X13765952Y3707143D01*
X13813571Y3659524D01*
X13861190Y3564286D01*
X13861190Y3183334D01*
X13337380Y4040477D02*
X14337380Y4373810D01*
X13337380Y4707143D01*
X14337380Y5564286D02*
X14337380Y4992858D01*
X14337380Y5278572D02*
X13337380Y5278572D01*
X13480238Y5183334D01*
X13575476Y5088096D01*
X13623095Y4992858D01*
%TO.C,J11*%
X65865476Y5397620D02*
X65865476Y4683334D01*
X65817857Y4540477D01*
X65722619Y4445239D01*
X65579761Y4397620D01*
X65484523Y4397620D01*
X66865476Y4397620D02*
X66294047Y4397620D01*
X66579761Y4397620D02*
X66579761Y5397620D01*
X66484523Y5254762D01*
X66389285Y5159524D01*
X66294047Y5111905D01*
X67817857Y4397620D02*
X67246428Y4397620D01*
X67532142Y4397620D02*
X67532142Y5397620D01*
X67436904Y5254762D01*
X67341666Y5159524D01*
X67246428Y5111905D01*
%TO.C,J7*%
X3476666Y2222620D02*
X3476666Y1508334D01*
X3429047Y1365477D01*
X3333809Y1270239D01*
X3190952Y1222620D01*
X3095714Y1222620D01*
X3857619Y2222620D02*
X4524285Y2222620D01*
X4095714Y1222620D01*
%TO.C,D1*%
X15929015Y8437905D02*
X14929015Y8437905D01*
X14929015Y8676000D01*
X14976635Y8818858D01*
X15071873Y8914096D01*
X15167111Y8961715D01*
X15357587Y9009334D01*
X15500444Y9009334D01*
X15690920Y8961715D01*
X15786158Y8914096D01*
X15881396Y8818858D01*
X15929015Y8676000D01*
X15929015Y8437905D01*
X15929015Y9961715D02*
X15929015Y9390286D01*
X15929015Y9676000D02*
X14929015Y9676000D01*
X15071873Y9580762D01*
X15167111Y9485524D01*
X15214730Y9390286D01*
X12078380Y9654096D02*
X11078380Y9654096D01*
X12078380Y10225524D02*
X11506952Y9796953D01*
X11078380Y10225524D02*
X11649809Y9654096D01*
%TO.C,D2*%
X60859904Y71094620D02*
X60859904Y72094620D01*
X61098000Y72094620D01*
X61240857Y72047000D01*
X61336095Y71951762D01*
X61383714Y71856524D01*
X61431333Y71666048D01*
X61431333Y71523191D01*
X61383714Y71332715D01*
X61336095Y71237477D01*
X61240857Y71142239D01*
X61098000Y71094620D01*
X60859904Y71094620D01*
X61812285Y71999381D02*
X61859904Y72047000D01*
X61955142Y72094620D01*
X62193238Y72094620D01*
X62288476Y72047000D01*
X62336095Y71999381D01*
X62383714Y71904143D01*
X62383714Y71808905D01*
X62336095Y71666048D01*
X61764666Y71094620D01*
X62383714Y71094620D01*
%TO.C,SW3*%
X41529761Y66051667D02*
X41577380Y66194524D01*
X41577380Y66432620D01*
X41529761Y66527858D01*
X41482142Y66575477D01*
X41386904Y66623096D01*
X41291666Y66623096D01*
X41196428Y66575477D01*
X41148809Y66527858D01*
X41101190Y66432620D01*
X41053571Y66242143D01*
X41005952Y66146905D01*
X40958333Y66099286D01*
X40863095Y66051667D01*
X40767857Y66051667D01*
X40672619Y66099286D01*
X40625000Y66146905D01*
X40577380Y66242143D01*
X40577380Y66480239D01*
X40625000Y66623096D01*
X40577380Y66956429D02*
X41577380Y67194524D01*
X40863095Y67385000D01*
X41577380Y67575477D01*
X40577380Y67813572D01*
X40577380Y68099286D02*
X40577380Y68718334D01*
X40958333Y68385000D01*
X40958333Y68527858D01*
X41005952Y68623096D01*
X41053571Y68670715D01*
X41148809Y68718334D01*
X41386904Y68718334D01*
X41482142Y68670715D01*
X41529761Y68623096D01*
X41577380Y68527858D01*
X41577380Y68242143D01*
X41529761Y68146905D01*
X41482142Y68099286D01*
%TO.C,SW4*%
X49784761Y56016667D02*
X49832380Y56159524D01*
X49832380Y56397620D01*
X49784761Y56492858D01*
X49737142Y56540477D01*
X49641904Y56588096D01*
X49546666Y56588096D01*
X49451428Y56540477D01*
X49403809Y56492858D01*
X49356190Y56397620D01*
X49308571Y56207143D01*
X49260952Y56111905D01*
X49213333Y56064286D01*
X49118095Y56016667D01*
X49022857Y56016667D01*
X48927619Y56064286D01*
X48880000Y56111905D01*
X48832380Y56207143D01*
X48832380Y56445239D01*
X48880000Y56588096D01*
X48832380Y56921429D02*
X49832380Y57159524D01*
X49118095Y57350000D01*
X49832380Y57540477D01*
X48832380Y57778572D01*
X49165714Y58588096D02*
X49832380Y58588096D01*
X48784761Y58350000D02*
X49499047Y58111905D01*
X49499047Y58730953D01*
%TO.C,SW2*%
X41529761Y56016667D02*
X41577380Y56159524D01*
X41577380Y56397620D01*
X41529761Y56492858D01*
X41482142Y56540477D01*
X41386904Y56588096D01*
X41291666Y56588096D01*
X41196428Y56540477D01*
X41148809Y56492858D01*
X41101190Y56397620D01*
X41053571Y56207143D01*
X41005952Y56111905D01*
X40958333Y56064286D01*
X40863095Y56016667D01*
X40767857Y56016667D01*
X40672619Y56064286D01*
X40625000Y56111905D01*
X40577380Y56207143D01*
X40577380Y56445239D01*
X40625000Y56588096D01*
X40577380Y56921429D02*
X41577380Y57159524D01*
X40863095Y57350000D01*
X41577380Y57540477D01*
X40577380Y57778572D01*
X40672619Y58111905D02*
X40625000Y58159524D01*
X40577380Y58254762D01*
X40577380Y58492858D01*
X40625000Y58588096D01*
X40672619Y58635715D01*
X40767857Y58683334D01*
X40863095Y58683334D01*
X41005952Y58635715D01*
X41577380Y58064286D01*
X41577380Y58683334D01*
%TO.C,RV2*%
X31247380Y51459762D02*
X30771190Y51126429D01*
X31247380Y50888334D02*
X30247380Y50888334D01*
X30247380Y51269286D01*
X30295000Y51364524D01*
X30342619Y51412143D01*
X30437857Y51459762D01*
X30580714Y51459762D01*
X30675952Y51412143D01*
X30723571Y51364524D01*
X30771190Y51269286D01*
X30771190Y50888334D01*
X30247380Y51745477D02*
X31247380Y52078810D01*
X30247380Y52412143D01*
X30342619Y52697858D02*
X30295000Y52745477D01*
X30247380Y52840715D01*
X30247380Y53078810D01*
X30295000Y53174048D01*
X30342619Y53221667D01*
X30437857Y53269286D01*
X30533095Y53269286D01*
X30675952Y53221667D01*
X31247380Y52650239D01*
X31247380Y53269286D01*
%TO.C,J6*%
X55737380Y77771667D02*
X56451666Y77771667D01*
X56594523Y77724048D01*
X56689761Y77628810D01*
X56737380Y77485953D01*
X56737380Y77390715D01*
X55737380Y78676429D02*
X55737380Y78485953D01*
X55785000Y78390715D01*
X55832619Y78343096D01*
X55975476Y78247858D01*
X56165952Y78200239D01*
X56546904Y78200239D01*
X56642142Y78247858D01*
X56689761Y78295477D01*
X56737380Y78390715D01*
X56737380Y78581191D01*
X56689761Y78676429D01*
X56642142Y78724048D01*
X56546904Y78771667D01*
X56308809Y78771667D01*
X56213571Y78724048D01*
X56165952Y78676429D01*
X56118333Y78581191D01*
X56118333Y78390715D01*
X56165952Y78295477D01*
X56213571Y78247858D01*
X56308809Y78200239D01*
%TO.C,SW1*%
X25709761Y33031667D02*
X25757380Y33174524D01*
X25757380Y33412620D01*
X25709761Y33507858D01*
X25662142Y33555477D01*
X25566904Y33603096D01*
X25471666Y33603096D01*
X25376428Y33555477D01*
X25328809Y33507858D01*
X25281190Y33412620D01*
X25233571Y33222143D01*
X25185952Y33126905D01*
X25138333Y33079286D01*
X25043095Y33031667D01*
X24947857Y33031667D01*
X24852619Y33079286D01*
X24805000Y33126905D01*
X24757380Y33222143D01*
X24757380Y33460239D01*
X24805000Y33603096D01*
X24757380Y33936429D02*
X25757380Y34174524D01*
X25043095Y34365000D01*
X25757380Y34555477D01*
X24757380Y34793572D01*
X25757380Y35698334D02*
X25757380Y35126905D01*
X25757380Y35412620D02*
X24757380Y35412620D01*
X24900238Y35317381D01*
X24995476Y35222143D01*
X25043095Y35126905D01*
%TO.C,J3*%
X35226666Y30817620D02*
X35226666Y30103334D01*
X35179047Y29960477D01*
X35083809Y29865239D01*
X34940952Y29817620D01*
X34845714Y29817620D01*
X35607619Y30817620D02*
X36226666Y30817620D01*
X35893333Y30436667D01*
X36036190Y30436667D01*
X36131428Y30389048D01*
X36179047Y30341429D01*
X36226666Y30246191D01*
X36226666Y30008096D01*
X36179047Y29912858D01*
X36131428Y29865239D01*
X36036190Y29817620D01*
X35750476Y29817620D01*
X35655238Y29865239D01*
X35607619Y29912858D01*
%TO.C,U1*%
X20473095Y14817620D02*
X20473095Y14008096D01*
X20520714Y13912858D01*
X20568333Y13865239D01*
X20663571Y13817620D01*
X20854047Y13817620D01*
X20949285Y13865239D01*
X20996904Y13912858D01*
X21044523Y14008096D01*
X21044523Y14817620D01*
X22044523Y13817620D02*
X21473095Y13817620D01*
X21758809Y13817620D02*
X21758809Y14817620D01*
X21663571Y14674762D01*
X21568333Y14579524D01*
X21473095Y14531905D01*
D11*
%TO.C,J10*%
X33655000Y45780000D02*
X15815000Y45780000D01*
X15815000Y45780000D02*
X15815000Y43120000D01*
X33655000Y45780000D02*
X33655000Y43120000D01*
X33655000Y43120000D02*
X15815000Y43120000D01*
X36255000Y43120000D02*
X34925000Y43120000D01*
X36255000Y44450000D02*
X36255000Y43120000D01*
%TO.C,J9*%
X14545000Y66100000D02*
X15875000Y66100000D01*
X14545000Y64770000D02*
X14545000Y66100000D01*
X17145000Y66100000D02*
X34985000Y66100000D01*
X34985000Y63440000D02*
X34985000Y66100000D01*
X17145000Y63440000D02*
X17145000Y66100000D01*
X17145000Y63440000D02*
X34985000Y63440000D01*
%TO.C,C9*%
X33965112Y60730000D02*
X33965112Y62255000D01*
X32084112Y58247000D02*
X32084112Y58650000D01*
X32684112Y60730000D02*
X32684112Y61755000D01*
X33484112Y57222000D02*
X33484112Y58650000D01*
X33484112Y60730000D02*
X33484112Y62158000D01*
X31644112Y59406000D02*
X31644112Y59974000D01*
X33004112Y60730000D02*
X33004112Y61958000D01*
X33204112Y60730000D02*
X33204112Y62055000D01*
X33685112Y60730000D02*
X33685112Y62210000D01*
X32244112Y60730000D02*
X32244112Y61343000D01*
X33124112Y60730000D02*
X33124112Y62019000D01*
X32644112Y60730000D02*
X32644112Y61725000D01*
X33044112Y60730000D02*
X33044112Y61980000D01*
X33885112Y57134000D02*
X33885112Y58650000D01*
X32724112Y60730000D02*
X32724112Y61785000D01*
X33725112Y60730000D02*
X33725112Y62218000D01*
X34165112Y57111000D02*
X34165112Y62269000D01*
X33124112Y57361000D02*
X33124112Y58650000D01*
X32484112Y57789000D02*
X32484112Y58650000D01*
X34085112Y57114000D02*
X34085112Y62266000D01*
X32404112Y57864000D02*
X32404112Y58650000D01*
X34125112Y57112000D02*
X34125112Y62268000D01*
X32884112Y57490000D02*
X32884112Y58650000D01*
X33244112Y60730000D02*
X33244112Y62072000D01*
X32284112Y60730000D02*
X32284112Y61389000D01*
X32524112Y60730000D02*
X32524112Y61627000D01*
X33805112Y60730000D02*
X33805112Y62233000D01*
X33284112Y60730000D02*
X33284112Y62088000D01*
X32044112Y58307000D02*
X32044112Y58650000D01*
X32484112Y60730000D02*
X32484112Y61591000D01*
X33404112Y60730000D02*
X33404112Y62132000D01*
X32804112Y57541000D02*
X32804112Y58650000D01*
X34005112Y57121000D02*
X34005112Y58650000D01*
X31884112Y58592000D02*
X31884112Y60788000D01*
X32964112Y60730000D02*
X32964112Y61937000D01*
X33244112Y57308000D02*
X33244112Y58650000D01*
X31964112Y60730000D02*
X31964112Y60941000D01*
X32364112Y57905000D02*
X32364112Y58650000D01*
X32764112Y60730000D02*
X32764112Y61812000D01*
X33725112Y57162000D02*
X33725112Y58650000D01*
X32404112Y60730000D02*
X32404112Y61516000D01*
X32444112Y57826000D02*
X32444112Y58650000D01*
X33925112Y57129000D02*
X33925112Y58650000D01*
X33925112Y60730000D02*
X33925112Y62251000D01*
X33164112Y60730000D02*
X33164112Y62038000D01*
X32164112Y58136000D02*
X32164112Y58650000D01*
X33645112Y57179000D02*
X33645112Y58650000D01*
X32084112Y60730000D02*
X32084112Y61133000D01*
X31844112Y58679000D02*
X31844112Y60701000D01*
X33004112Y57422000D02*
X33004112Y58650000D01*
X32684112Y57625000D02*
X32684112Y58650000D01*
X33044112Y57400000D02*
X33044112Y58650000D01*
X32324112Y60730000D02*
X32324112Y61433000D01*
X32604112Y60730000D02*
X32604112Y61694000D01*
X31684112Y59172000D02*
X31684112Y60208000D01*
X33164112Y57342000D02*
X33164112Y58650000D01*
X33565112Y60730000D02*
X33565112Y62181000D01*
X33605112Y57189000D02*
X33605112Y58650000D01*
X34005112Y60730000D02*
X34005112Y62259000D01*
X32364112Y60730000D02*
X32364112Y61475000D01*
X32924112Y60730000D02*
X32924112Y61914000D01*
X31804112Y58775000D02*
X31804112Y60605000D01*
X32844112Y60730000D02*
X32844112Y61865000D01*
X32964112Y57443000D02*
X32964112Y58650000D01*
X33444112Y60730000D02*
X33444112Y62145000D01*
X33444112Y57235000D02*
X33444112Y58650000D01*
X32204112Y60730000D02*
X32204112Y61295000D01*
X34245112Y57110000D02*
X34245112Y62270000D01*
X33765112Y57154000D02*
X33765112Y58650000D01*
X32004112Y60730000D02*
X32004112Y61009000D01*
X36799887Y57965000D02*
X36799887Y58465000D01*
X33364112Y57262000D02*
X33364112Y58650000D01*
X33084112Y57380000D02*
X33084112Y58650000D01*
X33845112Y60730000D02*
X33845112Y62240000D01*
X33965112Y57125000D02*
X33965112Y58650000D01*
X33324112Y60730000D02*
X33324112Y62104000D01*
X32844112Y57515000D02*
X32844112Y58650000D01*
X33645112Y60730000D02*
X33645112Y62201000D01*
X33084112Y60730000D02*
X33084112Y62000000D01*
X31724112Y59013000D02*
X31724112Y60367000D01*
X32524112Y57753000D02*
X32524112Y58650000D01*
X37049887Y58215000D02*
X36549887Y58215000D01*
X33845112Y57140000D02*
X33845112Y58650000D01*
X32284112Y57991000D02*
X32284112Y58650000D01*
X32764112Y57568000D02*
X32764112Y58650000D01*
X33605112Y60730000D02*
X33605112Y62191000D01*
X31764112Y58885000D02*
X31764112Y60495000D01*
X31964112Y58439000D02*
X31964112Y58650000D01*
X32444112Y60730000D02*
X32444112Y61554000D01*
X33524112Y60730000D02*
X33524112Y62170000D01*
X33765112Y60730000D02*
X33765112Y62226000D01*
X32044112Y60730000D02*
X32044112Y61073000D01*
X32004112Y58371000D02*
X32004112Y58650000D01*
X32724112Y57595000D02*
X32724112Y58650000D01*
X32604112Y57686000D02*
X32604112Y58650000D01*
X33404112Y57248000D02*
X33404112Y58650000D01*
X32124112Y58190000D02*
X32124112Y58650000D01*
X31924112Y58512000D02*
X31924112Y60868000D01*
X34045112Y57117000D02*
X34045112Y62263000D01*
X32924112Y57466000D02*
X32924112Y58650000D01*
X32124112Y60730000D02*
X32124112Y61190000D01*
X33685112Y57170000D02*
X33685112Y58650000D01*
X33204112Y57325000D02*
X33204112Y58650000D01*
X32644112Y57655000D02*
X32644112Y58650000D01*
X34205112Y57110000D02*
X34205112Y62270000D01*
X32324112Y57947000D02*
X32324112Y58650000D01*
X33524112Y57210000D02*
X33524112Y58650000D01*
X32564112Y60730000D02*
X32564112Y61661000D01*
X32884112Y60730000D02*
X32884112Y61890000D01*
X33284112Y57292000D02*
X33284112Y58650000D01*
X33324112Y57276000D02*
X33324112Y58650000D01*
X33364112Y60730000D02*
X33364112Y62118000D01*
X33885112Y60730000D02*
X33885112Y62246000D01*
X32244112Y58037000D02*
X32244112Y58650000D01*
X33805112Y57147000D02*
X33805112Y58650000D01*
X32204112Y58085000D02*
X32204112Y58650000D01*
X32804112Y60730000D02*
X32804112Y61839000D01*
X33565112Y57199000D02*
X33565112Y58650000D01*
X32564112Y57719000D02*
X32564112Y58650000D01*
X32164112Y60730000D02*
X32164112Y61244000D01*
X36865112Y59690000D02*
G75*
G03*
X36865112Y59690000I-2620000J0D01*
G01*
%TO.C,J8*%
X56575000Y76775000D02*
X56575000Y79435000D01*
X43815000Y76775000D02*
X43815000Y79435000D01*
X43815000Y79435000D02*
X56575000Y79435000D01*
X41215000Y79435000D02*
X42545000Y79435000D01*
X43815000Y76775000D02*
X56575000Y76775000D01*
X41215000Y78105000D02*
X41215000Y79435000D01*
%TO.C,J1*%
X38160000Y13910000D02*
X38160000Y16570000D01*
X30480000Y16570000D02*
X38160000Y16570000D01*
X29210000Y13910000D02*
X27880000Y13910000D01*
X30480000Y13910000D02*
X38160000Y13910000D01*
X30480000Y13910000D02*
X30480000Y16570000D01*
X27880000Y13910000D02*
X27880000Y15240000D01*
%TO.C,SW5*%
X54380000Y70885000D02*
X52880000Y70885000D01*
X56880000Y65135000D02*
X56880000Y69635000D01*
X50380000Y69635000D02*
X50380000Y65135000D01*
X52880000Y63885000D02*
X54380000Y63885000D01*
%TO.C,J4*%
X21085000Y30882500D02*
X505000Y30882500D01*
X12845000Y32192500D02*
X12845000Y30882500D01*
X19785000Y38692500D02*
X19785000Y32192500D01*
X8745000Y32192500D02*
X1805000Y32192500D01*
X5215000Y29492500D02*
X6215000Y29492500D01*
X21085000Y40002500D02*
X21085000Y30882500D01*
X1805000Y38692500D02*
X19785000Y38692500D01*
X6215000Y29492500D02*
X5715000Y30492500D01*
X5715000Y30492500D02*
X5215000Y29492500D01*
X8745000Y30882500D02*
X8745000Y32192500D01*
X1805000Y32192500D02*
X1805000Y38692500D01*
X19785000Y32192500D02*
X12845000Y32192500D01*
X505000Y30882500D02*
X505000Y40002500D01*
X12845000Y32192500D02*
X12845000Y32192500D01*
X505000Y40002500D02*
X21085000Y40002500D01*
%TO.C,J2*%
X28790000Y442500D02*
X28790000Y3042500D01*
X43490000Y9642500D02*
X43490000Y442500D01*
X28590000Y1292500D02*
X28590000Y242500D01*
X28790000Y9642500D02*
X30690000Y9642500D01*
X28790000Y6942500D02*
X28790000Y9642500D01*
X43490000Y442500D02*
X28790000Y442500D01*
X34690000Y9642500D02*
X43490000Y9642500D01*
X29640000Y242500D02*
X28590000Y242500D01*
%TO.C,C1*%
X26901000Y3015000D02*
X25450000Y3015000D01*
X26347000Y1974000D02*
X25450000Y1974000D01*
X26979000Y3455000D02*
X25450000Y3455000D01*
X26634000Y2374000D02*
X25450000Y2374000D01*
X26739000Y2574000D02*
X25450000Y2574000D01*
X23370000Y3175000D02*
X21882000Y3175000D01*
X26559000Y2254000D02*
X25450000Y2254000D01*
X23370000Y2814000D02*
X21982000Y2814000D01*
X26720000Y2534000D02*
X25450000Y2534000D01*
X26475000Y2134000D02*
X25450000Y2134000D01*
X23370000Y2494000D02*
X22120000Y2494000D01*
X26852000Y2854000D02*
X25450000Y2854000D01*
X23370000Y2134000D02*
X22345000Y2134000D01*
X23370000Y1654000D02*
X22805000Y1654000D01*
X23370000Y3375000D02*
X21849000Y3375000D01*
X23370000Y3295000D02*
X21860000Y3295000D01*
X26966000Y3335000D02*
X25450000Y3335000D01*
X23370000Y2254000D02*
X22261000Y2254000D01*
X25853000Y1534000D02*
X25450000Y1534000D01*
X26610000Y2334000D02*
X25450000Y2334000D01*
X23370000Y3215000D02*
X21874000Y3215000D01*
X26381000Y2014000D02*
X25450000Y2014000D01*
X25421000Y1294000D02*
X23399000Y1294000D01*
X23370000Y2574000D02*
X22081000Y2574000D01*
X24928000Y1134000D02*
X23892000Y1134000D01*
X26311000Y1934000D02*
X25450000Y1934000D01*
X26838000Y2814000D02*
X25450000Y2814000D01*
X23370000Y1614000D02*
X22856000Y1614000D01*
X26505000Y2174000D02*
X25450000Y2174000D01*
X23370000Y1574000D02*
X22910000Y1574000D01*
X25910000Y1574000D02*
X25450000Y1574000D01*
X26015000Y1654000D02*
X25450000Y1654000D01*
X26986000Y3535000D02*
X21834000Y3535000D01*
X26989000Y3615000D02*
X21831000Y3615000D01*
X26921000Y3095000D02*
X25450000Y3095000D01*
X23370000Y1694000D02*
X22757000Y1694000D01*
X23370000Y2934000D02*
X21942000Y2934000D01*
X23370000Y2334000D02*
X22210000Y2334000D01*
X23370000Y2694000D02*
X22028000Y2694000D01*
X23370000Y2894000D02*
X21955000Y2894000D01*
X26445000Y2094000D02*
X25450000Y2094000D01*
X25885000Y6499775D02*
X25885000Y5999775D01*
X23370000Y3415000D02*
X21845000Y3415000D01*
X26063000Y1694000D02*
X25450000Y1694000D01*
X23370000Y2974000D02*
X21930000Y2974000D01*
X23370000Y1534000D02*
X22967000Y1534000D01*
X26946000Y3215000D02*
X25450000Y3215000D01*
X26938000Y3175000D02*
X25450000Y3175000D01*
X26990000Y3695000D02*
X21830000Y3695000D01*
X23370000Y2374000D02*
X22186000Y2374000D01*
X24694000Y1094000D02*
X24126000Y1094000D01*
X23370000Y2174000D02*
X22315000Y2174000D01*
X26274000Y1894000D02*
X25450000Y1894000D01*
X25508000Y1334000D02*
X23312000Y1334000D01*
X23370000Y3055000D02*
X21909000Y3055000D01*
X26911000Y3055000D02*
X25450000Y3055000D01*
X26153000Y1774000D02*
X25450000Y1774000D01*
X23370000Y1454000D02*
X23091000Y1454000D01*
X23370000Y3455000D02*
X21841000Y3455000D01*
X26953000Y3255000D02*
X25450000Y3255000D01*
X26988000Y3575000D02*
X21832000Y3575000D01*
X26700000Y2494000D02*
X25450000Y2494000D01*
X25729000Y1454000D02*
X25450000Y1454000D01*
X23370000Y2614000D02*
X22062000Y2614000D01*
X26678000Y2454000D02*
X25450000Y2454000D01*
X23370000Y3015000D02*
X21919000Y3015000D01*
X26960000Y3295000D02*
X25450000Y3295000D01*
X23370000Y1934000D02*
X22509000Y1934000D01*
X23370000Y1974000D02*
X22473000Y1974000D01*
X26414000Y2054000D02*
X25450000Y2054000D01*
X26990000Y3655000D02*
X21830000Y3655000D01*
X25793000Y1494000D02*
X25450000Y1494000D01*
X23370000Y3255000D02*
X21867000Y3255000D01*
X23370000Y1774000D02*
X22667000Y1774000D01*
X23370000Y2854000D02*
X21968000Y2854000D01*
X23370000Y1414000D02*
X23159000Y1414000D01*
X23370000Y2094000D02*
X22375000Y2094000D01*
X26983000Y3495000D02*
X21837000Y3495000D01*
X25087000Y1174000D02*
X23733000Y1174000D01*
X23370000Y3135000D02*
X21890000Y3135000D01*
X23370000Y1814000D02*
X22625000Y1814000D01*
X26758000Y2614000D02*
X25450000Y2614000D01*
X23370000Y2534000D02*
X22100000Y2534000D01*
X25588000Y1374000D02*
X23232000Y1374000D01*
X25964000Y1614000D02*
X25450000Y1614000D01*
X26792000Y2694000D02*
X25450000Y2694000D01*
X26975000Y3415000D02*
X25450000Y3415000D01*
X26657000Y2414000D02*
X25450000Y2414000D01*
X26824000Y2774000D02*
X25450000Y2774000D01*
X26878000Y2934000D02*
X25450000Y2934000D01*
X26585000Y2294000D02*
X25450000Y2294000D01*
X25215000Y1214000D02*
X23605000Y1214000D01*
X26135000Y6249775D02*
X25635000Y6249775D01*
X25325000Y1254000D02*
X23495000Y1254000D01*
X23370000Y2734000D02*
X22012000Y2734000D01*
X26971000Y3375000D02*
X25450000Y3375000D01*
X23370000Y2014000D02*
X22439000Y2014000D01*
X23370000Y2654000D02*
X22045000Y2654000D01*
X23370000Y2414000D02*
X22163000Y2414000D01*
X26109000Y1734000D02*
X25450000Y1734000D01*
X26775000Y2654000D02*
X25450000Y2654000D01*
X23370000Y2294000D02*
X22235000Y2294000D01*
X23370000Y2214000D02*
X22288000Y2214000D01*
X23370000Y1734000D02*
X22711000Y1734000D01*
X26808000Y2734000D02*
X25450000Y2734000D01*
X23370000Y1854000D02*
X22584000Y1854000D01*
X23370000Y1494000D02*
X23027000Y1494000D01*
X23370000Y2774000D02*
X21996000Y2774000D01*
X26865000Y2894000D02*
X25450000Y2894000D01*
X26532000Y2214000D02*
X25450000Y2214000D01*
X23370000Y3335000D02*
X21854000Y3335000D01*
X26195000Y1814000D02*
X25450000Y1814000D01*
X26236000Y1854000D02*
X25450000Y1854000D01*
X23370000Y3095000D02*
X21899000Y3095000D01*
X26930000Y3135000D02*
X25450000Y3135000D01*
X23370000Y1894000D02*
X22546000Y1894000D01*
X26890000Y2974000D02*
X25450000Y2974000D01*
X23370000Y2454000D02*
X22142000Y2454000D01*
X23370000Y2054000D02*
X22406000Y2054000D01*
X25661000Y1414000D02*
X25450000Y1414000D01*
X27030000Y3695000D02*
G75*
G03*
X27030000Y3695000I-2620000J0D01*
G01*
%TO.C,J5*%
X5140000Y22225000D02*
X2480000Y22225000D01*
X3810000Y19625000D02*
X2480000Y19625000D01*
X2480000Y22225000D02*
X2480000Y29905000D01*
X2480000Y19625000D02*
X2480000Y20955000D01*
X5140000Y29905000D02*
X2480000Y29905000D01*
X5140000Y22225000D02*
X5140000Y29905000D01*
%TO.C,C4*%
X9913000Y1033000D02*
X9702000Y1033000D01*
X7622000Y1673000D02*
X6658000Y1673000D01*
X7622000Y3034000D02*
X6097000Y3034000D01*
X7622000Y2073000D02*
X6394000Y2073000D01*
X7622000Y1553000D02*
X6761000Y1553000D01*
X10405000Y1393000D02*
X9702000Y1393000D01*
X7622000Y1913000D02*
X6487000Y1913000D01*
X10811000Y1873000D02*
X9702000Y1873000D01*
X9981000Y1073000D02*
X9702000Y1073000D01*
X7622000Y1753000D02*
X6597000Y1753000D01*
X7622000Y2233000D02*
X6314000Y2233000D01*
X7622000Y1953000D02*
X6462000Y1953000D01*
X7622000Y3074000D02*
X6093000Y3074000D01*
X7622000Y1993000D02*
X6438000Y1993000D01*
X7622000Y1313000D02*
X7009000Y1313000D01*
X10315000Y1313000D02*
X9702000Y1313000D01*
X10488000Y1473000D02*
X9702000Y1473000D01*
X11205000Y2874000D02*
X9702000Y2874000D01*
X11173000Y2714000D02*
X9702000Y2714000D01*
X10361000Y1353000D02*
X9702000Y1353000D01*
X7622000Y2353000D02*
X6264000Y2353000D01*
X8946000Y713000D02*
X8378000Y713000D01*
X7622000Y2513000D02*
X6207000Y2513000D01*
X10447000Y1433000D02*
X9702000Y1433000D01*
X11190000Y2794000D02*
X9702000Y2794000D01*
X10837000Y1913000D02*
X9702000Y1913000D01*
X7622000Y2553000D02*
X6194000Y2553000D01*
X11240000Y3194000D02*
X6084000Y3194000D01*
X7622000Y1153000D02*
X7219000Y1153000D01*
X7622000Y2193000D02*
X6333000Y2193000D01*
X7622000Y1873000D02*
X6513000Y1873000D01*
X11117000Y2513000D02*
X9702000Y2513000D01*
X10952000Y2113000D02*
X9702000Y2113000D01*
X7622000Y1433000D02*
X6877000Y1433000D01*
X10991000Y2193000D02*
X9702000Y2193000D01*
X11242000Y3274000D02*
X6082000Y3274000D01*
X7622000Y2834000D02*
X6126000Y2834000D01*
X9673000Y913000D02*
X7651000Y913000D01*
X11010000Y2233000D02*
X9702000Y2233000D01*
X7622000Y2634000D02*
X6171000Y2634000D01*
X7622000Y1273000D02*
X7057000Y1273000D01*
X7622000Y2273000D02*
X6297000Y2273000D01*
X11027000Y2273000D02*
X9702000Y2273000D01*
X10633000Y1633000D02*
X9702000Y1633000D01*
X7622000Y2794000D02*
X6134000Y2794000D01*
X10105000Y1153000D02*
X9702000Y1153000D01*
X10930000Y2073000D02*
X9702000Y2073000D01*
X10387000Y5868775D02*
X9887000Y5868775D01*
X7622000Y2313000D02*
X6280000Y2313000D01*
X7622000Y1393000D02*
X6919000Y1393000D01*
X9760000Y953000D02*
X7564000Y953000D01*
X7622000Y2754000D02*
X6142000Y2754000D01*
X7622000Y1593000D02*
X6725000Y1593000D01*
X11104000Y2473000D02*
X9702000Y2473000D01*
X7622000Y1713000D02*
X6627000Y1713000D01*
X11182000Y2754000D02*
X9702000Y2754000D01*
X7622000Y1513000D02*
X6798000Y1513000D01*
X7622000Y1193000D02*
X7162000Y1193000D01*
X11235000Y3114000D02*
X6089000Y3114000D01*
X11241000Y3234000D02*
X6083000Y3234000D01*
X7622000Y1473000D02*
X6836000Y1473000D01*
X11198000Y2834000D02*
X9702000Y2834000D01*
X10267000Y1273000D02*
X9702000Y1273000D01*
X7622000Y1233000D02*
X7108000Y1233000D01*
X11223000Y2994000D02*
X9702000Y2994000D01*
X10784000Y1833000D02*
X9702000Y1833000D01*
X10563000Y1553000D02*
X9702000Y1553000D01*
X7622000Y2994000D02*
X6101000Y2994000D01*
X7622000Y2113000D02*
X6372000Y2113000D01*
X7622000Y1113000D02*
X7279000Y1113000D01*
X10697000Y1713000D02*
X9702000Y1713000D01*
X11238000Y3154000D02*
X6086000Y3154000D01*
X7622000Y1073000D02*
X7343000Y1073000D01*
X9339000Y793000D02*
X7985000Y793000D01*
X7622000Y2593000D02*
X6182000Y2593000D01*
X11090000Y2433000D02*
X9702000Y2433000D01*
X10909000Y2033000D02*
X9702000Y2033000D01*
X11242000Y3314000D02*
X6082000Y3314000D01*
X7622000Y2153000D02*
X6352000Y2153000D01*
X10526000Y1513000D02*
X9702000Y1513000D01*
X11130000Y2553000D02*
X9702000Y2553000D01*
X11163000Y2674000D02*
X9702000Y2674000D01*
X10162000Y1193000D02*
X9702000Y1193000D01*
X7622000Y1633000D02*
X6691000Y1633000D01*
X11142000Y2593000D02*
X9702000Y2593000D01*
X7622000Y2954000D02*
X6106000Y2954000D01*
X11227000Y3034000D02*
X9702000Y3034000D01*
X7622000Y2473000D02*
X6220000Y2473000D01*
X7622000Y2874000D02*
X6119000Y2874000D01*
X7622000Y2393000D02*
X6248000Y2393000D01*
X7622000Y2714000D02*
X6151000Y2714000D01*
X7622000Y1833000D02*
X6540000Y1833000D01*
X9577000Y873000D02*
X7747000Y873000D01*
X10757000Y1793000D02*
X9702000Y1793000D01*
X11153000Y2634000D02*
X9702000Y2634000D01*
X11212000Y2914000D02*
X9702000Y2914000D01*
X10599000Y1593000D02*
X9702000Y1593000D01*
X11044000Y2313000D02*
X9702000Y2313000D01*
X11218000Y2954000D02*
X9702000Y2954000D01*
X10216000Y1233000D02*
X9702000Y1233000D01*
X9840000Y993000D02*
X7484000Y993000D01*
X10137000Y6118775D02*
X10137000Y5618775D01*
X10862000Y1953000D02*
X9702000Y1953000D01*
X11231000Y3074000D02*
X9702000Y3074000D01*
X11060000Y2353000D02*
X9702000Y2353000D01*
X7622000Y2033000D02*
X6415000Y2033000D01*
X10727000Y1753000D02*
X9702000Y1753000D01*
X9467000Y833000D02*
X7857000Y833000D01*
X7622000Y2674000D02*
X6161000Y2674000D01*
X10972000Y2153000D02*
X9702000Y2153000D01*
X7622000Y1793000D02*
X6567000Y1793000D01*
X10886000Y1993000D02*
X9702000Y1993000D01*
X11076000Y2393000D02*
X9702000Y2393000D01*
X10666000Y1673000D02*
X9702000Y1673000D01*
X7622000Y2433000D02*
X6234000Y2433000D01*
X7622000Y1353000D02*
X6963000Y1353000D01*
X7622000Y2914000D02*
X6112000Y2914000D01*
X10045000Y1113000D02*
X9702000Y1113000D01*
X7622000Y1033000D02*
X7411000Y1033000D01*
X9180000Y753000D02*
X8144000Y753000D01*
X11282000Y3314000D02*
G75*
G03*
X11282000Y3314000I-2620000J0D01*
G01*
%TO.C,D3*%
X41285000Y220000D02*
X41285000Y51220000D01*
X59785000Y220000D02*
X41285000Y220000D01*
X59785000Y51220000D02*
X59785000Y220000D01*
X41285000Y51220000D02*
X59785000Y51220000D01*
%TO.C,RV1*%
X19755000Y875000D02*
X19755000Y7825000D01*
X16650000Y7825000D02*
X19755000Y7825000D01*
X16650000Y875000D02*
X19755000Y875000D01*
X15015000Y7825000D02*
X15660000Y7825000D01*
X15015000Y875000D02*
X15015000Y7825000D01*
X15015000Y875000D02*
X15660000Y875000D01*
%TO.C,J11*%
X68005000Y8890000D02*
X65345000Y8890000D01*
X65345000Y8890000D02*
X65345000Y47050000D01*
X66675000Y6290000D02*
X65345000Y6290000D01*
X68005000Y8890000D02*
X68005000Y47050000D01*
X68005000Y47050000D02*
X65345000Y47050000D01*
X65345000Y6290000D02*
X65345000Y7620000D01*
%TO.C,J7*%
X5140000Y18475000D02*
X2480000Y18475000D01*
X2480000Y3115000D02*
X2480000Y4445000D01*
X5140000Y5715000D02*
X5140000Y18475000D01*
X5140000Y5715000D02*
X2480000Y5715000D01*
X2480000Y5715000D02*
X2480000Y18475000D01*
X3810000Y3115000D02*
X2480000Y3115000D01*
%TO.C,D1*%
X12726000Y8386635D02*
X12726000Y10316000D01*
X14476635Y6636000D02*
G75*
G03*
X14476635Y6636000I-1750635J0D01*
G01*
%TO.C,D2*%
X59038000Y67287812D02*
X59038000Y66042000D01*
X64574836Y67845216D02*
G75*
G03*
X59213000Y69387000I-2976836J-258216D01*
G01*
X59343316Y66507000D02*
G75*
G03*
X63557086Y66033944I2254684J1080000D01*
G01*
X59038000Y66042170D02*
G75*
G03*
X63989334Y65792113I2560000J1544830D01*
G01*
X64078090Y67873421D02*
G75*
G03*
X59845401Y69364999I-2480090J-286421D01*
G01*
%TO.C,SW3*%
X48625000Y65135000D02*
X48625000Y69635000D01*
X46125000Y70885000D02*
X44625000Y70885000D01*
X42125000Y69635000D02*
X42125000Y65135000D01*
X44625000Y63885000D02*
X46125000Y63885000D01*
%TO.C,SW4*%
X50380000Y59600000D02*
X50380000Y55100000D01*
X54380000Y60850000D02*
X52880000Y60850000D01*
X52880000Y53850000D02*
X54380000Y53850000D01*
X56880000Y55100000D02*
X56880000Y59600000D01*
%TO.C,SW2*%
X46125000Y60850000D02*
X44625000Y60850000D01*
X44625000Y53850000D02*
X46125000Y53850000D01*
X48625000Y55100000D02*
X48625000Y59600000D01*
X42125000Y59600000D02*
X42125000Y55100000D01*
%TO.C,RV2*%
X33560000Y48580000D02*
X36665000Y48580000D01*
X31925000Y55530000D02*
X32570000Y55530000D01*
X36665000Y48580000D02*
X36665000Y55530000D01*
X31925000Y48580000D02*
X31925000Y55530000D01*
X31925000Y48580000D02*
X32570000Y48580000D01*
X33560000Y55530000D02*
X36665000Y55530000D01*
%TO.C,J6*%
X57725000Y78105000D02*
X57725000Y79435000D01*
X60325000Y76775000D02*
X68005000Y76775000D01*
X60325000Y76775000D02*
X60325000Y79435000D01*
X57725000Y79435000D02*
X59055000Y79435000D01*
X60325000Y79435000D02*
X68005000Y79435000D01*
X68005000Y76775000D02*
X68005000Y79435000D01*
%TO.C,SW1*%
X28805000Y30865000D02*
X30305000Y30865000D01*
X32805000Y32115000D02*
X32805000Y36615000D01*
X30305000Y37865000D02*
X28805000Y37865000D01*
X26305000Y36615000D02*
X26305000Y32115000D01*
%TO.C,J3*%
X36890000Y26670000D02*
X36890000Y18990000D01*
X34230000Y26670000D02*
X34230000Y18990000D01*
X34230000Y26670000D02*
X36890000Y26670000D01*
X34230000Y27940000D02*
X34230000Y29270000D01*
X34230000Y29270000D02*
X35560000Y29270000D01*
X34230000Y18990000D02*
X36890000Y18990000D01*
%TO.C,U1*%
X19385000Y13270000D02*
X19385000Y11760000D01*
X16115000Y13270000D02*
X26355000Y13270000D01*
X26355000Y13270000D02*
X26355000Y8629000D01*
X16115000Y11760000D02*
X26355000Y11760000D01*
X16115000Y8629000D02*
X26355000Y8629000D01*
X23086000Y13270000D02*
X23086000Y11760000D01*
X16115000Y13270000D02*
X16115000Y8629000D01*
%TD*%
M02*
