%TF.GenerationSoftware,KiCad,Pcbnew,(6.0.7)*%
%TF.CreationDate,2022-08-22T18:42:59+08:00*%
%TF.ProjectId,TurnsCounter,5475726e-7343-46f7-956e-7465722e6b69,rev?*%
%TF.SameCoordinates,PX8d707f0PY7735940*%
%TF.FileFunction,Legend,Bot*%
%TF.FilePolarity,Positive*%
%FSLAX46Y46*%
G04 Gerber Fmt 4.6, Leading zero omitted, Abs format (unit mm)*
G04 Created by KiCad (PCBNEW (6.0.7)) date 2022-08-22 18:42:59*
%MOMM*%
%LPD*%
G01*
G04 APERTURE LIST*
%ADD10C,0.150000*%
%ADD11C,0.120000*%
G04 APERTURE END LIST*
D10*
%TO.C,R5*%
X61157380Y69166667D02*
X60681190Y69500000D01*
X61157380Y69738096D02*
X60157380Y69738096D01*
X60157380Y69357143D01*
X60205000Y69261905D01*
X60252619Y69214286D01*
X60347857Y69166667D01*
X60490714Y69166667D01*
X60585952Y69214286D01*
X60633571Y69261905D01*
X60681190Y69357143D01*
X60681190Y69738096D01*
X60157380Y68261905D02*
X60157380Y68738096D01*
X60633571Y68785715D01*
X60585952Y68738096D01*
X60538333Y68642858D01*
X60538333Y68404762D01*
X60585952Y68309524D01*
X60633571Y68261905D01*
X60728809Y68214286D01*
X60966904Y68214286D01*
X61062142Y68261905D01*
X61109761Y68309524D01*
X61157380Y68404762D01*
X61157380Y68642858D01*
X61109761Y68738096D01*
X61062142Y68785715D01*
%TO.C,R3*%
X31314380Y26566667D02*
X30838190Y26900000D01*
X31314380Y27138096D02*
X30314380Y27138096D01*
X30314380Y26757143D01*
X30362000Y26661905D01*
X30409619Y26614286D01*
X30504857Y26566667D01*
X30647714Y26566667D01*
X30742952Y26614286D01*
X30790571Y26661905D01*
X30838190Y26757143D01*
X30838190Y27138096D01*
X30314380Y26233334D02*
X30314380Y25614286D01*
X30695333Y25947620D01*
X30695333Y25804762D01*
X30742952Y25709524D01*
X30790571Y25661905D01*
X30885809Y25614286D01*
X31123904Y25614286D01*
X31219142Y25661905D01*
X31266761Y25709524D01*
X31314380Y25804762D01*
X31314380Y26090477D01*
X31266761Y26185715D01*
X31219142Y26233334D01*
%TO.C,R9*%
X44291666Y65357620D02*
X44625000Y65833810D01*
X44863095Y65357620D02*
X44863095Y66357620D01*
X44482142Y66357620D01*
X44386904Y66310000D01*
X44339285Y66262381D01*
X44291666Y66167143D01*
X44291666Y66024286D01*
X44339285Y65929048D01*
X44386904Y65881429D01*
X44482142Y65833810D01*
X44863095Y65833810D01*
X43815476Y65357620D02*
X43625000Y65357620D01*
X43529761Y65405239D01*
X43482142Y65452858D01*
X43386904Y65595715D01*
X43339285Y65786191D01*
X43339285Y66167143D01*
X43386904Y66262381D01*
X43434523Y66310000D01*
X43529761Y66357620D01*
X43720238Y66357620D01*
X43815476Y66310000D01*
X43863095Y66262381D01*
X43910714Y66167143D01*
X43910714Y65929048D01*
X43863095Y65833810D01*
X43815476Y65786191D01*
X43720238Y65738572D01*
X43529761Y65738572D01*
X43434523Y65786191D01*
X43386904Y65833810D01*
X43339285Y65929048D01*
%TO.C,R7*%
X66054380Y72341667D02*
X65578190Y72675000D01*
X66054380Y72913096D02*
X65054380Y72913096D01*
X65054380Y72532143D01*
X65102000Y72436905D01*
X65149619Y72389286D01*
X65244857Y72341667D01*
X65387714Y72341667D01*
X65482952Y72389286D01*
X65530571Y72436905D01*
X65578190Y72532143D01*
X65578190Y72913096D01*
X65054380Y72008334D02*
X65054380Y71341667D01*
X66054380Y71770239D01*
%TO.C,R10*%
X53022857Y55247620D02*
X53356190Y55723810D01*
X53594285Y55247620D02*
X53594285Y56247620D01*
X53213333Y56247620D01*
X53118095Y56200000D01*
X53070476Y56152381D01*
X53022857Y56057143D01*
X53022857Y55914286D01*
X53070476Y55819048D01*
X53118095Y55771429D01*
X53213333Y55723810D01*
X53594285Y55723810D01*
X52070476Y55247620D02*
X52641904Y55247620D01*
X52356190Y55247620D02*
X52356190Y56247620D01*
X52451428Y56104762D01*
X52546666Y56009524D01*
X52641904Y55961905D01*
X51451428Y56247620D02*
X51356190Y56247620D01*
X51260952Y56200000D01*
X51213333Y56152381D01*
X51165714Y56057143D01*
X51118095Y55866667D01*
X51118095Y55628572D01*
X51165714Y55438096D01*
X51213333Y55342858D01*
X51260952Y55295239D01*
X51356190Y55247620D01*
X51451428Y55247620D01*
X51546666Y55295239D01*
X51594285Y55342858D01*
X51641904Y55438096D01*
X51689523Y55628572D01*
X51689523Y55866667D01*
X51641904Y56057143D01*
X51594285Y56152381D01*
X51546666Y56200000D01*
X51451428Y56247620D01*
%TO.C,R4*%
X37384380Y24026667D02*
X36908190Y24360000D01*
X37384380Y24598096D02*
X36384380Y24598096D01*
X36384380Y24217143D01*
X36432000Y24121905D01*
X36479619Y24074286D01*
X36574857Y24026667D01*
X36717714Y24026667D01*
X36812952Y24074286D01*
X36860571Y24121905D01*
X36908190Y24217143D01*
X36908190Y24598096D01*
X36717714Y23169524D02*
X37384380Y23169524D01*
X36336761Y23407620D02*
X37051047Y23645715D01*
X37051047Y23026667D01*
%TO.C,R6*%
X63514380Y72341667D02*
X63038190Y72675000D01*
X63514380Y72913096D02*
X62514380Y72913096D01*
X62514380Y72532143D01*
X62562000Y72436905D01*
X62609619Y72389286D01*
X62704857Y72341667D01*
X62847714Y72341667D01*
X62942952Y72389286D01*
X62990571Y72436905D01*
X63038190Y72532143D01*
X63038190Y72913096D01*
X62514380Y71484524D02*
X62514380Y71675000D01*
X62562000Y71770239D01*
X62609619Y71817858D01*
X62752476Y71913096D01*
X62942952Y71960715D01*
X63323904Y71960715D01*
X63419142Y71913096D01*
X63466761Y71865477D01*
X63514380Y71770239D01*
X63514380Y71579762D01*
X63466761Y71484524D01*
X63419142Y71436905D01*
X63323904Y71389286D01*
X63085809Y71389286D01*
X62990571Y71436905D01*
X62942952Y71484524D01*
X62895333Y71579762D01*
X62895333Y71770239D01*
X62942952Y71865477D01*
X62990571Y71913096D01*
X63085809Y71960715D01*
%TO.C,U2*%
X30014880Y24237017D02*
X30824404Y24237017D01*
X30919642Y24189398D01*
X30967261Y24141779D01*
X31014880Y24046541D01*
X31014880Y23856065D01*
X30967261Y23760827D01*
X30919642Y23713208D01*
X30824404Y23665589D01*
X30014880Y23665589D01*
X30110119Y23237017D02*
X30062500Y23189398D01*
X30014880Y23094160D01*
X30014880Y22856065D01*
X30062500Y22760827D01*
X30110119Y22713208D01*
X30205357Y22665589D01*
X30300595Y22665589D01*
X30443452Y22713208D01*
X31014880Y23284636D01*
X31014880Y22665589D01*
%TO.C,R1*%
X19851666Y8182620D02*
X20185000Y8658810D01*
X20423095Y8182620D02*
X20423095Y9182620D01*
X20042142Y9182620D01*
X19946904Y9135000D01*
X19899285Y9087381D01*
X19851666Y8992143D01*
X19851666Y8849286D01*
X19899285Y8754048D01*
X19946904Y8706429D01*
X20042142Y8658810D01*
X20423095Y8658810D01*
X18899285Y8182620D02*
X19470714Y8182620D01*
X19185000Y8182620D02*
X19185000Y9182620D01*
X19280238Y9039762D01*
X19375476Y8944524D01*
X19470714Y8896905D01*
%TO.C,C7*%
X22172142Y15809167D02*
X22219761Y15856786D01*
X22267380Y15999643D01*
X22267380Y16094881D01*
X22219761Y16237739D01*
X22124523Y16332977D01*
X22029285Y16380596D01*
X21838809Y16428215D01*
X21695952Y16428215D01*
X21505476Y16380596D01*
X21410238Y16332977D01*
X21315000Y16237739D01*
X21267380Y16094881D01*
X21267380Y15999643D01*
X21315000Y15856786D01*
X21362619Y15809167D01*
X21267380Y15475834D02*
X21267380Y14809167D01*
X22267380Y15237739D01*
%TO.C,U3*%
X30962380Y54736905D02*
X31771904Y54736905D01*
X31867142Y54689286D01*
X31914761Y54641667D01*
X31962380Y54546429D01*
X31962380Y54355953D01*
X31914761Y54260715D01*
X31867142Y54213096D01*
X31771904Y54165477D01*
X30962380Y54165477D01*
X30962380Y53784524D02*
X30962380Y53165477D01*
X31343333Y53498810D01*
X31343333Y53355953D01*
X31390952Y53260715D01*
X31438571Y53213096D01*
X31533809Y53165477D01*
X31771904Y53165477D01*
X31867142Y53213096D01*
X31914761Y53260715D01*
X31962380Y53355953D01*
X31962380Y53641667D01*
X31914761Y53736905D01*
X31867142Y53784524D01*
%TO.C,R11*%
X53022857Y65386620D02*
X53356190Y65862810D01*
X53594285Y65386620D02*
X53594285Y66386620D01*
X53213333Y66386620D01*
X53118095Y66339000D01*
X53070476Y66291381D01*
X53022857Y66196143D01*
X53022857Y66053286D01*
X53070476Y65958048D01*
X53118095Y65910429D01*
X53213333Y65862810D01*
X53594285Y65862810D01*
X52070476Y65386620D02*
X52641904Y65386620D01*
X52356190Y65386620D02*
X52356190Y66386620D01*
X52451428Y66243762D01*
X52546666Y66148524D01*
X52641904Y66100905D01*
X51118095Y65386620D02*
X51689523Y65386620D01*
X51403809Y65386620D02*
X51403809Y66386620D01*
X51499047Y66243762D01*
X51594285Y66148524D01*
X51689523Y66100905D01*
%TO.C,R8*%
X44291666Y55247620D02*
X44625000Y55723810D01*
X44863095Y55247620D02*
X44863095Y56247620D01*
X44482142Y56247620D01*
X44386904Y56200000D01*
X44339285Y56152381D01*
X44291666Y56057143D01*
X44291666Y55914286D01*
X44339285Y55819048D01*
X44386904Y55771429D01*
X44482142Y55723810D01*
X44863095Y55723810D01*
X43720238Y55819048D02*
X43815476Y55866667D01*
X43863095Y55914286D01*
X43910714Y56009524D01*
X43910714Y56057143D01*
X43863095Y56152381D01*
X43815476Y56200000D01*
X43720238Y56247620D01*
X43529761Y56247620D01*
X43434523Y56200000D01*
X43386904Y56152381D01*
X43339285Y56057143D01*
X43339285Y56009524D01*
X43386904Y55914286D01*
X43434523Y55866667D01*
X43529761Y55819048D01*
X43720238Y55819048D01*
X43815476Y55771429D01*
X43863095Y55723810D01*
X43910714Y55628572D01*
X43910714Y55438096D01*
X43863095Y55342858D01*
X43815476Y55295239D01*
X43720238Y55247620D01*
X43529761Y55247620D01*
X43434523Y55295239D01*
X43386904Y55342858D01*
X43339285Y55438096D01*
X43339285Y55628572D01*
X43386904Y55723810D01*
X43434523Y55771429D01*
X43529761Y55819048D01*
%TO.C,R2*%
X26867380Y31646667D02*
X26391190Y31980000D01*
X26867380Y32218096D02*
X25867380Y32218096D01*
X25867380Y31837143D01*
X25915000Y31741905D01*
X25962619Y31694286D01*
X26057857Y31646667D01*
X26200714Y31646667D01*
X26295952Y31694286D01*
X26343571Y31741905D01*
X26391190Y31837143D01*
X26391190Y32218096D01*
X25962619Y31265715D02*
X25915000Y31218096D01*
X25867380Y31122858D01*
X25867380Y30884762D01*
X25915000Y30789524D01*
X25962619Y30741905D01*
X26057857Y30694286D01*
X26153095Y30694286D01*
X26295952Y30741905D01*
X26867380Y31313334D01*
X26867380Y30694286D01*
%TO.C,C2*%
X12419142Y2738667D02*
X12466761Y2786286D01*
X12514380Y2929143D01*
X12514380Y3024381D01*
X12466761Y3167239D01*
X12371523Y3262477D01*
X12276285Y3310096D01*
X12085809Y3357715D01*
X11942952Y3357715D01*
X11752476Y3310096D01*
X11657238Y3262477D01*
X11562000Y3167239D01*
X11514380Y3024381D01*
X11514380Y2929143D01*
X11562000Y2786286D01*
X11609619Y2738667D01*
X11609619Y2357715D02*
X11562000Y2310096D01*
X11514380Y2214858D01*
X11514380Y1976762D01*
X11562000Y1881524D01*
X11609619Y1833905D01*
X11704857Y1786286D01*
X11800095Y1786286D01*
X11942952Y1833905D01*
X12514380Y2405334D01*
X12514380Y1786286D01*
%TO.C,C8*%
X29609166Y33522858D02*
X29656785Y33475239D01*
X29799642Y33427620D01*
X29894880Y33427620D01*
X30037738Y33475239D01*
X30132976Y33570477D01*
X30180595Y33665715D01*
X30228214Y33856191D01*
X30228214Y33999048D01*
X30180595Y34189524D01*
X30132976Y34284762D01*
X30037738Y34380000D01*
X29894880Y34427620D01*
X29799642Y34427620D01*
X29656785Y34380000D01*
X29609166Y34332381D01*
X29037738Y33999048D02*
X29132976Y34046667D01*
X29180595Y34094286D01*
X29228214Y34189524D01*
X29228214Y34237143D01*
X29180595Y34332381D01*
X29132976Y34380000D01*
X29037738Y34427620D01*
X28847261Y34427620D01*
X28752023Y34380000D01*
X28704404Y34332381D01*
X28656785Y34237143D01*
X28656785Y34189524D01*
X28704404Y34094286D01*
X28752023Y34046667D01*
X28847261Y33999048D01*
X29037738Y33999048D01*
X29132976Y33951429D01*
X29180595Y33903810D01*
X29228214Y33808572D01*
X29228214Y33618096D01*
X29180595Y33522858D01*
X29132976Y33475239D01*
X29037738Y33427620D01*
X28847261Y33427620D01*
X28752023Y33475239D01*
X28704404Y33522858D01*
X28656785Y33618096D01*
X28656785Y33808572D01*
X28704404Y33903810D01*
X28752023Y33951429D01*
X28847261Y33999048D01*
%TO.C,C10*%
X34932857Y58472858D02*
X34980476Y58425239D01*
X35123333Y58377620D01*
X35218571Y58377620D01*
X35361428Y58425239D01*
X35456666Y58520477D01*
X35504285Y58615715D01*
X35551904Y58806191D01*
X35551904Y58949048D01*
X35504285Y59139524D01*
X35456666Y59234762D01*
X35361428Y59330000D01*
X35218571Y59377620D01*
X35123333Y59377620D01*
X34980476Y59330000D01*
X34932857Y59282381D01*
X33980476Y58377620D02*
X34551904Y58377620D01*
X34266190Y58377620D02*
X34266190Y59377620D01*
X34361428Y59234762D01*
X34456666Y59139524D01*
X34551904Y59091905D01*
X33361428Y59377620D02*
X33266190Y59377620D01*
X33170952Y59330000D01*
X33123333Y59282381D01*
X33075714Y59187143D01*
X33028095Y58996667D01*
X33028095Y58758572D01*
X33075714Y58568096D01*
X33123333Y58472858D01*
X33170952Y58425239D01*
X33266190Y58377620D01*
X33361428Y58377620D01*
X33456666Y58425239D01*
X33504285Y58472858D01*
X33551904Y58568096D01*
X33599523Y58758572D01*
X33599523Y58996667D01*
X33551904Y59187143D01*
X33504285Y59282381D01*
X33456666Y59330000D01*
X33361428Y59377620D01*
D11*
%TO.C,R5*%
X58320000Y71947936D02*
X58320000Y72402064D01*
X59790000Y71947936D02*
X59790000Y72402064D01*
%TO.C,R3*%
X33247000Y26627064D02*
X33247000Y26172936D01*
X31777000Y26627064D02*
X31777000Y26172936D01*
%TO.C,R9*%
X43897936Y66725000D02*
X44352064Y66725000D01*
X43897936Y68195000D02*
X44352064Y68195000D01*
%TO.C,R7*%
X64687000Y71947936D02*
X64687000Y72402064D01*
X63217000Y71947936D02*
X63217000Y72402064D01*
%TO.C,R10*%
X52152936Y56615000D02*
X52607064Y56615000D01*
X52152936Y58085000D02*
X52607064Y58085000D01*
%TO.C,R4*%
X37847000Y24087064D02*
X37847000Y23632936D01*
X39317000Y24087064D02*
X39317000Y23632936D01*
%TO.C,R6*%
X62147000Y71947936D02*
X62147000Y72402064D01*
X60677000Y71947936D02*
X60677000Y72402064D01*
D10*
%TO.C,U2*%
X20887500Y19850112D02*
X20887500Y20175112D01*
X20887500Y19850112D02*
X21212500Y19850112D01*
X28137500Y19850112D02*
X27912500Y19850112D01*
X20887500Y27100112D02*
X21212500Y27100112D01*
X27912500Y19850112D02*
X27912500Y18425112D01*
X20887500Y27100112D02*
X20887500Y26775112D01*
X28137500Y27100112D02*
X27812500Y27100112D01*
X28137500Y19850112D02*
X28137500Y20175112D01*
X28137500Y27100112D02*
X28137500Y26775112D01*
D11*
%TO.C,R1*%
X19912064Y7720000D02*
X19457936Y7720000D01*
X19912064Y6250000D02*
X19457936Y6250000D01*
%TO.C,C7*%
X22760000Y15903752D02*
X22760000Y15381248D01*
X24230000Y15903752D02*
X24230000Y15381248D01*
%TO.C,U3*%
X30405000Y50115000D02*
X30405000Y48300000D01*
X30670000Y57835000D02*
X30405000Y57835000D01*
X15050000Y50115000D02*
X15315000Y50115000D01*
X15050000Y57835000D02*
X15315000Y57835000D01*
X30670000Y53975000D02*
X30670000Y50115000D01*
X15050000Y53975000D02*
X15050000Y57835000D01*
X15050000Y53975000D02*
X15050000Y50115000D01*
X30670000Y50115000D02*
X30405000Y50115000D01*
X30670000Y53975000D02*
X30670000Y57835000D01*
%TO.C,R11*%
X52152936Y66754000D02*
X52607064Y66754000D01*
X52152936Y68224000D02*
X52607064Y68224000D01*
%TO.C,R8*%
X43897936Y58085000D02*
X44352064Y58085000D01*
X43897936Y56615000D02*
X44352064Y56615000D01*
%TO.C,R2*%
X25500000Y31252936D02*
X25500000Y31707064D01*
X24030000Y31252936D02*
X24030000Y31707064D01*
%TO.C,C2*%
X13007000Y2833252D02*
X13007000Y2310748D01*
X14477000Y2833252D02*
X14477000Y2310748D01*
%TO.C,C8*%
X29181248Y36295000D02*
X29703752Y36295000D01*
X29181248Y34825000D02*
X29703752Y34825000D01*
%TO.C,C10*%
X34551252Y56415000D02*
X34028748Y56415000D01*
X34551252Y57885000D02*
X34028748Y57885000D01*
%TD*%
M02*
