<?xml version="1.0" standalone="no"?>
 <!DOCTYPE svg PUBLIC "-//W3C//DTD SVG 1.1//EN" 
 "http://www.w3.org/Graphics/SVG/1.1/DTD/svg11.dtd"> 
<svg
  xmlns:svg="http://www.w3.org/2000/svg"
  xmlns="http://www.w3.org/2000/svg"
  xmlns:xlink="http://www.w3.org/1999/xlink"
  version="1.1"
  width="29.700220cm" height="21.000720cm" viewBox="0 0 297002200 210007200">
<title>SVG Picture created as TurnsCounter-F_Silkscreen.svg date 2022/08/10 21:18:11 </title>
  <desc>Picture generated by PCBNEW </desc>
<g style="fill:#000000; fill-opacity:1.000000;stroke:#000000; stroke-opacity:1.000000;
stroke-linecap:round; stroke-linejoin:round;"
 transform="translate(0 0) scale(1 1)">
</g>
<g style="fill:#000000; fill-opacity:0.0; 
stroke:#000000; stroke-width:0.000000; stroke-opacity:1; 
stroke-linecap:round; stroke-linejoin:round;">
</g>
<g style="fill:#000000; fill-opacity:0.0; 
stroke:#000000; stroke-width:100000.000000; stroke-opacity:1; 
stroke-linecap:round; stroke-linejoin:round;">
</g>
<g style="fill:#000000; fill-opacity:1.0; 
stroke:#000000; stroke-width:1.000000; stroke-opacity:1; 
stroke-linecap:round; stroke-linejoin:round;">
<circle cx="157810000.000000" cy="80500000.000000" r="50001.000000" /> 
</g>
<g style="fill:#000000; fill-opacity:1.0; 
stroke:#000000; stroke-width:100000.000000; stroke-opacity:1; 
stroke-linecap:round; stroke-linejoin:round;">
</g>
<g style="fill:#000000; fill-opacity:0.0; 
stroke:#000000; stroke-width:100000.000000; stroke-opacity:1; 
stroke-linecap:round; stroke-linejoin:round;">
<path d="M188310000 45000000
L172570000 45000000
" />
<path d="M217525000 125000000
L217525000 44990000
" />
<path d="M188310000 125000000
L188310000 45000000
" />
<path d="M148310000 125000000
L148310000 84260000
" />
<path d="M188950000 125000000
L217525000 125000000
" />
<path d="M158910000 58650000
L172570000 45000000
" />
<path d="M188950000 44990000
L188950000 125000000
" />
<path d="M148310000 125000000
L188310000 125000000
" />
<path d="M217525000 44990000
L188950000 44990000
" />
<path d="M148310000.000000 84260007.000000 A14998677.000000 14998677.000000 0.0 0 0 158909999.702710 58650000.297608" />
</g>
<g style="fill:#000000; fill-opacity:0.0; 
stroke:#000000; stroke-width:150000.000000; stroke-opacity:1; 
stroke-linecap:round; stroke-linejoin:round;">
<text x="182555112.000000" y="69560000.000000"
textLength="2090497.000000" font-size="1333333.000000" lengthAdjust="spacingAndGlyphs"
text-anchor="middle" opacity="0">C9</text>
<g class="stroked-text"><desc>C9</desc>
<path d="M182388445 69417142
L182340826 69464761
L182197969 69512380
L182102731 69512380
L181959873 69464761
L181864635 69369523
L181817016 69274285
L181769397 69083809
L181769397 68940952
L181817016 68750476
L181864635 68655238
L181959873 68560000
L182102731 68512380
L182197969 68512380
L182340826 68560000
L182388445 68607619
" />
<path d="M182864635 69512380
L183055112 69512380
L183150350 69464761
L183197969 69417142
L183293207 69274285
L183340826 69083809
L183340826 68702857
L183293207 68607619
L183245588 68560000
L183150350 68512380
L182959873 68512380
L182864635 68560000
L182817016 68607619
L182769397 68702857
L182769397 68940952
L182817016 69036190
L182864635 69083809
L182959873 69131428
L183150350 69131428
L183245588 69083809
L183293207 69036190
L183340826 68940952
" />
</g><g transform="rotate(-90.000000 188085000.000000 46895000.000000)">
<text x="188085000.000000" y="47395000.000000"
textLength="1909286.000000" font-size="1333333.000000" lengthAdjust="spacingAndGlyphs"
text-anchor="middle" opacity="0">J8</text>
</g>
<g class="stroked-text"><desc>J8</desc>
<path d="M187537380 47228333
L188251666 47228333
L188394523 47275952
L188489761 47371190
L188537380 47514047
L188537380 47609285
" />
<path d="M187965952 46609285
L187918333 46704523
L187870714 46752142
L187775476 46799761
L187727857 46799761
L187632619 46752142
L187585000 46704523
L187537380 46609285
L187537380 46418809
L187585000 46323571
L187632619 46275952
L187727857 46228333
L187775476 46228333
L187870714 46275952
L187918333 46323571
L187965952 46418809
L187965952 46609285
L188013571 46704523
L188061190 46752142
L188156428 46799761
L188346904 46799761
L188442142 46752142
L188489761 46704523
L188537380 46609285
L188537380 46418809
L188489761 46323571
L188442142 46275952
L188346904 46228333
L188156428 46228333
L188061190 46275952
L188013571 46323571
L187965952 46418809
" />
</g><g transform="rotate(-90.000000 174232500.000000 110305000.000000)">
<text x="174232500.000000" y="110805000.000000"
textLength="1909286.000000" font-size="1333333.000000" lengthAdjust="spacingAndGlyphs"
text-anchor="middle" opacity="0">J1</text>
</g>
<g class="stroked-text"><desc>J1</desc>
<path d="M173684880 110638333
L174399166 110638333
L174542023 110685952
L174637261 110781190
L174684880 110924047
L174684880 111019285
" />
<path d="M174684880 109638333
L174684880 110209761
" />
<path d="M174684880 109924047
L173684880 109924047
L173827738 110019285
L173922976 110114523
L173970595 110209761
" />
</g><g transform="rotate(-90.000000 197690000.000000 57615000.000000)">
<text x="197690000.000000" y="58115000.000000"
textLength="3242619.000000" font-size="1333333.000000" lengthAdjust="spacingAndGlyphs"
text-anchor="middle" opacity="0">SW5</text>
</g>
<g class="stroked-text"><desc>SW5</desc>
<path d="M198094761 58948333
L198142380 58805476
L198142380 58567380
L198094761 58472142
L198047142 58424523
L197951904 58376904
L197856666 58376904
L197761428 58424523
L197713809 58472142
L197666190 58567380
L197618571 58757857
L197570952 58853095
L197523333 58900714
L197428095 58948333
L197332857 58948333
L197237619 58900714
L197190000 58853095
L197142380 58757857
L197142380 58519761
L197190000 58376904
" />
<path d="M197142380 58043571
L198142380 57805476
L197428095 57615000
L198142380 57424523
L197142380 57186428
" />
<path d="M197142380 56329285
L197142380 56805476
L197618571 56853095
L197570952 56805476
L197523333 56710238
L197523333 56472142
L197570952 56376904
L197618571 56329285
L197713809 56281666
L197951904 56281666
L198047142 56329285
L198094761 56376904
L198142380 56472142
L198142380 56710238
L198094761 56805476
L198047142 56853095
" />
</g><g transform="rotate(-90.000000 147925000.000000 89557500.000000)">
<text x="147925000.000000" y="90057500.000000"
textLength="1909286.000000" font-size="1333333.000000" lengthAdjust="spacingAndGlyphs"
text-anchor="middle" opacity="0">J4</text>
</g>
<g class="stroked-text"><desc>J4</desc>
<path d="M147377380 89890833
L148091666 89890833
L148234523 89938452
L148329761 90033690
L148377380 90176547
L148377380 90271785
" />
<path d="M147710714 88986071
L148377380 88986071
" />
<path d="M147329761 89224166
L148044047 89462261
L148044047 88843214
" />
</g><g transform="rotate(-90.000000 161415000.000000 60230000.000000)">
<text x="161415000.000000" y="60730000.000000"
textLength="1909286.000000" font-size="1333333.000000" lengthAdjust="spacingAndGlyphs"
text-anchor="middle" opacity="0">J9</text>
</g>
<g class="stroked-text"><desc>J9</desc>
<path d="M160867380 60563333
L161581666 60563333
L161724523 60610952
L161819761 60706190
L161867380 60849047
L161867380 60944285
" />
<path d="M161867380 60039523
L161867380 59849047
L161819761 59753809
L161772142 59706190
L161629285 59610952
L161438809 59563333
L161057857 59563333
L160962619 59610952
L160915000 59658571
L160867380 59753809
L160867380 59944285
L160915000 60039523
L160962619 60087142
L161057857 60134761
L161295952 60134761
L161391190 60087142
L161438809 60039523
L161486428 59944285
L161486428 59753809
L161438809 59658571
L161391190 59610952
L161295952 59563333
" />
</g><text x="186450000.000000" y="114707500.000000"
textLength="1909286.000000" font-size="1333333.000000" lengthAdjust="spacingAndGlyphs"
text-anchor="middle" opacity="0">J2</text>
<g class="stroked-text"><desc>J2</desc>
<path d="M186116666 113659880
L186116666 114374166
L186069047 114517023
L185973809 114612261
L185830952 114659880
L185735714 114659880
" />
<path d="M186545238 113755119
L186592857 113707500
L186688095 113659880
L186926190 113659880
L187021428 113707500
L187069047 113755119
L187116666 113850357
L187116666 113945595
L187069047 114088452
L186497619 114659880
L187116666 114659880
" />
</g><g transform="rotate(-90.000000 176470000.000000 121305000.000000)">
<text x="176470000.000000" y="121805000.000000"
textLength="2147381.000000" font-size="1333333.000000" lengthAdjust="spacingAndGlyphs"
text-anchor="middle" opacity="0">C1</text>
</g>
<g class="stroked-text"><desc>C1</desc>
<path d="M176827142 121471666
L176874761 121519285
L176922380 121662142
L176922380 121757380
L176874761 121900238
L176779523 121995476
L176684285 122043095
L176493809 122090714
L176350952 122090714
L176160476 122043095
L176065238 121995476
L175970000 121900238
L175922380 121757380
L175922380 121662142
L175970000 121519285
L176017619 121471666
" />
<path d="M176922380 120519285
L176922380 121090714
" />
<path d="M176922380 120805000
L175922380 120805000
L176065238 120900238
L176160476 120995476
L176208095 121090714
" />
</g><text x="152120000.000000" y="107315000.000000"
textLength="1909286.000000" font-size="1333333.000000" lengthAdjust="spacingAndGlyphs"
text-anchor="middle" opacity="0">J5</text>
<g class="stroked-text"><desc>J5</desc>
<path d="M151786666 106267380
L151786666 106981666
L151739047 107124523
L151643809 107219761
L151500952 107267380
L151405714 107267380
" />
<path d="M152739047 106267380
L152262857 106267380
L152215238 106743571
L152262857 106695952
L152358095 106648333
L152596190 106648333
L152691428 106695952
L152739047 106743571
L152786666 106838809
L152786666 107076904
L152739047 107172142
L152691428 107219761
L152596190 107267380
L152358095 107267380
L152262857 107219761
L152215238 107172142
" />
</g><g transform="rotate(-90.000000 160722000.000000 121686000.000000)">
<text x="160722000.000000" y="122186000.000000"
textLength="2147381.000000" font-size="1333333.000000" lengthAdjust="spacingAndGlyphs"
text-anchor="middle" opacity="0">C4</text>
</g>
<g class="stroked-text"><desc>C4</desc>
<path d="M161079142 121852666
L161126761 121900285
L161174380 122043142
L161174380 122138380
L161126761 122281238
L161031523 122376476
L160936285 122424095
L160745809 122471714
L160602952 122471714
L160412476 122424095
L160317238 122376476
L160222000 122281238
L160174380 122138380
L160174380 122043142
L160222000 121900285
L160269619 121852666
" />
<path d="M160507714 120995523
L161174380 120995523
" />
<path d="M160126761 121233619
L160841047 121471714
L160841047 120852666
" />
</g><g transform="rotate(-90.000000 188595000.000000 122280000.000000)">
<text x="188595000.000000" y="122780000.000000"
textLength="2147381.000000" font-size="1333333.000000" lengthAdjust="spacingAndGlyphs"
text-anchor="middle" opacity="0">D3</text>
</g>
<g class="stroked-text"><desc>D3</desc>
<path d="M189047380 123018095
L188047380 123018095
L188047380 122780000
L188095000 122637142
L188190238 122541904
L188285476 122494285
L188475952 122446666
L188618809 122446666
L188809285 122494285
L188904523 122541904
L188999761 122637142
L189047380 122780000
L189047380 123018095
" />
<path d="M188047380 122113333
L188047380 121494285
L188428333 121827619
L188428333 121684761
L188475952 121589523
L188523571 121541904
L188618809 121494285
L188856904 121494285
L188952142 121541904
L188999761 121589523
L189047380 121684761
L189047380 121970476
L188999761 122065714
L188952142 122113333
" />
</g><g transform="rotate(-90.000000 162195000.000000 120650000.000000)">
<text x="162195000.000000" y="121150000.000000"
textLength="3004524.000000" font-size="1333333.000000" lengthAdjust="spacingAndGlyphs"
text-anchor="middle" opacity="0">RV1</text>
</g>
<g class="stroked-text"><desc>RV1</desc>
<path d="M162647380 121245238
L162171190 121578571
" />
<path d="M162647380 121816666
L161647380 121816666
L161647380 121435714
L161695000 121340476
L161742619 121292857
L161837857 121245238
L161980714 121245238
L162075952 121292857
L162123571 121340476
L162171190 121435714
L162171190 121816666
" />
<path d="M161647380 120959523
L162647380 120626190
L161647380 120292857
" />
<path d="M162647380 119435714
L162647380 120007142
" />
<path d="M162647380 119721428
L161647380 119721428
L161790238 119816666
L161885476 119911904
L161933095 120007142
" />
</g><text x="214985000.000000" y="120650000.000000"
textLength="2861667.000000" font-size="1333333.000000" lengthAdjust="spacingAndGlyphs"
text-anchor="middle" opacity="0">J11</text>
<g class="stroked-text"><desc>J11</desc>
<path d="M214175476 119602380
L214175476 120316666
L214127857 120459523
L214032619 120554761
L213889761 120602380
L213794523 120602380
" />
<path d="M215175476 120602380
L214604047 120602380
" />
<path d="M214889761 120602380
L214889761 119602380
L214794523 119745238
L214699285 119840476
L214604047 119888095
" />
<path d="M216127857 120602380
L215556428 120602380
" />
<path d="M215842142 120602380
L215842142 119602380
L215746904 119745238
L215651666 119840476
L215556428 119888095
" />
</g><text x="152120000.000000" y="123825000.000000"
textLength="1909286.000000" font-size="1333333.000000" lengthAdjust="spacingAndGlyphs"
text-anchor="middle" opacity="0">J7</text>
<g class="stroked-text"><desc>J7</desc>
<path d="M151786666 122777380
L151786666 123491666
L151739047 123634523
L151643809 123729761
L151500952 123777380
L151405714 123777380
" />
<path d="M152167619 122777380
L152834285 122777380
L152405714 123777380
" />
</g><g transform="rotate(-90.000000 163786635.000000 115824000.000000)">
<text x="163786635.000000" y="116324000.000000"
textLength="2147381.000000" font-size="1333333.000000" lengthAdjust="spacingAndGlyphs"
text-anchor="middle" opacity="0">D1</text>
</g>
<g class="stroked-text"><desc>D1</desc>
<path d="M164239015 116562095
L163239015 116562095
L163239015 116324000
L163286635 116181142
L163381873 116085904
L163477111 116038285
L163667587 115990666
L163810444 115990666
L164000920 116038285
L164096158 116085904
L164191396 116181142
L164239015 116324000
L164239015 116562095
" />
<path d="M164239015 115038285
L164239015 115609714
" />
<path d="M164239015 115324000
L163239015 115324000
L163381873 115419238
L163477111 115514476
L163524730 115609714
" />
</g><g transform="rotate(-90.000000 159936000.000000 115084000.000000)">
<text x="159936000.000000" y="115584000.000000"
textLength="1195000.000000" font-size="1333333.000000" lengthAdjust="spacingAndGlyphs"
text-anchor="middle" opacity="0">K</text>
</g>
<g class="stroked-text"><desc>K</desc>
<path d="M160388380 115345904
L159388380 115345904
" />
<path d="M160388380 114774476
L159816952 115203047
" />
<path d="M159388380 114774476
L159959809 115345904
" />
</g><text x="209908000.000000" y="53953000.000000"
textLength="2147381.000000" font-size="1333333.000000" lengthAdjust="spacingAndGlyphs"
text-anchor="middle" opacity="0">D2</text>
<g class="stroked-text"><desc>D2</desc>
<path d="M209169904 53905380
L209169904 52905380
L209408000 52905380
L209550857 52953000
L209646095 53048238
L209693714 53143476
L209741333 53333952
L209741333 53476809
L209693714 53667285
L209646095 53762523
L209550857 53857761
L209408000 53905380
L209169904 53905380
" />
<path d="M210122285 53000619
L210169904 52953000
L210265142 52905380
L210503238 52905380
L210598476 52953000
L210646095 53000619
L210693714 53095857
L210693714 53191095
L210646095 53333952
L210074666 53905380
L210693714 53905380
" />
</g><g transform="rotate(-90.000000 189435000.000000 57615000.000000)">
<text x="189435000.000000" y="58115000.000000"
textLength="3242619.000000" font-size="1333333.000000" lengthAdjust="spacingAndGlyphs"
text-anchor="middle" opacity="0">SW3</text>
</g>
<g class="stroked-text"><desc>SW3</desc>
<path d="M189839761 58948333
L189887380 58805476
L189887380 58567380
L189839761 58472142
L189792142 58424523
L189696904 58376904
L189601666 58376904
L189506428 58424523
L189458809 58472142
L189411190 58567380
L189363571 58757857
L189315952 58853095
L189268333 58900714
L189173095 58948333
L189077857 58948333
L188982619 58900714
L188935000 58853095
L188887380 58757857
L188887380 58519761
L188935000 58376904
" />
<path d="M188887380 58043571
L189887380 57805476
L189173095 57615000
L189887380 57424523
L188887380 57186428
" />
<path d="M188887380 56900714
L188887380 56281666
L189268333 56615000
L189268333 56472142
L189315952 56376904
L189363571 56329285
L189458809 56281666
L189696904 56281666
L189792142 56329285
L189839761 56376904
L189887380 56472142
L189887380 56757857
L189839761 56853095
L189792142 56900714
" />
</g><g transform="rotate(-90.000000 197690000.000000 67650000.000000)">
<text x="197690000.000000" y="68150000.000000"
textLength="3242619.000000" font-size="1333333.000000" lengthAdjust="spacingAndGlyphs"
text-anchor="middle" opacity="0">SW4</text>
</g>
<g class="stroked-text"><desc>SW4</desc>
<path d="M198094761 68983333
L198142380 68840476
L198142380 68602380
L198094761 68507142
L198047142 68459523
L197951904 68411904
L197856666 68411904
L197761428 68459523
L197713809 68507142
L197666190 68602380
L197618571 68792857
L197570952 68888095
L197523333 68935714
L197428095 68983333
L197332857 68983333
L197237619 68935714
L197190000 68888095
L197142380 68792857
L197142380 68554761
L197190000 68411904
" />
<path d="M197142380 68078571
L198142380 67840476
L197428095 67650000
L198142380 67459523
L197142380 67221428
" />
<path d="M197475714 66411904
L198142380 66411904
" />
<path d="M197094761 66650000
L197809047 66888095
L197809047 66269047
" />
</g><g transform="rotate(-90.000000 189435000.000000 67650000.000000)">
<text x="189435000.000000" y="68150000.000000"
textLength="3242619.000000" font-size="1333333.000000" lengthAdjust="spacingAndGlyphs"
text-anchor="middle" opacity="0">SW2</text>
</g>
<g class="stroked-text"><desc>SW2</desc>
<path d="M189839761 68983333
L189887380 68840476
L189887380 68602380
L189839761 68507142
L189792142 68459523
L189696904 68411904
L189601666 68411904
L189506428 68459523
L189458809 68507142
L189411190 68602380
L189363571 68792857
L189315952 68888095
L189268333 68935714
L189173095 68983333
L189077857 68983333
L188982619 68935714
L188935000 68888095
L188887380 68792857
L188887380 68554761
L188935000 68411904
" />
<path d="M188887380 68078571
L189887380 67840476
L189173095 67650000
L189887380 67459523
L188887380 67221428
" />
<path d="M188982619 66888095
L188935000 66840476
L188887380 66745238
L188887380 66507142
L188935000 66411904
L188982619 66364285
L189077857 66316666
L189173095 66316666
L189315952 66364285
L189887380 66935714
L189887380 66316666
" />
</g><g transform="rotate(-90.000000 179105000.000000 72945000.000000)">
<text x="179105000.000000" y="73445000.000000"
textLength="3004524.000000" font-size="1333333.000000" lengthAdjust="spacingAndGlyphs"
text-anchor="middle" opacity="0">RV2</text>
</g>
<g class="stroked-text"><desc>RV2</desc>
<path d="M179557380 73540238
L179081190 73873571
" />
<path d="M179557380 74111666
L178557380 74111666
L178557380 73730714
L178605000 73635476
L178652619 73587857
L178747857 73540238
L178890714 73540238
L178985952 73587857
L179033571 73635476
L179081190 73730714
L179081190 74111666
" />
<path d="M178557380 73254523
L179557380 72921190
L178557380 72587857
" />
<path d="M178652619 72302142
L178605000 72254523
L178557380 72159285
L178557380 71921190
L178605000 71825952
L178652619 71778333
L178747857 71730714
L178843095 71730714
L178985952 71778333
L179557380 72349761
L179557380 71730714
" />
</g><g transform="rotate(-90.000000 204595000.000000 46895000.000000)">
<text x="204595000.000000" y="47395000.000000"
textLength="1909286.000000" font-size="1333333.000000" lengthAdjust="spacingAndGlyphs"
text-anchor="middle" opacity="0">J6</text>
</g>
<g class="stroked-text"><desc>J6</desc>
<path d="M204047380 47228333
L204761666 47228333
L204904523 47275952
L204999761 47371190
L205047380 47514047
L205047380 47609285
" />
<path d="M204047380 46323571
L204047380 46514047
L204095000 46609285
L204142619 46656904
L204285476 46752142
L204475952 46799761
L204856904 46799761
L204952142 46752142
L204999761 46704523
L205047380 46609285
L205047380 46418809
L204999761 46323571
L204952142 46275952
L204856904 46228333
L204618809 46228333
L204523571 46275952
L204475952 46323571
L204428333 46418809
L204428333 46609285
L204475952 46704523
L204523571 46752142
L204618809 46799761
" />
</g><g transform="rotate(-90.000000 173615000.000000 90635000.000000)">
<text x="173615000.000000" y="91135000.000000"
textLength="3242619.000000" font-size="1333333.000000" lengthAdjust="spacingAndGlyphs"
text-anchor="middle" opacity="0">SW1</text>
</g>
<g class="stroked-text"><desc>SW1</desc>
<path d="M174019761 91968333
L174067380 91825476
L174067380 91587380
L174019761 91492142
L173972142 91444523
L173876904 91396904
L173781666 91396904
L173686428 91444523
L173638809 91492142
L173591190 91587380
L173543571 91777857
L173495952 91873095
L173448333 91920714
L173353095 91968333
L173257857 91968333
L173162619 91920714
L173115000 91873095
L173067380 91777857
L173067380 91539761
L173115000 91396904
" />
<path d="M173067380 91063571
L174067380 90825476
L173353095 90635000
L174067380 90444523
L173067380 90206428
" />
<path d="M174067380 89301666
L174067380 89873095
" />
<path d="M174067380 89587380
L173067380 89587380
L173210238 89682619
L173305476 89777857
L173353095 89873095
" />
</g><text x="183870000.000000" y="95230000.000000"
textLength="1909286.000000" font-size="1333333.000000" lengthAdjust="spacingAndGlyphs"
text-anchor="middle" opacity="0">J3</text>
<g class="stroked-text"><desc>J3</desc>
<path d="M183536666 94182380
L183536666 94896666
L183489047 95039523
L183393809 95134761
L183250952 95182380
L183155714 95182380
" />
<path d="M183917619 94182380
L184536666 94182380
L184203333 94563333
L184346190 94563333
L184441428 94610952
L184489047 94658571
L184536666 94753809
L184536666 94991904
L184489047 95087142
L184441428 95134761
L184346190 95182380
L184060476 95182380
L183965238 95134761
L183917619 95087142
" />
</g><text x="169545000.000000" y="111230000.000000"
textLength="2195000.000000" font-size="1333333.000000" lengthAdjust="spacingAndGlyphs"
text-anchor="middle" opacity="0">U1</text>
<g class="stroked-text"><desc>U1</desc>
<path d="M168783095 110182380
L168783095 110991904
L168830714 111087142
L168878333 111134761
L168973571 111182380
L169164047 111182380
L169259285 111134761
L169306904 111087142
L169354523 110991904
L169354523 110182380
" />
<path d="M170354523 111182380
L169783095 111182380
" />
<path d="M170068809 111182380
L170068809 110182380
L169973571 110325238
L169878333 110420476
L169783095 110468095
" />
</g><g transform="rotate(-90.000000 186005000.000000 80550000.000000)">
<text x="186005000.000000" y="81050000.000000"
textLength="2861667.000000" font-size="1333333.000000" lengthAdjust="spacingAndGlyphs"
text-anchor="middle" opacity="0">J10</text>
</g>
<g class="stroked-text"><desc>J10</desc>
<path d="M185457380 81359523
L186171666 81359523
L186314523 81407142
L186409761 81502380
L186457380 81645238
L186457380 81740476
" />
<path d="M186457380 80359523
L186457380 80930952
" />
<path d="M186457380 80645238
L185457380 80645238
L185600238 80740476
L185695476 80835714
L185743095 80930952
" />
<path d="M185457380 79740476
L185457380 79645238
L185505000 79550000
L185552619 79502380
L185647857 79454761
L185838333 79407142
L186076428 79407142
L186266904 79454761
L186362142 79502380
L186409761 79550000
L186457380 79645238
L186457380 79740476
L186409761 79835714
L186362142 79883333
L186266904 79930952
L186076428 79978571
L185838333 79978571
L185647857 79930952
L185552619 79883333
L185505000 79835714
L185457380 79740476
" />
</g></g>
<g style="fill:#000000; fill-opacity:0.0; 
stroke:#000000; stroke-width:120000.000000; stroke-opacity:1; 
stroke-linecap:round; stroke-linejoin:round;">
<path d="M182275112 64270000
L182275112 62745000
" />
<path d="M180394112 66753000
L180394112 66350000
" />
<path d="M180994112 64270000
L180994112 63245000
" />
<path d="M181794112 67778000
L181794112 66350000
" />
<path d="M181794112 64270000
L181794112 62842000
" />
<path d="M179954112 65594000
L179954112 65026000
" />
<path d="M181314112 64270000
L181314112 63042000
" />
<path d="M181514112 64270000
L181514112 62945000
" />
<path d="M181995112 64270000
L181995112 62790000
" />
<path d="M180554112 64270000
L180554112 63657000
" />
<path d="M181434112 64270000
L181434112 62981000
" />
<path d="M180954112 64270000
L180954112 63275000
" />
<path d="M181354112 64270000
L181354112 63020000
" />
<path d="M182195112 67866000
L182195112 66350000
" />
<path d="M181034112 64270000
L181034112 63215000
" />
<path d="M182035112 64270000
L182035112 62782000
" />
<path d="M182475112 67889000
L182475112 62731000
" />
<path d="M181434112 67639000
L181434112 66350000
" />
<path d="M180794112 67211000
L180794112 66350000
" />
<path d="M182395112 67886000
L182395112 62734000
" />
<path d="M180714112 67136000
L180714112 66350000
" />
<path d="M182435112 67888000
L182435112 62732000
" />
<path d="M181194112 67510000
L181194112 66350000
" />
<path d="M181554112 64270000
L181554112 62928000
" />
<path d="M180594112 64270000
L180594112 63611000
" />
<path d="M180834112 64270000
L180834112 63373000
" />
<path d="M182115112 64270000
L182115112 62767000
" />
<path d="M181594112 64270000
L181594112 62912000
" />
<path d="M180354112 66693000
L180354112 66350000
" />
<path d="M180794112 64270000
L180794112 63409000
" />
<path d="M181714112 64270000
L181714112 62868000
" />
<path d="M181114112 67459000
L181114112 66350000
" />
<path d="M182315112 67879000
L182315112 66350000
" />
<path d="M180194112 66408000
L180194112 64212000
" />
<path d="M181274112 64270000
L181274112 63063000
" />
<path d="M181554112 67692000
L181554112 66350000
" />
<path d="M180274112 64270000
L180274112 64059000
" />
<path d="M180674112 67095000
L180674112 66350000
" />
<path d="M181074112 64270000
L181074112 63188000
" />
<path d="M182035112 67838000
L182035112 66350000
" />
<path d="M180714112 64270000
L180714112 63484000
" />
<path d="M180754112 67174000
L180754112 66350000
" />
<path d="M182235112 67871000
L182235112 66350000
" />
<path d="M182235112 64270000
L182235112 62749000
" />
<path d="M181474112 64270000
L181474112 62962000
" />
<path d="M180474112 66864000
L180474112 66350000
" />
<path d="M181955112 67821000
L181955112 66350000
" />
<path d="M180394112 64270000
L180394112 63867000
" />
<path d="M180154112 66321000
L180154112 64299000
" />
<path d="M181314112 67578000
L181314112 66350000
" />
<path d="M180994112 67375000
L180994112 66350000
" />
<path d="M181354112 67600000
L181354112 66350000
" />
<path d="M180634112 64270000
L180634112 63567000
" />
<path d="M180914112 64270000
L180914112 63306000
" />
<path d="M179994112 65828000
L179994112 64792000
" />
<path d="M181474112 67658000
L181474112 66350000
" />
<path d="M181875112 64270000
L181875112 62819000
" />
<path d="M181915112 67811000
L181915112 66350000
" />
<path d="M182315112 64270000
L182315112 62741000
" />
<path d="M180674112 64270000
L180674112 63525000
" />
<path d="M181234112 64270000
L181234112 63086000
" />
<path d="M180114112 66225000
L180114112 64395000
" />
<path d="M181154112 64270000
L181154112 63135000
" />
<path d="M181274112 67557000
L181274112 66350000
" />
<path d="M181754112 64270000
L181754112 62855000
" />
<path d="M181754112 67765000
L181754112 66350000
" />
<path d="M180514112 64270000
L180514112 63705000
" />
<path d="M182555112 67890000
L182555112 62730000
" />
<path d="M182075112 67846000
L182075112 66350000
" />
<path d="M180314112 64270000
L180314112 63991000
" />
<path d="M185109887 67035000
L185109887 66535000
" />
<path d="M181674112 67738000
L181674112 66350000
" />
<path d="M181394112 67620000
L181394112 66350000
" />
<path d="M182155112 64270000
L182155112 62760000
" />
<path d="M182275112 67875000
L182275112 66350000
" />
<path d="M181634112 64270000
L181634112 62896000
" />
<path d="M181154112 67485000
L181154112 66350000
" />
<path d="M181955112 64270000
L181955112 62799000
" />
<path d="M181394112 64270000
L181394112 63000000
" />
<path d="M180034112 65987000
L180034112 64633000
" />
<path d="M180834112 67247000
L180834112 66350000
" />
<path d="M185359887 66785000
L184859887 66785000
" />
<path d="M182155112 67860000
L182155112 66350000
" />
<path d="M180594112 67009000
L180594112 66350000
" />
<path d="M181074112 67432000
L181074112 66350000
" />
<path d="M181915112 64270000
L181915112 62809000
" />
<path d="M180074112 66115000
L180074112 64505000
" />
<path d="M180274112 66561000
L180274112 66350000
" />
<path d="M180754112 64270000
L180754112 63446000
" />
<path d="M181834112 64270000
L181834112 62830000
" />
<path d="M182075112 64270000
L182075112 62774000
" />
<path d="M180354112 64270000
L180354112 63927000
" />
<path d="M180314112 66629000
L180314112 66350000
" />
<path d="M181034112 67405000
L181034112 66350000
" />
<path d="M180914112 67314000
L180914112 66350000
" />
<path d="M181714112 67752000
L181714112 66350000
" />
<path d="M180434112 66810000
L180434112 66350000
" />
<path d="M180234112 66488000
L180234112 64132000
" />
<path d="M182355112 67883000
L182355112 62737000
" />
<path d="M181234112 67534000
L181234112 66350000
" />
<path d="M180434112 64270000
L180434112 63810000
" />
<path d="M181995112 67830000
L181995112 66350000
" />
<path d="M181514112 67675000
L181514112 66350000
" />
<path d="M180954112 67345000
L180954112 66350000
" />
<path d="M182515112 67890000
L182515112 62730000
" />
<path d="M180634112 67053000
L180634112 66350000
" />
<path d="M181834112 67790000
L181834112 66350000
" />
<path d="M180874112 64270000
L180874112 63339000
" />
<path d="M181194112 64270000
L181194112 63110000
" />
<path d="M181594112 67708000
L181594112 66350000
" />
<path d="M181634112 67724000
L181634112 66350000
" />
<path d="M181674112 64270000
L181674112 62882000
" />
<path d="M182195112 64270000
L182195112 62754000
" />
<path d="M180554112 66963000
L180554112 66350000
" />
<path d="M182115112 67853000
L182115112 66350000
" />
<path d="M180514112 66915000
L180514112 66350000
" />
<path d="M181114112 64270000
L181114112 63161000
" />
<path d="M181875112 67801000
L181875112 66350000
" />
<path d="M180874112 67281000
L180874112 66350000
" />
<path d="M180474112 64270000
L180474112 63756000
" />
<circle cx="182555112.000000" cy="65310000.000000" r="2620000.000000" /> 
<path d="M204885000 48225000
L204885000 45565000
" />
<path d="M192125000 48225000
L192125000 45565000
" />
<path d="M192125000 45565000
L204885000 45565000
" />
<path d="M189525000 45565000
L190855000 45565000
" />
<path d="M192125000 48225000
L204885000 48225000
" />
<path d="M189525000 46895000
L189525000 45565000
" />
<path d="M186470000 111090000
L186470000 108430000
" />
<path d="M178790000 108430000
L186470000 108430000
" />
<path d="M177520000 111090000
L176190000 111090000
" />
<path d="M178790000 111090000
L186470000 111090000
" />
<path d="M178790000 111090000
L178790000 108430000
" />
<path d="M176190000 111090000
L176190000 109760000
" />
<path d="M202690000 54115000
L201190000 54115000
" />
<path d="M205190000 59865000
L205190000 55365000
" />
<path d="M198690000 55365000
L198690000 59865000
" />
<path d="M201190000 61115000
L202690000 61115000
" />
<path d="M169395000 94117500
L148815000 94117500
" />
<path d="M161155000 92807500
L161155000 94117500
" />
<path d="M168095000 86307500
L168095000 92807500
" />
<path d="M157055000 92807500
L150115000 92807500
" />
<path d="M153525000 95507500
L154525000 95507500
" />
<path d="M169395000 84997500
L169395000 94117500
" />
<path d="M150115000 86307500
L168095000 86307500
" />
<path d="M154525000 95507500
L154025000 94507500
" />
<path d="M154025000 94507500
L153525000 95507500
" />
<path d="M157055000 94117500
L157055000 92807500
" />
<path d="M150115000 92807500
L150115000 86307500
" />
<path d="M168095000 92807500
L161155000 92807500
" />
<path d="M148815000 94117500
L148815000 84997500
" />
</g>
<g style="fill:#000000; fill-opacity:1.0; 
stroke:#000000; stroke-width:1.000000; stroke-opacity:1; 
stroke-linecap:round; stroke-linejoin:round;">
<circle cx="161155000.000000" cy="92807500.000000" r="60000.000000" /> 
</g>
<g style="fill:#000000; fill-opacity:1.0; 
stroke:#000000; stroke-width:120000.000000; stroke-opacity:1; 
stroke-linecap:round; stroke-linejoin:round;">
</g>
<g style="fill:#000000; fill-opacity:0.0; 
stroke:#000000; stroke-width:120000.000000; stroke-opacity:1; 
stroke-linecap:round; stroke-linejoin:round;">
<path d="M148815000 84997500
L169395000 84997500
" />
<path d="M162855000 58900000
L164185000 58900000
" />
<path d="M162855000 60230000
L162855000 58900000
" />
<path d="M165455000 58900000
L183295000 58900000
" />
<path d="M183295000 61560000
L183295000 58900000
" />
<path d="M165455000 61560000
L165455000 58900000
" />
<path d="M165455000 61560000
L183295000 61560000
" />
<path d="M177100000 124557500
L177100000 121957500
" />
<path d="M191800000 115357500
L191800000 124557500
" />
<path d="M176900000 123707500
L176900000 124757500
" />
<path d="M177100000 115357500
L179000000 115357500
" />
<path d="M177100000 118057500
L177100000 115357500
" />
<path d="M191800000 124557500
L177100000 124557500
" />
<path d="M183000000 115357500
L191800000 115357500
" />
<path d="M177950000 124757500
L176900000 124757500
" />
<path d="M175211000 121985000
L173760000 121985000
" />
<path d="M174657000 123026000
L173760000 123026000
" />
<path d="M175289000 121545000
L173760000 121545000
" />
<path d="M174944000 122626000
L173760000 122626000
" />
<path d="M175049000 122426000
L173760000 122426000
" />
<path d="M171680000 121825000
L170192000 121825000
" />
<path d="M174869000 122746000
L173760000 122746000
" />
<path d="M171680000 122186000
L170292000 122186000
" />
<path d="M175030000 122466000
L173760000 122466000
" />
<path d="M174785000 122866000
L173760000 122866000
" />
<path d="M171680000 122506000
L170430000 122506000
" />
<path d="M175162000 122146000
L173760000 122146000
" />
<path d="M171680000 122866000
L170655000 122866000
" />
<path d="M171680000 123346000
L171115000 123346000
" />
<path d="M171680000 121625000
L170159000 121625000
" />
<path d="M171680000 121705000
L170170000 121705000
" />
<path d="M175276000 121665000
L173760000 121665000
" />
<path d="M171680000 122746000
L170571000 122746000
" />
<path d="M174163000 123466000
L173760000 123466000
" />
<path d="M174920000 122666000
L173760000 122666000
" />
<path d="M171680000 121785000
L170184000 121785000
" />
<path d="M174691000 122986000
L173760000 122986000
" />
<path d="M173731000 123706000
L171709000 123706000
" />
<path d="M171680000 122426000
L170391000 122426000
" />
<path d="M173238000 123866000
L172202000 123866000
" />
<path d="M174621000 123066000
L173760000 123066000
" />
<path d="M175148000 122186000
L173760000 122186000
" />
<path d="M171680000 123386000
L171166000 123386000
" />
<path d="M174815000 122826000
L173760000 122826000
" />
<path d="M171680000 123426000
L171220000 123426000
" />
<path d="M174220000 123426000
L173760000 123426000
" />
<path d="M174325000 123346000
L173760000 123346000
" />
<path d="M175296000 121465000
L170144000 121465000
" />
<path d="M175299000 121385000
L170141000 121385000
" />
<path d="M175231000 121905000
L173760000 121905000
" />
<path d="M171680000 123306000
L171067000 123306000
" />
<path d="M171680000 122066000
L170252000 122066000
" />
<path d="M171680000 122666000
L170520000 122666000
" />
<path d="M171680000 122306000
L170338000 122306000
" />
<path d="M171680000 122106000
L170265000 122106000
" />
<path d="M174755000 122906000
L173760000 122906000
" />
<path d="M174195000 118500225
L174195000 119000225
" />
<path d="M171680000 121585000
L170155000 121585000
" />
<path d="M174373000 123306000
L173760000 123306000
" />
<path d="M171680000 122026000
L170240000 122026000
" />
<path d="M171680000 123466000
L171277000 123466000
" />
<path d="M175256000 121785000
L173760000 121785000
" />
<path d="M175248000 121825000
L173760000 121825000
" />
<path d="M175300000 121305000
L170140000 121305000
" />
<path d="M171680000 122626000
L170496000 122626000
" />
<path d="M173004000 123906000
L172436000 123906000
" />
<path d="M171680000 122826000
L170625000 122826000
" />
<path d="M174584000 123106000
L173760000 123106000
" />
<path d="M173818000 123666000
L171622000 123666000
" />
<path d="M171680000 121945000
L170219000 121945000
" />
<path d="M175221000 121945000
L173760000 121945000
" />
<path d="M174463000 123226000
L173760000 123226000
" />
<path d="M171680000 123546000
L171401000 123546000
" />
<path d="M171680000 121545000
L170151000 121545000
" />
<path d="M175263000 121745000
L173760000 121745000
" />
<path d="M175298000 121425000
L170142000 121425000
" />
<path d="M175010000 122506000
L173760000 122506000
" />
<path d="M174039000 123546000
L173760000 123546000
" />
<path d="M171680000 122386000
L170372000 122386000
" />
<path d="M174988000 122546000
L173760000 122546000
" />
<path d="M171680000 121985000
L170229000 121985000
" />
<path d="M175270000 121705000
L173760000 121705000
" />
<path d="M171680000 123066000
L170819000 123066000
" />
<path d="M171680000 123026000
L170783000 123026000
" />
<path d="M174724000 122946000
L173760000 122946000
" />
<path d="M175300000 121345000
L170140000 121345000
" />
<path d="M174103000 123506000
L173760000 123506000
" />
<path d="M171680000 121745000
L170177000 121745000
" />
<path d="M171680000 123226000
L170977000 123226000
" />
<path d="M171680000 122146000
L170278000 122146000
" />
<path d="M171680000 123586000
L171469000 123586000
" />
<path d="M171680000 122906000
L170685000 122906000
" />
<path d="M175293000 121505000
L170147000 121505000
" />
<path d="M173397000 123826000
L172043000 123826000
" />
<path d="M171680000 121865000
L170200000 121865000
" />
<path d="M171680000 123186000
L170935000 123186000
" />
<path d="M175068000 122386000
L173760000 122386000
" />
<path d="M171680000 122466000
L170410000 122466000
" />
<path d="M173898000 123626000
L171542000 123626000
" />
<path d="M174274000 123386000
L173760000 123386000
" />
<path d="M175102000 122306000
L173760000 122306000
" />
<path d="M175285000 121585000
L173760000 121585000
" />
<path d="M174967000 122586000
L173760000 122586000
" />
<path d="M175134000 122226000
L173760000 122226000
" />
<path d="M175188000 122066000
L173760000 122066000
" />
<path d="M174895000 122706000
L173760000 122706000
" />
<path d="M173525000 123786000
L171915000 123786000
" />
<path d="M174445000 118750225
L173945000 118750225
" />
<path d="M173635000 123746000
L171805000 123746000
" />
<path d="M171680000 122266000
L170322000 122266000
" />
<path d="M175281000 121625000
L173760000 121625000
" />
<path d="M171680000 122986000
L170749000 122986000
" />
<path d="M171680000 122346000
L170355000 122346000
" />
<path d="M171680000 122586000
L170473000 122586000
" />
<path d="M174419000 123266000
L173760000 123266000
" />
<path d="M175085000 122346000
L173760000 122346000
" />
<path d="M171680000 122706000
L170545000 122706000
" />
<path d="M171680000 122786000
L170598000 122786000
" />
<path d="M171680000 123266000
L171021000 123266000
" />
<path d="M175118000 122266000
L173760000 122266000
" />
<path d="M171680000 123146000
L170894000 123146000
" />
<path d="M171680000 123506000
L171337000 123506000
" />
<path d="M171680000 122226000
L170306000 122226000
" />
<path d="M175175000 122106000
L173760000 122106000
" />
<path d="M174842000 122786000
L173760000 122786000
" />
<path d="M171680000 121665000
L170164000 121665000
" />
<path d="M174505000 123186000
L173760000 123186000
" />
<path d="M174546000 123146000
L173760000 123146000
" />
<path d="M171680000 121905000
L170209000 121905000
" />
<path d="M175240000 121865000
L173760000 121865000
" />
<path d="M171680000 123106000
L170856000 123106000
" />
<path d="M175200000 122026000
L173760000 122026000
" />
<path d="M171680000 122546000
L170452000 122546000
" />
<path d="M171680000 122946000
L170716000 122946000
" />
<path d="M173971000 123586000
L173760000 123586000
" />
<circle cx="172720000.000000" cy="121305000.000000" r="2620000.000000" /> 
<path d="M153450000 102775000
L150790000 102775000
" />
<path d="M152120000 105375000
L150790000 105375000
" />
<path d="M150790000 102775000
L150790000 95095000
" />
<path d="M150790000 105375000
L150790000 104045000
" />
<path d="M153450000 95095000
L150790000 95095000
" />
<path d="M153450000 102775000
L153450000 95095000
" />
<path d="M158223000 123967000
L158012000 123967000
" />
<path d="M155932000 123327000
L154968000 123327000
" />
<path d="M155932000 121966000
L154407000 121966000
" />
<path d="M155932000 122927000
L154704000 122927000
" />
<path d="M155932000 123447000
L155071000 123447000
" />
<path d="M158715000 123607000
L158012000 123607000
" />
<path d="M155932000 123087000
L154797000 123087000
" />
<path d="M159121000 123127000
L158012000 123127000
" />
<path d="M158291000 123927000
L158012000 123927000
" />
<path d="M155932000 123247000
L154907000 123247000
" />
<path d="M155932000 122767000
L154624000 122767000
" />
<path d="M155932000 123047000
L154772000 123047000
" />
<path d="M155932000 121926000
L154403000 121926000
" />
<path d="M155932000 123007000
L154748000 123007000
" />
<path d="M155932000 123687000
L155319000 123687000
" />
<path d="M158625000 123687000
L158012000 123687000
" />
<path d="M158798000 123527000
L158012000 123527000
" />
<path d="M159515000 122126000
L158012000 122126000
" />
<path d="M159483000 122286000
L158012000 122286000
" />
<path d="M158671000 123647000
L158012000 123647000
" />
<path d="M155932000 122647000
L154574000 122647000
" />
<path d="M157256000 124287000
L156688000 124287000
" />
<path d="M155932000 122487000
L154517000 122487000
" />
<path d="M158757000 123567000
L158012000 123567000
" />
<path d="M159500000 122206000
L158012000 122206000
" />
<path d="M159147000 123087000
L158012000 123087000
" />
<path d="M155932000 122447000
L154504000 122447000
" />
<path d="M159550000 121806000
L154394000 121806000
" />
<path d="M155932000 123847000
L155529000 123847000
" />
<path d="M155932000 122807000
L154643000 122807000
" />
<path d="M155932000 123127000
L154823000 123127000
" />
<path d="M159427000 122487000
L158012000 122487000
" />
<path d="M159262000 122887000
L158012000 122887000
" />
<path d="M155932000 123567000
L155187000 123567000
" />
<path d="M159301000 122807000
L158012000 122807000
" />
<path d="M159552000 121726000
L154392000 121726000
" />
<path d="M155932000 122166000
L154436000 122166000
" />
<path d="M157983000 124087000
L155961000 124087000
" />
<path d="M159320000 122767000
L158012000 122767000
" />
<path d="M155932000 122366000
L154481000 122366000
" />
<path d="M155932000 123727000
L155367000 123727000
" />
<path d="M155932000 122727000
L154607000 122727000
" />
<path d="M159337000 122727000
L158012000 122727000
" />
<path d="M158943000 123367000
L158012000 123367000
" />
<path d="M155932000 122206000
L154444000 122206000
" />
<path d="M158415000 123847000
L158012000 123847000
" />
<path d="M159240000 122927000
L158012000 122927000
" />
<path d="M158697000 119131225
L158197000 119131225
" />
<path d="M155932000 122687000
L154590000 122687000
" />
<path d="M155932000 123607000
L155229000 123607000
" />
<path d="M158070000 124047000
L155874000 124047000
" />
<path d="M155932000 122246000
L154452000 122246000
" />
<path d="M155932000 123407000
L155035000 123407000
" />
<path d="M159414000 122527000
L158012000 122527000
" />
<path d="M155932000 123287000
L154937000 123287000
" />
<path d="M159492000 122246000
L158012000 122246000
" />
<path d="M155932000 123487000
L155108000 123487000
" />
<path d="M155932000 123807000
L155472000 123807000
" />
<path d="M159545000 121886000
L154399000 121886000
" />
<path d="M159551000 121766000
L154393000 121766000
" />
<path d="M155932000 123527000
L155146000 123527000
" />
<path d="M159508000 122166000
L158012000 122166000
" />
<path d="M158577000 123727000
L158012000 123727000
" />
<path d="M155932000 123767000
L155418000 123767000
" />
<path d="M159533000 122006000
L158012000 122006000
" />
<path d="M159094000 123167000
L158012000 123167000
" />
<path d="M158873000 123447000
L158012000 123447000
" />
<path d="M155932000 122006000
L154411000 122006000
" />
<path d="M155932000 122887000
L154682000 122887000
" />
<path d="M155932000 123887000
L155589000 123887000
" />
<path d="M159007000 123287000
L158012000 123287000
" />
<path d="M159548000 121846000
L154396000 121846000
" />
<path d="M155932000 123927000
L155653000 123927000
" />
<path d="M157649000 124207000
L156295000 124207000
" />
<path d="M155932000 122407000
L154492000 122407000
" />
<path d="M159400000 122567000
L158012000 122567000
" />
<path d="M159219000 122967000
L158012000 122967000
" />
<path d="M159552000 121686000
L154392000 121686000
" />
<path d="M155932000 122847000
L154662000 122847000
" />
<path d="M158836000 123487000
L158012000 123487000
" />
<path d="M159440000 122447000
L158012000 122447000
" />
<path d="M159473000 122326000
L158012000 122326000
" />
<path d="M158472000 123807000
L158012000 123807000
" />
<path d="M155932000 123367000
L155001000 123367000
" />
<path d="M159452000 122407000
L158012000 122407000
" />
<path d="M155932000 122046000
L154416000 122046000
" />
<path d="M159537000 121966000
L158012000 121966000
" />
<path d="M155932000 122527000
L154530000 122527000
" />
<path d="M155932000 122126000
L154429000 122126000
" />
<path d="M155932000 122607000
L154558000 122607000
" />
<path d="M155932000 122286000
L154461000 122286000
" />
<path d="M155932000 123167000
L154850000 123167000
" />
<path d="M157887000 124127000
L156057000 124127000
" />
<path d="M159067000 123207000
L158012000 123207000
" />
<path d="M159463000 122366000
L158012000 122366000
" />
<path d="M159522000 122086000
L158012000 122086000
" />
<path d="M158909000 123407000
L158012000 123407000
" />
<path d="M159354000 122687000
L158012000 122687000
" />
<path d="M159528000 122046000
L158012000 122046000
" />
<path d="M158526000 123767000
L158012000 123767000
" />
<path d="M158150000 124007000
L155794000 124007000
" />
<path d="M158447000 118881225
L158447000 119381225
" />
<path d="M159172000 123047000
L158012000 123047000
" />
<path d="M159541000 121926000
L158012000 121926000
" />
<path d="M159370000 122647000
L158012000 122647000
" />
<path d="M155932000 122967000
L154725000 122967000
" />
<path d="M159037000 123247000
L158012000 123247000
" />
<path d="M157777000 124167000
L156167000 124167000
" />
<path d="M155932000 122326000
L154471000 122326000
" />
<path d="M159282000 122847000
L158012000 122847000
" />
<path d="M155932000 123207000
L154877000 123207000
" />
<path d="M159196000 123007000
L158012000 123007000
" />
<path d="M159386000 122607000
L158012000 122607000
" />
<path d="M158976000 123327000
L158012000 123327000
" />
<path d="M155932000 122567000
L154544000 122567000
" />
<path d="M155932000 123647000
L155273000 123647000
" />
<path d="M155932000 122086000
L154422000 122086000
" />
<path d="M158355000 123887000
L158012000 123887000
" />
<path d="M155932000 123967000
L155721000 123967000
" />
<path d="M157490000 124247000
L156454000 124247000
" />
<circle cx="156972000.000000" cy="121686000.000000" r="2620000.000000" /> 
<path d="M189595000 124780000
L189595000 73780000
" />
<path d="M208095000 124780000
L189595000 124780000
" />
<path d="M208095000 73780000
L208095000 124780000
" />
<path d="M189595000 73780000
L208095000 73780000
" />
<path d="M168065000 124125000
L168065000 117175000
" />
<path d="M164960000 117175000
L168065000 117175000
" />
<path d="M164960000 124125000
L168065000 124125000
" />
<path d="M163325000 117175000
L163970000 117175000
" />
<path d="M163325000 124125000
L163325000 117175000
" />
<path d="M163325000 124125000
L163970000 124125000
" />
<path d="M216315000 116110000
L213655000 116110000
" />
<path d="M213655000 116110000
L213655000 77950000
" />
<path d="M214985000 118710000
L213655000 118710000
" />
<path d="M216315000 116110000
L216315000 77950000
" />
<path d="M216315000 77950000
L213655000 77950000
" />
<path d="M213655000 118710000
L213655000 117380000
" />
<path d="M153450000 106525000
L150790000 106525000
" />
<path d="M150790000 121885000
L150790000 120555000
" />
<path d="M153450000 119285000
L153450000 106525000
" />
<path d="M153450000 119285000
L150790000 119285000
" />
<path d="M150790000 119285000
L150790000 106525000
" />
<path d="M152120000 121885000
L150790000 121885000
" />
<path d="M161036000 116613365
L161036000 114684000
" />
<circle cx="161036000.000000" cy="118364000.000000" r="1750635.000000" /> 
<path d="M207348000 57712188
L207348000 58958000
" />
<path d="M212884835.931757 57154784.005920 A2988014.000000 2988014.000000 0.0 0 0 207522999.644156 55612999.731439" />
<path d="M207653315.989152 58493000.005196 A2500000.000000 2500000.000000 0.0 0 0 211867085.859803 58966055.888859" />
<path d="M207347999.961185 58957830.023423 A2990000.000000 2990000.000000 0.0 0 0 212299334.315320 59207887.236673" />
<path d="M212388089.669766 57126579.038138 A2496574.000000 2496574.000000 0.0 0 0 208155401.275749 55635001.279745" />
<path d="M196935000 59865000
L196935000 55365000
" />
<path d="M194435000 54115000
L192935000 54115000
" />
<path d="M190435000 55365000
L190435000 59865000
" />
<path d="M192935000 61115000
L194435000 61115000
" />
<path d="M198690000 65400000
L198690000 69900000
" />
<path d="M202690000 64150000
L201190000 64150000
" />
<path d="M201190000 71150000
L202690000 71150000
" />
<path d="M205190000 69900000
L205190000 65400000
" />
<path d="M194435000 64150000
L192935000 64150000
" />
<path d="M192935000 71150000
L194435000 71150000
" />
<path d="M196935000 69900000
L196935000 65400000
" />
<path d="M190435000 65400000
L190435000 69900000
" />
<path d="M181870000 76420000
L184975000 76420000
" />
<path d="M180235000 69470000
L180880000 69470000
" />
<path d="M184975000 76420000
L184975000 69470000
" />
<path d="M180235000 76420000
L180235000 69470000
" />
<path d="M180235000 76420000
L180880000 76420000
" />
<path d="M181870000 69470000
L184975000 69470000
" />
<path d="M206035000 46895000
L206035000 45565000
" />
<path d="M208635000 48225000
L216315000 48225000
" />
<path d="M208635000 48225000
L208635000 45565000
" />
<path d="M206035000 45565000
L207365000 45565000
" />
<path d="M208635000 45565000
L216315000 45565000
" />
<path d="M216315000 48225000
L216315000 45565000
" />
<path d="M177115000 94135000
L178615000 94135000
" />
<path d="M181115000 92885000
L181115000 88385000
" />
<path d="M178615000 87135000
L177115000 87135000
" />
<path d="M174615000 88385000
L174615000 92885000
" />
<path d="M185200000 98330000
L185200000 106010000
" />
<path d="M182540000 98330000
L182540000 106010000
" />
<path d="M182540000 98330000
L185200000 98330000
" />
<path d="M182540000 97060000
L182540000 95730000
" />
<path d="M182540000 95730000
L183870000 95730000
" />
<path d="M182540000 106010000
L185200000 106010000
" />
<path d="M167695000 111730000
L167695000 113240000
" />
<path d="M164425000 111730000
L174665000 111730000
" />
<path d="M174665000 111730000
L174665000 116371000
" />
<path d="M164425000 113240000
L174665000 113240000
" />
<path d="M164425000 116371000
L174665000 116371000
" />
<path d="M171396000 111730000
L171396000 113240000
" />
<path d="M164425000 111730000
L164425000 116371000
" />
<path d="M181965000 79220000
L164125000 79220000
" />
<path d="M164125000 79220000
L164125000 81880000
" />
<path d="M181965000 79220000
L181965000 81880000
" />
<path d="M181965000 81880000
L164125000 81880000
" />
<path d="M184565000 81880000
L183235000 81880000
" />
<path d="M184565000 80550000
L184565000 81880000
" />
<g >
</g>
<g >
</g>
<g >
</g>
<g >
</g>
<g >
</g>
<g >
</g>
<g >
</g>
<g >
</g>
<g >
</g>
<g >
</g>
<g >
</g>
<g >
</g>
<g >
</g>
<g >
</g>
<g >
</g>
<g >
</g>
<g >
</g>
<g >
</g>
<g >
</g>
<g >
</g>
<g >
</g>
<g >
</g>
<g >
</g>
<g >
</g>
<g >
</g>
<g >
</g>
<g >
</g>
<g >
</g>
<g >
</g>
<g >
</g>
<g >
</g>
<g >
</g>
<g >
</g>
<g >
</g>
<g >
</g>
<g >
</g>
<g >
</g>
<g >
</g>
<g >
</g>
<g >
</g>
<g >
</g>
<g >
</g>
<g >
</g>
<g >
</g>
<g >
</g>
</g> 
</svg>
