  0
SECTION
  2
HEADER
  9
$ANGBASE
  50
0.0
  9
$ANGDIR
  70
1
  9
$MEASUREMENT
  70
1
  0
ENDSEC
  0
SECTION
  2
TABLES
  0
TABLE
  2
LTYPE
  70
4
  0
LTYPE
  5
40F
  2
CONTINUOUS
  70
0
  3
Solid line
  72
65
  73
0
  40
0.0
  0
LTYPE
  5
410
  2
DASHDOT
 70
0
  3
Dash Dot ____ _ ____ _
 72
65
 73
4
 40
2.0
 49
1.25
 49
-0.25
 49
0.25
 49
-0.25
  0
LTYPE
  5
411
  2
DASHED
 70
0
  3
Dashed __ __ __ __ __
 72
65
 73
2
 40
0.75
 49
0.5
 49
-0.25
  0
LTYPE
  5
43B
  2
DOTTED
 70
0
  3
Dotted .  .  .  .
 72
65
 73
2
 40
0.2
 49
0.0
 49
-0.2
  0
ENDTAB
  0
TABLE
  2
STYLE
  70
4
  0
STYLE
  2
KICAD
  70
0
  40
0
  41
1
  42
1
  50
0
  71
0
  3
isocp.shx
  0
STYLE
  2
KICADB
  70
0
  40
0
  41
1
  42
1
  50
0
  71
0
  3
isocp.shx
  0
STYLE
  2
KICADI
  70
0
  40
0
  41
1
  42
1
  50
15
  71
0
  3
isocp.shx
  0
STYLE
  2
KICADBI
  70
0
  40
0
  41
1
  42
1
  50
15
  71
0
  3
isocp.shx
  0
ENDTAB
  0
TABLE
  2
LAYER
  70
1
  0
LAYER
  2
BLACK
  70
0
  62
7
  6
CONTINUOUS
  0
ENDTAB
  0
ENDSEC
  0
SECTION
  2
ENTITIES
0
CIRCLE
8
BLACK
10
157.81
20
-80.5
40
1e-06
0
LINE
8
BLACK
6
CONTINUOUS
10
188.31
20
-45
11
172.57
21
-45
0
LINE
8
BLACK
6
CONTINUOUS
10
217.525
20
-125
11
217.525
21
-44.99
0
LINE
8
BLACK
6
CONTINUOUS
10
188.31
20
-125
11
188.31
21
-45
0
LINE
8
BLACK
6
CONTINUOUS
10
148.31
20
-125
11
148.31
21
-84.26
0
LINE
8
BLACK
6
CONTINUOUS
10
188.95
20
-125
11
217.525
21
-125
0
LINE
8
BLACK
6
CONTINUOUS
10
158.91
20
-58.65
11
172.57
21
-45
0
LINE
8
BLACK
6
CONTINUOUS
10
188.95
20
-44.99
11
188.95
21
-125
0
LINE
8
BLACK
6
CONTINUOUS
10
148.31
20
-125
11
188.31
21
-125
0
LINE
8
BLACK
6
CONTINUOUS
10
217.525
20
-44.99
11
188.95
21
-44.99
0
ARC
8
BLACK
10
148.31
20
-69.2613
40
14.9987
50
-90
51
45.0306
0
LINE
8
BLACK
6
CONTINUOUS
10
156.265
20
-95.49
11
156.865
21
-96.09
0
LINE
8
BLACK
6
CONTINUOUS
10
156.865
20
-95.49
11
156.265
21
-96.09
0
LINE
8
BLACK
6
CONTINUOUS
10
160.075
20
-96.125
11
160.675
21
-96.725
0
LINE
8
BLACK
6
CONTINUOUS
10
160.675
20
-96.125
11
160.075
21
-96.725
0
LINE
8
BLACK
6
CONTINUOUS
10
161.98
20
-80.25
11
162.58
21
-80.85
0
LINE
8
BLACK
6
CONTINUOUS
10
162.58
20
-80.25
11
161.98
21
-80.85
0
LINE
8
BLACK
6
CONTINUOUS
10
163.885
20
-56.12
11
164.485
21
-56.72
0
LINE
8
BLACK
6
CONTINUOUS
10
164.485
20
-56.12
11
163.885
21
-56.72
0
LINE
8
BLACK
6
CONTINUOUS
10
163.885
20
-95.49
11
164.485
21
-96.09
0
LINE
8
BLACK
6
CONTINUOUS
10
164.485
20
-95.49
11
163.885
21
-96.09
0
LINE
8
BLACK
6
CONTINUOUS
10
163.885
20
-99.3
11
164.485
21
-99.9
0
LINE
8
BLACK
6
CONTINUOUS
10
164.485
20
-99.3
11
163.885
21
-99.9
0
LINE
8
BLACK
6
CONTINUOUS
10
167.06
20
-95.49
11
167.66
21
-96.09
0
LINE
8
BLACK
6
CONTINUOUS
10
167.66
20
-95.49
11
167.06
21
-96.09
0
LINE
8
BLACK
6
CONTINUOUS
10
167.06
20
-107.555
11
167.66
21
-108.155
0
LINE
8
BLACK
6
CONTINUOUS
10
167.66
20
-107.555
11
167.06
21
-108.155
0
LINE
8
BLACK
6
CONTINUOUS
10
170.87
20
-85.965
11
171.47
21
-86.565
0
LINE
8
BLACK
6
CONTINUOUS
10
171.47
20
-85.965
11
170.87
21
-86.565
0
LINE
8
BLACK
6
CONTINUOUS
10
170.87
20
-90.41
11
171.47
21
-91.01
0
LINE
8
BLACK
6
CONTINUOUS
10
171.47
20
-90.41
11
170.87
21
-91.01
0
LINE
8
BLACK
6
CONTINUOUS
10
174.045
20
-112
11
174.645
21
-112.6
0
LINE
8
BLACK
6
CONTINUOUS
10
174.645
20
-112
11
174.045
21
-112.6
0
LINE
8
BLACK
6
CONTINUOUS
10
174.68
20
-108.19
11
175.28
21
-108.79
0
LINE
8
BLACK
6
CONTINUOUS
10
175.28
20
-108.19
11
174.68
21
-108.79
0
LINE
8
BLACK
6
CONTINUOUS
10
177.855
20
-96.125
11
178.455
21
-96.725
0
LINE
8
BLACK
6
CONTINUOUS
10
178.455
20
-96.125
11
177.855
21
-96.725
0
LINE
8
BLACK
6
CONTINUOUS
10
179.76
20
-73.265
11
180.36
21
-73.865
0
LINE
8
BLACK
6
CONTINUOUS
10
180.36
20
-73.265
11
179.76
21
-73.865
0
LINE
8
BLACK
6
CONTINUOUS
10
183.57
20
-77.075
11
184.17
21
-77.675
0
LINE
8
BLACK
6
CONTINUOUS
10
184.17
20
-77.075
11
183.57
21
-77.675
0
LINE
8
BLACK
6
CONTINUOUS
10
186.76
20
-61.835
11
187.36
21
-62.435
0
LINE
8
BLACK
6
CONTINUOUS
10
187.36
20
-61.835
11
186.76
21
-62.435
0
LINE
8
BLACK
6
CONTINUOUS
10
190.555
20
-49.77
11
191.155
21
-50.37
0
LINE
8
BLACK
6
CONTINUOUS
10
191.155
20
-49.77
11
190.555
21
-50.37
0
LINE
8
BLACK
6
CONTINUOUS
10
195.635
20
-49.77
11
196.235
21
-50.37
0
LINE
8
BLACK
6
CONTINUOUS
10
196.235
20
-49.77
11
195.635
21
-50.37
0
LINE
8
BLACK
6
CONTINUOUS
10
203.89
20
-49.77
11
204.49
21
-50.37
0
LINE
8
BLACK
6
CONTINUOUS
10
204.49
20
-49.77
11
203.89
21
-50.37
0
LINE
8
BLACK
6
CONTINUOUS
10
208.89
20
-83.98
11
209.49
21
-84.58
0
LINE
8
BLACK
6
CONTINUOUS
10
209.49
20
-83.98
11
208.89
21
-84.58
0
LINE
8
BLACK
6
CONTINUOUS
10
208.97
20
-78.98
11
209.57
21
-79.58
0
LINE
8
BLACK
6
CONTINUOUS
10
209.57
20
-78.98
11
208.97
21
-79.58
0
LINE
8
BLACK
6
CONTINUOUS
10
208.97
20
-89.14
11
209.57
21
-89.74
0
LINE
8
BLACK
6
CONTINUOUS
10
209.57
20
-89.14
11
208.97
21
-89.74
0
LINE
8
BLACK
6
CONTINUOUS
10
208.97
20
-94.22
11
209.57
21
-94.82
0
LINE
8
BLACK
6
CONTINUOUS
10
209.57
20
-94.22
11
208.97
21
-94.82
0
LINE
8
BLACK
6
CONTINUOUS
10
208.97
20
-99.3
11
209.57
21
-99.9
0
LINE
8
BLACK
6
CONTINUOUS
10
209.57
20
-99.3
11
208.97
21
-99.9
0
LINE
8
BLACK
6
CONTINUOUS
10
208.97
20
-104.38
11
209.57
21
-104.98
0
LINE
8
BLACK
6
CONTINUOUS
10
209.57
20
-104.38
11
208.97
21
-104.98
0
LINE
8
BLACK
6
CONTINUOUS
10
208.97
20
-109.46
11
209.57
21
-110.06
0
LINE
8
BLACK
6
CONTINUOUS
10
209.57
20
-109.46
11
208.97
21
-110.06
0
LINE
8
BLACK
6
CONTINUOUS
10
208.97
20
-114.54
11
209.57
21
-115.14
0
LINE
8
BLACK
6
CONTINUOUS
10
209.57
20
-114.54
11
208.97
21
-115.14
0
LINE
8
BLACK
6
CONTINUOUS
10
211.51
20
-81.52
11
212.11
21
-82.12
0
LINE
8
BLACK
6
CONTINUOUS
10
212.11
20
-81.52
11
211.51
21
-82.12
0
LINE
8
BLACK
6
CONTINUOUS
10
211.51
20
-86.6
11
212.11
21
-87.2
0
LINE
8
BLACK
6
CONTINUOUS
10
212.11
20
-86.6
11
211.51
21
-87.2
0
LINE
8
BLACK
6
CONTINUOUS
10
211.51
20
-91.68
11
212.11
21
-92.28
0
LINE
8
BLACK
6
CONTINUOUS
10
212.11
20
-91.68
11
211.51
21
-92.28
0
LINE
8
BLACK
6
CONTINUOUS
10
211.51
20
-96.76
11
212.11
21
-97.36
0
LINE
8
BLACK
6
CONTINUOUS
10
212.11
20
-96.76
11
211.51
21
-97.36
0
LINE
8
BLACK
6
CONTINUOUS
10
211.51
20
-101.84
11
212.11
21
-102.44
0
LINE
8
BLACK
6
CONTINUOUS
10
212.11
20
-101.84
11
211.51
21
-102.44
0
LINE
8
BLACK
6
CONTINUOUS
10
211.51
20
-106.92
11
212.11
21
-107.52
0
LINE
8
BLACK
6
CONTINUOUS
10
212.11
20
-106.92
11
211.51
21
-107.52
0
LINE
8
BLACK
6
CONTINUOUS
10
211.51
20
-112
11
212.11
21
-112.6
0
LINE
8
BLACK
6
CONTINUOUS
10
212.11
20
-112
11
211.51
21
-112.6
0
LINE
8
BLACK
6
CONTINUOUS
10
211.51
20
-117.08
11
212.11
21
-117.68
0
LINE
8
BLACK
6
CONTINUOUS
10
212.11
20
-117.08
11
211.51
21
-117.68
0
CIRCLE
8
BLACK
10
156.972
20
-120.436
40
0.4
0
CIRCLE
8
BLACK
10
156.972
20
-122.936
40
0.4
0
CIRCLE
8
BLACK
10
164.465
20
-118.11
40
0.4
0
CIRCLE
8
BLACK
10
164.465
20
-123.19
40
0.4
0
CIRCLE
8
BLACK
10
167.005
20
-120.65
40
0.4
0
CIRCLE
8
BLACK
10
172.72
20
-120.055
40
0.4
0
CIRCLE
8
BLACK
10
172.72
20
-122.555
40
0.4
0
CIRCLE
8
BLACK
10
181.305
20
-65.31
40
0.4
0
CIRCLE
8
BLACK
10
181.375
20
-70.405
40
0.4
0
CIRCLE
8
BLACK
10
181.375
20
-75.485
40
0.4
0
CIRCLE
8
BLACK
10
183.805
20
-65.31
40
0.4
0
CIRCLE
8
BLACK
10
183.915
20
-72.945
40
0.4
0
CIRCLE
8
BLACK
10
206.095
20
-79.28
40
0.4
0
CIRCLE
8
BLACK
10
206.095
20
-81.78
40
0.4
0
CIRCLE
8
BLACK
10
206.095
20
-84.28
40
0.4
0
CIRCLE
8
BLACK
10
206.095
20
-86.78
40
0.4
0
CIRCLE
8
BLACK
10
206.095
20
-89.28
40
0.4
0
CIRCLE
8
BLACK
10
206.095
20
-91.78
40
0.4
0
CIRCLE
8
BLACK
10
206.095
20
-94.28
40
0.4
0
CIRCLE
8
BLACK
10
206.095
20
-96.78
40
0.4
0
CIRCLE
8
BLACK
10
206.095
20
-99.28
40
0.4
0
CIRCLE
8
BLACK
10
206.095
20
-101.78
40
0.4
0
CIRCLE
8
BLACK
10
206.095
20
-104.28
40
0.4
0
CIRCLE
8
BLACK
10
206.095
20
-106.78
40
0.4
0
CIRCLE
8
BLACK
10
206.095
20
-109.28
40
0.4
0
CIRCLE
8
BLACK
10
206.095
20
-111.78
40
0.4
0
CIRCLE
8
BLACK
10
206.095
20
-114.28
40
0.4
0
CIRCLE
8
BLACK
10
206.095
20
-116.78
40
0.4
0
CIRCLE
8
BLACK
10
206.095
20
-119.28
40
0.4
0
LINE
8
BLACK
6
CONTINUOUS
10
207.495
20
-56.201
11
207.495
21
-57.101
0
LINE
8
BLACK
6
CONTINUOUS
10
207.045
20
-56.651
11
207.945
21
-56.651
0
LINE
8
BLACK
6
CONTINUOUS
10
209.273
20
-57.725
11
209.273
21
-58.625
0
LINE
8
BLACK
6
CONTINUOUS
10
208.823
20
-58.175
11
209.723
21
-58.175
0
LINE
8
BLACK
6
CONTINUOUS
10
210.797
20
-56.201
11
210.797
21
-57.101
0
LINE
8
BLACK
6
CONTINUOUS
10
210.347
20
-56.651
11
211.247
21
-56.651
0
LINE
8
BLACK
6
CONTINUOUS
10
212.321
20
-57.725
11
212.321
21
-58.625
0
LINE
8
BLACK
6
CONTINUOUS
10
211.871
20
-58.175
11
212.771
21
-58.175
0
LINE
8
BLACK
6
CONTINUOUS
10
152.474
20
-96.7786
11
152.474
21
-96.0714
0
LINE
8
BLACK
6
CONTINUOUS
10
152.474
20
-96.0714
11
151.766
21
-96.0714
0
LINE
8
BLACK
6
CONTINUOUS
10
151.766
20
-96.0714
11
151.766
21
-96.7786
0
LINE
8
BLACK
6
CONTINUOUS
10
151.766
20
-96.7786
11
152.474
21
-96.7786
0
LINE
8
BLACK
6
CONTINUOUS
10
152.474
20
-99.3186
11
152.474
21
-98.6114
0
LINE
8
BLACK
6
CONTINUOUS
10
152.474
20
-98.6114
11
151.766
21
-98.6114
0
LINE
8
BLACK
6
CONTINUOUS
10
151.766
20
-98.6114
11
151.766
21
-99.3186
0
LINE
8
BLACK
6
CONTINUOUS
10
151.766
20
-99.3186
11
152.474
21
-99.3186
0
LINE
8
BLACK
6
CONTINUOUS
10
152.474
20
-101.859
11
152.474
21
-101.151
0
LINE
8
BLACK
6
CONTINUOUS
10
152.474
20
-101.151
11
151.766
21
-101.151
0
LINE
8
BLACK
6
CONTINUOUS
10
151.766
20
-101.151
11
151.766
21
-101.859
0
LINE
8
BLACK
6
CONTINUOUS
10
151.766
20
-101.859
11
152.474
21
-101.859
0
LINE
8
BLACK
6
CONTINUOUS
10
152.474
20
-104.399
11
152.474
21
-103.691
0
LINE
8
BLACK
6
CONTINUOUS
10
152.474
20
-103.691
11
151.766
21
-103.691
0
LINE
8
BLACK
6
CONTINUOUS
10
151.766
20
-103.691
11
151.766
21
-104.399
0
LINE
8
BLACK
6
CONTINUOUS
10
151.766
20
-104.399
11
152.474
21
-104.399
0
LINE
8
BLACK
6
CONTINUOUS
10
152.474
20
-108.209
11
152.474
21
-107.501
0
LINE
8
BLACK
6
CONTINUOUS
10
152.474
20
-107.501
11
151.766
21
-107.501
0
LINE
8
BLACK
6
CONTINUOUS
10
151.766
20
-107.501
11
151.766
21
-108.209
0
LINE
8
BLACK
6
CONTINUOUS
10
151.766
20
-108.209
11
152.474
21
-108.209
0
LINE
8
BLACK
6
CONTINUOUS
10
152.474
20
-110.749
11
152.474
21
-110.041
0
LINE
8
BLACK
6
CONTINUOUS
10
152.474
20
-110.041
11
151.766
21
-110.041
0
LINE
8
BLACK
6
CONTINUOUS
10
151.766
20
-110.041
11
151.766
21
-110.749
0
LINE
8
BLACK
6
CONTINUOUS
10
151.766
20
-110.749
11
152.474
21
-110.749
0
LINE
8
BLACK
6
CONTINUOUS
10
152.474
20
-113.289
11
152.474
21
-112.581
0
LINE
8
BLACK
6
CONTINUOUS
10
152.474
20
-112.581
11
151.766
21
-112.581
0
LINE
8
BLACK
6
CONTINUOUS
10
151.766
20
-112.581
11
151.766
21
-113.289
0
LINE
8
BLACK
6
CONTINUOUS
10
151.766
20
-113.289
11
152.474
21
-113.289
0
LINE
8
BLACK
6
CONTINUOUS
10
152.474
20
-115.829
11
152.474
21
-115.121
0
LINE
8
BLACK
6
CONTINUOUS
10
152.474
20
-115.121
11
151.766
21
-115.121
0
LINE
8
BLACK
6
CONTINUOUS
10
151.766
20
-115.121
11
151.766
21
-115.829
0
LINE
8
BLACK
6
CONTINUOUS
10
151.766
20
-115.829
11
152.474
21
-115.829
0
LINE
8
BLACK
6
CONTINUOUS
10
152.474
20
-118.369
11
152.474
21
-117.661
0
LINE
8
BLACK
6
CONTINUOUS
10
152.474
20
-117.661
11
151.766
21
-117.661
0
LINE
8
BLACK
6
CONTINUOUS
10
151.766
20
-117.661
11
151.766
21
-118.369
0
LINE
8
BLACK
6
CONTINUOUS
10
151.766
20
-118.369
11
152.474
21
-118.369
0
LINE
8
BLACK
6
CONTINUOUS
10
152.474
20
-120.909
11
152.474
21
-120.201
0
LINE
8
BLACK
6
CONTINUOUS
10
152.474
20
-120.201
11
151.766
21
-120.201
0
LINE
8
BLACK
6
CONTINUOUS
10
151.766
20
-120.201
11
151.766
21
-120.909
0
LINE
8
BLACK
6
CONTINUOUS
10
151.766
20
-120.909
11
152.474
21
-120.909
0
LINE
8
BLACK
6
CONTINUOUS
10
154.379
20
-88.6411
11
154.379
21
-87.9339
0
LINE
8
BLACK
6
CONTINUOUS
10
154.379
20
-87.9339
11
153.671
21
-87.9339
0
LINE
8
BLACK
6
CONTINUOUS
10
153.671
20
-87.9339
11
153.671
21
-88.6411
0
LINE
8
BLACK
6
CONTINUOUS
10
153.671
20
-88.6411
11
154.379
21
-88.6411
0
LINE
8
BLACK
6
CONTINUOUS
10
154.379
20
-91.1811
11
154.379
21
-90.4739
0
LINE
8
BLACK
6
CONTINUOUS
10
154.379
20
-90.4739
11
153.671
21
-90.4739
0
LINE
8
BLACK
6
CONTINUOUS
10
153.671
20
-90.4739
11
153.671
21
-91.1811
0
LINE
8
BLACK
6
CONTINUOUS
10
153.671
20
-91.1811
11
154.379
21
-91.1811
0
LINE
8
BLACK
6
CONTINUOUS
10
156.919
20
-88.6411
11
156.919
21
-87.9339
0
LINE
8
BLACK
6
CONTINUOUS
10
156.919
20
-87.9339
11
156.211
21
-87.9339
0
LINE
8
BLACK
6
CONTINUOUS
10
156.211
20
-87.9339
11
156.211
21
-88.6411
0
LINE
8
BLACK
6
CONTINUOUS
10
156.211
20
-88.6411
11
156.919
21
-88.6411
0
LINE
8
BLACK
6
CONTINUOUS
10
156.919
20
-91.1811
11
156.919
21
-90.4739
0
LINE
8
BLACK
6
CONTINUOUS
10
156.919
20
-90.4739
11
156.211
21
-90.4739
0
LINE
8
BLACK
6
CONTINUOUS
10
156.211
20
-90.4739
11
156.211
21
-91.1811
0
LINE
8
BLACK
6
CONTINUOUS
10
156.211
20
-91.1811
11
156.919
21
-91.1811
0
LINE
8
BLACK
6
CONTINUOUS
10
159.459
20
-88.6411
11
159.459
21
-87.9339
0
LINE
8
BLACK
6
CONTINUOUS
10
159.459
20
-87.9339
11
158.751
21
-87.9339
0
LINE
8
BLACK
6
CONTINUOUS
10
158.751
20
-87.9339
11
158.751
21
-88.6411
0
LINE
8
BLACK
6
CONTINUOUS
10
158.751
20
-88.6411
11
159.459
21
-88.6411
0
LINE
8
BLACK
6
CONTINUOUS
10
159.459
20
-91.1811
11
159.459
21
-90.4739
0
LINE
8
BLACK
6
CONTINUOUS
10
159.459
20
-90.4739
11
158.751
21
-90.4739
0
LINE
8
BLACK
6
CONTINUOUS
10
158.751
20
-90.4739
11
158.751
21
-91.1811
0
LINE
8
BLACK
6
CONTINUOUS
10
158.751
20
-91.1811
11
159.459
21
-91.1811
0
LINE
8
BLACK
6
CONTINUOUS
10
161.999
20
-88.6411
11
161.999
21
-87.9339
0
LINE
8
BLACK
6
CONTINUOUS
10
161.999
20
-87.9339
11
161.291
21
-87.9339
0
LINE
8
BLACK
6
CONTINUOUS
10
161.291
20
-87.9339
11
161.291
21
-88.6411
0
LINE
8
BLACK
6
CONTINUOUS
10
161.291
20
-88.6411
11
161.999
21
-88.6411
0
LINE
8
BLACK
6
CONTINUOUS
10
161.999
20
-91.1811
11
161.999
21
-90.4739
0
LINE
8
BLACK
6
CONTINUOUS
10
161.999
20
-90.4739
11
161.291
21
-90.4739
0
LINE
8
BLACK
6
CONTINUOUS
10
161.291
20
-90.4739
11
161.291
21
-91.1811
0
LINE
8
BLACK
6
CONTINUOUS
10
161.291
20
-91.1811
11
161.999
21
-91.1811
0
LINE
8
BLACK
6
CONTINUOUS
10
164.539
20
-60.5836
11
164.539
21
-59.8764
0
LINE
8
BLACK
6
CONTINUOUS
10
164.539
20
-59.8764
11
163.831
21
-59.8764
0
LINE
8
BLACK
6
CONTINUOUS
10
163.831
20
-59.8764
11
163.831
21
-60.5836
0
LINE
8
BLACK
6
CONTINUOUS
10
163.831
20
-60.5836
11
164.539
21
-60.5836
0
LINE
8
BLACK
6
CONTINUOUS
10
164.539
20
-88.6411
11
164.539
21
-87.9339
0
LINE
8
BLACK
6
CONTINUOUS
10
164.539
20
-87.9339
11
163.831
21
-87.9339
0
LINE
8
BLACK
6
CONTINUOUS
10
163.831
20
-87.9339
11
163.831
21
-88.6411
0
LINE
8
BLACK
6
CONTINUOUS
10
163.831
20
-88.6411
11
164.539
21
-88.6411
0
LINE
8
BLACK
6
CONTINUOUS
10
164.539
20
-91.1811
11
164.539
21
-90.4739
0
LINE
8
BLACK
6
CONTINUOUS
10
164.539
20
-90.4739
11
163.831
21
-90.4739
0
LINE
8
BLACK
6
CONTINUOUS
10
163.831
20
-90.4739
11
163.831
21
-91.1811
0
LINE
8
BLACK
6
CONTINUOUS
10
163.831
20
-91.1811
11
164.539
21
-91.1811
0
LINE
8
BLACK
6
CONTINUOUS
10
165.809
20
-80.9036
11
165.809
21
-80.1964
0
LINE
8
BLACK
6
CONTINUOUS
10
165.809
20
-80.1964
11
165.101
21
-80.1964
0
LINE
8
BLACK
6
CONTINUOUS
10
165.101
20
-80.1964
11
165.101
21
-80.9036
0
LINE
8
BLACK
6
CONTINUOUS
10
165.101
20
-80.9036
11
165.809
21
-80.9036
0
LINE
8
BLACK
6
CONTINUOUS
10
167.079
20
-60.5836
11
167.079
21
-59.8764
0
LINE
8
BLACK
6
CONTINUOUS
10
167.079
20
-59.8764
11
166.371
21
-59.8764
0
LINE
8
BLACK
6
CONTINUOUS
10
166.371
20
-59.8764
11
166.371
21
-60.5836
0
LINE
8
BLACK
6
CONTINUOUS
10
166.371
20
-60.5836
11
167.079
21
-60.5836
0
LINE
8
BLACK
6
CONTINUOUS
10
168.349
20
-80.9036
11
168.349
21
-80.1964
0
LINE
8
BLACK
6
CONTINUOUS
10
168.349
20
-80.1964
11
167.641
21
-80.1964
0
LINE
8
BLACK
6
CONTINUOUS
10
167.641
20
-80.1964
11
167.641
21
-80.9036
0
LINE
8
BLACK
6
CONTINUOUS
10
167.641
20
-80.9036
11
168.349
21
-80.9036
0
LINE
8
BLACK
6
CONTINUOUS
10
169.619
20
-60.5836
11
169.619
21
-59.8764
0
LINE
8
BLACK
6
CONTINUOUS
10
169.619
20
-59.8764
11
168.911
21
-59.8764
0
LINE
8
BLACK
6
CONTINUOUS
10
168.911
20
-59.8764
11
168.911
21
-60.5836
0
LINE
8
BLACK
6
CONTINUOUS
10
168.911
20
-60.5836
11
169.619
21
-60.5836
0
LINE
8
BLACK
6
CONTINUOUS
10
170.889
20
-80.9036
11
170.889
21
-80.1964
0
LINE
8
BLACK
6
CONTINUOUS
10
170.889
20
-80.1964
11
170.181
21
-80.1964
0
LINE
8
BLACK
6
CONTINUOUS
10
170.181
20
-80.1964
11
170.181
21
-80.9036
0
LINE
8
BLACK
6
CONTINUOUS
10
170.181
20
-80.9036
11
170.889
21
-80.9036
0
LINE
8
BLACK
6
CONTINUOUS
10
172.159
20
-60.5836
11
172.159
21
-59.8764
0
LINE
8
BLACK
6
CONTINUOUS
10
172.159
20
-59.8764
11
171.451
21
-59.8764
0
LINE
8
BLACK
6
CONTINUOUS
10
171.451
20
-59.8764
11
171.451
21
-60.5836
0
LINE
8
BLACK
6
CONTINUOUS
10
171.451
20
-60.5836
11
172.159
21
-60.5836
0
LINE
8
BLACK
6
CONTINUOUS
10
173.429
20
-80.9036
11
173.429
21
-80.1964
0
LINE
8
BLACK
6
CONTINUOUS
10
173.429
20
-80.1964
11
172.721
21
-80.1964
0
LINE
8
BLACK
6
CONTINUOUS
10
172.721
20
-80.1964
11
172.721
21
-80.9036
0
LINE
8
BLACK
6
CONTINUOUS
10
172.721
20
-80.9036
11
173.429
21
-80.9036
0
LINE
8
BLACK
6
CONTINUOUS
10
174.699
20
-60.5836
11
174.699
21
-59.8764
0
LINE
8
BLACK
6
CONTINUOUS
10
174.699
20
-59.8764
11
173.991
21
-59.8764
0
LINE
8
BLACK
6
CONTINUOUS
10
173.991
20
-59.8764
11
173.991
21
-60.5836
0
LINE
8
BLACK
6
CONTINUOUS
10
173.991
20
-60.5836
11
174.699
21
-60.5836
0
LINE
8
BLACK
6
CONTINUOUS
10
175.969
20
-80.9036
11
175.969
21
-80.1964
0
LINE
8
BLACK
6
CONTINUOUS
10
175.969
20
-80.1964
11
175.261
21
-80.1964
0
LINE
8
BLACK
6
CONTINUOUS
10
175.261
20
-80.1964
11
175.261
21
-80.9036
0
LINE
8
BLACK
6
CONTINUOUS
10
175.261
20
-80.9036
11
175.969
21
-80.9036
0
LINE
8
BLACK
6
CONTINUOUS
10
177.239
20
-60.5836
11
177.239
21
-59.8764
0
LINE
8
BLACK
6
CONTINUOUS
10
177.239
20
-59.8764
11
176.531
21
-59.8764
0
LINE
8
BLACK
6
CONTINUOUS
10
176.531
20
-59.8764
11
176.531
21
-60.5836
0
LINE
8
BLACK
6
CONTINUOUS
10
176.531
20
-60.5836
11
177.239
21
-60.5836
0
LINE
8
BLACK
6
CONTINUOUS
10
177.874
20
-110.114
11
177.874
21
-109.406
0
LINE
8
BLACK
6
CONTINUOUS
10
177.874
20
-109.406
11
177.166
21
-109.406
0
LINE
8
BLACK
6
CONTINUOUS
10
177.166
20
-109.406
11
177.166
21
-110.114
0
LINE
8
BLACK
6
CONTINUOUS
10
177.166
20
-110.114
11
177.874
21
-110.114
0
LINE
8
BLACK
6
CONTINUOUS
10
178.354
20
-120.311
11
178.354
21
-119.604
0
LINE
8
BLACK
6
CONTINUOUS
10
178.354
20
-119.604
11
177.646
21
-119.604
0
LINE
8
BLACK
6
CONTINUOUS
10
177.646
20
-119.604
11
177.646
21
-120.311
0
LINE
8
BLACK
6
CONTINUOUS
10
177.646
20
-120.311
11
178.354
21
-120.311
0
LINE
8
BLACK
6
CONTINUOUS
10
178.5
20
-120.957
11
178.5
21
-118.957
0
LINE
8
BLACK
6
CONTINUOUS
10
177.5
20
-120.957
11
177.5
21
-118.957
0
ARC
8
BLACK
10
178
20
-118.957
40
0.5
50
360
51
540
0
ARC
8
BLACK
10
178
20
-120.957
40
0.5
50
180
51
360
0
LINE
8
BLACK
6
CONTINUOUS
10
178.509
20
-80.9036
11
178.509
21
-80.1964
0
LINE
8
BLACK
6
CONTINUOUS
10
178.509
20
-80.1964
11
177.801
21
-80.1964
0
LINE
8
BLACK
6
CONTINUOUS
10
177.801
20
-80.1964
11
177.801
21
-80.9036
0
LINE
8
BLACK
6
CONTINUOUS
10
177.801
20
-80.9036
11
178.509
21
-80.9036
0
LINE
8
BLACK
6
CONTINUOUS
10
179.779
20
-60.5836
11
179.779
21
-59.8764
0
LINE
8
BLACK
6
CONTINUOUS
10
179.779
20
-59.8764
11
179.071
21
-59.8764
0
LINE
8
BLACK
6
CONTINUOUS
10
179.071
20
-59.8764
11
179.071
21
-60.5836
0
LINE
8
BLACK
6
CONTINUOUS
10
179.071
20
-60.5836
11
179.779
21
-60.5836
0
LINE
8
BLACK
6
CONTINUOUS
10
180.414
20
-110.114
11
180.414
21
-109.406
0
LINE
8
BLACK
6
CONTINUOUS
10
180.414
20
-109.406
11
179.706
21
-109.406
0
LINE
8
BLACK
6
CONTINUOUS
10
179.706
20
-109.406
11
179.706
21
-110.114
0
LINE
8
BLACK
6
CONTINUOUS
10
179.706
20
-110.114
11
180.414
21
-110.114
0
LINE
8
BLACK
6
CONTINUOUS
10
181.049
20
-80.9036
11
181.049
21
-80.1964
0
LINE
8
BLACK
6
CONTINUOUS
10
181.049
20
-80.1964
11
180.341
21
-80.1964
0
LINE
8
BLACK
6
CONTINUOUS
10
180.341
20
-80.1964
11
180.341
21
-80.9036
0
LINE
8
BLACK
6
CONTINUOUS
10
180.341
20
-80.9036
11
181.049
21
-80.9036
0
LINE
8
BLACK
6
CONTINUOUS
10
181.354
20
-115.611
11
181.354
21
-114.904
0
LINE
8
BLACK
6
CONTINUOUS
10
181.354
20
-114.904
11
180.646
21
-114.904
0
LINE
8
BLACK
6
CONTINUOUS
10
180.646
20
-114.904
11
180.646
21
-115.611
0
LINE
8
BLACK
6
CONTINUOUS
10
180.646
20
-115.611
11
181.354
21
-115.611
0
LINE
8
BLACK
6
CONTINUOUS
10
182
20
-114.757
11
180
21
-114.757
0
LINE
8
BLACK
6
CONTINUOUS
10
182
20
-115.757
11
180
21
-115.757
0
ARC
8
BLACK
10
180
20
-115.257
40
0.5
50
450
51
630
0
ARC
8
BLACK
10
182
20
-115.257
40
0.5
50
270
51
450
0
LINE
8
BLACK
6
CONTINUOUS
10
182.319
20
-60.5836
11
182.319
21
-59.8764
0
LINE
8
BLACK
6
CONTINUOUS
10
182.319
20
-59.8764
11
181.611
21
-59.8764
0
LINE
8
BLACK
6
CONTINUOUS
10
181.611
20
-59.8764
11
181.611
21
-60.5836
0
LINE
8
BLACK
6
CONTINUOUS
10
181.611
20
-60.5836
11
182.319
21
-60.5836
0
LINE
8
BLACK
6
CONTINUOUS
10
182.954
20
-110.114
11
182.954
21
-109.406
0
LINE
8
BLACK
6
CONTINUOUS
10
182.954
20
-109.406
11
182.246
21
-109.406
0
LINE
8
BLACK
6
CONTINUOUS
10
182.246
20
-109.406
11
182.246
21
-110.114
0
LINE
8
BLACK
6
CONTINUOUS
10
182.246
20
-110.114
11
182.954
21
-110.114
0
LINE
8
BLACK
6
CONTINUOUS
10
183.589
20
-80.9036
11
183.589
21
-80.1964
0
LINE
8
BLACK
6
CONTINUOUS
10
183.589
20
-80.1964
11
182.881
21
-80.1964
0
LINE
8
BLACK
6
CONTINUOUS
10
182.881
20
-80.1964
11
182.881
21
-80.9036
0
LINE
8
BLACK
6
CONTINUOUS
10
182.881
20
-80.9036
11
183.589
21
-80.9036
0
LINE
8
BLACK
6
CONTINUOUS
10
184.224
20
-97.4136
11
184.224
21
-96.7064
0
LINE
8
BLACK
6
CONTINUOUS
10
184.224
20
-96.7064
11
183.516
21
-96.7064
0
LINE
8
BLACK
6
CONTINUOUS
10
183.516
20
-96.7064
11
183.516
21
-97.4136
0
LINE
8
BLACK
6
CONTINUOUS
10
183.516
20
-97.4136
11
184.224
21
-97.4136
0
LINE
8
BLACK
6
CONTINUOUS
10
184.224
20
-99.9536
11
184.224
21
-99.2464
0
LINE
8
BLACK
6
CONTINUOUS
10
184.224
20
-99.2464
11
183.516
21
-99.2464
0
LINE
8
BLACK
6
CONTINUOUS
10
183.516
20
-99.2464
11
183.516
21
-99.9536
0
LINE
8
BLACK
6
CONTINUOUS
10
183.516
20
-99.9536
11
184.224
21
-99.9536
0
LINE
8
BLACK
6
CONTINUOUS
10
184.224
20
-102.494
11
184.224
21
-101.786
0
LINE
8
BLACK
6
CONTINUOUS
10
184.224
20
-101.786
11
183.516
21
-101.786
0
LINE
8
BLACK
6
CONTINUOUS
10
183.516
20
-101.786
11
183.516
21
-102.494
0
LINE
8
BLACK
6
CONTINUOUS
10
183.516
20
-102.494
11
184.224
21
-102.494
0
LINE
8
BLACK
6
CONTINUOUS
10
184.224
20
-105.034
11
184.224
21
-104.326
0
LINE
8
BLACK
6
CONTINUOUS
10
184.224
20
-104.326
11
183.516
21
-104.326
0
LINE
8
BLACK
6
CONTINUOUS
10
183.516
20
-104.326
11
183.516
21
-105.034
0
LINE
8
BLACK
6
CONTINUOUS
10
183.516
20
-105.034
11
184.224
21
-105.034
0
LINE
8
BLACK
6
CONTINUOUS
10
184.354
20
-120.311
11
184.354
21
-119.604
0
LINE
8
BLACK
6
CONTINUOUS
10
184.354
20
-119.604
11
183.646
21
-119.604
0
LINE
8
BLACK
6
CONTINUOUS
10
183.646
20
-119.604
11
183.646
21
-120.311
0
LINE
8
BLACK
6
CONTINUOUS
10
183.646
20
-120.311
11
184.354
21
-120.311
0
LINE
8
BLACK
6
CONTINUOUS
10
184.5
20
-120.957
11
184.5
21
-118.957
0
LINE
8
BLACK
6
CONTINUOUS
10
183.5
20
-120.957
11
183.5
21
-118.957
0
ARC
8
BLACK
10
184
20
-118.957
40
0.5
50
360
51
540
0
ARC
8
BLACK
10
184
20
-120.957
40
0.5
50
180
51
360
0
LINE
8
BLACK
6
CONTINUOUS
10
185.494
20
-110.114
11
185.494
21
-109.406
0
LINE
8
BLACK
6
CONTINUOUS
10
185.494
20
-109.406
11
184.786
21
-109.406
0
LINE
8
BLACK
6
CONTINUOUS
10
184.786
20
-109.406
11
184.786
21
-110.114
0
LINE
8
BLACK
6
CONTINUOUS
10
184.786
20
-110.114
11
185.494
21
-110.114
0
LINE
8
BLACK
6
CONTINUOUS
10
191.209
20
-47.2486
11
191.209
21
-46.5414
0
LINE
8
BLACK
6
CONTINUOUS
10
191.209
20
-46.5414
11
190.501
21
-46.5414
0
LINE
8
BLACK
6
CONTINUOUS
10
190.501
20
-46.5414
11
190.501
21
-47.2486
0
LINE
8
BLACK
6
CONTINUOUS
10
190.501
20
-47.2486
11
191.209
21
-47.2486
0
LINE
8
BLACK
6
CONTINUOUS
10
193.749
20
-47.2486
11
193.749
21
-46.5414
0
LINE
8
BLACK
6
CONTINUOUS
10
193.749
20
-46.5414
11
193.041
21
-46.5414
0
LINE
8
BLACK
6
CONTINUOUS
10
193.041
20
-46.5414
11
193.041
21
-47.2486
0
LINE
8
BLACK
6
CONTINUOUS
10
193.041
20
-47.2486
11
193.749
21
-47.2486
0
LINE
8
BLACK
6
CONTINUOUS
10
196.289
20
-47.2486
11
196.289
21
-46.5414
0
LINE
8
BLACK
6
CONTINUOUS
10
196.289
20
-46.5414
11
195.581
21
-46.5414
0
LINE
8
BLACK
6
CONTINUOUS
10
195.581
20
-46.5414
11
195.581
21
-47.2486
0
LINE
8
BLACK
6
CONTINUOUS
10
195.581
20
-47.2486
11
196.289
21
-47.2486
0
LINE
8
BLACK
6
CONTINUOUS
10
198.829
20
-47.2486
11
198.829
21
-46.5414
0
LINE
8
BLACK
6
CONTINUOUS
10
198.829
20
-46.5414
11
198.121
21
-46.5414
0
LINE
8
BLACK
6
CONTINUOUS
10
198.121
20
-46.5414
11
198.121
21
-47.2486
0
LINE
8
BLACK
6
CONTINUOUS
10
198.121
20
-47.2486
11
198.829
21
-47.2486
0
LINE
8
BLACK
6
CONTINUOUS
10
201.369
20
-47.2486
11
201.369
21
-46.5414
0
LINE
8
BLACK
6
CONTINUOUS
10
201.369
20
-46.5414
11
200.661
21
-46.5414
0
LINE
8
BLACK
6
CONTINUOUS
10
200.661
20
-46.5414
11
200.661
21
-47.2486
0
LINE
8
BLACK
6
CONTINUOUS
10
200.661
20
-47.2486
11
201.369
21
-47.2486
0
LINE
8
BLACK
6
CONTINUOUS
10
203.909
20
-47.2486
11
203.909
21
-46.5414
0
LINE
8
BLACK
6
CONTINUOUS
10
203.909
20
-46.5414
11
203.201
21
-46.5414
0
LINE
8
BLACK
6
CONTINUOUS
10
203.201
20
-46.5414
11
203.201
21
-47.2486
0
LINE
8
BLACK
6
CONTINUOUS
10
203.201
20
-47.2486
11
203.909
21
-47.2486
0
LINE
8
BLACK
6
CONTINUOUS
10
207.719
20
-47.2486
11
207.719
21
-46.5414
0
LINE
8
BLACK
6
CONTINUOUS
10
207.719
20
-46.5414
11
207.011
21
-46.5414
0
LINE
8
BLACK
6
CONTINUOUS
10
207.011
20
-46.5414
11
207.011
21
-47.2486
0
LINE
8
BLACK
6
CONTINUOUS
10
207.011
20
-47.2486
11
207.719
21
-47.2486
0
LINE
8
BLACK
6
CONTINUOUS
10
210.259
20
-47.2486
11
210.259
21
-46.5414
0
LINE
8
BLACK
6
CONTINUOUS
10
210.259
20
-46.5414
11
209.551
21
-46.5414
0
LINE
8
BLACK
6
CONTINUOUS
10
209.551
20
-46.5414
11
209.551
21
-47.2486
0
LINE
8
BLACK
6
CONTINUOUS
10
209.551
20
-47.2486
11
210.259
21
-47.2486
0
LINE
8
BLACK
6
CONTINUOUS
10
212.799
20
-47.2486
11
212.799
21
-46.5414
0
LINE
8
BLACK
6
CONTINUOUS
10
212.799
20
-46.5414
11
212.091
21
-46.5414
0
LINE
8
BLACK
6
CONTINUOUS
10
212.091
20
-46.5414
11
212.091
21
-47.2486
0
LINE
8
BLACK
6
CONTINUOUS
10
212.091
20
-47.2486
11
212.799
21
-47.2486
0
LINE
8
BLACK
6
CONTINUOUS
10
215.339
20
-47.2486
11
215.339
21
-46.5414
0
LINE
8
BLACK
6
CONTINUOUS
10
215.339
20
-46.5414
11
214.631
21
-46.5414
0
LINE
8
BLACK
6
CONTINUOUS
10
214.631
20
-46.5414
11
214.631
21
-47.2486
0
LINE
8
BLACK
6
CONTINUOUS
10
214.631
20
-47.2486
11
215.339
21
-47.2486
0
LINE
8
BLACK
6
CONTINUOUS
10
215.339
20
-79.6336
11
215.339
21
-78.9264
0
LINE
8
BLACK
6
CONTINUOUS
10
215.339
20
-78.9264
11
214.631
21
-78.9264
0
LINE
8
BLACK
6
CONTINUOUS
10
214.631
20
-78.9264
11
214.631
21
-79.6336
0
LINE
8
BLACK
6
CONTINUOUS
10
214.631
20
-79.6336
11
215.339
21
-79.6336
0
LINE
8
BLACK
6
CONTINUOUS
10
215.339
20
-82.1736
11
215.339
21
-81.4664
0
LINE
8
BLACK
6
CONTINUOUS
10
215.339
20
-81.4664
11
214.631
21
-81.4664
0
LINE
8
BLACK
6
CONTINUOUS
10
214.631
20
-81.4664
11
214.631
21
-82.1736
0
LINE
8
BLACK
6
CONTINUOUS
10
214.631
20
-82.1736
11
215.339
21
-82.1736
0
LINE
8
BLACK
6
CONTINUOUS
10
215.339
20
-84.7136
11
215.339
21
-84.0064
0
LINE
8
BLACK
6
CONTINUOUS
10
215.339
20
-84.0064
11
214.631
21
-84.0064
0
LINE
8
BLACK
6
CONTINUOUS
10
214.631
20
-84.0064
11
214.631
21
-84.7136
0
LINE
8
BLACK
6
CONTINUOUS
10
214.631
20
-84.7136
11
215.339
21
-84.7136
0
LINE
8
BLACK
6
CONTINUOUS
10
215.339
20
-87.2536
11
215.339
21
-86.5464
0
LINE
8
BLACK
6
CONTINUOUS
10
215.339
20
-86.5464
11
214.631
21
-86.5464
0
LINE
8
BLACK
6
CONTINUOUS
10
214.631
20
-86.5464
11
214.631
21
-87.2536
0
LINE
8
BLACK
6
CONTINUOUS
10
214.631
20
-87.2536
11
215.339
21
-87.2536
0
LINE
8
BLACK
6
CONTINUOUS
10
215.339
20
-89.7936
11
215.339
21
-89.0864
0
LINE
8
BLACK
6
CONTINUOUS
10
215.339
20
-89.0864
11
214.631
21
-89.0864
0
LINE
8
BLACK
6
CONTINUOUS
10
214.631
20
-89.0864
11
214.631
21
-89.7936
0
LINE
8
BLACK
6
CONTINUOUS
10
214.631
20
-89.7936
11
215.339
21
-89.7936
0
LINE
8
BLACK
6
CONTINUOUS
10
215.339
20
-92.3336
11
215.339
21
-91.6264
0
LINE
8
BLACK
6
CONTINUOUS
10
215.339
20
-91.6264
11
214.631
21
-91.6264
0
LINE
8
BLACK
6
CONTINUOUS
10
214.631
20
-91.6264
11
214.631
21
-92.3336
0
LINE
8
BLACK
6
CONTINUOUS
10
214.631
20
-92.3336
11
215.339
21
-92.3336
0
LINE
8
BLACK
6
CONTINUOUS
10
215.339
20
-94.8736
11
215.339
21
-94.1664
0
LINE
8
BLACK
6
CONTINUOUS
10
215.339
20
-94.1664
11
214.631
21
-94.1664
0
LINE
8
BLACK
6
CONTINUOUS
10
214.631
20
-94.1664
11
214.631
21
-94.8736
0
LINE
8
BLACK
6
CONTINUOUS
10
214.631
20
-94.8736
11
215.339
21
-94.8736
0
LINE
8
BLACK
6
CONTINUOUS
10
215.339
20
-97.4136
11
215.339
21
-96.7064
0
LINE
8
BLACK
6
CONTINUOUS
10
215.339
20
-96.7064
11
214.631
21
-96.7064
0
LINE
8
BLACK
6
CONTINUOUS
10
214.631
20
-96.7064
11
214.631
21
-97.4136
0
LINE
8
BLACK
6
CONTINUOUS
10
214.631
20
-97.4136
11
215.339
21
-97.4136
0
LINE
8
BLACK
6
CONTINUOUS
10
215.339
20
-99.9536
11
215.339
21
-99.2464
0
LINE
8
BLACK
6
CONTINUOUS
10
215.339
20
-99.2464
11
214.631
21
-99.2464
0
LINE
8
BLACK
6
CONTINUOUS
10
214.631
20
-99.2464
11
214.631
21
-99.9536
0
LINE
8
BLACK
6
CONTINUOUS
10
214.631
20
-99.9536
11
215.339
21
-99.9536
0
LINE
8
BLACK
6
CONTINUOUS
10
215.339
20
-102.494
11
215.339
21
-101.786
0
LINE
8
BLACK
6
CONTINUOUS
10
215.339
20
-101.786
11
214.631
21
-101.786
0
LINE
8
BLACK
6
CONTINUOUS
10
214.631
20
-101.786
11
214.631
21
-102.494
0
LINE
8
BLACK
6
CONTINUOUS
10
214.631
20
-102.494
11
215.339
21
-102.494
0
LINE
8
BLACK
6
CONTINUOUS
10
215.339
20
-105.034
11
215.339
21
-104.326
0
LINE
8
BLACK
6
CONTINUOUS
10
215.339
20
-104.326
11
214.631
21
-104.326
0
LINE
8
BLACK
6
CONTINUOUS
10
214.631
20
-104.326
11
214.631
21
-105.034
0
LINE
8
BLACK
6
CONTINUOUS
10
214.631
20
-105.034
11
215.339
21
-105.034
0
LINE
8
BLACK
6
CONTINUOUS
10
215.339
20
-107.574
11
215.339
21
-106.866
0
LINE
8
BLACK
6
CONTINUOUS
10
215.339
20
-106.866
11
214.631
21
-106.866
0
LINE
8
BLACK
6
CONTINUOUS
10
214.631
20
-106.866
11
214.631
21
-107.574
0
LINE
8
BLACK
6
CONTINUOUS
10
214.631
20
-107.574
11
215.339
21
-107.574
0
LINE
8
BLACK
6
CONTINUOUS
10
215.339
20
-110.114
11
215.339
21
-109.406
0
LINE
8
BLACK
6
CONTINUOUS
10
215.339
20
-109.406
11
214.631
21
-109.406
0
LINE
8
BLACK
6
CONTINUOUS
10
214.631
20
-109.406
11
214.631
21
-110.114
0
LINE
8
BLACK
6
CONTINUOUS
10
214.631
20
-110.114
11
215.339
21
-110.114
0
LINE
8
BLACK
6
CONTINUOUS
10
215.339
20
-112.654
11
215.339
21
-111.946
0
LINE
8
BLACK
6
CONTINUOUS
10
215.339
20
-111.946
11
214.631
21
-111.946
0
LINE
8
BLACK
6
CONTINUOUS
10
214.631
20
-111.946
11
214.631
21
-112.654
0
LINE
8
BLACK
6
CONTINUOUS
10
214.631
20
-112.654
11
215.339
21
-112.654
0
LINE
8
BLACK
6
CONTINUOUS
10
215.339
20
-115.194
11
215.339
21
-114.486
0
LINE
8
BLACK
6
CONTINUOUS
10
215.339
20
-114.486
11
214.631
21
-114.486
0
LINE
8
BLACK
6
CONTINUOUS
10
214.631
20
-114.486
11
214.631
21
-115.194
0
LINE
8
BLACK
6
CONTINUOUS
10
214.631
20
-115.194
11
215.339
21
-115.194
0
LINE
8
BLACK
6
CONTINUOUS
10
215.339
20
-117.734
11
215.339
21
-117.026
0
LINE
8
BLACK
6
CONTINUOUS
10
215.339
20
-117.026
11
214.631
21
-117.026
0
LINE
8
BLACK
6
CONTINUOUS
10
214.631
20
-117.026
11
214.631
21
-117.734
0
LINE
8
BLACK
6
CONTINUOUS
10
214.631
20
-117.734
11
215.339
21
-117.734
0
LINE
8
BLACK
6
CONTINUOUS
10
161.036
20
-113.834
11
161.586
21
-113.284
0
LINE
8
BLACK
6
CONTINUOUS
10
161.586
20
-113.284
11
161.036
21
-112.734
0
LINE
8
BLACK
6
CONTINUOUS
10
161.036
20
-112.734
11
160.486
21
-113.284
0
LINE
8
BLACK
6
CONTINUOUS
10
160.486
20
-113.284
11
161.036
21
-113.834
0
LINE
8
BLACK
6
CONTINUOUS
10
161.036
20
-118.914
11
161.586
21
-118.364
0
LINE
8
BLACK
6
CONTINUOUS
10
161.586
20
-118.364
11
161.036
21
-117.814
0
LINE
8
BLACK
6
CONTINUOUS
10
161.036
20
-117.814
11
160.486
21
-118.364
0
LINE
8
BLACK
6
CONTINUOUS
10
160.486
20
-118.364
11
161.036
21
-118.914
0
LINE
8
BLACK
6
CONTINUOUS
10
167.005
20
-115.55
11
167.555
21
-115
0
LINE
8
BLACK
6
CONTINUOUS
10
167.555
20
-115
11
167.005
21
-114.45
0
LINE
8
BLACK
6
CONTINUOUS
10
167.005
20
-114.45
11
166.455
21
-115
0
LINE
8
BLACK
6
CONTINUOUS
10
166.455
20
-115
11
167.005
21
-115.55
0
LINE
8
BLACK
6
CONTINUOUS
10
169.545
20
-115.55
11
170.095
21
-115
0
LINE
8
BLACK
6
CONTINUOUS
10
170.095
20
-115
11
169.545
21
-114.45
0
LINE
8
BLACK
6
CONTINUOUS
10
169.545
20
-114.45
11
168.995
21
-115
0
LINE
8
BLACK
6
CONTINUOUS
10
168.995
20
-115
11
169.545
21
-115.55
0
LINE
8
BLACK
6
CONTINUOUS
10
172.085
20
-115.55
11
172.635
21
-115
0
LINE
8
BLACK
6
CONTINUOUS
10
172.635
20
-115
11
172.085
21
-114.45
0
LINE
8
BLACK
6
CONTINUOUS
10
172.085
20
-114.45
11
171.535
21
-115
0
LINE
8
BLACK
6
CONTINUOUS
10
171.535
20
-115
11
172.085
21
-115.55
0
LINE
8
BLACK
6
CONTINUOUS
10
175.615
20
-87.935
11
176.165
21
-87.385
0
LINE
8
BLACK
6
CONTINUOUS
10
176.165
20
-87.385
11
175.615
21
-86.835
0
LINE
8
BLACK
6
CONTINUOUS
10
175.615
20
-86.835
11
175.065
21
-87.385
0
LINE
8
BLACK
6
CONTINUOUS
10
175.065
20
-87.385
11
175.615
21
-87.935
0
LINE
8
BLACK
6
CONTINUOUS
10
175.615
20
-94.435
11
176.165
21
-93.885
0
LINE
8
BLACK
6
CONTINUOUS
10
176.165
20
-93.885
11
175.615
21
-93.335
0
LINE
8
BLACK
6
CONTINUOUS
10
175.615
20
-93.335
11
175.065
21
-93.885
0
LINE
8
BLACK
6
CONTINUOUS
10
175.065
20
-93.885
11
175.615
21
-94.435
0
LINE
8
BLACK
6
CONTINUOUS
10
180.115
20
-87.935
11
180.665
21
-87.385
0
LINE
8
BLACK
6
CONTINUOUS
10
180.665
20
-87.385
11
180.115
21
-86.835
0
LINE
8
BLACK
6
CONTINUOUS
10
180.115
20
-86.835
11
179.565
21
-87.385
0
LINE
8
BLACK
6
CONTINUOUS
10
179.565
20
-87.385
11
180.115
21
-87.935
0
LINE
8
BLACK
6
CONTINUOUS
10
180.115
20
-94.435
11
180.665
21
-93.885
0
LINE
8
BLACK
6
CONTINUOUS
10
180.665
20
-93.885
11
180.115
21
-93.335
0
LINE
8
BLACK
6
CONTINUOUS
10
180.115
20
-93.335
11
179.565
21
-93.885
0
LINE
8
BLACK
6
CONTINUOUS
10
179.565
20
-93.885
11
180.115
21
-94.435
0
LINE
8
BLACK
6
CONTINUOUS
10
191.435
20
-54.915
11
191.985
21
-54.365
0
LINE
8
BLACK
6
CONTINUOUS
10
191.985
20
-54.365
11
191.435
21
-53.815
0
LINE
8
BLACK
6
CONTINUOUS
10
191.435
20
-53.815
11
190.885
21
-54.365
0
LINE
8
BLACK
6
CONTINUOUS
10
190.885
20
-54.365
11
191.435
21
-54.915
0
LINE
8
BLACK
6
CONTINUOUS
10
191.435
20
-61.415
11
191.985
21
-60.865
0
LINE
8
BLACK
6
CONTINUOUS
10
191.985
20
-60.865
11
191.435
21
-60.315
0
LINE
8
BLACK
6
CONTINUOUS
10
191.435
20
-60.315
11
190.885
21
-60.865
0
LINE
8
BLACK
6
CONTINUOUS
10
190.885
20
-60.865
11
191.435
21
-61.415
0
LINE
8
BLACK
6
CONTINUOUS
10
191.435
20
-64.95
11
191.985
21
-64.4
0
LINE
8
BLACK
6
CONTINUOUS
10
191.985
20
-64.4
11
191.435
21
-63.85
0
LINE
8
BLACK
6
CONTINUOUS
10
191.435
20
-63.85
11
190.885
21
-64.4
0
LINE
8
BLACK
6
CONTINUOUS
10
190.885
20
-64.4
11
191.435
21
-64.95
0
LINE
8
BLACK
6
CONTINUOUS
10
191.435
20
-71.45
11
191.985
21
-70.9
0
LINE
8
BLACK
6
CONTINUOUS
10
191.985
20
-70.9
11
191.435
21
-70.35
0
LINE
8
BLACK
6
CONTINUOUS
10
191.435
20
-70.35
11
190.885
21
-70.9
0
LINE
8
BLACK
6
CONTINUOUS
10
190.885
20
-70.9
11
191.435
21
-71.45
0
LINE
8
BLACK
6
CONTINUOUS
10
195.935
20
-54.915
11
196.485
21
-54.365
0
LINE
8
BLACK
6
CONTINUOUS
10
196.485
20
-54.365
11
195.935
21
-53.815
0
LINE
8
BLACK
6
CONTINUOUS
10
195.935
20
-53.815
11
195.385
21
-54.365
0
LINE
8
BLACK
6
CONTINUOUS
10
195.385
20
-54.365
11
195.935
21
-54.915
0
LINE
8
BLACK
6
CONTINUOUS
10
195.935
20
-61.415
11
196.485
21
-60.865
0
LINE
8
BLACK
6
CONTINUOUS
10
196.485
20
-60.865
11
195.935
21
-60.315
0
LINE
8
BLACK
6
CONTINUOUS
10
195.935
20
-60.315
11
195.385
21
-60.865
0
LINE
8
BLACK
6
CONTINUOUS
10
195.385
20
-60.865
11
195.935
21
-61.415
0
LINE
8
BLACK
6
CONTINUOUS
10
195.935
20
-64.95
11
196.485
21
-64.4
0
LINE
8
BLACK
6
CONTINUOUS
10
196.485
20
-64.4
11
195.935
21
-63.85
0
LINE
8
BLACK
6
CONTINUOUS
10
195.935
20
-63.85
11
195.385
21
-64.4
0
LINE
8
BLACK
6
CONTINUOUS
10
195.385
20
-64.4
11
195.935
21
-64.95
0
LINE
8
BLACK
6
CONTINUOUS
10
195.935
20
-71.45
11
196.485
21
-70.9
0
LINE
8
BLACK
6
CONTINUOUS
10
196.485
20
-70.9
11
195.935
21
-70.35
0
LINE
8
BLACK
6
CONTINUOUS
10
195.935
20
-70.35
11
195.385
21
-70.9
0
LINE
8
BLACK
6
CONTINUOUS
10
195.385
20
-70.9
11
195.935
21
-71.45
0
LINE
8
BLACK
6
CONTINUOUS
10
199.69
20
-54.915
11
200.24
21
-54.365
0
LINE
8
BLACK
6
CONTINUOUS
10
200.24
20
-54.365
11
199.69
21
-53.815
0
LINE
8
BLACK
6
CONTINUOUS
10
199.69
20
-53.815
11
199.14
21
-54.365
0
LINE
8
BLACK
6
CONTINUOUS
10
199.14
20
-54.365
11
199.69
21
-54.915
0
LINE
8
BLACK
6
CONTINUOUS
10
199.69
20
-61.415
11
200.24
21
-60.865
0
LINE
8
BLACK
6
CONTINUOUS
10
200.24
20
-60.865
11
199.69
21
-60.315
0
LINE
8
BLACK
6
CONTINUOUS
10
199.69
20
-60.315
11
199.14
21
-60.865
0
LINE
8
BLACK
6
CONTINUOUS
10
199.14
20
-60.865
11
199.69
21
-61.415
0
LINE
8
BLACK
6
CONTINUOUS
10
199.69
20
-64.95
11
200.24
21
-64.4
0
LINE
8
BLACK
6
CONTINUOUS
10
200.24
20
-64.4
11
199.69
21
-63.85
0
LINE
8
BLACK
6
CONTINUOUS
10
199.69
20
-63.85
11
199.14
21
-64.4
0
LINE
8
BLACK
6
CONTINUOUS
10
199.14
20
-64.4
11
199.69
21
-64.95
0
LINE
8
BLACK
6
CONTINUOUS
10
199.69
20
-71.45
11
200.24
21
-70.9
0
LINE
8
BLACK
6
CONTINUOUS
10
200.24
20
-70.9
11
199.69
21
-70.35
0
LINE
8
BLACK
6
CONTINUOUS
10
199.69
20
-70.35
11
199.14
21
-70.9
0
LINE
8
BLACK
6
CONTINUOUS
10
199.14
20
-70.9
11
199.69
21
-71.45
0
LINE
8
BLACK
6
CONTINUOUS
10
204.19
20
-54.915
11
204.74
21
-54.365
0
LINE
8
BLACK
6
CONTINUOUS
10
204.74
20
-54.365
11
204.19
21
-53.815
0
LINE
8
BLACK
6
CONTINUOUS
10
204.19
20
-53.815
11
203.64
21
-54.365
0
LINE
8
BLACK
6
CONTINUOUS
10
203.64
20
-54.365
11
204.19
21
-54.915
0
LINE
8
BLACK
6
CONTINUOUS
10
204.19
20
-61.415
11
204.74
21
-60.865
0
LINE
8
BLACK
6
CONTINUOUS
10
204.74
20
-60.865
11
204.19
21
-60.315
0
LINE
8
BLACK
6
CONTINUOUS
10
204.19
20
-60.315
11
203.64
21
-60.865
0
LINE
8
BLACK
6
CONTINUOUS
10
203.64
20
-60.865
11
204.19
21
-61.415
0
LINE
8
BLACK
6
CONTINUOUS
10
204.19
20
-64.95
11
204.74
21
-64.4
0
LINE
8
BLACK
6
CONTINUOUS
10
204.74
20
-64.4
11
204.19
21
-63.85
0
LINE
8
BLACK
6
CONTINUOUS
10
204.19
20
-63.85
11
203.64
21
-64.4
0
LINE
8
BLACK
6
CONTINUOUS
10
203.64
20
-64.4
11
204.19
21
-64.95
0
LINE
8
BLACK
6
CONTINUOUS
10
204.19
20
-71.45
11
204.74
21
-70.9
0
LINE
8
BLACK
6
CONTINUOUS
10
204.74
20
-70.9
11
204.19
21
-70.35
0
LINE
8
BLACK
6
CONTINUOUS
10
204.19
20
-70.35
11
203.64
21
-70.9
0
LINE
8
BLACK
6
CONTINUOUS
10
203.64
20
-70.9
11
204.19
21
-71.45
0
LINE
8
BLACK
6
CONTINUOUS
10
156.31
20
-103
11
160.31
21
-107
0
LINE
8
BLACK
6
CONTINUOUS
10
160.31
20
-103
11
156.31
21
-107
0
CIRCLE
8
BLACK
10
158.31
20
-105
40
2
0
LINE
8
BLACK
6
CONTINUOUS
10
176.31
20
-53
11
180.31
21
-57
0
LINE
8
BLACK
6
CONTINUOUS
10
180.31
20
-53
11
176.31
21
-57
0
CIRCLE
8
BLACK
10
178.31
20
-55
40
2
0
LINE
8
BLACK
6
CONTINUOUS
10
150.836
20
-128.155
11
150.836
21
-126.155
0
LINE
8
BLACK
6
CONTINUOUS
10
150.836
20
-126.155
11
151.312
21
-126.155
0
LINE
8
BLACK
6
CONTINUOUS
10
151.312
20
-126.155
11
151.598
21
-126.25
0
LINE
8
BLACK
6
CONTINUOUS
10
151.598
20
-126.25
11
151.789
21
-126.44
0
LINE
8
BLACK
6
CONTINUOUS
10
151.789
20
-126.44
11
151.884
21
-126.631
0
LINE
8
BLACK
6
CONTINUOUS
10
151.884
20
-126.631
11
151.979
21
-127.012
0
LINE
8
BLACK
6
CONTINUOUS
10
151.979
20
-127.012
11
151.979
21
-127.298
0
LINE
8
BLACK
6
CONTINUOUS
10
151.979
20
-127.298
11
151.884
21
-127.679
0
LINE
8
BLACK
6
CONTINUOUS
10
151.884
20
-127.679
11
151.789
21
-127.869
0
LINE
8
BLACK
6
CONTINUOUS
10
151.789
20
-127.869
11
151.598
21
-128.06
0
LINE
8
BLACK
6
CONTINUOUS
10
151.598
20
-128.06
11
151.312
21
-128.155
0
LINE
8
BLACK
6
CONTINUOUS
10
151.312
20
-128.155
11
150.836
21
-128.155
0
LINE
8
BLACK
6
CONTINUOUS
10
152.836
20
-128.155
11
152.836
21
-126.821
0
LINE
8
BLACK
6
CONTINUOUS
10
152.836
20
-127.202
11
152.931
21
-127.012
0
LINE
8
BLACK
6
CONTINUOUS
10
152.931
20
-127.012
11
153.027
21
-126.917
0
LINE
8
BLACK
6
CONTINUOUS
10
153.027
20
-126.917
11
153.217
21
-126.821
0
LINE
8
BLACK
6
CONTINUOUS
10
153.217
20
-126.821
11
153.408
21
-126.821
0
LINE
8
BLACK
6
CONTINUOUS
10
154.074
20
-128.155
11
154.074
21
-126.821
0
LINE
8
BLACK
6
CONTINUOUS
10
154.074
20
-126.155
11
153.979
21
-126.25
0
LINE
8
BLACK
6
CONTINUOUS
10
153.979
20
-126.25
11
154.074
21
-126.345
0
LINE
8
BLACK
6
CONTINUOUS
10
154.074
20
-126.345
11
154.17
21
-126.25
0
LINE
8
BLACK
6
CONTINUOUS
10
154.17
20
-126.25
11
154.074
21
-126.155
0
LINE
8
BLACK
6
CONTINUOUS
10
154.074
20
-126.155
11
154.074
21
-126.345
0
LINE
8
BLACK
6
CONTINUOUS
10
155.312
20
-128.155
11
155.122
21
-128.06
0
LINE
8
BLACK
6
CONTINUOUS
10
155.122
20
-128.06
11
155.027
21
-127.869
0
LINE
8
BLACK
6
CONTINUOUS
10
155.027
20
-127.869
11
155.027
21
-126.155
0
LINE
8
BLACK
6
CONTINUOUS
10
156.36
20
-128.155
11
156.17
21
-128.06
0
LINE
8
BLACK
6
CONTINUOUS
10
156.17
20
-128.06
11
156.074
21
-127.869
0
LINE
8
BLACK
6
CONTINUOUS
10
156.074
20
-127.869
11
156.074
21
-126.155
0
LINE
8
BLACK
6
CONTINUOUS
10
158.646
20
-128.155
11
158.646
21
-126.155
0
LINE
8
BLACK
6
CONTINUOUS
10
158.646
20
-126.155
11
159.312
21
-127.583
0
LINE
8
BLACK
6
CONTINUOUS
10
159.312
20
-127.583
11
159.979
21
-126.155
0
LINE
8
BLACK
6
CONTINUOUS
10
159.979
20
-126.155
11
159.979
21
-128.155
0
LINE
8
BLACK
6
CONTINUOUS
10
161.789
20
-128.155
11
161.789
21
-127.107
0
LINE
8
BLACK
6
CONTINUOUS
10
161.789
20
-127.107
11
161.693
21
-126.917
0
LINE
8
BLACK
6
CONTINUOUS
10
161.693
20
-126.917
11
161.503
21
-126.821
0
LINE
8
BLACK
6
CONTINUOUS
10
161.503
20
-126.821
11
161.122
21
-126.821
0
LINE
8
BLACK
6
CONTINUOUS
10
161.122
20
-126.821
11
160.931
21
-126.917
0
LINE
8
BLACK
6
CONTINUOUS
10
161.789
20
-128.06
11
161.598
21
-128.155
0
LINE
8
BLACK
6
CONTINUOUS
10
161.598
20
-128.155
11
161.122
21
-128.155
0
LINE
8
BLACK
6
CONTINUOUS
10
161.122
20
-128.155
11
160.931
21
-128.06
0
LINE
8
BLACK
6
CONTINUOUS
10
160.931
20
-128.06
11
160.836
21
-127.869
0
LINE
8
BLACK
6
CONTINUOUS
10
160.836
20
-127.869
11
160.836
21
-127.679
0
LINE
8
BLACK
6
CONTINUOUS
10
160.836
20
-127.679
11
160.931
21
-127.488
0
LINE
8
BLACK
6
CONTINUOUS
10
160.931
20
-127.488
11
161.122
21
-127.393
0
LINE
8
BLACK
6
CONTINUOUS
10
161.122
20
-127.393
11
161.598
21
-127.393
0
LINE
8
BLACK
6
CONTINUOUS
10
161.598
20
-127.393
11
161.789
21
-127.298
0
LINE
8
BLACK
6
CONTINUOUS
10
162.741
20
-126.821
11
162.741
21
-128.821
0
LINE
8
BLACK
6
CONTINUOUS
10
162.741
20
-126.917
11
162.931
21
-126.821
0
LINE
8
BLACK
6
CONTINUOUS
10
162.931
20
-126.821
11
163.312
21
-126.821
0
LINE
8
BLACK
6
CONTINUOUS
10
163.312
20
-126.821
11
163.503
21
-126.917
0
LINE
8
BLACK
6
CONTINUOUS
10
163.503
20
-126.917
11
163.598
21
-127.012
0
LINE
8
BLACK
6
CONTINUOUS
10
163.598
20
-127.012
11
163.693
21
-127.202
0
LINE
8
BLACK
6
CONTINUOUS
10
163.693
20
-127.202
11
163.693
21
-127.774
0
LINE
8
BLACK
6
CONTINUOUS
10
163.693
20
-127.774
11
163.598
21
-127.964
0
LINE
8
BLACK
6
CONTINUOUS
10
163.598
20
-127.964
11
163.503
21
-128.06
0
LINE
8
BLACK
6
CONTINUOUS
10
163.503
20
-128.06
11
163.312
21
-128.155
0
LINE
8
BLACK
6
CONTINUOUS
10
163.312
20
-128.155
11
162.931
21
-128.155
0
LINE
8
BLACK
6
CONTINUOUS
10
162.931
20
-128.155
11
162.741
21
-128.06
0
LINE
8
BLACK
6
CONTINUOUS
10
164.55
20
-127.964
11
164.646
21
-128.06
0
LINE
8
BLACK
6
CONTINUOUS
10
164.646
20
-128.06
11
164.55
21
-128.155
0
LINE
8
BLACK
6
CONTINUOUS
10
164.55
20
-128.155
11
164.455
21
-128.06
0
LINE
8
BLACK
6
CONTINUOUS
10
164.455
20
-128.06
11
164.55
21
-127.964
0
LINE
8
BLACK
6
CONTINUOUS
10
164.55
20
-127.964
11
164.55
21
-128.155
0
LINE
8
BLACK
6
CONTINUOUS
10
164.55
20
-126.917
11
164.646
21
-127.012
0
LINE
8
BLACK
6
CONTINUOUS
10
164.646
20
-127.012
11
164.55
21
-127.107
0
LINE
8
BLACK
6
CONTINUOUS
10
164.55
20
-127.107
11
164.455
21
-127.012
0
LINE
8
BLACK
6
CONTINUOUS
10
164.455
20
-127.012
11
164.55
21
-126.917
0
LINE
8
BLACK
6
CONTINUOUS
10
164.55
20
-126.917
11
164.55
21
-127.107
0
LINE
8
BLACK
6
CONTINUOUS
10
147.66
20
-131.15
11
148.26
21
-131.75
0
LINE
8
BLACK
6
CONTINUOUS
10
148.26
20
-131.15
11
147.66
21
-131.75
0
LINE
8
BLACK
6
CONTINUOUS
10
151.217
20
-130.355
11
151.408
21
-130.355
0
LINE
8
BLACK
6
CONTINUOUS
10
151.408
20
-130.355
11
151.598
21
-130.45
0
LINE
8
BLACK
6
CONTINUOUS
10
151.598
20
-130.45
11
151.693
21
-130.545
0
LINE
8
BLACK
6
CONTINUOUS
10
151.693
20
-130.545
11
151.789
21
-130.736
0
LINE
8
BLACK
6
CONTINUOUS
10
151.789
20
-130.736
11
151.884
21
-131.117
0
LINE
8
BLACK
6
CONTINUOUS
10
151.884
20
-131.117
11
151.884
21
-131.593
0
LINE
8
BLACK
6
CONTINUOUS
10
151.884
20
-131.593
11
151.789
21
-131.974
0
LINE
8
BLACK
6
CONTINUOUS
10
151.789
20
-131.974
11
151.693
21
-132.164
0
LINE
8
BLACK
6
CONTINUOUS
10
151.693
20
-132.164
11
151.598
21
-132.26
0
LINE
8
BLACK
6
CONTINUOUS
10
151.598
20
-132.26
11
151.408
21
-132.355
0
LINE
8
BLACK
6
CONTINUOUS
10
151.408
20
-132.355
11
151.217
21
-132.355
0
LINE
8
BLACK
6
CONTINUOUS
10
151.217
20
-132.355
11
151.027
21
-132.26
0
LINE
8
BLACK
6
CONTINUOUS
10
151.027
20
-132.26
11
150.931
21
-132.164
0
LINE
8
BLACK
6
CONTINUOUS
10
150.931
20
-132.164
11
150.836
21
-131.974
0
LINE
8
BLACK
6
CONTINUOUS
10
150.836
20
-131.974
11
150.741
21
-131.593
0
LINE
8
BLACK
6
CONTINUOUS
10
150.741
20
-131.593
11
150.741
21
-131.117
0
LINE
8
BLACK
6
CONTINUOUS
10
150.741
20
-131.117
11
150.836
21
-130.736
0
LINE
8
BLACK
6
CONTINUOUS
10
150.836
20
-130.736
11
150.931
21
-130.545
0
LINE
8
BLACK
6
CONTINUOUS
10
150.931
20
-130.545
11
151.027
21
-130.45
0
LINE
8
BLACK
6
CONTINUOUS
10
151.027
20
-130.45
11
151.217
21
-130.355
0
LINE
8
BLACK
6
CONTINUOUS
10
152.741
20
-132.164
11
152.836
21
-132.26
0
LINE
8
BLACK
6
CONTINUOUS
10
152.836
20
-132.26
11
152.741
21
-132.355
0
LINE
8
BLACK
6
CONTINUOUS
10
152.741
20
-132.355
11
152.646
21
-132.26
0
LINE
8
BLACK
6
CONTINUOUS
10
152.646
20
-132.26
11
152.741
21
-132.164
0
LINE
8
BLACK
6
CONTINUOUS
10
152.741
20
-132.164
11
152.741
21
-132.355
0
LINE
8
BLACK
6
CONTINUOUS
10
154.55
20
-130.355
11
154.17
21
-130.355
0
LINE
8
BLACK
6
CONTINUOUS
10
154.17
20
-130.355
11
153.979
21
-130.45
0
LINE
8
BLACK
6
CONTINUOUS
10
153.979
20
-130.45
11
153.884
21
-130.545
0
LINE
8
BLACK
6
CONTINUOUS
10
153.884
20
-130.545
11
153.693
21
-130.831
0
LINE
8
BLACK
6
CONTINUOUS
10
153.693
20
-130.831
11
153.598
21
-131.212
0
LINE
8
BLACK
6
CONTINUOUS
10
153.598
20
-131.212
11
153.598
21
-131.974
0
LINE
8
BLACK
6
CONTINUOUS
10
153.598
20
-131.974
11
153.693
21
-132.164
0
LINE
8
BLACK
6
CONTINUOUS
10
153.693
20
-132.164
11
153.789
21
-132.26
0
LINE
8
BLACK
6
CONTINUOUS
10
153.789
20
-132.26
11
153.979
21
-132.355
0
LINE
8
BLACK
6
CONTINUOUS
10
153.979
20
-132.355
11
154.36
21
-132.355
0
LINE
8
BLACK
6
CONTINUOUS
10
154.36
20
-132.355
11
154.55
21
-132.26
0
LINE
8
BLACK
6
CONTINUOUS
10
154.55
20
-132.26
11
154.646
21
-132.164
0
LINE
8
BLACK
6
CONTINUOUS
10
154.646
20
-132.164
11
154.741
21
-131.974
0
LINE
8
BLACK
6
CONTINUOUS
10
154.741
20
-131.974
11
154.741
21
-131.498
0
LINE
8
BLACK
6
CONTINUOUS
10
154.741
20
-131.498
11
154.646
21
-131.307
0
LINE
8
BLACK
6
CONTINUOUS
10
154.646
20
-131.307
11
154.55
21
-131.212
0
LINE
8
BLACK
6
CONTINUOUS
10
154.55
20
-131.212
11
154.36
21
-131.117
0
LINE
8
BLACK
6
CONTINUOUS
10
154.36
20
-131.117
11
153.979
21
-131.117
0
LINE
8
BLACK
6
CONTINUOUS
10
153.979
20
-131.117
11
153.789
21
-131.212
0
LINE
8
BLACK
6
CONTINUOUS
10
153.789
20
-131.212
11
153.693
21
-131.307
0
LINE
8
BLACK
6
CONTINUOUS
10
153.693
20
-131.307
11
153.598
21
-131.498
0
LINE
8
BLACK
6
CONTINUOUS
10
155.979
20
-130.355
11
156.17
21
-130.355
0
LINE
8
BLACK
6
CONTINUOUS
10
156.17
20
-130.355
11
156.36
21
-130.45
0
LINE
8
BLACK
6
CONTINUOUS
10
156.36
20
-130.45
11
156.455
21
-130.545
0
LINE
8
BLACK
6
CONTINUOUS
10
156.455
20
-130.545
11
156.55
21
-130.736
0
LINE
8
BLACK
6
CONTINUOUS
10
156.55
20
-130.736
11
156.646
21
-131.117
0
LINE
8
BLACK
6
CONTINUOUS
10
156.646
20
-131.117
11
156.646
21
-131.593
0
LINE
8
BLACK
6
CONTINUOUS
10
156.646
20
-131.593
11
156.55
21
-131.974
0
LINE
8
BLACK
6
CONTINUOUS
10
156.55
20
-131.974
11
156.455
21
-132.164
0
LINE
8
BLACK
6
CONTINUOUS
10
156.455
20
-132.164
11
156.36
21
-132.26
0
LINE
8
BLACK
6
CONTINUOUS
10
156.36
20
-132.26
11
156.17
21
-132.355
0
LINE
8
BLACK
6
CONTINUOUS
10
156.17
20
-132.355
11
155.979
21
-132.355
0
LINE
8
BLACK
6
CONTINUOUS
10
155.979
20
-132.355
11
155.789
21
-132.26
0
LINE
8
BLACK
6
CONTINUOUS
10
155.789
20
-132.26
11
155.693
21
-132.164
0
LINE
8
BLACK
6
CONTINUOUS
10
155.693
20
-132.164
11
155.598
21
-131.974
0
LINE
8
BLACK
6
CONTINUOUS
10
155.598
20
-131.974
11
155.503
21
-131.593
0
LINE
8
BLACK
6
CONTINUOUS
10
155.503
20
-131.593
11
155.503
21
-131.117
0
LINE
8
BLACK
6
CONTINUOUS
10
155.503
20
-131.117
11
155.598
21
-130.736
0
LINE
8
BLACK
6
CONTINUOUS
10
155.598
20
-130.736
11
155.693
21
-130.545
0
LINE
8
BLACK
6
CONTINUOUS
10
155.693
20
-130.545
11
155.789
21
-130.45
0
LINE
8
BLACK
6
CONTINUOUS
10
155.789
20
-130.45
11
155.979
21
-130.355
0
LINE
8
BLACK
6
CONTINUOUS
10
157.884
20
-130.355
11
158.074
21
-130.355
0
LINE
8
BLACK
6
CONTINUOUS
10
158.074
20
-130.355
11
158.265
21
-130.45
0
LINE
8
BLACK
6
CONTINUOUS
10
158.265
20
-130.45
11
158.36
21
-130.545
0
LINE
8
BLACK
6
CONTINUOUS
10
158.36
20
-130.545
11
158.455
21
-130.736
0
LINE
8
BLACK
6
CONTINUOUS
10
158.455
20
-130.736
11
158.55
21
-131.117
0
LINE
8
BLACK
6
CONTINUOUS
10
158.55
20
-131.117
11
158.55
21
-131.593
0
LINE
8
BLACK
6
CONTINUOUS
10
158.55
20
-131.593
11
158.455
21
-131.974
0
LINE
8
BLACK
6
CONTINUOUS
10
158.455
20
-131.974
11
158.36
21
-132.164
0
LINE
8
BLACK
6
CONTINUOUS
10
158.36
20
-132.164
11
158.265
21
-132.26
0
LINE
8
BLACK
6
CONTINUOUS
10
158.265
20
-132.26
11
158.074
21
-132.355
0
LINE
8
BLACK
6
CONTINUOUS
10
158.074
20
-132.355
11
157.884
21
-132.355
0
LINE
8
BLACK
6
CONTINUOUS
10
157.884
20
-132.355
11
157.693
21
-132.26
0
LINE
8
BLACK
6
CONTINUOUS
10
157.693
20
-132.26
11
157.598
21
-132.164
0
LINE
8
BLACK
6
CONTINUOUS
10
157.598
20
-132.164
11
157.503
21
-131.974
0
LINE
8
BLACK
6
CONTINUOUS
10
157.503
20
-131.974
11
157.408
21
-131.593
0
LINE
8
BLACK
6
CONTINUOUS
10
157.408
20
-131.593
11
157.408
21
-131.117
0
LINE
8
BLACK
6
CONTINUOUS
10
157.408
20
-131.117
11
157.503
21
-130.736
0
LINE
8
BLACK
6
CONTINUOUS
10
157.503
20
-130.736
11
157.598
21
-130.545
0
LINE
8
BLACK
6
CONTINUOUS
10
157.598
20
-130.545
11
157.693
21
-130.45
0
LINE
8
BLACK
6
CONTINUOUS
10
157.693
20
-130.45
11
157.884
21
-130.355
0
LINE
8
BLACK
6
CONTINUOUS
10
159.408
20
-132.355
11
159.408
21
-131.021
0
LINE
8
BLACK
6
CONTINUOUS
10
159.408
20
-131.212
11
159.503
21
-131.117
0
LINE
8
BLACK
6
CONTINUOUS
10
159.503
20
-131.117
11
159.693
21
-131.021
0
LINE
8
BLACK
6
CONTINUOUS
10
159.693
20
-131.021
11
159.979
21
-131.021
0
LINE
8
BLACK
6
CONTINUOUS
10
159.979
20
-131.021
11
160.17
21
-131.117
0
LINE
8
BLACK
6
CONTINUOUS
10
160.17
20
-131.117
11
160.265
21
-131.307
0
LINE
8
BLACK
6
CONTINUOUS
10
160.265
20
-131.307
11
160.265
21
-132.355
0
LINE
8
BLACK
6
CONTINUOUS
10
160.265
20
-131.307
11
160.36
21
-131.117
0
LINE
8
BLACK
6
CONTINUOUS
10
160.36
20
-131.117
11
160.55
21
-131.021
0
LINE
8
BLACK
6
CONTINUOUS
10
160.55
20
-131.021
11
160.836
21
-131.021
0
LINE
8
BLACK
6
CONTINUOUS
10
160.836
20
-131.021
11
161.027
21
-131.117
0
LINE
8
BLACK
6
CONTINUOUS
10
161.027
20
-131.117
11
161.122
21
-131.307
0
LINE
8
BLACK
6
CONTINUOUS
10
161.122
20
-131.307
11
161.122
21
-132.355
0
LINE
8
BLACK
6
CONTINUOUS
10
162.074
20
-132.355
11
162.074
21
-131.021
0
LINE
8
BLACK
6
CONTINUOUS
10
162.074
20
-131.212
11
162.17
21
-131.117
0
LINE
8
BLACK
6
CONTINUOUS
10
162.17
20
-131.117
11
162.36
21
-131.021
0
LINE
8
BLACK
6
CONTINUOUS
10
162.36
20
-131.021
11
162.646
21
-131.021
0
LINE
8
BLACK
6
CONTINUOUS
10
162.646
20
-131.021
11
162.836
21
-131.117
0
LINE
8
BLACK
6
CONTINUOUS
10
162.836
20
-131.117
11
162.931
21
-131.307
0
LINE
8
BLACK
6
CONTINUOUS
10
162.931
20
-131.307
11
162.931
21
-132.355
0
LINE
8
BLACK
6
CONTINUOUS
10
162.931
20
-131.307
11
163.027
21
-131.117
0
LINE
8
BLACK
6
CONTINUOUS
10
163.027
20
-131.117
11
163.217
21
-131.021
0
LINE
8
BLACK
6
CONTINUOUS
10
163.217
20
-131.021
11
163.503
21
-131.021
0
LINE
8
BLACK
6
CONTINUOUS
10
163.503
20
-131.021
11
163.693
21
-131.117
0
LINE
8
BLACK
6
CONTINUOUS
10
163.693
20
-131.117
11
163.789
21
-131.307
0
LINE
8
BLACK
6
CONTINUOUS
10
163.789
20
-131.307
11
163.789
21
-132.355
0
LINE
8
BLACK
6
CONTINUOUS
10
167.693
20
-130.26
11
165.979
21
-132.831
0
LINE
8
BLACK
6
CONTINUOUS
10
170.265
20
-130.355
11
170.455
21
-130.355
0
LINE
8
BLACK
6
CONTINUOUS
10
170.455
20
-130.355
11
170.646
21
-130.45
0
LINE
8
BLACK
6
CONTINUOUS
10
170.646
20
-130.45
11
170.741
21
-130.545
0
LINE
8
BLACK
6
CONTINUOUS
10
170.741
20
-130.545
11
170.836
21
-130.736
0
LINE
8
BLACK
6
CONTINUOUS
10
170.836
20
-130.736
11
170.931
21
-131.117
0
LINE
8
BLACK
6
CONTINUOUS
10
170.931
20
-131.117
11
170.931
21
-131.593
0
LINE
8
BLACK
6
CONTINUOUS
10
170.931
20
-131.593
11
170.836
21
-131.974
0
LINE
8
BLACK
6
CONTINUOUS
10
170.836
20
-131.974
11
170.741
21
-132.164
0
LINE
8
BLACK
6
CONTINUOUS
10
170.741
20
-132.164
11
170.646
21
-132.26
0
LINE
8
BLACK
6
CONTINUOUS
10
170.646
20
-132.26
11
170.455
21
-132.355
0
LINE
8
BLACK
6
CONTINUOUS
10
170.455
20
-132.355
11
170.265
21
-132.355
0
LINE
8
BLACK
6
CONTINUOUS
10
170.265
20
-132.355
11
170.074
21
-132.26
0
LINE
8
BLACK
6
CONTINUOUS
10
170.074
20
-132.26
11
169.979
21
-132.164
0
LINE
8
BLACK
6
CONTINUOUS
10
169.979
20
-132.164
11
169.884
21
-131.974
0
LINE
8
BLACK
6
CONTINUOUS
10
169.884
20
-131.974
11
169.789
21
-131.593
0
LINE
8
BLACK
6
CONTINUOUS
10
169.789
20
-131.593
11
169.789
21
-131.117
0
LINE
8
BLACK
6
CONTINUOUS
10
169.789
20
-131.117
11
169.884
21
-130.736
0
LINE
8
BLACK
6
CONTINUOUS
10
169.884
20
-130.736
11
169.979
21
-130.545
0
LINE
8
BLACK
6
CONTINUOUS
10
169.979
20
-130.545
11
170.074
21
-130.45
0
LINE
8
BLACK
6
CONTINUOUS
10
170.074
20
-130.45
11
170.265
21
-130.355
0
LINE
8
BLACK
6
CONTINUOUS
10
171.789
20
-132.164
11
171.884
21
-132.26
0
LINE
8
BLACK
6
CONTINUOUS
10
171.884
20
-132.26
11
171.789
21
-132.355
0
LINE
8
BLACK
6
CONTINUOUS
10
171.789
20
-132.355
11
171.693
21
-132.26
0
LINE
8
BLACK
6
CONTINUOUS
10
171.693
20
-132.26
11
171.789
21
-132.164
0
LINE
8
BLACK
6
CONTINUOUS
10
171.789
20
-132.164
11
171.789
21
-132.355
0
LINE
8
BLACK
6
CONTINUOUS
10
173.122
20
-130.355
11
173.312
21
-130.355
0
LINE
8
BLACK
6
CONTINUOUS
10
173.312
20
-130.355
11
173.503
21
-130.45
0
LINE
8
BLACK
6
CONTINUOUS
10
173.503
20
-130.45
11
173.598
21
-130.545
0
LINE
8
BLACK
6
CONTINUOUS
10
173.598
20
-130.545
11
173.693
21
-130.736
0
LINE
8
BLACK
6
CONTINUOUS
10
173.693
20
-130.736
11
173.789
21
-131.117
0
LINE
8
BLACK
6
CONTINUOUS
10
173.789
20
-131.117
11
173.789
21
-131.593
0
LINE
8
BLACK
6
CONTINUOUS
10
173.789
20
-131.593
11
173.693
21
-131.974
0
LINE
8
BLACK
6
CONTINUOUS
10
173.693
20
-131.974
11
173.598
21
-132.164
0
LINE
8
BLACK
6
CONTINUOUS
10
173.598
20
-132.164
11
173.503
21
-132.26
0
LINE
8
BLACK
6
CONTINUOUS
10
173.503
20
-132.26
11
173.312
21
-132.355
0
LINE
8
BLACK
6
CONTINUOUS
10
173.312
20
-132.355
11
173.122
21
-132.355
0
LINE
8
BLACK
6
CONTINUOUS
10
173.122
20
-132.355
11
172.931
21
-132.26
0
LINE
8
BLACK
6
CONTINUOUS
10
172.931
20
-132.26
11
172.836
21
-132.164
0
LINE
8
BLACK
6
CONTINUOUS
10
172.836
20
-132.164
11
172.741
21
-131.974
0
LINE
8
BLACK
6
CONTINUOUS
10
172.741
20
-131.974
11
172.646
21
-131.593
0
LINE
8
BLACK
6
CONTINUOUS
10
172.646
20
-131.593
11
172.646
21
-131.117
0
LINE
8
BLACK
6
CONTINUOUS
10
172.646
20
-131.117
11
172.741
21
-130.736
0
LINE
8
BLACK
6
CONTINUOUS
10
172.741
20
-130.736
11
172.836
21
-130.545
0
LINE
8
BLACK
6
CONTINUOUS
10
172.836
20
-130.545
11
172.931
21
-130.45
0
LINE
8
BLACK
6
CONTINUOUS
10
172.931
20
-130.45
11
173.122
21
-130.355
0
LINE
8
BLACK
6
CONTINUOUS
10
174.55
20
-130.545
11
174.646
21
-130.45
0
LINE
8
BLACK
6
CONTINUOUS
10
174.646
20
-130.45
11
174.836
21
-130.355
0
LINE
8
BLACK
6
CONTINUOUS
10
174.836
20
-130.355
11
175.312
21
-130.355
0
LINE
8
BLACK
6
CONTINUOUS
10
175.312
20
-130.355
11
175.503
21
-130.45
0
LINE
8
BLACK
6
CONTINUOUS
10
175.503
20
-130.45
11
175.598
21
-130.545
0
LINE
8
BLACK
6
CONTINUOUS
10
175.598
20
-130.545
11
175.693
21
-130.736
0
LINE
8
BLACK
6
CONTINUOUS
10
175.693
20
-130.736
11
175.693
21
-130.926
0
LINE
8
BLACK
6
CONTINUOUS
10
175.693
20
-130.926
11
175.598
21
-131.212
0
LINE
8
BLACK
6
CONTINUOUS
10
175.598
20
-131.212
11
174.455
21
-132.355
0
LINE
8
BLACK
6
CONTINUOUS
10
174.455
20
-132.355
11
175.693
21
-132.355
0
LINE
8
BLACK
6
CONTINUOUS
10
176.36
20
-130.355
11
177.598
21
-130.355
0
LINE
8
BLACK
6
CONTINUOUS
10
177.598
20
-130.355
11
176.931
21
-131.117
0
LINE
8
BLACK
6
CONTINUOUS
10
176.931
20
-131.117
11
177.217
21
-131.117
0
LINE
8
BLACK
6
CONTINUOUS
10
177.217
20
-131.117
11
177.408
21
-131.212
0
LINE
8
BLACK
6
CONTINUOUS
10
177.408
20
-131.212
11
177.503
21
-131.307
0
LINE
8
BLACK
6
CONTINUOUS
10
177.503
20
-131.307
11
177.598
21
-131.498
0
LINE
8
BLACK
6
CONTINUOUS
10
177.598
20
-131.498
11
177.598
21
-131.974
0
LINE
8
BLACK
6
CONTINUOUS
10
177.598
20
-131.974
11
177.503
21
-132.164
0
LINE
8
BLACK
6
CONTINUOUS
10
177.503
20
-132.164
11
177.408
21
-132.26
0
LINE
8
BLACK
6
CONTINUOUS
10
177.408
20
-132.26
11
177.217
21
-132.355
0
LINE
8
BLACK
6
CONTINUOUS
10
177.217
20
-132.355
11
176.646
21
-132.355
0
LINE
8
BLACK
6
CONTINUOUS
10
176.646
20
-132.355
11
176.455
21
-132.26
0
LINE
8
BLACK
6
CONTINUOUS
10
176.455
20
-132.26
11
176.36
21
-132.164
0
LINE
8
BLACK
6
CONTINUOUS
10
179.312
20
-130.355
11
178.931
21
-130.355
0
LINE
8
BLACK
6
CONTINUOUS
10
178.931
20
-130.355
11
178.741
21
-130.45
0
LINE
8
BLACK
6
CONTINUOUS
10
178.741
20
-130.45
11
178.646
21
-130.545
0
LINE
8
BLACK
6
CONTINUOUS
10
178.646
20
-130.545
11
178.455
21
-130.831
0
LINE
8
BLACK
6
CONTINUOUS
10
178.455
20
-130.831
11
178.36
21
-131.212
0
LINE
8
BLACK
6
CONTINUOUS
10
178.36
20
-131.212
11
178.36
21
-131.974
0
LINE
8
BLACK
6
CONTINUOUS
10
178.36
20
-131.974
11
178.455
21
-132.164
0
LINE
8
BLACK
6
CONTINUOUS
10
178.455
20
-132.164
11
178.55
21
-132.26
0
LINE
8
BLACK
6
CONTINUOUS
10
178.55
20
-132.26
11
178.741
21
-132.355
0
LINE
8
BLACK
6
CONTINUOUS
10
178.741
20
-132.355
11
179.122
21
-132.355
0
LINE
8
BLACK
6
CONTINUOUS
10
179.122
20
-132.355
11
179.312
21
-132.26
0
LINE
8
BLACK
6
CONTINUOUS
10
179.312
20
-132.26
11
179.408
21
-132.164
0
LINE
8
BLACK
6
CONTINUOUS
10
179.408
20
-132.164
11
179.503
21
-131.974
0
LINE
8
BLACK
6
CONTINUOUS
10
179.503
20
-131.974
11
179.503
21
-131.498
0
LINE
8
BLACK
6
CONTINUOUS
10
179.503
20
-131.498
11
179.408
21
-131.307
0
LINE
8
BLACK
6
CONTINUOUS
10
179.408
20
-131.307
11
179.312
21
-131.212
0
LINE
8
BLACK
6
CONTINUOUS
10
179.312
20
-131.212
11
179.122
21
-131.117
0
LINE
8
BLACK
6
CONTINUOUS
10
179.122
20
-131.117
11
178.741
21
-131.117
0
LINE
8
BLACK
6
CONTINUOUS
10
178.741
20
-131.117
11
178.55
21
-131.212
0
LINE
8
BLACK
6
CONTINUOUS
10
178.55
20
-131.212
11
178.455
21
-131.307
0
LINE
8
BLACK
6
CONTINUOUS
10
178.455
20
-131.307
11
178.36
21
-131.498
0
LINE
8
BLACK
6
CONTINUOUS
10
180.265
20
-130.355
11
180.265
21
-130.736
0
LINE
8
BLACK
6
CONTINUOUS
10
181.027
20
-130.355
11
181.027
21
-130.736
0
LINE
8
BLACK
6
CONTINUOUS
10
183.979
20
-133.117
11
183.884
21
-133.021
0
LINE
8
BLACK
6
CONTINUOUS
10
183.884
20
-133.021
11
183.693
21
-132.736
0
LINE
8
BLACK
6
CONTINUOUS
10
183.693
20
-132.736
11
183.598
21
-132.545
0
LINE
8
BLACK
6
CONTINUOUS
10
183.598
20
-132.545
11
183.503
21
-132.26
0
LINE
8
BLACK
6
CONTINUOUS
10
183.503
20
-132.26
11
183.408
21
-131.783
0
LINE
8
BLACK
6
CONTINUOUS
10
183.408
20
-131.783
11
183.408
21
-131.402
0
LINE
8
BLACK
6
CONTINUOUS
10
183.408
20
-131.402
11
183.503
21
-130.926
0
LINE
8
BLACK
6
CONTINUOUS
10
183.503
20
-130.926
11
183.598
21
-130.64
0
LINE
8
BLACK
6
CONTINUOUS
10
183.598
20
-130.64
11
183.693
21
-130.45
0
LINE
8
BLACK
6
CONTINUOUS
10
183.693
20
-130.45
11
183.884
21
-130.164
0
LINE
8
BLACK
6
CONTINUOUS
10
183.884
20
-130.164
11
183.979
21
-130.069
0
LINE
8
BLACK
6
CONTINUOUS
10
184.55
20
-130.355
11
185.789
21
-130.355
0
LINE
8
BLACK
6
CONTINUOUS
10
185.789
20
-130.355
11
185.122
21
-131.117
0
LINE
8
BLACK
6
CONTINUOUS
10
185.122
20
-131.117
11
185.408
21
-131.117
0
LINE
8
BLACK
6
CONTINUOUS
10
185.408
20
-131.117
11
185.598
21
-131.212
0
LINE
8
BLACK
6
CONTINUOUS
10
185.598
20
-131.212
11
185.693
21
-131.307
0
LINE
8
BLACK
6
CONTINUOUS
10
185.693
20
-131.307
11
185.789
21
-131.498
0
LINE
8
BLACK
6
CONTINUOUS
10
185.789
20
-131.498
11
185.789
21
-131.974
0
LINE
8
BLACK
6
CONTINUOUS
10
185.789
20
-131.974
11
185.693
21
-132.164
0
LINE
8
BLACK
6
CONTINUOUS
10
185.693
20
-132.164
11
185.598
21
-132.26
0
LINE
8
BLACK
6
CONTINUOUS
10
185.598
20
-132.26
11
185.408
21
-132.355
0
LINE
8
BLACK
6
CONTINUOUS
10
185.408
20
-132.355
11
184.836
21
-132.355
0
LINE
8
BLACK
6
CONTINUOUS
10
184.836
20
-132.355
11
184.646
21
-132.26
0
LINE
8
BLACK
6
CONTINUOUS
10
184.646
20
-132.26
11
184.55
21
-132.164
0
LINE
8
BLACK
6
CONTINUOUS
10
187.598
20
-130.355
11
186.646
21
-130.355
0
LINE
8
BLACK
6
CONTINUOUS
10
186.646
20
-130.355
11
186.55
21
-131.307
0
LINE
8
BLACK
6
CONTINUOUS
10
186.55
20
-131.307
11
186.646
21
-131.212
0
LINE
8
BLACK
6
CONTINUOUS
10
186.646
20
-131.212
11
186.836
21
-131.117
0
LINE
8
BLACK
6
CONTINUOUS
10
186.836
20
-131.117
11
187.312
21
-131.117
0
LINE
8
BLACK
6
CONTINUOUS
10
187.312
20
-131.117
11
187.503
21
-131.212
0
LINE
8
BLACK
6
CONTINUOUS
10
187.503
20
-131.212
11
187.598
21
-131.307
0
LINE
8
BLACK
6
CONTINUOUS
10
187.598
20
-131.307
11
187.693
21
-131.498
0
LINE
8
BLACK
6
CONTINUOUS
10
187.693
20
-131.498
11
187.693
21
-131.974
0
LINE
8
BLACK
6
CONTINUOUS
10
187.693
20
-131.974
11
187.598
21
-132.164
0
LINE
8
BLACK
6
CONTINUOUS
10
187.598
20
-132.164
11
187.503
21
-132.26
0
LINE
8
BLACK
6
CONTINUOUS
10
187.503
20
-132.26
11
187.312
21
-132.355
0
LINE
8
BLACK
6
CONTINUOUS
10
187.312
20
-132.355
11
186.836
21
-132.355
0
LINE
8
BLACK
6
CONTINUOUS
10
186.836
20
-132.355
11
186.646
21
-132.26
0
LINE
8
BLACK
6
CONTINUOUS
10
186.646
20
-132.26
11
186.55
21
-132.164
0
LINE
8
BLACK
6
CONTINUOUS
10
190.074
20
-132.355
11
190.074
21
-130.355
0
LINE
8
BLACK
6
CONTINUOUS
10
190.931
20
-132.355
11
190.931
21
-131.307
0
LINE
8
BLACK
6
CONTINUOUS
10
190.931
20
-131.307
11
190.836
21
-131.117
0
LINE
8
BLACK
6
CONTINUOUS
10
190.836
20
-131.117
11
190.646
21
-131.021
0
LINE
8
BLACK
6
CONTINUOUS
10
190.646
20
-131.021
11
190.36
21
-131.021
0
LINE
8
BLACK
6
CONTINUOUS
10
190.36
20
-131.021
11
190.17
21
-131.117
0
LINE
8
BLACK
6
CONTINUOUS
10
190.17
20
-131.117
11
190.074
21
-131.212
0
LINE
8
BLACK
6
CONTINUOUS
10
192.17
20
-132.355
11
191.979
21
-132.26
0
LINE
8
BLACK
6
CONTINUOUS
10
191.979
20
-132.26
11
191.884
21
-132.164
0
LINE
8
BLACK
6
CONTINUOUS
10
191.884
20
-132.164
11
191.789
21
-131.974
0
LINE
8
BLACK
6
CONTINUOUS
10
191.789
20
-131.974
11
191.789
21
-131.402
0
LINE
8
BLACK
6
CONTINUOUS
10
191.789
20
-131.402
11
191.884
21
-131.212
0
LINE
8
BLACK
6
CONTINUOUS
10
191.884
20
-131.212
11
191.979
21
-131.117
0
LINE
8
BLACK
6
CONTINUOUS
10
191.979
20
-131.117
11
192.17
21
-131.021
0
LINE
8
BLACK
6
CONTINUOUS
10
192.17
20
-131.021
11
192.455
21
-131.021
0
LINE
8
BLACK
6
CONTINUOUS
10
192.455
20
-131.021
11
192.646
21
-131.117
0
LINE
8
BLACK
6
CONTINUOUS
10
192.646
20
-131.117
11
192.741
21
-131.212
0
LINE
8
BLACK
6
CONTINUOUS
10
192.741
20
-131.212
11
192.836
21
-131.402
0
LINE
8
BLACK
6
CONTINUOUS
10
192.836
20
-131.402
11
192.836
21
-131.974
0
LINE
8
BLACK
6
CONTINUOUS
10
192.836
20
-131.974
11
192.741
21
-132.164
0
LINE
8
BLACK
6
CONTINUOUS
10
192.741
20
-132.164
11
192.646
21
-132.26
0
LINE
8
BLACK
6
CONTINUOUS
10
192.646
20
-132.26
11
192.455
21
-132.355
0
LINE
8
BLACK
6
CONTINUOUS
10
192.455
20
-132.355
11
192.17
21
-132.355
0
LINE
8
BLACK
6
CONTINUOUS
10
193.979
20
-132.355
11
193.789
21
-132.26
0
LINE
8
BLACK
6
CONTINUOUS
10
193.789
20
-132.26
11
193.693
21
-132.069
0
LINE
8
BLACK
6
CONTINUOUS
10
193.693
20
-132.069
11
193.693
21
-130.355
0
LINE
8
BLACK
6
CONTINUOUS
10
195.503
20
-132.26
11
195.312
21
-132.355
0
LINE
8
BLACK
6
CONTINUOUS
10
195.312
20
-132.355
11
194.931
21
-132.355
0
LINE
8
BLACK
6
CONTINUOUS
10
194.931
20
-132.355
11
194.741
21
-132.26
0
LINE
8
BLACK
6
CONTINUOUS
10
194.741
20
-132.26
11
194.646
21
-132.069
0
LINE
8
BLACK
6
CONTINUOUS
10
194.646
20
-132.069
11
194.646
21
-131.307
0
LINE
8
BLACK
6
CONTINUOUS
10
194.646
20
-131.307
11
194.741
21
-131.117
0
LINE
8
BLACK
6
CONTINUOUS
10
194.741
20
-131.117
11
194.931
21
-131.021
0
LINE
8
BLACK
6
CONTINUOUS
10
194.931
20
-131.021
11
195.312
21
-131.021
0
LINE
8
BLACK
6
CONTINUOUS
10
195.312
20
-131.021
11
195.503
21
-131.117
0
LINE
8
BLACK
6
CONTINUOUS
10
195.503
20
-131.117
11
195.598
21
-131.307
0
LINE
8
BLACK
6
CONTINUOUS
10
195.598
20
-131.307
11
195.598
21
-131.498
0
LINE
8
BLACK
6
CONTINUOUS
10
195.598
20
-131.498
11
194.646
21
-131.688
0
LINE
8
BLACK
6
CONTINUOUS
10
196.36
20
-132.26
11
196.55
21
-132.355
0
LINE
8
BLACK
6
CONTINUOUS
10
196.55
20
-132.355
11
196.931
21
-132.355
0
LINE
8
BLACK
6
CONTINUOUS
10
196.931
20
-132.355
11
197.122
21
-132.26
0
LINE
8
BLACK
6
CONTINUOUS
10
197.122
20
-132.26
11
197.217
21
-132.069
0
LINE
8
BLACK
6
CONTINUOUS
10
197.217
20
-132.069
11
197.217
21
-131.974
0
LINE
8
BLACK
6
CONTINUOUS
10
197.217
20
-131.974
11
197.122
21
-131.783
0
LINE
8
BLACK
6
CONTINUOUS
10
197.122
20
-131.783
11
196.931
21
-131.688
0
LINE
8
BLACK
6
CONTINUOUS
10
196.931
20
-131.688
11
196.646
21
-131.688
0
LINE
8
BLACK
6
CONTINUOUS
10
196.646
20
-131.688
11
196.455
21
-131.593
0
LINE
8
BLACK
6
CONTINUOUS
10
196.455
20
-131.593
11
196.36
21
-131.402
0
LINE
8
BLACK
6
CONTINUOUS
10
196.36
20
-131.402
11
196.36
21
-131.307
0
LINE
8
BLACK
6
CONTINUOUS
10
196.36
20
-131.307
11
196.455
21
-131.117
0
LINE
8
BLACK
6
CONTINUOUS
10
196.455
20
-131.117
11
196.646
21
-131.021
0
LINE
8
BLACK
6
CONTINUOUS
10
196.646
20
-131.021
11
196.931
21
-131.021
0
LINE
8
BLACK
6
CONTINUOUS
10
196.931
20
-131.021
11
197.122
21
-131.117
0
LINE
8
BLACK
6
CONTINUOUS
10
197.884
20
-133.117
11
197.979
21
-133.021
0
LINE
8
BLACK
6
CONTINUOUS
10
197.979
20
-133.021
11
198.17
21
-132.736
0
LINE
8
BLACK
6
CONTINUOUS
10
198.17
20
-132.736
11
198.265
21
-132.545
0
LINE
8
BLACK
6
CONTINUOUS
10
198.265
20
-132.545
11
198.36
21
-132.26
0
LINE
8
BLACK
6
CONTINUOUS
10
198.36
20
-132.26
11
198.455
21
-131.783
0
LINE
8
BLACK
6
CONTINUOUS
10
198.455
20
-131.783
11
198.455
21
-131.402
0
LINE
8
BLACK
6
CONTINUOUS
10
198.455
20
-131.402
11
198.36
21
-130.926
0
LINE
8
BLACK
6
CONTINUOUS
10
198.36
20
-130.926
11
198.265
21
-130.64
0
LINE
8
BLACK
6
CONTINUOUS
10
198.265
20
-130.64
11
198.17
21
-130.45
0
LINE
8
BLACK
6
CONTINUOUS
10
198.17
20
-130.45
11
197.979
21
-130.164
0
LINE
8
BLACK
6
CONTINUOUS
10
197.979
20
-130.164
11
197.884
21
-130.069
0
CIRCLE
8
BLACK
10
147.86
20
-134.09
40
0.4
0
LINE
8
BLACK
6
CONTINUOUS
10
151.217
20
-132.995
11
151.408
21
-132.995
0
LINE
8
BLACK
6
CONTINUOUS
10
151.408
20
-132.995
11
151.598
21
-133.09
0
LINE
8
BLACK
6
CONTINUOUS
10
151.598
20
-133.09
11
151.693
21
-133.185
0
LINE
8
BLACK
6
CONTINUOUS
10
151.693
20
-133.185
11
151.789
21
-133.376
0
LINE
8
BLACK
6
CONTINUOUS
10
151.789
20
-133.376
11
151.884
21
-133.757
0
LINE
8
BLACK
6
CONTINUOUS
10
151.884
20
-133.757
11
151.884
21
-134.233
0
LINE
8
BLACK
6
CONTINUOUS
10
151.884
20
-134.233
11
151.789
21
-134.614
0
LINE
8
BLACK
6
CONTINUOUS
10
151.789
20
-134.614
11
151.693
21
-134.804
0
LINE
8
BLACK
6
CONTINUOUS
10
151.693
20
-134.804
11
151.598
21
-134.9
0
LINE
8
BLACK
6
CONTINUOUS
10
151.598
20
-134.9
11
151.408
21
-134.995
0
LINE
8
BLACK
6
CONTINUOUS
10
151.408
20
-134.995
11
151.217
21
-134.995
0
LINE
8
BLACK
6
CONTINUOUS
10
151.217
20
-134.995
11
151.027
21
-134.9
0
LINE
8
BLACK
6
CONTINUOUS
10
151.027
20
-134.9
11
150.931
21
-134.804
0
LINE
8
BLACK
6
CONTINUOUS
10
150.931
20
-134.804
11
150.836
21
-134.614
0
LINE
8
BLACK
6
CONTINUOUS
10
150.836
20
-134.614
11
150.741
21
-134.233
0
LINE
8
BLACK
6
CONTINUOUS
10
150.741
20
-134.233
11
150.741
21
-133.757
0
LINE
8
BLACK
6
CONTINUOUS
10
150.741
20
-133.757
11
150.836
21
-133.376
0
LINE
8
BLACK
6
CONTINUOUS
10
150.836
20
-133.376
11
150.931
21
-133.185
0
LINE
8
BLACK
6
CONTINUOUS
10
150.931
20
-133.185
11
151.027
21
-133.09
0
LINE
8
BLACK
6
CONTINUOUS
10
151.027
20
-133.09
11
151.217
21
-132.995
0
LINE
8
BLACK
6
CONTINUOUS
10
152.741
20
-134.804
11
152.836
21
-134.9
0
LINE
8
BLACK
6
CONTINUOUS
10
152.836
20
-134.9
11
152.741
21
-134.995
0
LINE
8
BLACK
6
CONTINUOUS
10
152.741
20
-134.995
11
152.646
21
-134.9
0
LINE
8
BLACK
6
CONTINUOUS
10
152.646
20
-134.9
11
152.741
21
-134.804
0
LINE
8
BLACK
6
CONTINUOUS
10
152.741
20
-134.804
11
152.741
21
-134.995
0
LINE
8
BLACK
6
CONTINUOUS
10
153.979
20
-133.852
11
153.789
21
-133.757
0
LINE
8
BLACK
6
CONTINUOUS
10
153.789
20
-133.757
11
153.693
21
-133.661
0
LINE
8
BLACK
6
CONTINUOUS
10
153.693
20
-133.661
11
153.598
21
-133.471
0
LINE
8
BLACK
6
CONTINUOUS
10
153.598
20
-133.471
11
153.598
21
-133.376
0
LINE
8
BLACK
6
CONTINUOUS
10
153.598
20
-133.376
11
153.693
21
-133.185
0
LINE
8
BLACK
6
CONTINUOUS
10
153.693
20
-133.185
11
153.789
21
-133.09
0
LINE
8
BLACK
6
CONTINUOUS
10
153.789
20
-133.09
11
153.979
21
-132.995
0
LINE
8
BLACK
6
CONTINUOUS
10
153.979
20
-132.995
11
154.36
21
-132.995
0
LINE
8
BLACK
6
CONTINUOUS
10
154.36
20
-132.995
11
154.55
21
-133.09
0
LINE
8
BLACK
6
CONTINUOUS
10
154.55
20
-133.09
11
154.646
21
-133.185
0
LINE
8
BLACK
6
CONTINUOUS
10
154.646
20
-133.185
11
154.741
21
-133.376
0
LINE
8
BLACK
6
CONTINUOUS
10
154.741
20
-133.376
11
154.741
21
-133.471
0
LINE
8
BLACK
6
CONTINUOUS
10
154.741
20
-133.471
11
154.646
21
-133.661
0
LINE
8
BLACK
6
CONTINUOUS
10
154.646
20
-133.661
11
154.55
21
-133.757
0
LINE
8
BLACK
6
CONTINUOUS
10
154.55
20
-133.757
11
154.36
21
-133.852
0
LINE
8
BLACK
6
CONTINUOUS
10
154.36
20
-133.852
11
153.979
21
-133.852
0
LINE
8
BLACK
6
CONTINUOUS
10
153.979
20
-133.852
11
153.789
21
-133.947
0
LINE
8
BLACK
6
CONTINUOUS
10
153.789
20
-133.947
11
153.693
21
-134.042
0
LINE
8
BLACK
6
CONTINUOUS
10
153.693
20
-134.042
11
153.598
21
-134.233
0
LINE
8
BLACK
6
CONTINUOUS
10
153.598
20
-134.233
11
153.598
21
-134.614
0
LINE
8
BLACK
6
CONTINUOUS
10
153.598
20
-134.614
11
153.693
21
-134.804
0
LINE
8
BLACK
6
CONTINUOUS
10
153.693
20
-134.804
11
153.789
21
-134.9
0
LINE
8
BLACK
6
CONTINUOUS
10
153.789
20
-134.9
11
153.979
21
-134.995
0
LINE
8
BLACK
6
CONTINUOUS
10
153.979
20
-134.995
11
154.36
21
-134.995
0
LINE
8
BLACK
6
CONTINUOUS
10
154.36
20
-134.995
11
154.55
21
-134.9
0
LINE
8
BLACK
6
CONTINUOUS
10
154.55
20
-134.9
11
154.646
21
-134.804
0
LINE
8
BLACK
6
CONTINUOUS
10
154.646
20
-134.804
11
154.741
21
-134.614
0
LINE
8
BLACK
6
CONTINUOUS
10
154.741
20
-134.614
11
154.741
21
-134.233
0
LINE
8
BLACK
6
CONTINUOUS
10
154.741
20
-134.233
11
154.646
21
-134.042
0
LINE
8
BLACK
6
CONTINUOUS
10
154.646
20
-134.042
11
154.55
21
-133.947
0
LINE
8
BLACK
6
CONTINUOUS
10
154.55
20
-133.947
11
154.36
21
-133.852
0
LINE
8
BLACK
6
CONTINUOUS
10
155.979
20
-132.995
11
156.17
21
-132.995
0
LINE
8
BLACK
6
CONTINUOUS
10
156.17
20
-132.995
11
156.36
21
-133.09
0
LINE
8
BLACK
6
CONTINUOUS
10
156.36
20
-133.09
11
156.455
21
-133.185
0
LINE
8
BLACK
6
CONTINUOUS
10
156.455
20
-133.185
11
156.55
21
-133.376
0
LINE
8
BLACK
6
CONTINUOUS
10
156.55
20
-133.376
11
156.646
21
-133.757
0
LINE
8
BLACK
6
CONTINUOUS
10
156.646
20
-133.757
11
156.646
21
-134.233
0
LINE
8
BLACK
6
CONTINUOUS
10
156.646
20
-134.233
11
156.55
21
-134.614
0
LINE
8
BLACK
6
CONTINUOUS
10
156.55
20
-134.614
11
156.455
21
-134.804
0
LINE
8
BLACK
6
CONTINUOUS
10
156.455
20
-134.804
11
156.36
21
-134.9
0
LINE
8
BLACK
6
CONTINUOUS
10
156.36
20
-134.9
11
156.17
21
-134.995
0
LINE
8
BLACK
6
CONTINUOUS
10
156.17
20
-134.995
11
155.979
21
-134.995
0
LINE
8
BLACK
6
CONTINUOUS
10
155.979
20
-134.995
11
155.789
21
-134.9
0
LINE
8
BLACK
6
CONTINUOUS
10
155.789
20
-134.9
11
155.693
21
-134.804
0
LINE
8
BLACK
6
CONTINUOUS
10
155.693
20
-134.804
11
155.598
21
-134.614
0
LINE
8
BLACK
6
CONTINUOUS
10
155.598
20
-134.614
11
155.503
21
-134.233
0
LINE
8
BLACK
6
CONTINUOUS
10
155.503
20
-134.233
11
155.503
21
-133.757
0
LINE
8
BLACK
6
CONTINUOUS
10
155.503
20
-133.757
11
155.598
21
-133.376
0
LINE
8
BLACK
6
CONTINUOUS
10
155.598
20
-133.376
11
155.693
21
-133.185
0
LINE
8
BLACK
6
CONTINUOUS
10
155.693
20
-133.185
11
155.789
21
-133.09
0
LINE
8
BLACK
6
CONTINUOUS
10
155.789
20
-133.09
11
155.979
21
-132.995
0
LINE
8
BLACK
6
CONTINUOUS
10
157.884
20
-132.995
11
158.074
21
-132.995
0
LINE
8
BLACK
6
CONTINUOUS
10
158.074
20
-132.995
11
158.265
21
-133.09
0
LINE
8
BLACK
6
CONTINUOUS
10
158.265
20
-133.09
11
158.36
21
-133.185
0
LINE
8
BLACK
6
CONTINUOUS
10
158.36
20
-133.185
11
158.455
21
-133.376
0
LINE
8
BLACK
6
CONTINUOUS
10
158.455
20
-133.376
11
158.55
21
-133.757
0
LINE
8
BLACK
6
CONTINUOUS
10
158.55
20
-133.757
11
158.55
21
-134.233
0
LINE
8
BLACK
6
CONTINUOUS
10
158.55
20
-134.233
11
158.455
21
-134.614
0
LINE
8
BLACK
6
CONTINUOUS
10
158.455
20
-134.614
11
158.36
21
-134.804
0
LINE
8
BLACK
6
CONTINUOUS
10
158.36
20
-134.804
11
158.265
21
-134.9
0
LINE
8
BLACK
6
CONTINUOUS
10
158.265
20
-134.9
11
158.074
21
-134.995
0
LINE
8
BLACK
6
CONTINUOUS
10
158.074
20
-134.995
11
157.884
21
-134.995
0
LINE
8
BLACK
6
CONTINUOUS
10
157.884
20
-134.995
11
157.693
21
-134.9
0
LINE
8
BLACK
6
CONTINUOUS
10
157.693
20
-134.9
11
157.598
21
-134.804
0
LINE
8
BLACK
6
CONTINUOUS
10
157.598
20
-134.804
11
157.503
21
-134.614
0
LINE
8
BLACK
6
CONTINUOUS
10
157.503
20
-134.614
11
157.408
21
-134.233
0
LINE
8
BLACK
6
CONTINUOUS
10
157.408
20
-134.233
11
157.408
21
-133.757
0
LINE
8
BLACK
6
CONTINUOUS
10
157.408
20
-133.757
11
157.503
21
-133.376
0
LINE
8
BLACK
6
CONTINUOUS
10
157.503
20
-133.376
11
157.598
21
-133.185
0
LINE
8
BLACK
6
CONTINUOUS
10
157.598
20
-133.185
11
157.693
21
-133.09
0
LINE
8
BLACK
6
CONTINUOUS
10
157.693
20
-133.09
11
157.884
21
-132.995
0
LINE
8
BLACK
6
CONTINUOUS
10
159.408
20
-134.995
11
159.408
21
-133.661
0
LINE
8
BLACK
6
CONTINUOUS
10
159.408
20
-133.852
11
159.503
21
-133.757
0
LINE
8
BLACK
6
CONTINUOUS
10
159.503
20
-133.757
11
159.693
21
-133.661
0
LINE
8
BLACK
6
CONTINUOUS
10
159.693
20
-133.661
11
159.979
21
-133.661
0
LINE
8
BLACK
6
CONTINUOUS
10
159.979
20
-133.661
11
160.17
21
-133.757
0
LINE
8
BLACK
6
CONTINUOUS
10
160.17
20
-133.757
11
160.265
21
-133.947
0
LINE
8
BLACK
6
CONTINUOUS
10
160.265
20
-133.947
11
160.265
21
-134.995
0
LINE
8
BLACK
6
CONTINUOUS
10
160.265
20
-133.947
11
160.36
21
-133.757
0
LINE
8
BLACK
6
CONTINUOUS
10
160.36
20
-133.757
11
160.55
21
-133.661
0
LINE
8
BLACK
6
CONTINUOUS
10
160.55
20
-133.661
11
160.836
21
-133.661
0
LINE
8
BLACK
6
CONTINUOUS
10
160.836
20
-133.661
11
161.027
21
-133.757
0
LINE
8
BLACK
6
CONTINUOUS
10
161.027
20
-133.757
11
161.122
21
-133.947
0
LINE
8
BLACK
6
CONTINUOUS
10
161.122
20
-133.947
11
161.122
21
-134.995
0
LINE
8
BLACK
6
CONTINUOUS
10
162.074
20
-134.995
11
162.074
21
-133.661
0
LINE
8
BLACK
6
CONTINUOUS
10
162.074
20
-133.852
11
162.17
21
-133.757
0
LINE
8
BLACK
6
CONTINUOUS
10
162.17
20
-133.757
11
162.36
21
-133.661
0
LINE
8
BLACK
6
CONTINUOUS
10
162.36
20
-133.661
11
162.646
21
-133.661
0
LINE
8
BLACK
6
CONTINUOUS
10
162.646
20
-133.661
11
162.836
21
-133.757
0
LINE
8
BLACK
6
CONTINUOUS
10
162.836
20
-133.757
11
162.931
21
-133.947
0
LINE
8
BLACK
6
CONTINUOUS
10
162.931
20
-133.947
11
162.931
21
-134.995
0
LINE
8
BLACK
6
CONTINUOUS
10
162.931
20
-133.947
11
163.027
21
-133.757
0
LINE
8
BLACK
6
CONTINUOUS
10
163.027
20
-133.757
11
163.217
21
-133.661
0
LINE
8
BLACK
6
CONTINUOUS
10
163.217
20
-133.661
11
163.503
21
-133.661
0
LINE
8
BLACK
6
CONTINUOUS
10
163.503
20
-133.661
11
163.693
21
-133.757
0
LINE
8
BLACK
6
CONTINUOUS
10
163.693
20
-133.757
11
163.789
21
-133.947
0
LINE
8
BLACK
6
CONTINUOUS
10
163.789
20
-133.947
11
163.789
21
-134.995
0
LINE
8
BLACK
6
CONTINUOUS
10
167.693
20
-132.9
11
165.979
21
-135.471
0
LINE
8
BLACK
6
CONTINUOUS
10
170.265
20
-132.995
11
170.455
21
-132.995
0
LINE
8
BLACK
6
CONTINUOUS
10
170.455
20
-132.995
11
170.646
21
-133.09
0
LINE
8
BLACK
6
CONTINUOUS
10
170.646
20
-133.09
11
170.741
21
-133.185
0
LINE
8
BLACK
6
CONTINUOUS
10
170.741
20
-133.185
11
170.836
21
-133.376
0
LINE
8
BLACK
6
CONTINUOUS
10
170.836
20
-133.376
11
170.931
21
-133.757
0
LINE
8
BLACK
6
CONTINUOUS
10
170.931
20
-133.757
11
170.931
21
-134.233
0
LINE
8
BLACK
6
CONTINUOUS
10
170.931
20
-134.233
11
170.836
21
-134.614
0
LINE
8
BLACK
6
CONTINUOUS
10
170.836
20
-134.614
11
170.741
21
-134.804
0
LINE
8
BLACK
6
CONTINUOUS
10
170.741
20
-134.804
11
170.646
21
-134.9
0
LINE
8
BLACK
6
CONTINUOUS
10
170.646
20
-134.9
11
170.455
21
-134.995
0
LINE
8
BLACK
6
CONTINUOUS
10
170.455
20
-134.995
11
170.265
21
-134.995
0
LINE
8
BLACK
6
CONTINUOUS
10
170.265
20
-134.995
11
170.074
21
-134.9
0
LINE
8
BLACK
6
CONTINUOUS
10
170.074
20
-134.9
11
169.979
21
-134.804
0
LINE
8
BLACK
6
CONTINUOUS
10
169.979
20
-134.804
11
169.884
21
-134.614
0
LINE
8
BLACK
6
CONTINUOUS
10
169.884
20
-134.614
11
169.789
21
-134.233
0
LINE
8
BLACK
6
CONTINUOUS
10
169.789
20
-134.233
11
169.789
21
-133.757
0
LINE
8
BLACK
6
CONTINUOUS
10
169.789
20
-133.757
11
169.884
21
-133.376
0
LINE
8
BLACK
6
CONTINUOUS
10
169.884
20
-133.376
11
169.979
21
-133.185
0
LINE
8
BLACK
6
CONTINUOUS
10
169.979
20
-133.185
11
170.074
21
-133.09
0
LINE
8
BLACK
6
CONTINUOUS
10
170.074
20
-133.09
11
170.265
21
-132.995
0
LINE
8
BLACK
6
CONTINUOUS
10
171.789
20
-134.804
11
171.884
21
-134.9
0
LINE
8
BLACK
6
CONTINUOUS
10
171.884
20
-134.9
11
171.789
21
-134.995
0
LINE
8
BLACK
6
CONTINUOUS
10
171.789
20
-134.995
11
171.693
21
-134.9
0
LINE
8
BLACK
6
CONTINUOUS
10
171.693
20
-134.9
11
171.789
21
-134.804
0
LINE
8
BLACK
6
CONTINUOUS
10
171.789
20
-134.804
11
171.789
21
-134.995
0
LINE
8
BLACK
6
CONTINUOUS
10
173.122
20
-132.995
11
173.312
21
-132.995
0
LINE
8
BLACK
6
CONTINUOUS
10
173.312
20
-132.995
11
173.503
21
-133.09
0
LINE
8
BLACK
6
CONTINUOUS
10
173.503
20
-133.09
11
173.598
21
-133.185
0
LINE
8
BLACK
6
CONTINUOUS
10
173.598
20
-133.185
11
173.693
21
-133.376
0
LINE
8
BLACK
6
CONTINUOUS
10
173.693
20
-133.376
11
173.789
21
-133.757
0
LINE
8
BLACK
6
CONTINUOUS
10
173.789
20
-133.757
11
173.789
21
-134.233
0
LINE
8
BLACK
6
CONTINUOUS
10
173.789
20
-134.233
11
173.693
21
-134.614
0
LINE
8
BLACK
6
CONTINUOUS
10
173.693
20
-134.614
11
173.598
21
-134.804
0
LINE
8
BLACK
6
CONTINUOUS
10
173.598
20
-134.804
11
173.503
21
-134.9
0
LINE
8
BLACK
6
CONTINUOUS
10
173.503
20
-134.9
11
173.312
21
-134.995
0
LINE
8
BLACK
6
CONTINUOUS
10
173.312
20
-134.995
11
173.122
21
-134.995
0
LINE
8
BLACK
6
CONTINUOUS
10
173.122
20
-134.995
11
172.931
21
-134.9
0
LINE
8
BLACK
6
CONTINUOUS
10
172.931
20
-134.9
11
172.836
21
-134.804
0
LINE
8
BLACK
6
CONTINUOUS
10
172.836
20
-134.804
11
172.741
21
-134.614
0
LINE
8
BLACK
6
CONTINUOUS
10
172.741
20
-134.614
11
172.646
21
-134.233
0
LINE
8
BLACK
6
CONTINUOUS
10
172.646
20
-134.233
11
172.646
21
-133.757
0
LINE
8
BLACK
6
CONTINUOUS
10
172.646
20
-133.757
11
172.741
21
-133.376
0
LINE
8
BLACK
6
CONTINUOUS
10
172.741
20
-133.376
11
172.836
21
-133.185
0
LINE
8
BLACK
6
CONTINUOUS
10
172.836
20
-133.185
11
172.931
21
-133.09
0
LINE
8
BLACK
6
CONTINUOUS
10
172.931
20
-133.09
11
173.122
21
-132.995
0
LINE
8
BLACK
6
CONTINUOUS
10
174.455
20
-132.995
11
175.693
21
-132.995
0
LINE
8
BLACK
6
CONTINUOUS
10
175.693
20
-132.995
11
175.027
21
-133.757
0
LINE
8
BLACK
6
CONTINUOUS
10
175.027
20
-133.757
11
175.312
21
-133.757
0
LINE
8
BLACK
6
CONTINUOUS
10
175.312
20
-133.757
11
175.503
21
-133.852
0
LINE
8
BLACK
6
CONTINUOUS
10
175.503
20
-133.852
11
175.598
21
-133.947
0
LINE
8
BLACK
6
CONTINUOUS
10
175.598
20
-133.947
11
175.693
21
-134.138
0
LINE
8
BLACK
6
CONTINUOUS
10
175.693
20
-134.138
11
175.693
21
-134.614
0
LINE
8
BLACK
6
CONTINUOUS
10
175.693
20
-134.614
11
175.598
21
-134.804
0
LINE
8
BLACK
6
CONTINUOUS
10
175.598
20
-134.804
11
175.503
21
-134.9
0
LINE
8
BLACK
6
CONTINUOUS
10
175.503
20
-134.9
11
175.312
21
-134.995
0
LINE
8
BLACK
6
CONTINUOUS
10
175.312
20
-134.995
11
174.741
21
-134.995
0
LINE
8
BLACK
6
CONTINUOUS
10
174.741
20
-134.995
11
174.55
21
-134.9
0
LINE
8
BLACK
6
CONTINUOUS
10
174.55
20
-134.9
11
174.455
21
-134.804
0
LINE
8
BLACK
6
CONTINUOUS
10
177.598
20
-134.995
11
176.455
21
-134.995
0
LINE
8
BLACK
6
CONTINUOUS
10
177.027
20
-134.995
11
177.027
21
-132.995
0
LINE
8
BLACK
6
CONTINUOUS
10
177.027
20
-132.995
11
176.836
21
-133.28
0
LINE
8
BLACK
6
CONTINUOUS
10
176.836
20
-133.28
11
176.646
21
-133.471
0
LINE
8
BLACK
6
CONTINUOUS
10
176.646
20
-133.471
11
176.455
21
-133.566
0
LINE
8
BLACK
6
CONTINUOUS
10
179.408
20
-132.995
11
178.455
21
-132.995
0
LINE
8
BLACK
6
CONTINUOUS
10
178.455
20
-132.995
11
178.36
21
-133.947
0
LINE
8
BLACK
6
CONTINUOUS
10
178.36
20
-133.947
11
178.455
21
-133.852
0
LINE
8
BLACK
6
CONTINUOUS
10
178.455
20
-133.852
11
178.646
21
-133.757
0
LINE
8
BLACK
6
CONTINUOUS
10
178.646
20
-133.757
11
179.122
21
-133.757
0
LINE
8
BLACK
6
CONTINUOUS
10
179.122
20
-133.757
11
179.312
21
-133.852
0
LINE
8
BLACK
6
CONTINUOUS
10
179.312
20
-133.852
11
179.408
21
-133.947
0
LINE
8
BLACK
6
CONTINUOUS
10
179.408
20
-133.947
11
179.503
21
-134.138
0
LINE
8
BLACK
6
CONTINUOUS
10
179.503
20
-134.138
11
179.503
21
-134.614
0
LINE
8
BLACK
6
CONTINUOUS
10
179.503
20
-134.614
11
179.408
21
-134.804
0
LINE
8
BLACK
6
CONTINUOUS
10
179.408
20
-134.804
11
179.312
21
-134.9
0
LINE
8
BLACK
6
CONTINUOUS
10
179.312
20
-134.9
11
179.122
21
-134.995
0
LINE
8
BLACK
6
CONTINUOUS
10
179.122
20
-134.995
11
178.646
21
-134.995
0
LINE
8
BLACK
6
CONTINUOUS
10
178.646
20
-134.995
11
178.455
21
-134.9
0
LINE
8
BLACK
6
CONTINUOUS
10
178.455
20
-134.9
11
178.36
21
-134.804
0
LINE
8
BLACK
6
CONTINUOUS
10
180.265
20
-132.995
11
180.265
21
-133.376
0
LINE
8
BLACK
6
CONTINUOUS
10
181.027
20
-132.995
11
181.027
21
-133.376
0
LINE
8
BLACK
6
CONTINUOUS
10
183.979
20
-135.757
11
183.884
21
-135.661
0
LINE
8
BLACK
6
CONTINUOUS
10
183.884
20
-135.661
11
183.693
21
-135.376
0
LINE
8
BLACK
6
CONTINUOUS
10
183.693
20
-135.376
11
183.598
21
-135.185
0
LINE
8
BLACK
6
CONTINUOUS
10
183.598
20
-135.185
11
183.503
21
-134.9
0
LINE
8
BLACK
6
CONTINUOUS
10
183.503
20
-134.9
11
183.408
21
-134.423
0
LINE
8
BLACK
6
CONTINUOUS
10
183.408
20
-134.423
11
183.408
21
-134.042
0
LINE
8
BLACK
6
CONTINUOUS
10
183.408
20
-134.042
11
183.503
21
-133.566
0
LINE
8
BLACK
6
CONTINUOUS
10
183.503
20
-133.566
11
183.598
21
-133.28
0
LINE
8
BLACK
6
CONTINUOUS
10
183.598
20
-133.28
11
183.693
21
-133.09
0
LINE
8
BLACK
6
CONTINUOUS
10
183.693
20
-133.09
11
183.884
21
-132.804
0
LINE
8
BLACK
6
CONTINUOUS
10
183.884
20
-132.804
11
183.979
21
-132.709
0
LINE
8
BLACK
6
CONTINUOUS
10
184.646
20
-133.185
11
184.741
21
-133.09
0
LINE
8
BLACK
6
CONTINUOUS
10
184.741
20
-133.09
11
184.931
21
-132.995
0
LINE
8
BLACK
6
CONTINUOUS
10
184.931
20
-132.995
11
185.408
21
-132.995
0
LINE
8
BLACK
6
CONTINUOUS
10
185.408
20
-132.995
11
185.598
21
-133.09
0
LINE
8
BLACK
6
CONTINUOUS
10
185.598
20
-133.09
11
185.693
21
-133.185
0
LINE
8
BLACK
6
CONTINUOUS
10
185.693
20
-133.185
11
185.789
21
-133.376
0
LINE
8
BLACK
6
CONTINUOUS
10
185.789
20
-133.376
11
185.789
21
-133.566
0
LINE
8
BLACK
6
CONTINUOUS
10
185.789
20
-133.566
11
185.693
21
-133.852
0
LINE
8
BLACK
6
CONTINUOUS
10
185.693
20
-133.852
11
184.55
21
-134.995
0
LINE
8
BLACK
6
CONTINUOUS
10
184.55
20
-134.995
11
185.789
21
-134.995
0
LINE
8
BLACK
6
CONTINUOUS
10
186.741
20
-134.995
11
187.122
21
-134.995
0
LINE
8
BLACK
6
CONTINUOUS
10
187.122
20
-134.995
11
187.312
21
-134.9
0
LINE
8
BLACK
6
CONTINUOUS
10
187.312
20
-134.9
11
187.408
21
-134.804
0
LINE
8
BLACK
6
CONTINUOUS
10
187.408
20
-134.804
11
187.598
21
-134.519
0
LINE
8
BLACK
6
CONTINUOUS
10
187.598
20
-134.519
11
187.693
21
-134.138
0
LINE
8
BLACK
6
CONTINUOUS
10
187.693
20
-134.138
11
187.693
21
-133.376
0
LINE
8
BLACK
6
CONTINUOUS
10
187.693
20
-133.376
11
187.598
21
-133.185
0
LINE
8
BLACK
6
CONTINUOUS
10
187.598
20
-133.185
11
187.503
21
-133.09
0
LINE
8
BLACK
6
CONTINUOUS
10
187.503
20
-133.09
11
187.312
21
-132.995
0
LINE
8
BLACK
6
CONTINUOUS
10
187.312
20
-132.995
11
186.931
21
-132.995
0
LINE
8
BLACK
6
CONTINUOUS
10
186.931
20
-132.995
11
186.741
21
-133.09
0
LINE
8
BLACK
6
CONTINUOUS
10
186.741
20
-133.09
11
186.646
21
-133.185
0
LINE
8
BLACK
6
CONTINUOUS
10
186.646
20
-133.185
11
186.55
21
-133.376
0
LINE
8
BLACK
6
CONTINUOUS
10
186.55
20
-133.376
11
186.55
21
-133.852
0
LINE
8
BLACK
6
CONTINUOUS
10
186.55
20
-133.852
11
186.646
21
-134.042
0
LINE
8
BLACK
6
CONTINUOUS
10
186.646
20
-134.042
11
186.741
21
-134.138
0
LINE
8
BLACK
6
CONTINUOUS
10
186.741
20
-134.138
11
186.931
21
-134.233
0
LINE
8
BLACK
6
CONTINUOUS
10
186.931
20
-134.233
11
187.312
21
-134.233
0
LINE
8
BLACK
6
CONTINUOUS
10
187.312
20
-134.233
11
187.503
21
-134.138
0
LINE
8
BLACK
6
CONTINUOUS
10
187.503
20
-134.138
11
187.598
21
-134.042
0
LINE
8
BLACK
6
CONTINUOUS
10
187.598
20
-134.042
11
187.693
21
-133.852
0
LINE
8
BLACK
6
CONTINUOUS
10
190.074
20
-134.995
11
190.074
21
-132.995
0
LINE
8
BLACK
6
CONTINUOUS
10
190.931
20
-134.995
11
190.931
21
-133.947
0
LINE
8
BLACK
6
CONTINUOUS
10
190.931
20
-133.947
11
190.836
21
-133.757
0
LINE
8
BLACK
6
CONTINUOUS
10
190.836
20
-133.757
11
190.646
21
-133.661
0
LINE
8
BLACK
6
CONTINUOUS
10
190.646
20
-133.661
11
190.36
21
-133.661
0
LINE
8
BLACK
6
CONTINUOUS
10
190.36
20
-133.661
11
190.17
21
-133.757
0
LINE
8
BLACK
6
CONTINUOUS
10
190.17
20
-133.757
11
190.074
21
-133.852
0
LINE
8
BLACK
6
CONTINUOUS
10
192.17
20
-134.995
11
191.979
21
-134.9
0
LINE
8
BLACK
6
CONTINUOUS
10
191.979
20
-134.9
11
191.884
21
-134.804
0
LINE
8
BLACK
6
CONTINUOUS
10
191.884
20
-134.804
11
191.789
21
-134.614
0
LINE
8
BLACK
6
CONTINUOUS
10
191.789
20
-134.614
11
191.789
21
-134.042
0
LINE
8
BLACK
6
CONTINUOUS
10
191.789
20
-134.042
11
191.884
21
-133.852
0
LINE
8
BLACK
6
CONTINUOUS
10
191.884
20
-133.852
11
191.979
21
-133.757
0
LINE
8
BLACK
6
CONTINUOUS
10
191.979
20
-133.757
11
192.17
21
-133.661
0
LINE
8
BLACK
6
CONTINUOUS
10
192.17
20
-133.661
11
192.455
21
-133.661
0
LINE
8
BLACK
6
CONTINUOUS
10
192.455
20
-133.661
11
192.646
21
-133.757
0
LINE
8
BLACK
6
CONTINUOUS
10
192.646
20
-133.757
11
192.741
21
-133.852
0
LINE
8
BLACK
6
CONTINUOUS
10
192.741
20
-133.852
11
192.836
21
-134.042
0
LINE
8
BLACK
6
CONTINUOUS
10
192.836
20
-134.042
11
192.836
21
-134.614
0
LINE
8
BLACK
6
CONTINUOUS
10
192.836
20
-134.614
11
192.741
21
-134.804
0
LINE
8
BLACK
6
CONTINUOUS
10
192.741
20
-134.804
11
192.646
21
-134.9
0
LINE
8
BLACK
6
CONTINUOUS
10
192.646
20
-134.9
11
192.455
21
-134.995
0
LINE
8
BLACK
6
CONTINUOUS
10
192.455
20
-134.995
11
192.17
21
-134.995
0
LINE
8
BLACK
6
CONTINUOUS
10
193.979
20
-134.995
11
193.789
21
-134.9
0
LINE
8
BLACK
6
CONTINUOUS
10
193.789
20
-134.9
11
193.693
21
-134.709
0
LINE
8
BLACK
6
CONTINUOUS
10
193.693
20
-134.709
11
193.693
21
-132.995
0
LINE
8
BLACK
6
CONTINUOUS
10
195.503
20
-134.9
11
195.312
21
-134.995
0
LINE
8
BLACK
6
CONTINUOUS
10
195.312
20
-134.995
11
194.931
21
-134.995
0
LINE
8
BLACK
6
CONTINUOUS
10
194.931
20
-134.995
11
194.741
21
-134.9
0
LINE
8
BLACK
6
CONTINUOUS
10
194.741
20
-134.9
11
194.646
21
-134.709
0
LINE
8
BLACK
6
CONTINUOUS
10
194.646
20
-134.709
11
194.646
21
-133.947
0
LINE
8
BLACK
6
CONTINUOUS
10
194.646
20
-133.947
11
194.741
21
-133.757
0
LINE
8
BLACK
6
CONTINUOUS
10
194.741
20
-133.757
11
194.931
21
-133.661
0
LINE
8
BLACK
6
CONTINUOUS
10
194.931
20
-133.661
11
195.312
21
-133.661
0
LINE
8
BLACK
6
CONTINUOUS
10
195.312
20
-133.661
11
195.503
21
-133.757
0
LINE
8
BLACK
6
CONTINUOUS
10
195.503
20
-133.757
11
195.598
21
-133.947
0
LINE
8
BLACK
6
CONTINUOUS
10
195.598
20
-133.947
11
195.598
21
-134.138
0
LINE
8
BLACK
6
CONTINUOUS
10
195.598
20
-134.138
11
194.646
21
-134.328
0
LINE
8
BLACK
6
CONTINUOUS
10
196.36
20
-134.9
11
196.55
21
-134.995
0
LINE
8
BLACK
6
CONTINUOUS
10
196.55
20
-134.995
11
196.931
21
-134.995
0
LINE
8
BLACK
6
CONTINUOUS
10
196.931
20
-134.995
11
197.122
21
-134.9
0
LINE
8
BLACK
6
CONTINUOUS
10
197.122
20
-134.9
11
197.217
21
-134.709
0
LINE
8
BLACK
6
CONTINUOUS
10
197.217
20
-134.709
11
197.217
21
-134.614
0
LINE
8
BLACK
6
CONTINUOUS
10
197.217
20
-134.614
11
197.122
21
-134.423
0
LINE
8
BLACK
6
CONTINUOUS
10
197.122
20
-134.423
11
196.931
21
-134.328
0
LINE
8
BLACK
6
CONTINUOUS
10
196.931
20
-134.328
11
196.646
21
-134.328
0
LINE
8
BLACK
6
CONTINUOUS
10
196.646
20
-134.328
11
196.455
21
-134.233
0
LINE
8
BLACK
6
CONTINUOUS
10
196.455
20
-134.233
11
196.36
21
-134.042
0
LINE
8
BLACK
6
CONTINUOUS
10
196.36
20
-134.042
11
196.36
21
-133.947
0
LINE
8
BLACK
6
CONTINUOUS
10
196.36
20
-133.947
11
196.455
21
-133.757
0
LINE
8
BLACK
6
CONTINUOUS
10
196.455
20
-133.757
11
196.646
21
-133.661
0
LINE
8
BLACK
6
CONTINUOUS
10
196.646
20
-133.661
11
196.931
21
-133.661
0
LINE
8
BLACK
6
CONTINUOUS
10
196.931
20
-133.661
11
197.122
21
-133.757
0
LINE
8
BLACK
6
CONTINUOUS
10
197.884
20
-135.757
11
197.979
21
-135.661
0
LINE
8
BLACK
6
CONTINUOUS
10
197.979
20
-135.661
11
198.17
21
-135.376
0
LINE
8
BLACK
6
CONTINUOUS
10
198.17
20
-135.376
11
198.265
21
-135.185
0
LINE
8
BLACK
6
CONTINUOUS
10
198.265
20
-135.185
11
198.36
21
-134.9
0
LINE
8
BLACK
6
CONTINUOUS
10
198.36
20
-134.9
11
198.455
21
-134.423
0
LINE
8
BLACK
6
CONTINUOUS
10
198.455
20
-134.423
11
198.455
21
-134.042
0
LINE
8
BLACK
6
CONTINUOUS
10
198.455
20
-134.042
11
198.36
21
-133.566
0
LINE
8
BLACK
6
CONTINUOUS
10
198.36
20
-133.566
11
198.265
21
-133.28
0
LINE
8
BLACK
6
CONTINUOUS
10
198.265
20
-133.28
11
198.17
21
-133.09
0
LINE
8
BLACK
6
CONTINUOUS
10
198.17
20
-133.09
11
197.979
21
-132.804
0
LINE
8
BLACK
6
CONTINUOUS
10
197.979
20
-132.804
11
197.884
21
-132.709
0
LINE
8
BLACK
6
CONTINUOUS
10
147.81
20
-136.28
11
147.81
21
-137.18
0
LINE
8
BLACK
6
CONTINUOUS
10
147.36
20
-136.73
11
148.26
21
-136.73
0
LINE
8
BLACK
6
CONTINUOUS
10
151.217
20
-135.635
11
151.408
21
-135.635
0
LINE
8
BLACK
6
CONTINUOUS
10
151.408
20
-135.635
11
151.598
21
-135.73
0
LINE
8
BLACK
6
CONTINUOUS
10
151.598
20
-135.73
11
151.693
21
-135.825
0
LINE
8
BLACK
6
CONTINUOUS
10
151.693
20
-135.825
11
151.789
21
-136.016
0
LINE
8
BLACK
6
CONTINUOUS
10
151.789
20
-136.016
11
151.884
21
-136.397
0
LINE
8
BLACK
6
CONTINUOUS
10
151.884
20
-136.397
11
151.884
21
-136.873
0
LINE
8
BLACK
6
CONTINUOUS
10
151.884
20
-136.873
11
151.789
21
-137.254
0
LINE
8
BLACK
6
CONTINUOUS
10
151.789
20
-137.254
11
151.693
21
-137.444
0
LINE
8
BLACK
6
CONTINUOUS
10
151.693
20
-137.444
11
151.598
21
-137.54
0
LINE
8
BLACK
6
CONTINUOUS
10
151.598
20
-137.54
11
151.408
21
-137.635
0
LINE
8
BLACK
6
CONTINUOUS
10
151.408
20
-137.635
11
151.217
21
-137.635
0
LINE
8
BLACK
6
CONTINUOUS
10
151.217
20
-137.635
11
151.027
21
-137.54
0
LINE
8
BLACK
6
CONTINUOUS
10
151.027
20
-137.54
11
150.931
21
-137.444
0
LINE
8
BLACK
6
CONTINUOUS
10
150.931
20
-137.444
11
150.836
21
-137.254
0
LINE
8
BLACK
6
CONTINUOUS
10
150.836
20
-137.254
11
150.741
21
-136.873
0
LINE
8
BLACK
6
CONTINUOUS
10
150.741
20
-136.873
11
150.741
21
-136.397
0
LINE
8
BLACK
6
CONTINUOUS
10
150.741
20
-136.397
11
150.836
21
-136.016
0
LINE
8
BLACK
6
CONTINUOUS
10
150.836
20
-136.016
11
150.931
21
-135.825
0
LINE
8
BLACK
6
CONTINUOUS
10
150.931
20
-135.825
11
151.027
21
-135.73
0
LINE
8
BLACK
6
CONTINUOUS
10
151.027
20
-135.73
11
151.217
21
-135.635
0
LINE
8
BLACK
6
CONTINUOUS
10
152.741
20
-137.444
11
152.836
21
-137.54
0
LINE
8
BLACK
6
CONTINUOUS
10
152.836
20
-137.54
11
152.741
21
-137.635
0
LINE
8
BLACK
6
CONTINUOUS
10
152.741
20
-137.635
11
152.646
21
-137.54
0
LINE
8
BLACK
6
CONTINUOUS
10
152.646
20
-137.54
11
152.741
21
-137.444
0
LINE
8
BLACK
6
CONTINUOUS
10
152.741
20
-137.444
11
152.741
21
-137.635
0
LINE
8
BLACK
6
CONTINUOUS
10
153.789
20
-137.635
11
154.17
21
-137.635
0
LINE
8
BLACK
6
CONTINUOUS
10
154.17
20
-137.635
11
154.36
21
-137.54
0
LINE
8
BLACK
6
CONTINUOUS
10
154.36
20
-137.54
11
154.455
21
-137.444
0
LINE
8
BLACK
6
CONTINUOUS
10
154.455
20
-137.444
11
154.646
21
-137.159
0
LINE
8
BLACK
6
CONTINUOUS
10
154.646
20
-137.159
11
154.741
21
-136.778
0
LINE
8
BLACK
6
CONTINUOUS
10
154.741
20
-136.778
11
154.741
21
-136.016
0
LINE
8
BLACK
6
CONTINUOUS
10
154.741
20
-136.016
11
154.646
21
-135.825
0
LINE
8
BLACK
6
CONTINUOUS
10
154.646
20
-135.825
11
154.55
21
-135.73
0
LINE
8
BLACK
6
CONTINUOUS
10
154.55
20
-135.73
11
154.36
21
-135.635
0
LINE
8
BLACK
6
CONTINUOUS
10
154.36
20
-135.635
11
153.979
21
-135.635
0
LINE
8
BLACK
6
CONTINUOUS
10
153.979
20
-135.635
11
153.789
21
-135.73
0
LINE
8
BLACK
6
CONTINUOUS
10
153.789
20
-135.73
11
153.693
21
-135.825
0
LINE
8
BLACK
6
CONTINUOUS
10
153.693
20
-135.825
11
153.598
21
-136.016
0
LINE
8
BLACK
6
CONTINUOUS
10
153.598
20
-136.016
11
153.598
21
-136.492
0
LINE
8
BLACK
6
CONTINUOUS
10
153.598
20
-136.492
11
153.693
21
-136.682
0
LINE
8
BLACK
6
CONTINUOUS
10
153.693
20
-136.682
11
153.789
21
-136.778
0
LINE
8
BLACK
6
CONTINUOUS
10
153.789
20
-136.778
11
153.979
21
-136.873
0
LINE
8
BLACK
6
CONTINUOUS
10
153.979
20
-136.873
11
154.36
21
-136.873
0
LINE
8
BLACK
6
CONTINUOUS
10
154.36
20
-136.873
11
154.55
21
-136.778
0
LINE
8
BLACK
6
CONTINUOUS
10
154.55
20
-136.778
11
154.646
21
-136.682
0
LINE
8
BLACK
6
CONTINUOUS
10
154.646
20
-136.682
11
154.741
21
-136.492
0
LINE
8
BLACK
6
CONTINUOUS
10
155.979
20
-135.635
11
156.17
21
-135.635
0
LINE
8
BLACK
6
CONTINUOUS
10
156.17
20
-135.635
11
156.36
21
-135.73
0
LINE
8
BLACK
6
CONTINUOUS
10
156.36
20
-135.73
11
156.455
21
-135.825
0
LINE
8
BLACK
6
CONTINUOUS
10
156.455
20
-135.825
11
156.55
21
-136.016
0
LINE
8
BLACK
6
CONTINUOUS
10
156.55
20
-136.016
11
156.646
21
-136.397
0
LINE
8
BLACK
6
CONTINUOUS
10
156.646
20
-136.397
11
156.646
21
-136.873
0
LINE
8
BLACK
6
CONTINUOUS
10
156.646
20
-136.873
11
156.55
21
-137.254
0
LINE
8
BLACK
6
CONTINUOUS
10
156.55
20
-137.254
11
156.455
21
-137.444
0
LINE
8
BLACK
6
CONTINUOUS
10
156.455
20
-137.444
11
156.36
21
-137.54
0
LINE
8
BLACK
6
CONTINUOUS
10
156.36
20
-137.54
11
156.17
21
-137.635
0
LINE
8
BLACK
6
CONTINUOUS
10
156.17
20
-137.635
11
155.979
21
-137.635
0
LINE
8
BLACK
6
CONTINUOUS
10
155.979
20
-137.635
11
155.789
21
-137.54
0
LINE
8
BLACK
6
CONTINUOUS
10
155.789
20
-137.54
11
155.693
21
-137.444
0
LINE
8
BLACK
6
CONTINUOUS
10
155.693
20
-137.444
11
155.598
21
-137.254
0
LINE
8
BLACK
6
CONTINUOUS
10
155.598
20
-137.254
11
155.503
21
-136.873
0
LINE
8
BLACK
6
CONTINUOUS
10
155.503
20
-136.873
11
155.503
21
-136.397
0
LINE
8
BLACK
6
CONTINUOUS
10
155.503
20
-136.397
11
155.598
21
-136.016
0
LINE
8
BLACK
6
CONTINUOUS
10
155.598
20
-136.016
11
155.693
21
-135.825
0
LINE
8
BLACK
6
CONTINUOUS
10
155.693
20
-135.825
11
155.789
21
-135.73
0
LINE
8
BLACK
6
CONTINUOUS
10
155.789
20
-135.73
11
155.979
21
-135.635
0
LINE
8
BLACK
6
CONTINUOUS
10
157.884
20
-135.635
11
158.074
21
-135.635
0
LINE
8
BLACK
6
CONTINUOUS
10
158.074
20
-135.635
11
158.265
21
-135.73
0
LINE
8
BLACK
6
CONTINUOUS
10
158.265
20
-135.73
11
158.36
21
-135.825
0
LINE
8
BLACK
6
CONTINUOUS
10
158.36
20
-135.825
11
158.455
21
-136.016
0
LINE
8
BLACK
6
CONTINUOUS
10
158.455
20
-136.016
11
158.55
21
-136.397
0
LINE
8
BLACK
6
CONTINUOUS
10
158.55
20
-136.397
11
158.55
21
-136.873
0
LINE
8
BLACK
6
CONTINUOUS
10
158.55
20
-136.873
11
158.455
21
-137.254
0
LINE
8
BLACK
6
CONTINUOUS
10
158.455
20
-137.254
11
158.36
21
-137.444
0
LINE
8
BLACK
6
CONTINUOUS
10
158.36
20
-137.444
11
158.265
21
-137.54
0
LINE
8
BLACK
6
CONTINUOUS
10
158.265
20
-137.54
11
158.074
21
-137.635
0
LINE
8
BLACK
6
CONTINUOUS
10
158.074
20
-137.635
11
157.884
21
-137.635
0
LINE
8
BLACK
6
CONTINUOUS
10
157.884
20
-137.635
11
157.693
21
-137.54
0
LINE
8
BLACK
6
CONTINUOUS
10
157.693
20
-137.54
11
157.598
21
-137.444
0
LINE
8
BLACK
6
CONTINUOUS
10
157.598
20
-137.444
11
157.503
21
-137.254
0
LINE
8
BLACK
6
CONTINUOUS
10
157.503
20
-137.254
11
157.408
21
-136.873
0
LINE
8
BLACK
6
CONTINUOUS
10
157.408
20
-136.873
11
157.408
21
-136.397
0
LINE
8
BLACK
6
CONTINUOUS
10
157.408
20
-136.397
11
157.503
21
-136.016
0
LINE
8
BLACK
6
CONTINUOUS
10
157.503
20
-136.016
11
157.598
21
-135.825
0
LINE
8
BLACK
6
CONTINUOUS
10
157.598
20
-135.825
11
157.693
21
-135.73
0
LINE
8
BLACK
6
CONTINUOUS
10
157.693
20
-135.73
11
157.884
21
-135.635
0
LINE
8
BLACK
6
CONTINUOUS
10
159.408
20
-137.635
11
159.408
21
-136.301
0
LINE
8
BLACK
6
CONTINUOUS
10
159.408
20
-136.492
11
159.503
21
-136.397
0
LINE
8
BLACK
6
CONTINUOUS
10
159.503
20
-136.397
11
159.693
21
-136.301
0
LINE
8
BLACK
6
CONTINUOUS
10
159.693
20
-136.301
11
159.979
21
-136.301
0
LINE
8
BLACK
6
CONTINUOUS
10
159.979
20
-136.301
11
160.17
21
-136.397
0
LINE
8
BLACK
6
CONTINUOUS
10
160.17
20
-136.397
11
160.265
21
-136.587
0
LINE
8
BLACK
6
CONTINUOUS
10
160.265
20
-136.587
11
160.265
21
-137.635
0
LINE
8
BLACK
6
CONTINUOUS
10
160.265
20
-136.587
11
160.36
21
-136.397
0
LINE
8
BLACK
6
CONTINUOUS
10
160.36
20
-136.397
11
160.55
21
-136.301
0
LINE
8
BLACK
6
CONTINUOUS
10
160.55
20
-136.301
11
160.836
21
-136.301
0
LINE
8
BLACK
6
CONTINUOUS
10
160.836
20
-136.301
11
161.027
21
-136.397
0
LINE
8
BLACK
6
CONTINUOUS
10
161.027
20
-136.397
11
161.122
21
-136.587
0
LINE
8
BLACK
6
CONTINUOUS
10
161.122
20
-136.587
11
161.122
21
-137.635
0
LINE
8
BLACK
6
CONTINUOUS
10
162.074
20
-137.635
11
162.074
21
-136.301
0
LINE
8
BLACK
6
CONTINUOUS
10
162.074
20
-136.492
11
162.17
21
-136.397
0
LINE
8
BLACK
6
CONTINUOUS
10
162.17
20
-136.397
11
162.36
21
-136.301
0
LINE
8
BLACK
6
CONTINUOUS
10
162.36
20
-136.301
11
162.646
21
-136.301
0
LINE
8
BLACK
6
CONTINUOUS
10
162.646
20
-136.301
11
162.836
21
-136.397
0
LINE
8
BLACK
6
CONTINUOUS
10
162.836
20
-136.397
11
162.931
21
-136.587
0
LINE
8
BLACK
6
CONTINUOUS
10
162.931
20
-136.587
11
162.931
21
-137.635
0
LINE
8
BLACK
6
CONTINUOUS
10
162.931
20
-136.587
11
163.027
21
-136.397
0
LINE
8
BLACK
6
CONTINUOUS
10
163.027
20
-136.397
11
163.217
21
-136.301
0
LINE
8
BLACK
6
CONTINUOUS
10
163.217
20
-136.301
11
163.503
21
-136.301
0
LINE
8
BLACK
6
CONTINUOUS
10
163.503
20
-136.301
11
163.693
21
-136.397
0
LINE
8
BLACK
6
CONTINUOUS
10
163.693
20
-136.397
11
163.789
21
-136.587
0
LINE
8
BLACK
6
CONTINUOUS
10
163.789
20
-136.587
11
163.789
21
-137.635
0
LINE
8
BLACK
6
CONTINUOUS
10
167.693
20
-135.54
11
165.979
21
-138.111
0
LINE
8
BLACK
6
CONTINUOUS
10
170.265
20
-135.635
11
170.455
21
-135.635
0
LINE
8
BLACK
6
CONTINUOUS
10
170.455
20
-135.635
11
170.646
21
-135.73
0
LINE
8
BLACK
6
CONTINUOUS
10
170.646
20
-135.73
11
170.741
21
-135.825
0
LINE
8
BLACK
6
CONTINUOUS
10
170.741
20
-135.825
11
170.836
21
-136.016
0
LINE
8
BLACK
6
CONTINUOUS
10
170.836
20
-136.016
11
170.931
21
-136.397
0
LINE
8
BLACK
6
CONTINUOUS
10
170.931
20
-136.397
11
170.931
21
-136.873
0
LINE
8
BLACK
6
CONTINUOUS
10
170.931
20
-136.873
11
170.836
21
-137.254
0
LINE
8
BLACK
6
CONTINUOUS
10
170.836
20
-137.254
11
170.741
21
-137.444
0
LINE
8
BLACK
6
CONTINUOUS
10
170.741
20
-137.444
11
170.646
21
-137.54
0
LINE
8
BLACK
6
CONTINUOUS
10
170.646
20
-137.54
11
170.455
21
-137.635
0
LINE
8
BLACK
6
CONTINUOUS
10
170.455
20
-137.635
11
170.265
21
-137.635
0
LINE
8
BLACK
6
CONTINUOUS
10
170.265
20
-137.635
11
170.074
21
-137.54
0
LINE
8
BLACK
6
CONTINUOUS
10
170.074
20
-137.54
11
169.979
21
-137.444
0
LINE
8
BLACK
6
CONTINUOUS
10
169.979
20
-137.444
11
169.884
21
-137.254
0
LINE
8
BLACK
6
CONTINUOUS
10
169.884
20
-137.254
11
169.789
21
-136.873
0
LINE
8
BLACK
6
CONTINUOUS
10
169.789
20
-136.873
11
169.789
21
-136.397
0
LINE
8
BLACK
6
CONTINUOUS
10
169.789
20
-136.397
11
169.884
21
-136.016
0
LINE
8
BLACK
6
CONTINUOUS
10
169.884
20
-136.016
11
169.979
21
-135.825
0
LINE
8
BLACK
6
CONTINUOUS
10
169.979
20
-135.825
11
170.074
21
-135.73
0
LINE
8
BLACK
6
CONTINUOUS
10
170.074
20
-135.73
11
170.265
21
-135.635
0
LINE
8
BLACK
6
CONTINUOUS
10
171.789
20
-137.444
11
171.884
21
-137.54
0
LINE
8
BLACK
6
CONTINUOUS
10
171.884
20
-137.54
11
171.789
21
-137.635
0
LINE
8
BLACK
6
CONTINUOUS
10
171.789
20
-137.635
11
171.693
21
-137.54
0
LINE
8
BLACK
6
CONTINUOUS
10
171.693
20
-137.54
11
171.789
21
-137.444
0
LINE
8
BLACK
6
CONTINUOUS
10
171.789
20
-137.444
11
171.789
21
-137.635
0
LINE
8
BLACK
6
CONTINUOUS
10
173.122
20
-135.635
11
173.312
21
-135.635
0
LINE
8
BLACK
6
CONTINUOUS
10
173.312
20
-135.635
11
173.503
21
-135.73
0
LINE
8
BLACK
6
CONTINUOUS
10
173.503
20
-135.73
11
173.598
21
-135.825
0
LINE
8
BLACK
6
CONTINUOUS
10
173.598
20
-135.825
11
173.693
21
-136.016
0
LINE
8
BLACK
6
CONTINUOUS
10
173.693
20
-136.016
11
173.789
21
-136.397
0
LINE
8
BLACK
6
CONTINUOUS
10
173.789
20
-136.397
11
173.789
21
-136.873
0
LINE
8
BLACK
6
CONTINUOUS
10
173.789
20
-136.873
11
173.693
21
-137.254
0
LINE
8
BLACK
6
CONTINUOUS
10
173.693
20
-137.254
11
173.598
21
-137.444
0
LINE
8
BLACK
6
CONTINUOUS
10
173.598
20
-137.444
11
173.503
21
-137.54
0
LINE
8
BLACK
6
CONTINUOUS
10
173.503
20
-137.54
11
173.312
21
-137.635
0
LINE
8
BLACK
6
CONTINUOUS
10
173.312
20
-137.635
11
173.122
21
-137.635
0
LINE
8
BLACK
6
CONTINUOUS
10
173.122
20
-137.635
11
172.931
21
-137.54
0
LINE
8
BLACK
6
CONTINUOUS
10
172.931
20
-137.54
11
172.836
21
-137.444
0
LINE
8
BLACK
6
CONTINUOUS
10
172.836
20
-137.444
11
172.741
21
-137.254
0
LINE
8
BLACK
6
CONTINUOUS
10
172.741
20
-137.254
11
172.646
21
-136.873
0
LINE
8
BLACK
6
CONTINUOUS
10
172.646
20
-136.873
11
172.646
21
-136.397
0
LINE
8
BLACK
6
CONTINUOUS
10
172.646
20
-136.397
11
172.741
21
-136.016
0
LINE
8
BLACK
6
CONTINUOUS
10
172.741
20
-136.016
11
172.836
21
-135.825
0
LINE
8
BLACK
6
CONTINUOUS
10
172.836
20
-135.825
11
172.931
21
-135.73
0
LINE
8
BLACK
6
CONTINUOUS
10
172.931
20
-135.73
11
173.122
21
-135.635
0
LINE
8
BLACK
6
CONTINUOUS
10
174.455
20
-135.635
11
175.693
21
-135.635
0
LINE
8
BLACK
6
CONTINUOUS
10
175.693
20
-135.635
11
175.027
21
-136.397
0
LINE
8
BLACK
6
CONTINUOUS
10
175.027
20
-136.397
11
175.312
21
-136.397
0
LINE
8
BLACK
6
CONTINUOUS
10
175.312
20
-136.397
11
175.503
21
-136.492
0
LINE
8
BLACK
6
CONTINUOUS
10
175.503
20
-136.492
11
175.598
21
-136.587
0
LINE
8
BLACK
6
CONTINUOUS
10
175.598
20
-136.587
11
175.693
21
-136.778
0
LINE
8
BLACK
6
CONTINUOUS
10
175.693
20
-136.778
11
175.693
21
-137.254
0
LINE
8
BLACK
6
CONTINUOUS
10
175.693
20
-137.254
11
175.598
21
-137.444
0
LINE
8
BLACK
6
CONTINUOUS
10
175.598
20
-137.444
11
175.503
21
-137.54
0
LINE
8
BLACK
6
CONTINUOUS
10
175.503
20
-137.54
11
175.312
21
-137.635
0
LINE
8
BLACK
6
CONTINUOUS
10
175.312
20
-137.635
11
174.741
21
-137.635
0
LINE
8
BLACK
6
CONTINUOUS
10
174.741
20
-137.635
11
174.55
21
-137.54
0
LINE
8
BLACK
6
CONTINUOUS
10
174.55
20
-137.54
11
174.455
21
-137.444
0
LINE
8
BLACK
6
CONTINUOUS
10
177.503
20
-135.635
11
176.55
21
-135.635
0
LINE
8
BLACK
6
CONTINUOUS
10
176.55
20
-135.635
11
176.455
21
-136.587
0
LINE
8
BLACK
6
CONTINUOUS
10
176.455
20
-136.587
11
176.55
21
-136.492
0
LINE
8
BLACK
6
CONTINUOUS
10
176.55
20
-136.492
11
176.741
21
-136.397
0
LINE
8
BLACK
6
CONTINUOUS
10
176.741
20
-136.397
11
177.217
21
-136.397
0
LINE
8
BLACK
6
CONTINUOUS
10
177.217
20
-136.397
11
177.408
21
-136.492
0
LINE
8
BLACK
6
CONTINUOUS
10
177.408
20
-136.492
11
177.503
21
-136.587
0
LINE
8
BLACK
6
CONTINUOUS
10
177.503
20
-136.587
11
177.598
21
-136.778
0
LINE
8
BLACK
6
CONTINUOUS
10
177.598
20
-136.778
11
177.598
21
-137.254
0
LINE
8
BLACK
6
CONTINUOUS
10
177.598
20
-137.254
11
177.503
21
-137.444
0
LINE
8
BLACK
6
CONTINUOUS
10
177.503
20
-137.444
11
177.408
21
-137.54
0
LINE
8
BLACK
6
CONTINUOUS
10
177.408
20
-137.54
11
177.217
21
-137.635
0
LINE
8
BLACK
6
CONTINUOUS
10
177.217
20
-137.635
11
176.741
21
-137.635
0
LINE
8
BLACK
6
CONTINUOUS
10
176.741
20
-137.635
11
176.55
21
-137.54
0
LINE
8
BLACK
6
CONTINUOUS
10
176.55
20
-137.54
11
176.455
21
-137.444
0
LINE
8
BLACK
6
CONTINUOUS
10
179.312
20
-136.301
11
179.312
21
-137.635
0
LINE
8
BLACK
6
CONTINUOUS
10
178.836
20
-135.54
11
178.36
21
-136.968
0
LINE
8
BLACK
6
CONTINUOUS
10
178.36
20
-136.968
11
179.598
21
-136.968
0
LINE
8
BLACK
6
CONTINUOUS
10
180.265
20
-135.635
11
180.265
21
-136.016
0
LINE
8
BLACK
6
CONTINUOUS
10
181.027
20
-135.635
11
181.027
21
-136.016
0
LINE
8
BLACK
6
CONTINUOUS
10
183.979
20
-138.397
11
183.884
21
-138.301
0
LINE
8
BLACK
6
CONTINUOUS
10
183.884
20
-138.301
11
183.693
21
-138.016
0
LINE
8
BLACK
6
CONTINUOUS
10
183.693
20
-138.016
11
183.598
21
-137.825
0
LINE
8
BLACK
6
CONTINUOUS
10
183.598
20
-137.825
11
183.503
21
-137.54
0
LINE
8
BLACK
6
CONTINUOUS
10
183.503
20
-137.54
11
183.408
21
-137.063
0
LINE
8
BLACK
6
CONTINUOUS
10
183.408
20
-137.063
11
183.408
21
-136.682
0
LINE
8
BLACK
6
CONTINUOUS
10
183.408
20
-136.682
11
183.503
21
-136.206
0
LINE
8
BLACK
6
CONTINUOUS
10
183.503
20
-136.206
11
183.598
21
-135.92
0
LINE
8
BLACK
6
CONTINUOUS
10
183.598
20
-135.92
11
183.693
21
-135.73
0
LINE
8
BLACK
6
CONTINUOUS
10
183.693
20
-135.73
11
183.884
21
-135.444
0
LINE
8
BLACK
6
CONTINUOUS
10
183.884
20
-135.444
11
183.979
21
-135.349
0
LINE
8
BLACK
6
CONTINUOUS
10
185.598
20
-136.301
11
185.598
21
-137.635
0
LINE
8
BLACK
6
CONTINUOUS
10
185.122
20
-135.54
11
184.646
21
-136.968
0
LINE
8
BLACK
6
CONTINUOUS
10
184.646
20
-136.968
11
185.884
21
-136.968
0
LINE
8
BLACK
6
CONTINUOUS
10
188.17
20
-137.635
11
188.17
21
-135.635
0
LINE
8
BLACK
6
CONTINUOUS
10
189.027
20
-137.635
11
189.027
21
-136.587
0
LINE
8
BLACK
6
CONTINUOUS
10
189.027
20
-136.587
11
188.931
21
-136.397
0
LINE
8
BLACK
6
CONTINUOUS
10
188.931
20
-136.397
11
188.741
21
-136.301
0
LINE
8
BLACK
6
CONTINUOUS
10
188.741
20
-136.301
11
188.455
21
-136.301
0
LINE
8
BLACK
6
CONTINUOUS
10
188.455
20
-136.301
11
188.265
21
-136.397
0
LINE
8
BLACK
6
CONTINUOUS
10
188.265
20
-136.397
11
188.17
21
-136.492
0
LINE
8
BLACK
6
CONTINUOUS
10
190.265
20
-137.635
11
190.074
21
-137.54
0
LINE
8
BLACK
6
CONTINUOUS
10
190.074
20
-137.54
11
189.979
21
-137.444
0
LINE
8
BLACK
6
CONTINUOUS
10
189.979
20
-137.444
11
189.884
21
-137.254
0
LINE
8
BLACK
6
CONTINUOUS
10
189.884
20
-137.254
11
189.884
21
-136.682
0
LINE
8
BLACK
6
CONTINUOUS
10
189.884
20
-136.682
11
189.979
21
-136.492
0
LINE
8
BLACK
6
CONTINUOUS
10
189.979
20
-136.492
11
190.074
21
-136.397
0
LINE
8
BLACK
6
CONTINUOUS
10
190.074
20
-136.397
11
190.265
21
-136.301
0
LINE
8
BLACK
6
CONTINUOUS
10
190.265
20
-136.301
11
190.55
21
-136.301
0
LINE
8
BLACK
6
CONTINUOUS
10
190.55
20
-136.301
11
190.741
21
-136.397
0
LINE
8
BLACK
6
CONTINUOUS
10
190.741
20
-136.397
11
190.836
21
-136.492
0
LINE
8
BLACK
6
CONTINUOUS
10
190.836
20
-136.492
11
190.931
21
-136.682
0
LINE
8
BLACK
6
CONTINUOUS
10
190.931
20
-136.682
11
190.931
21
-137.254
0
LINE
8
BLACK
6
CONTINUOUS
10
190.931
20
-137.254
11
190.836
21
-137.444
0
LINE
8
BLACK
6
CONTINUOUS
10
190.836
20
-137.444
11
190.741
21
-137.54
0
LINE
8
BLACK
6
CONTINUOUS
10
190.741
20
-137.54
11
190.55
21
-137.635
0
LINE
8
BLACK
6
CONTINUOUS
10
190.55
20
-137.635
11
190.265
21
-137.635
0
LINE
8
BLACK
6
CONTINUOUS
10
192.074
20
-137.635
11
191.884
21
-137.54
0
LINE
8
BLACK
6
CONTINUOUS
10
191.884
20
-137.54
11
191.789
21
-137.349
0
LINE
8
BLACK
6
CONTINUOUS
10
191.789
20
-137.349
11
191.789
21
-135.635
0
LINE
8
BLACK
6
CONTINUOUS
10
193.598
20
-137.54
11
193.408
21
-137.635
0
LINE
8
BLACK
6
CONTINUOUS
10
193.408
20
-137.635
11
193.027
21
-137.635
0
LINE
8
BLACK
6
CONTINUOUS
10
193.027
20
-137.635
11
192.836
21
-137.54
0
LINE
8
BLACK
6
CONTINUOUS
10
192.836
20
-137.54
11
192.741
21
-137.349
0
LINE
8
BLACK
6
CONTINUOUS
10
192.741
20
-137.349
11
192.741
21
-136.587
0
LINE
8
BLACK
6
CONTINUOUS
10
192.741
20
-136.587
11
192.836
21
-136.397
0
LINE
8
BLACK
6
CONTINUOUS
10
192.836
20
-136.397
11
193.027
21
-136.301
0
LINE
8
BLACK
6
CONTINUOUS
10
193.027
20
-136.301
11
193.408
21
-136.301
0
LINE
8
BLACK
6
CONTINUOUS
10
193.408
20
-136.301
11
193.598
21
-136.397
0
LINE
8
BLACK
6
CONTINUOUS
10
193.598
20
-136.397
11
193.693
21
-136.587
0
LINE
8
BLACK
6
CONTINUOUS
10
193.693
20
-136.587
11
193.693
21
-136.778
0
LINE
8
BLACK
6
CONTINUOUS
10
193.693
20
-136.778
11
192.741
21
-136.968
0
LINE
8
BLACK
6
CONTINUOUS
10
194.455
20
-137.54
11
194.646
21
-137.635
0
LINE
8
BLACK
6
CONTINUOUS
10
194.646
20
-137.635
11
195.027
21
-137.635
0
LINE
8
BLACK
6
CONTINUOUS
10
195.027
20
-137.635
11
195.217
21
-137.54
0
LINE
8
BLACK
6
CONTINUOUS
10
195.217
20
-137.54
11
195.312
21
-137.349
0
LINE
8
BLACK
6
CONTINUOUS
10
195.312
20
-137.349
11
195.312
21
-137.254
0
LINE
8
BLACK
6
CONTINUOUS
10
195.312
20
-137.254
11
195.217
21
-137.063
0
LINE
8
BLACK
6
CONTINUOUS
10
195.217
20
-137.063
11
195.027
21
-136.968
0
LINE
8
BLACK
6
CONTINUOUS
10
195.027
20
-136.968
11
194.741
21
-136.968
0
LINE
8
BLACK
6
CONTINUOUS
10
194.741
20
-136.968
11
194.55
21
-136.873
0
LINE
8
BLACK
6
CONTINUOUS
10
194.55
20
-136.873
11
194.455
21
-136.682
0
LINE
8
BLACK
6
CONTINUOUS
10
194.455
20
-136.682
11
194.455
21
-136.587
0
LINE
8
BLACK
6
CONTINUOUS
10
194.455
20
-136.587
11
194.55
21
-136.397
0
LINE
8
BLACK
6
CONTINUOUS
10
194.55
20
-136.397
11
194.741
21
-136.301
0
LINE
8
BLACK
6
CONTINUOUS
10
194.741
20
-136.301
11
195.027
21
-136.301
0
LINE
8
BLACK
6
CONTINUOUS
10
195.027
20
-136.301
11
195.217
21
-136.397
0
LINE
8
BLACK
6
CONTINUOUS
10
195.979
20
-138.397
11
196.074
21
-138.301
0
LINE
8
BLACK
6
CONTINUOUS
10
196.074
20
-138.301
11
196.265
21
-138.016
0
LINE
8
BLACK
6
CONTINUOUS
10
196.265
20
-138.016
11
196.36
21
-137.825
0
LINE
8
BLACK
6
CONTINUOUS
10
196.36
20
-137.825
11
196.455
21
-137.54
0
LINE
8
BLACK
6
CONTINUOUS
10
196.455
20
-137.54
11
196.55
21
-137.063
0
LINE
8
BLACK
6
CONTINUOUS
10
196.55
20
-137.063
11
196.55
21
-136.682
0
LINE
8
BLACK
6
CONTINUOUS
10
196.55
20
-136.682
11
196.455
21
-136.206
0
LINE
8
BLACK
6
CONTINUOUS
10
196.455
20
-136.206
11
196.36
21
-135.92
0
LINE
8
BLACK
6
CONTINUOUS
10
196.36
20
-135.92
11
196.265
21
-135.73
0
LINE
8
BLACK
6
CONTINUOUS
10
196.265
20
-135.73
11
196.074
21
-135.444
0
LINE
8
BLACK
6
CONTINUOUS
10
196.074
20
-135.444
11
195.979
21
-135.349
0
LINE
8
BLACK
6
CONTINUOUS
10
148.114
20
-139.724
11
148.114
21
-139.016
0
LINE
8
BLACK
6
CONTINUOUS
10
148.114
20
-139.016
11
147.406
21
-139.016
0
LINE
8
BLACK
6
CONTINUOUS
10
147.406
20
-139.016
11
147.406
21
-139.724
0
LINE
8
BLACK
6
CONTINUOUS
10
147.406
20
-139.724
11
148.114
21
-139.724
0
LINE
8
BLACK
6
CONTINUOUS
10
151.884
20
-140.275
11
150.741
21
-140.275
0
LINE
8
BLACK
6
CONTINUOUS
10
151.312
20
-140.275
11
151.312
21
-138.275
0
LINE
8
BLACK
6
CONTINUOUS
10
151.312
20
-138.275
11
151.122
21
-138.56
0
LINE
8
BLACK
6
CONTINUOUS
10
151.122
20
-138.56
11
150.931
21
-138.751
0
LINE
8
BLACK
6
CONTINUOUS
10
150.931
20
-138.751
11
150.741
21
-138.846
0
LINE
8
BLACK
6
CONTINUOUS
10
152.741
20
-140.084
11
152.836
21
-140.18
0
LINE
8
BLACK
6
CONTINUOUS
10
152.836
20
-140.18
11
152.741
21
-140.275
0
LINE
8
BLACK
6
CONTINUOUS
10
152.741
20
-140.275
11
152.646
21
-140.18
0
LINE
8
BLACK
6
CONTINUOUS
10
152.646
20
-140.18
11
152.741
21
-140.084
0
LINE
8
BLACK
6
CONTINUOUS
10
152.741
20
-140.084
11
152.741
21
-140.275
0
LINE
8
BLACK
6
CONTINUOUS
10
154.074
20
-138.275
11
154.265
21
-138.275
0
LINE
8
BLACK
6
CONTINUOUS
10
154.265
20
-138.275
11
154.455
21
-138.37
0
LINE
8
BLACK
6
CONTINUOUS
10
154.455
20
-138.37
11
154.55
21
-138.465
0
LINE
8
BLACK
6
CONTINUOUS
10
154.55
20
-138.465
11
154.646
21
-138.656
0
LINE
8
BLACK
6
CONTINUOUS
10
154.646
20
-138.656
11
154.741
21
-139.037
0
LINE
8
BLACK
6
CONTINUOUS
10
154.741
20
-139.037
11
154.741
21
-139.513
0
LINE
8
BLACK
6
CONTINUOUS
10
154.741
20
-139.513
11
154.646
21
-139.894
0
LINE
8
BLACK
6
CONTINUOUS
10
154.646
20
-139.894
11
154.55
21
-140.084
0
LINE
8
BLACK
6
CONTINUOUS
10
154.55
20
-140.084
11
154.455
21
-140.18
0
LINE
8
BLACK
6
CONTINUOUS
10
154.455
20
-140.18
11
154.265
21
-140.275
0
LINE
8
BLACK
6
CONTINUOUS
10
154.265
20
-140.275
11
154.074
21
-140.275
0
LINE
8
BLACK
6
CONTINUOUS
10
154.074
20
-140.275
11
153.884
21
-140.18
0
LINE
8
BLACK
6
CONTINUOUS
10
153.884
20
-140.18
11
153.789
21
-140.084
0
LINE
8
BLACK
6
CONTINUOUS
10
153.789
20
-140.084
11
153.693
21
-139.894
0
LINE
8
BLACK
6
CONTINUOUS
10
153.693
20
-139.894
11
153.598
21
-139.513
0
LINE
8
BLACK
6
CONTINUOUS
10
153.598
20
-139.513
11
153.598
21
-139.037
0
LINE
8
BLACK
6
CONTINUOUS
10
153.598
20
-139.037
11
153.693
21
-138.656
0
LINE
8
BLACK
6
CONTINUOUS
10
153.693
20
-138.656
11
153.789
21
-138.465
0
LINE
8
BLACK
6
CONTINUOUS
10
153.789
20
-138.465
11
153.884
21
-138.37
0
LINE
8
BLACK
6
CONTINUOUS
10
153.884
20
-138.37
11
154.074
21
-138.275
0
LINE
8
BLACK
6
CONTINUOUS
10
155.979
20
-138.275
11
156.17
21
-138.275
0
LINE
8
BLACK
6
CONTINUOUS
10
156.17
20
-138.275
11
156.36
21
-138.37
0
LINE
8
BLACK
6
CONTINUOUS
10
156.36
20
-138.37
11
156.455
21
-138.465
0
LINE
8
BLACK
6
CONTINUOUS
10
156.455
20
-138.465
11
156.55
21
-138.656
0
LINE
8
BLACK
6
CONTINUOUS
10
156.55
20
-138.656
11
156.646
21
-139.037
0
LINE
8
BLACK
6
CONTINUOUS
10
156.646
20
-139.037
11
156.646
21
-139.513
0
LINE
8
BLACK
6
CONTINUOUS
10
156.646
20
-139.513
11
156.55
21
-139.894
0
LINE
8
BLACK
6
CONTINUOUS
10
156.55
20
-139.894
11
156.455
21
-140.084
0
LINE
8
BLACK
6
CONTINUOUS
10
156.455
20
-140.084
11
156.36
21
-140.18
0
LINE
8
BLACK
6
CONTINUOUS
10
156.36
20
-140.18
11
156.17
21
-140.275
0
LINE
8
BLACK
6
CONTINUOUS
10
156.17
20
-140.275
11
155.979
21
-140.275
0
LINE
8
BLACK
6
CONTINUOUS
10
155.979
20
-140.275
11
155.789
21
-140.18
0
LINE
8
BLACK
6
CONTINUOUS
10
155.789
20
-140.18
11
155.693
21
-140.084
0
LINE
8
BLACK
6
CONTINUOUS
10
155.693
20
-140.084
11
155.598
21
-139.894
0
LINE
8
BLACK
6
CONTINUOUS
10
155.598
20
-139.894
11
155.503
21
-139.513
0
LINE
8
BLACK
6
CONTINUOUS
10
155.503
20
-139.513
11
155.503
21
-139.037
0
LINE
8
BLACK
6
CONTINUOUS
10
155.503
20
-139.037
11
155.598
21
-138.656
0
LINE
8
BLACK
6
CONTINUOUS
10
155.598
20
-138.656
11
155.693
21
-138.465
0
LINE
8
BLACK
6
CONTINUOUS
10
155.693
20
-138.465
11
155.789
21
-138.37
0
LINE
8
BLACK
6
CONTINUOUS
10
155.789
20
-138.37
11
155.979
21
-138.275
0
LINE
8
BLACK
6
CONTINUOUS
10
157.884
20
-138.275
11
158.074
21
-138.275
0
LINE
8
BLACK
6
CONTINUOUS
10
158.074
20
-138.275
11
158.265
21
-138.37
0
LINE
8
BLACK
6
CONTINUOUS
10
158.265
20
-138.37
11
158.36
21
-138.465
0
LINE
8
BLACK
6
CONTINUOUS
10
158.36
20
-138.465
11
158.455
21
-138.656
0
LINE
8
BLACK
6
CONTINUOUS
10
158.455
20
-138.656
11
158.55
21
-139.037
0
LINE
8
BLACK
6
CONTINUOUS
10
158.55
20
-139.037
11
158.55
21
-139.513
0
LINE
8
BLACK
6
CONTINUOUS
10
158.55
20
-139.513
11
158.455
21
-139.894
0
LINE
8
BLACK
6
CONTINUOUS
10
158.455
20
-139.894
11
158.36
21
-140.084
0
LINE
8
BLACK
6
CONTINUOUS
10
158.36
20
-140.084
11
158.265
21
-140.18
0
LINE
8
BLACK
6
CONTINUOUS
10
158.265
20
-140.18
11
158.074
21
-140.275
0
LINE
8
BLACK
6
CONTINUOUS
10
158.074
20
-140.275
11
157.884
21
-140.275
0
LINE
8
BLACK
6
CONTINUOUS
10
157.884
20
-140.275
11
157.693
21
-140.18
0
LINE
8
BLACK
6
CONTINUOUS
10
157.693
20
-140.18
11
157.598
21
-140.084
0
LINE
8
BLACK
6
CONTINUOUS
10
157.598
20
-140.084
11
157.503
21
-139.894
0
LINE
8
BLACK
6
CONTINUOUS
10
157.503
20
-139.894
11
157.408
21
-139.513
0
LINE
8
BLACK
6
CONTINUOUS
10
157.408
20
-139.513
11
157.408
21
-139.037
0
LINE
8
BLACK
6
CONTINUOUS
10
157.408
20
-139.037
11
157.503
21
-138.656
0
LINE
8
BLACK
6
CONTINUOUS
10
157.503
20
-138.656
11
157.598
21
-138.465
0
LINE
8
BLACK
6
CONTINUOUS
10
157.598
20
-138.465
11
157.693
21
-138.37
0
LINE
8
BLACK
6
CONTINUOUS
10
157.693
20
-138.37
11
157.884
21
-138.275
0
LINE
8
BLACK
6
CONTINUOUS
10
159.408
20
-140.275
11
159.408
21
-138.941
0
LINE
8
BLACK
6
CONTINUOUS
10
159.408
20
-139.132
11
159.503
21
-139.037
0
LINE
8
BLACK
6
CONTINUOUS
10
159.503
20
-139.037
11
159.693
21
-138.941
0
LINE
8
BLACK
6
CONTINUOUS
10
159.693
20
-138.941
11
159.979
21
-138.941
0
LINE
8
BLACK
6
CONTINUOUS
10
159.979
20
-138.941
11
160.17
21
-139.037
0
LINE
8
BLACK
6
CONTINUOUS
10
160.17
20
-139.037
11
160.265
21
-139.227
0
LINE
8
BLACK
6
CONTINUOUS
10
160.265
20
-139.227
11
160.265
21
-140.275
0
LINE
8
BLACK
6
CONTINUOUS
10
160.265
20
-139.227
11
160.36
21
-139.037
0
LINE
8
BLACK
6
CONTINUOUS
10
160.36
20
-139.037
11
160.55
21
-138.941
0
LINE
8
BLACK
6
CONTINUOUS
10
160.55
20
-138.941
11
160.836
21
-138.941
0
LINE
8
BLACK
6
CONTINUOUS
10
160.836
20
-138.941
11
161.027
21
-139.037
0
LINE
8
BLACK
6
CONTINUOUS
10
161.027
20
-139.037
11
161.122
21
-139.227
0
LINE
8
BLACK
6
CONTINUOUS
10
161.122
20
-139.227
11
161.122
21
-140.275
0
LINE
8
BLACK
6
CONTINUOUS
10
162.074
20
-140.275
11
162.074
21
-138.941
0
LINE
8
BLACK
6
CONTINUOUS
10
162.074
20
-139.132
11
162.17
21
-139.037
0
LINE
8
BLACK
6
CONTINUOUS
10
162.17
20
-139.037
11
162.36
21
-138.941
0
LINE
8
BLACK
6
CONTINUOUS
10
162.36
20
-138.941
11
162.646
21
-138.941
0
LINE
8
BLACK
6
CONTINUOUS
10
162.646
20
-138.941
11
162.836
21
-139.037
0
LINE
8
BLACK
6
CONTINUOUS
10
162.836
20
-139.037
11
162.931
21
-139.227
0
LINE
8
BLACK
6
CONTINUOUS
10
162.931
20
-139.227
11
162.931
21
-140.275
0
LINE
8
BLACK
6
CONTINUOUS
10
162.931
20
-139.227
11
163.027
21
-139.037
0
LINE
8
BLACK
6
CONTINUOUS
10
163.027
20
-139.037
11
163.217
21
-138.941
0
LINE
8
BLACK
6
CONTINUOUS
10
163.217
20
-138.941
11
163.503
21
-138.941
0
LINE
8
BLACK
6
CONTINUOUS
10
163.503
20
-138.941
11
163.693
21
-139.037
0
LINE
8
BLACK
6
CONTINUOUS
10
163.693
20
-139.037
11
163.789
21
-139.227
0
LINE
8
BLACK
6
CONTINUOUS
10
163.789
20
-139.227
11
163.789
21
-140.275
0
LINE
8
BLACK
6
CONTINUOUS
10
167.693
20
-138.18
11
165.979
21
-140.751
0
LINE
8
BLACK
6
CONTINUOUS
10
170.265
20
-138.275
11
170.455
21
-138.275
0
LINE
8
BLACK
6
CONTINUOUS
10
170.455
20
-138.275
11
170.646
21
-138.37
0
LINE
8
BLACK
6
CONTINUOUS
10
170.646
20
-138.37
11
170.741
21
-138.465
0
LINE
8
BLACK
6
CONTINUOUS
10
170.741
20
-138.465
11
170.836
21
-138.656
0
LINE
8
BLACK
6
CONTINUOUS
10
170.836
20
-138.656
11
170.931
21
-139.037
0
LINE
8
BLACK
6
CONTINUOUS
10
170.931
20
-139.037
11
170.931
21
-139.513
0
LINE
8
BLACK
6
CONTINUOUS
10
170.931
20
-139.513
11
170.836
21
-139.894
0
LINE
8
BLACK
6
CONTINUOUS
10
170.836
20
-139.894
11
170.741
21
-140.084
0
LINE
8
BLACK
6
CONTINUOUS
10
170.741
20
-140.084
11
170.646
21
-140.18
0
LINE
8
BLACK
6
CONTINUOUS
10
170.646
20
-140.18
11
170.455
21
-140.275
0
LINE
8
BLACK
6
CONTINUOUS
10
170.455
20
-140.275
11
170.265
21
-140.275
0
LINE
8
BLACK
6
CONTINUOUS
10
170.265
20
-140.275
11
170.074
21
-140.18
0
LINE
8
BLACK
6
CONTINUOUS
10
170.074
20
-140.18
11
169.979
21
-140.084
0
LINE
8
BLACK
6
CONTINUOUS
10
169.979
20
-140.084
11
169.884
21
-139.894
0
LINE
8
BLACK
6
CONTINUOUS
10
169.884
20
-139.894
11
169.789
21
-139.513
0
LINE
8
BLACK
6
CONTINUOUS
10
169.789
20
-139.513
11
169.789
21
-139.037
0
LINE
8
BLACK
6
CONTINUOUS
10
169.789
20
-139.037
11
169.884
21
-138.656
0
LINE
8
BLACK
6
CONTINUOUS
10
169.884
20
-138.656
11
169.979
21
-138.465
0
LINE
8
BLACK
6
CONTINUOUS
10
169.979
20
-138.465
11
170.074
21
-138.37
0
LINE
8
BLACK
6
CONTINUOUS
10
170.074
20
-138.37
11
170.265
21
-138.275
0
LINE
8
BLACK
6
CONTINUOUS
10
171.789
20
-140.084
11
171.884
21
-140.18
0
LINE
8
BLACK
6
CONTINUOUS
10
171.884
20
-140.18
11
171.789
21
-140.275
0
LINE
8
BLACK
6
CONTINUOUS
10
171.789
20
-140.275
11
171.693
21
-140.18
0
LINE
8
BLACK
6
CONTINUOUS
10
171.693
20
-140.18
11
171.789
21
-140.084
0
LINE
8
BLACK
6
CONTINUOUS
10
171.789
20
-140.084
11
171.789
21
-140.275
0
LINE
8
BLACK
6
CONTINUOUS
10
173.122
20
-138.275
11
173.312
21
-138.275
0
LINE
8
BLACK
6
CONTINUOUS
10
173.312
20
-138.275
11
173.503
21
-138.37
0
LINE
8
BLACK
6
CONTINUOUS
10
173.503
20
-138.37
11
173.598
21
-138.465
0
LINE
8
BLACK
6
CONTINUOUS
10
173.598
20
-138.465
11
173.693
21
-138.656
0
LINE
8
BLACK
6
CONTINUOUS
10
173.693
20
-138.656
11
173.789
21
-139.037
0
LINE
8
BLACK
6
CONTINUOUS
10
173.789
20
-139.037
11
173.789
21
-139.513
0
LINE
8
BLACK
6
CONTINUOUS
10
173.789
20
-139.513
11
173.693
21
-139.894
0
LINE
8
BLACK
6
CONTINUOUS
10
173.693
20
-139.894
11
173.598
21
-140.084
0
LINE
8
BLACK
6
CONTINUOUS
10
173.598
20
-140.084
11
173.503
21
-140.18
0
LINE
8
BLACK
6
CONTINUOUS
10
173.503
20
-140.18
11
173.312
21
-140.275
0
LINE
8
BLACK
6
CONTINUOUS
10
173.312
20
-140.275
11
173.122
21
-140.275
0
LINE
8
BLACK
6
CONTINUOUS
10
173.122
20
-140.275
11
172.931
21
-140.18
0
LINE
8
BLACK
6
CONTINUOUS
10
172.931
20
-140.18
11
172.836
21
-140.084
0
LINE
8
BLACK
6
CONTINUOUS
10
172.836
20
-140.084
11
172.741
21
-139.894
0
LINE
8
BLACK
6
CONTINUOUS
10
172.741
20
-139.894
11
172.646
21
-139.513
0
LINE
8
BLACK
6
CONTINUOUS
10
172.646
20
-139.513
11
172.646
21
-139.037
0
LINE
8
BLACK
6
CONTINUOUS
10
172.646
20
-139.037
11
172.741
21
-138.656
0
LINE
8
BLACK
6
CONTINUOUS
10
172.741
20
-138.656
11
172.836
21
-138.465
0
LINE
8
BLACK
6
CONTINUOUS
10
172.836
20
-138.465
11
172.931
21
-138.37
0
LINE
8
BLACK
6
CONTINUOUS
10
172.931
20
-138.37
11
173.122
21
-138.275
0
LINE
8
BLACK
6
CONTINUOUS
10
174.455
20
-138.275
11
175.693
21
-138.275
0
LINE
8
BLACK
6
CONTINUOUS
10
175.693
20
-138.275
11
175.027
21
-139.037
0
LINE
8
BLACK
6
CONTINUOUS
10
175.027
20
-139.037
11
175.312
21
-139.037
0
LINE
8
BLACK
6
CONTINUOUS
10
175.312
20
-139.037
11
175.503
21
-139.132
0
LINE
8
BLACK
6
CONTINUOUS
10
175.503
20
-139.132
11
175.598
21
-139.227
0
LINE
8
BLACK
6
CONTINUOUS
10
175.598
20
-139.227
11
175.693
21
-139.418
0
LINE
8
BLACK
6
CONTINUOUS
10
175.693
20
-139.418
11
175.693
21
-139.894
0
LINE
8
BLACK
6
CONTINUOUS
10
175.693
20
-139.894
11
175.598
21
-140.084
0
LINE
8
BLACK
6
CONTINUOUS
10
175.598
20
-140.084
11
175.503
21
-140.18
0
LINE
8
BLACK
6
CONTINUOUS
10
175.503
20
-140.18
11
175.312
21
-140.275
0
LINE
8
BLACK
6
CONTINUOUS
10
175.312
20
-140.275
11
174.741
21
-140.275
0
LINE
8
BLACK
6
CONTINUOUS
10
174.741
20
-140.275
11
174.55
21
-140.18
0
LINE
8
BLACK
6
CONTINUOUS
10
174.55
20
-140.18
11
174.455
21
-140.084
0
LINE
8
BLACK
6
CONTINUOUS
10
176.646
20
-140.275
11
177.027
21
-140.275
0
LINE
8
BLACK
6
CONTINUOUS
10
177.027
20
-140.275
11
177.217
21
-140.18
0
LINE
8
BLACK
6
CONTINUOUS
10
177.217
20
-140.18
11
177.312
21
-140.084
0
LINE
8
BLACK
6
CONTINUOUS
10
177.312
20
-140.084
11
177.503
21
-139.799
0
LINE
8
BLACK
6
CONTINUOUS
10
177.503
20
-139.799
11
177.598
21
-139.418
0
LINE
8
BLACK
6
CONTINUOUS
10
177.598
20
-139.418
11
177.598
21
-138.656
0
LINE
8
BLACK
6
CONTINUOUS
10
177.598
20
-138.656
11
177.503
21
-138.465
0
LINE
8
BLACK
6
CONTINUOUS
10
177.503
20
-138.465
11
177.408
21
-138.37
0
LINE
8
BLACK
6
CONTINUOUS
10
177.408
20
-138.37
11
177.217
21
-138.275
0
LINE
8
BLACK
6
CONTINUOUS
10
177.217
20
-138.275
11
176.836
21
-138.275
0
LINE
8
BLACK
6
CONTINUOUS
10
176.836
20
-138.275
11
176.646
21
-138.37
0
LINE
8
BLACK
6
CONTINUOUS
10
176.646
20
-138.37
11
176.55
21
-138.465
0
LINE
8
BLACK
6
CONTINUOUS
10
176.55
20
-138.465
11
176.455
21
-138.656
0
LINE
8
BLACK
6
CONTINUOUS
10
176.455
20
-138.656
11
176.455
21
-139.132
0
LINE
8
BLACK
6
CONTINUOUS
10
176.455
20
-139.132
11
176.55
21
-139.322
0
LINE
8
BLACK
6
CONTINUOUS
10
176.55
20
-139.322
11
176.646
21
-139.418
0
LINE
8
BLACK
6
CONTINUOUS
10
176.646
20
-139.418
11
176.836
21
-139.513
0
LINE
8
BLACK
6
CONTINUOUS
10
176.836
20
-139.513
11
177.217
21
-139.513
0
LINE
8
BLACK
6
CONTINUOUS
10
177.217
20
-139.513
11
177.408
21
-139.418
0
LINE
8
BLACK
6
CONTINUOUS
10
177.408
20
-139.418
11
177.503
21
-139.322
0
LINE
8
BLACK
6
CONTINUOUS
10
177.503
20
-139.322
11
177.598
21
-139.132
0
LINE
8
BLACK
6
CONTINUOUS
10
179.312
20
-138.941
11
179.312
21
-140.275
0
LINE
8
BLACK
6
CONTINUOUS
10
178.836
20
-138.18
11
178.36
21
-139.608
0
LINE
8
BLACK
6
CONTINUOUS
10
178.36
20
-139.608
11
179.598
21
-139.608
0
LINE
8
BLACK
6
CONTINUOUS
10
180.265
20
-138.275
11
180.265
21
-138.656
0
LINE
8
BLACK
6
CONTINUOUS
10
181.027
20
-138.275
11
181.027
21
-138.656
0
LINE
8
BLACK
6
CONTINUOUS
10
183.979
20
-141.037
11
183.884
21
-140.941
0
LINE
8
BLACK
6
CONTINUOUS
10
183.884
20
-140.941
11
183.693
21
-140.656
0
LINE
8
BLACK
6
CONTINUOUS
10
183.693
20
-140.656
11
183.598
21
-140.465
0
LINE
8
BLACK
6
CONTINUOUS
10
183.598
20
-140.465
11
183.503
21
-140.18
0
LINE
8
BLACK
6
CONTINUOUS
10
183.503
20
-140.18
11
183.408
21
-139.703
0
LINE
8
BLACK
6
CONTINUOUS
10
183.408
20
-139.703
11
183.408
21
-139.322
0
LINE
8
BLACK
6
CONTINUOUS
10
183.408
20
-139.322
11
183.503
21
-138.846
0
LINE
8
BLACK
6
CONTINUOUS
10
183.503
20
-138.846
11
183.598
21
-138.56
0
LINE
8
BLACK
6
CONTINUOUS
10
183.598
20
-138.56
11
183.693
21
-138.37
0
LINE
8
BLACK
6
CONTINUOUS
10
183.693
20
-138.37
11
183.884
21
-138.084
0
LINE
8
BLACK
6
CONTINUOUS
10
183.884
20
-138.084
11
183.979
21
-137.989
0
LINE
8
BLACK
6
CONTINUOUS
10
184.55
20
-138.275
11
185.884
21
-138.275
0
LINE
8
BLACK
6
CONTINUOUS
10
185.884
20
-138.275
11
185.027
21
-140.275
0
LINE
8
BLACK
6
CONTINUOUS
10
187.027
20
-138.275
11
187.217
21
-138.275
0
LINE
8
BLACK
6
CONTINUOUS
10
187.217
20
-138.275
11
187.408
21
-138.37
0
LINE
8
BLACK
6
CONTINUOUS
10
187.408
20
-138.37
11
187.503
21
-138.465
0
LINE
8
BLACK
6
CONTINUOUS
10
187.503
20
-138.465
11
187.598
21
-138.656
0
LINE
8
BLACK
6
CONTINUOUS
10
187.598
20
-138.656
11
187.693
21
-139.037
0
LINE
8
BLACK
6
CONTINUOUS
10
187.693
20
-139.037
11
187.693
21
-139.513
0
LINE
8
BLACK
6
CONTINUOUS
10
187.693
20
-139.513
11
187.598
21
-139.894
0
LINE
8
BLACK
6
CONTINUOUS
10
187.598
20
-139.894
11
187.503
21
-140.084
0
LINE
8
BLACK
6
CONTINUOUS
10
187.503
20
-140.084
11
187.408
21
-140.18
0
LINE
8
BLACK
6
CONTINUOUS
10
187.408
20
-140.18
11
187.217
21
-140.275
0
LINE
8
BLACK
6
CONTINUOUS
10
187.217
20
-140.275
11
187.027
21
-140.275
0
LINE
8
BLACK
6
CONTINUOUS
10
187.027
20
-140.275
11
186.836
21
-140.18
0
LINE
8
BLACK
6
CONTINUOUS
10
186.836
20
-140.18
11
186.741
21
-140.084
0
LINE
8
BLACK
6
CONTINUOUS
10
186.741
20
-140.084
11
186.646
21
-139.894
0
LINE
8
BLACK
6
CONTINUOUS
10
186.646
20
-139.894
11
186.55
21
-139.513
0
LINE
8
BLACK
6
CONTINUOUS
10
186.55
20
-139.513
11
186.55
21
-139.037
0
LINE
8
BLACK
6
CONTINUOUS
10
186.55
20
-139.037
11
186.646
21
-138.656
0
LINE
8
BLACK
6
CONTINUOUS
10
186.646
20
-138.656
11
186.741
21
-138.465
0
LINE
8
BLACK
6
CONTINUOUS
10
186.741
20
-138.465
11
186.836
21
-138.37
0
LINE
8
BLACK
6
CONTINUOUS
10
186.836
20
-138.37
11
187.027
21
-138.275
0
LINE
8
BLACK
6
CONTINUOUS
10
190.074
20
-140.275
11
190.074
21
-138.275
0
LINE
8
BLACK
6
CONTINUOUS
10
190.931
20
-140.275
11
190.931
21
-139.227
0
LINE
8
BLACK
6
CONTINUOUS
10
190.931
20
-139.227
11
190.836
21
-139.037
0
LINE
8
BLACK
6
CONTINUOUS
10
190.836
20
-139.037
11
190.646
21
-138.941
0
LINE
8
BLACK
6
CONTINUOUS
10
190.646
20
-138.941
11
190.36
21
-138.941
0
LINE
8
BLACK
6
CONTINUOUS
10
190.36
20
-138.941
11
190.17
21
-139.037
0
LINE
8
BLACK
6
CONTINUOUS
10
190.17
20
-139.037
11
190.074
21
-139.132
0
LINE
8
BLACK
6
CONTINUOUS
10
192.17
20
-140.275
11
191.979
21
-140.18
0
LINE
8
BLACK
6
CONTINUOUS
10
191.979
20
-140.18
11
191.884
21
-140.084
0
LINE
8
BLACK
6
CONTINUOUS
10
191.884
20
-140.084
11
191.789
21
-139.894
0
LINE
8
BLACK
6
CONTINUOUS
10
191.789
20
-139.894
11
191.789
21
-139.322
0
LINE
8
BLACK
6
CONTINUOUS
10
191.789
20
-139.322
11
191.884
21
-139.132
0
LINE
8
BLACK
6
CONTINUOUS
10
191.884
20
-139.132
11
191.979
21
-139.037
0
LINE
8
BLACK
6
CONTINUOUS
10
191.979
20
-139.037
11
192.17
21
-138.941
0
LINE
8
BLACK
6
CONTINUOUS
10
192.17
20
-138.941
11
192.455
21
-138.941
0
LINE
8
BLACK
6
CONTINUOUS
10
192.455
20
-138.941
11
192.646
21
-139.037
0
LINE
8
BLACK
6
CONTINUOUS
10
192.646
20
-139.037
11
192.741
21
-139.132
0
LINE
8
BLACK
6
CONTINUOUS
10
192.741
20
-139.132
11
192.836
21
-139.322
0
LINE
8
BLACK
6
CONTINUOUS
10
192.836
20
-139.322
11
192.836
21
-139.894
0
LINE
8
BLACK
6
CONTINUOUS
10
192.836
20
-139.894
11
192.741
21
-140.084
0
LINE
8
BLACK
6
CONTINUOUS
10
192.741
20
-140.084
11
192.646
21
-140.18
0
LINE
8
BLACK
6
CONTINUOUS
10
192.646
20
-140.18
11
192.455
21
-140.275
0
LINE
8
BLACK
6
CONTINUOUS
10
192.455
20
-140.275
11
192.17
21
-140.275
0
LINE
8
BLACK
6
CONTINUOUS
10
193.979
20
-140.275
11
193.789
21
-140.18
0
LINE
8
BLACK
6
CONTINUOUS
10
193.789
20
-140.18
11
193.693
21
-139.989
0
LINE
8
BLACK
6
CONTINUOUS
10
193.693
20
-139.989
11
193.693
21
-138.275
0
LINE
8
BLACK
6
CONTINUOUS
10
195.503
20
-140.18
11
195.312
21
-140.275
0
LINE
8
BLACK
6
CONTINUOUS
10
195.312
20
-140.275
11
194.931
21
-140.275
0
LINE
8
BLACK
6
CONTINUOUS
10
194.931
20
-140.275
11
194.741
21
-140.18
0
LINE
8
BLACK
6
CONTINUOUS
10
194.741
20
-140.18
11
194.646
21
-139.989
0
LINE
8
BLACK
6
CONTINUOUS
10
194.646
20
-139.989
11
194.646
21
-139.227
0
LINE
8
BLACK
6
CONTINUOUS
10
194.646
20
-139.227
11
194.741
21
-139.037
0
LINE
8
BLACK
6
CONTINUOUS
10
194.741
20
-139.037
11
194.931
21
-138.941
0
LINE
8
BLACK
6
CONTINUOUS
10
194.931
20
-138.941
11
195.312
21
-138.941
0
LINE
8
BLACK
6
CONTINUOUS
10
195.312
20
-138.941
11
195.503
21
-139.037
0
LINE
8
BLACK
6
CONTINUOUS
10
195.503
20
-139.037
11
195.598
21
-139.227
0
LINE
8
BLACK
6
CONTINUOUS
10
195.598
20
-139.227
11
195.598
21
-139.418
0
LINE
8
BLACK
6
CONTINUOUS
10
195.598
20
-139.418
11
194.646
21
-139.608
0
LINE
8
BLACK
6
CONTINUOUS
10
196.36
20
-140.18
11
196.55
21
-140.275
0
LINE
8
BLACK
6
CONTINUOUS
10
196.55
20
-140.275
11
196.931
21
-140.275
0
LINE
8
BLACK
6
CONTINUOUS
10
196.931
20
-140.275
11
197.122
21
-140.18
0
LINE
8
BLACK
6
CONTINUOUS
10
197.122
20
-140.18
11
197.217
21
-139.989
0
LINE
8
BLACK
6
CONTINUOUS
10
197.217
20
-139.989
11
197.217
21
-139.894
0
LINE
8
BLACK
6
CONTINUOUS
10
197.217
20
-139.894
11
197.122
21
-139.703
0
LINE
8
BLACK
6
CONTINUOUS
10
197.122
20
-139.703
11
196.931
21
-139.608
0
LINE
8
BLACK
6
CONTINUOUS
10
196.931
20
-139.608
11
196.646
21
-139.608
0
LINE
8
BLACK
6
CONTINUOUS
10
196.646
20
-139.608
11
196.455
21
-139.513
0
LINE
8
BLACK
6
CONTINUOUS
10
196.455
20
-139.513
11
196.36
21
-139.322
0
LINE
8
BLACK
6
CONTINUOUS
10
196.36
20
-139.322
11
196.36
21
-139.227
0
LINE
8
BLACK
6
CONTINUOUS
10
196.36
20
-139.227
11
196.455
21
-139.037
0
LINE
8
BLACK
6
CONTINUOUS
10
196.455
20
-139.037
11
196.646
21
-138.941
0
LINE
8
BLACK
6
CONTINUOUS
10
196.646
20
-138.941
11
196.931
21
-138.941
0
LINE
8
BLACK
6
CONTINUOUS
10
196.931
20
-138.941
11
197.122
21
-139.037
0
LINE
8
BLACK
6
CONTINUOUS
10
199.598
20
-139.513
11
201.122
21
-139.513
0
LINE
8
BLACK
6
CONTINUOUS
10
200.36
20
-140.275
11
200.36
21
-138.751
0
LINE
8
BLACK
6
CONTINUOUS
10
203.408
20
-138.275
11
204.646
21
-138.275
0
LINE
8
BLACK
6
CONTINUOUS
10
204.646
20
-138.275
11
203.979
21
-139.037
0
LINE
8
BLACK
6
CONTINUOUS
10
203.979
20
-139.037
11
204.265
21
-139.037
0
LINE
8
BLACK
6
CONTINUOUS
10
204.265
20
-139.037
11
204.455
21
-139.132
0
LINE
8
BLACK
6
CONTINUOUS
10
204.455
20
-139.132
11
204.55
21
-139.227
0
LINE
8
BLACK
6
CONTINUOUS
10
204.55
20
-139.227
11
204.646
21
-139.418
0
LINE
8
BLACK
6
CONTINUOUS
10
204.646
20
-139.418
11
204.646
21
-139.894
0
LINE
8
BLACK
6
CONTINUOUS
10
204.646
20
-139.894
11
204.55
21
-140.084
0
LINE
8
BLACK
6
CONTINUOUS
10
204.55
20
-140.084
11
204.455
21
-140.18
0
LINE
8
BLACK
6
CONTINUOUS
10
204.455
20
-140.18
11
204.265
21
-140.275
0
LINE
8
BLACK
6
CONTINUOUS
10
204.265
20
-140.275
11
203.693
21
-140.275
0
LINE
8
BLACK
6
CONTINUOUS
10
203.693
20
-140.275
11
203.503
21
-140.18
0
LINE
8
BLACK
6
CONTINUOUS
10
203.503
20
-140.18
11
203.408
21
-140.084
0
LINE
8
BLACK
6
CONTINUOUS
10
206.931
20
-140.18
11
207.122
21
-140.275
0
LINE
8
BLACK
6
CONTINUOUS
10
207.122
20
-140.275
11
207.503
21
-140.275
0
LINE
8
BLACK
6
CONTINUOUS
10
207.503
20
-140.275
11
207.693
21
-140.18
0
LINE
8
BLACK
6
CONTINUOUS
10
207.693
20
-140.18
11
207.789
21
-139.989
0
LINE
8
BLACK
6
CONTINUOUS
10
207.789
20
-139.989
11
207.789
21
-139.894
0
LINE
8
BLACK
6
CONTINUOUS
10
207.789
20
-139.894
11
207.693
21
-139.703
0
LINE
8
BLACK
6
CONTINUOUS
10
207.693
20
-139.703
11
207.503
21
-139.608
0
LINE
8
BLACK
6
CONTINUOUS
10
207.503
20
-139.608
11
207.217
21
-139.608
0
LINE
8
BLACK
6
CONTINUOUS
10
207.217
20
-139.608
11
207.027
21
-139.513
0
LINE
8
BLACK
6
CONTINUOUS
10
207.027
20
-139.513
11
206.931
21
-139.322
0
LINE
8
BLACK
6
CONTINUOUS
10
206.931
20
-139.322
11
206.931
21
-139.227
0
LINE
8
BLACK
6
CONTINUOUS
10
206.931
20
-139.227
11
207.027
21
-139.037
0
LINE
8
BLACK
6
CONTINUOUS
10
207.027
20
-139.037
11
207.217
21
-138.941
0
LINE
8
BLACK
6
CONTINUOUS
10
207.217
20
-138.941
11
207.503
21
-138.941
0
LINE
8
BLACK
6
CONTINUOUS
10
207.503
20
-138.941
11
207.693
21
-139.037
0
LINE
8
BLACK
6
CONTINUOUS
10
208.931
20
-140.275
11
208.741
21
-140.18
0
LINE
8
BLACK
6
CONTINUOUS
10
208.741
20
-140.18
11
208.646
21
-139.989
0
LINE
8
BLACK
6
CONTINUOUS
10
208.646
20
-139.989
11
208.646
21
-138.275
0
LINE
8
BLACK
6
CONTINUOUS
10
209.979
20
-140.275
11
209.789
21
-140.18
0
LINE
8
BLACK
6
CONTINUOUS
10
209.789
20
-140.18
11
209.693
21
-140.084
0
LINE
8
BLACK
6
CONTINUOUS
10
209.693
20
-140.084
11
209.598
21
-139.894
0
LINE
8
BLACK
6
CONTINUOUS
10
209.598
20
-139.894
11
209.598
21
-139.322
0
LINE
8
BLACK
6
CONTINUOUS
10
209.598
20
-139.322
11
209.693
21
-139.132
0
LINE
8
BLACK
6
CONTINUOUS
10
209.693
20
-139.132
11
209.789
21
-139.037
0
LINE
8
BLACK
6
CONTINUOUS
10
209.789
20
-139.037
11
209.979
21
-138.941
0
LINE
8
BLACK
6
CONTINUOUS
10
209.979
20
-138.941
11
210.265
21
-138.941
0
LINE
8
BLACK
6
CONTINUOUS
10
210.265
20
-138.941
11
210.455
21
-139.037
0
LINE
8
BLACK
6
CONTINUOUS
10
210.455
20
-139.037
11
210.55
21
-139.132
0
LINE
8
BLACK
6
CONTINUOUS
10
210.55
20
-139.132
11
210.646
21
-139.322
0
LINE
8
BLACK
6
CONTINUOUS
10
210.646
20
-139.322
11
210.646
21
-139.894
0
LINE
8
BLACK
6
CONTINUOUS
10
210.646
20
-139.894
11
210.55
21
-140.084
0
LINE
8
BLACK
6
CONTINUOUS
10
210.55
20
-140.084
11
210.455
21
-140.18
0
LINE
8
BLACK
6
CONTINUOUS
10
210.455
20
-140.18
11
210.265
21
-140.275
0
LINE
8
BLACK
6
CONTINUOUS
10
210.265
20
-140.275
11
209.979
21
-140.275
0
LINE
8
BLACK
6
CONTINUOUS
10
211.217
20
-138.941
11
211.979
21
-138.941
0
LINE
8
BLACK
6
CONTINUOUS
10
211.503
20
-138.275
11
211.503
21
-139.989
0
LINE
8
BLACK
6
CONTINUOUS
10
211.503
20
-139.989
11
211.598
21
-140.18
0
LINE
8
BLACK
6
CONTINUOUS
10
211.598
20
-140.18
11
211.789
21
-140.275
0
LINE
8
BLACK
6
CONTINUOUS
10
211.789
20
-140.275
11
211.979
21
-140.275
0
LINE
8
BLACK
6
CONTINUOUS
10
212.55
20
-140.18
11
212.741
21
-140.275
0
LINE
8
BLACK
6
CONTINUOUS
10
212.741
20
-140.275
11
213.122
21
-140.275
0
LINE
8
BLACK
6
CONTINUOUS
10
213.122
20
-140.275
11
213.312
21
-140.18
0
LINE
8
BLACK
6
CONTINUOUS
10
213.312
20
-140.18
11
213.408
21
-139.989
0
LINE
8
BLACK
6
CONTINUOUS
10
213.408
20
-139.989
11
213.408
21
-139.894
0
LINE
8
BLACK
6
CONTINUOUS
10
213.408
20
-139.894
11
213.312
21
-139.703
0
LINE
8
BLACK
6
CONTINUOUS
10
213.312
20
-139.703
11
213.122
21
-139.608
0
LINE
8
BLACK
6
CONTINUOUS
10
213.122
20
-139.608
11
212.836
21
-139.608
0
LINE
8
BLACK
6
CONTINUOUS
10
212.836
20
-139.608
11
212.646
21
-139.513
0
LINE
8
BLACK
6
CONTINUOUS
10
212.646
20
-139.513
11
212.55
21
-139.322
0
LINE
8
BLACK
6
CONTINUOUS
10
212.55
20
-139.322
11
212.55
21
-139.227
0
LINE
8
BLACK
6
CONTINUOUS
10
212.55
20
-139.227
11
212.646
21
-139.037
0
LINE
8
BLACK
6
CONTINUOUS
10
212.646
20
-139.037
11
212.836
21
-138.941
0
LINE
8
BLACK
6
CONTINUOUS
10
212.836
20
-138.941
11
213.122
21
-138.941
0
LINE
8
BLACK
6
CONTINUOUS
10
213.122
20
-138.941
11
213.312
21
-139.037
0
LINE
8
BLACK
6
CONTINUOUS
10
214.074
20
-141.037
11
214.17
21
-140.941
0
LINE
8
BLACK
6
CONTINUOUS
10
214.17
20
-140.941
11
214.36
21
-140.656
0
LINE
8
BLACK
6
CONTINUOUS
10
214.36
20
-140.656
11
214.455
21
-140.465
0
LINE
8
BLACK
6
CONTINUOUS
10
214.455
20
-140.465
11
214.55
21
-140.18
0
LINE
8
BLACK
6
CONTINUOUS
10
214.55
20
-140.18
11
214.646
21
-139.703
0
LINE
8
BLACK
6
CONTINUOUS
10
214.646
20
-139.703
11
214.646
21
-139.322
0
LINE
8
BLACK
6
CONTINUOUS
10
214.646
20
-139.322
11
214.55
21
-138.846
0
LINE
8
BLACK
6
CONTINUOUS
10
214.55
20
-138.846
11
214.455
21
-138.56
0
LINE
8
BLACK
6
CONTINUOUS
10
214.455
20
-138.56
11
214.36
21
-138.37
0
LINE
8
BLACK
6
CONTINUOUS
10
214.36
20
-138.37
11
214.17
21
-138.084
0
LINE
8
BLACK
6
CONTINUOUS
10
214.17
20
-138.084
11
214.074
21
-137.989
0
LINE
8
BLACK
6
CONTINUOUS
10
147.71
20
-142.56
11
148.26
21
-142.01
0
LINE
8
BLACK
6
CONTINUOUS
10
148.26
20
-142.01
11
147.71
21
-141.46
0
LINE
8
BLACK
6
CONTINUOUS
10
147.71
20
-141.46
11
147.16
21
-142.01
0
LINE
8
BLACK
6
CONTINUOUS
10
147.16
20
-142.01
11
147.71
21
-142.56
0
LINE
8
BLACK
6
CONTINUOUS
10
151.884
20
-142.915
11
150.741
21
-142.915
0
LINE
8
BLACK
6
CONTINUOUS
10
151.312
20
-142.915
11
151.312
21
-140.915
0
LINE
8
BLACK
6
CONTINUOUS
10
151.312
20
-140.915
11
151.122
21
-141.2
0
LINE
8
BLACK
6
CONTINUOUS
10
151.122
20
-141.2
11
150.931
21
-141.391
0
LINE
8
BLACK
6
CONTINUOUS
10
150.931
20
-141.391
11
150.741
21
-141.486
0
LINE
8
BLACK
6
CONTINUOUS
10
152.741
20
-142.724
11
152.836
21
-142.82
0
LINE
8
BLACK
6
CONTINUOUS
10
152.836
20
-142.82
11
152.741
21
-142.915
0
LINE
8
BLACK
6
CONTINUOUS
10
152.741
20
-142.915
11
152.646
21
-142.82
0
LINE
8
BLACK
6
CONTINUOUS
10
152.646
20
-142.82
11
152.741
21
-142.724
0
LINE
8
BLACK
6
CONTINUOUS
10
152.741
20
-142.724
11
152.741
21
-142.915
0
LINE
8
BLACK
6
CONTINUOUS
10
154.741
20
-142.915
11
153.598
21
-142.915
0
LINE
8
BLACK
6
CONTINUOUS
10
154.17
20
-142.915
11
154.17
21
-140.915
0
LINE
8
BLACK
6
CONTINUOUS
10
154.17
20
-140.915
11
153.979
21
-141.2
0
LINE
8
BLACK
6
CONTINUOUS
10
153.979
20
-141.2
11
153.789
21
-141.391
0
LINE
8
BLACK
6
CONTINUOUS
10
153.789
20
-141.391
11
153.598
21
-141.486
0
LINE
8
BLACK
6
CONTINUOUS
10
155.979
20
-140.915
11
156.17
21
-140.915
0
LINE
8
BLACK
6
CONTINUOUS
10
156.17
20
-140.915
11
156.36
21
-141.01
0
LINE
8
BLACK
6
CONTINUOUS
10
156.36
20
-141.01
11
156.455
21
-141.105
0
LINE
8
BLACK
6
CONTINUOUS
10
156.455
20
-141.105
11
156.55
21
-141.296
0
LINE
8
BLACK
6
CONTINUOUS
10
156.55
20
-141.296
11
156.646
21
-141.677
0
LINE
8
BLACK
6
CONTINUOUS
10
156.646
20
-141.677
11
156.646
21
-142.153
0
LINE
8
BLACK
6
CONTINUOUS
10
156.646
20
-142.153
11
156.55
21
-142.534
0
LINE
8
BLACK
6
CONTINUOUS
10
156.55
20
-142.534
11
156.455
21
-142.724
0
LINE
8
BLACK
6
CONTINUOUS
10
156.455
20
-142.724
11
156.36
21
-142.82
0
LINE
8
BLACK
6
CONTINUOUS
10
156.36
20
-142.82
11
156.17
21
-142.915
0
LINE
8
BLACK
6
CONTINUOUS
10
156.17
20
-142.915
11
155.979
21
-142.915
0
LINE
8
BLACK
6
CONTINUOUS
10
155.979
20
-142.915
11
155.789
21
-142.82
0
LINE
8
BLACK
6
CONTINUOUS
10
155.789
20
-142.82
11
155.693
21
-142.724
0
LINE
8
BLACK
6
CONTINUOUS
10
155.693
20
-142.724
11
155.598
21
-142.534
0
LINE
8
BLACK
6
CONTINUOUS
10
155.598
20
-142.534
11
155.503
21
-142.153
0
LINE
8
BLACK
6
CONTINUOUS
10
155.503
20
-142.153
11
155.503
21
-141.677
0
LINE
8
BLACK
6
CONTINUOUS
10
155.503
20
-141.677
11
155.598
21
-141.296
0
LINE
8
BLACK
6
CONTINUOUS
10
155.598
20
-141.296
11
155.693
21
-141.105
0
LINE
8
BLACK
6
CONTINUOUS
10
155.693
20
-141.105
11
155.789
21
-141.01
0
LINE
8
BLACK
6
CONTINUOUS
10
155.789
20
-141.01
11
155.979
21
-140.915
0
LINE
8
BLACK
6
CONTINUOUS
10
157.884
20
-140.915
11
158.074
21
-140.915
0
LINE
8
BLACK
6
CONTINUOUS
10
158.074
20
-140.915
11
158.265
21
-141.01
0
LINE
8
BLACK
6
CONTINUOUS
10
158.265
20
-141.01
11
158.36
21
-141.105
0
LINE
8
BLACK
6
CONTINUOUS
10
158.36
20
-141.105
11
158.455
21
-141.296
0
LINE
8
BLACK
6
CONTINUOUS
10
158.455
20
-141.296
11
158.55
21
-141.677
0
LINE
8
BLACK
6
CONTINUOUS
10
158.55
20
-141.677
11
158.55
21
-142.153
0
LINE
8
BLACK
6
CONTINUOUS
10
158.55
20
-142.153
11
158.455
21
-142.534
0
LINE
8
BLACK
6
CONTINUOUS
10
158.455
20
-142.534
11
158.36
21
-142.724
0
LINE
8
BLACK
6
CONTINUOUS
10
158.36
20
-142.724
11
158.265
21
-142.82
0
LINE
8
BLACK
6
CONTINUOUS
10
158.265
20
-142.82
11
158.074
21
-142.915
0
LINE
8
BLACK
6
CONTINUOUS
10
158.074
20
-142.915
11
157.884
21
-142.915
0
LINE
8
BLACK
6
CONTINUOUS
10
157.884
20
-142.915
11
157.693
21
-142.82
0
LINE
8
BLACK
6
CONTINUOUS
10
157.693
20
-142.82
11
157.598
21
-142.724
0
LINE
8
BLACK
6
CONTINUOUS
10
157.598
20
-142.724
11
157.503
21
-142.534
0
LINE
8
BLACK
6
CONTINUOUS
10
157.503
20
-142.534
11
157.408
21
-142.153
0
LINE
8
BLACK
6
CONTINUOUS
10
157.408
20
-142.153
11
157.408
21
-141.677
0
LINE
8
BLACK
6
CONTINUOUS
10
157.408
20
-141.677
11
157.503
21
-141.296
0
LINE
8
BLACK
6
CONTINUOUS
10
157.503
20
-141.296
11
157.598
21
-141.105
0
LINE
8
BLACK
6
CONTINUOUS
10
157.598
20
-141.105
11
157.693
21
-141.01
0
LINE
8
BLACK
6
CONTINUOUS
10
157.693
20
-141.01
11
157.884
21
-140.915
0
LINE
8
BLACK
6
CONTINUOUS
10
159.408
20
-142.915
11
159.408
21
-141.581
0
LINE
8
BLACK
6
CONTINUOUS
10
159.408
20
-141.772
11
159.503
21
-141.677
0
LINE
8
BLACK
6
CONTINUOUS
10
159.503
20
-141.677
11
159.693
21
-141.581
0
LINE
8
BLACK
6
CONTINUOUS
10
159.693
20
-141.581
11
159.979
21
-141.581
0
LINE
8
BLACK
6
CONTINUOUS
10
159.979
20
-141.581
11
160.17
21
-141.677
0
LINE
8
BLACK
6
CONTINUOUS
10
160.17
20
-141.677
11
160.265
21
-141.867
0
LINE
8
BLACK
6
CONTINUOUS
10
160.265
20
-141.867
11
160.265
21
-142.915
0
LINE
8
BLACK
6
CONTINUOUS
10
160.265
20
-141.867
11
160.36
21
-141.677
0
LINE
8
BLACK
6
CONTINUOUS
10
160.36
20
-141.677
11
160.55
21
-141.581
0
LINE
8
BLACK
6
CONTINUOUS
10
160.55
20
-141.581
11
160.836
21
-141.581
0
LINE
8
BLACK
6
CONTINUOUS
10
160.836
20
-141.581
11
161.027
21
-141.677
0
LINE
8
BLACK
6
CONTINUOUS
10
161.027
20
-141.677
11
161.122
21
-141.867
0
LINE
8
BLACK
6
CONTINUOUS
10
161.122
20
-141.867
11
161.122
21
-142.915
0
LINE
8
BLACK
6
CONTINUOUS
10
162.074
20
-142.915
11
162.074
21
-141.581
0
LINE
8
BLACK
6
CONTINUOUS
10
162.074
20
-141.772
11
162.17
21
-141.677
0
LINE
8
BLACK
6
CONTINUOUS
10
162.17
20
-141.677
11
162.36
21
-141.581
0
LINE
8
BLACK
6
CONTINUOUS
10
162.36
20
-141.581
11
162.646
21
-141.581
0
LINE
8
BLACK
6
CONTINUOUS
10
162.646
20
-141.581
11
162.836
21
-141.677
0
LINE
8
BLACK
6
CONTINUOUS
10
162.836
20
-141.677
11
162.931
21
-141.867
0
LINE
8
BLACK
6
CONTINUOUS
10
162.931
20
-141.867
11
162.931
21
-142.915
0
LINE
8
BLACK
6
CONTINUOUS
10
162.931
20
-141.867
11
163.027
21
-141.677
0
LINE
8
BLACK
6
CONTINUOUS
10
163.027
20
-141.677
11
163.217
21
-141.581
0
LINE
8
BLACK
6
CONTINUOUS
10
163.217
20
-141.581
11
163.503
21
-141.581
0
LINE
8
BLACK
6
CONTINUOUS
10
163.503
20
-141.581
11
163.693
21
-141.677
0
LINE
8
BLACK
6
CONTINUOUS
10
163.693
20
-141.677
11
163.789
21
-141.867
0
LINE
8
BLACK
6
CONTINUOUS
10
163.789
20
-141.867
11
163.789
21
-142.915
0
LINE
8
BLACK
6
CONTINUOUS
10
167.693
20
-140.82
11
165.979
21
-143.391
0
LINE
8
BLACK
6
CONTINUOUS
10
170.265
20
-140.915
11
170.455
21
-140.915
0
LINE
8
BLACK
6
CONTINUOUS
10
170.455
20
-140.915
11
170.646
21
-141.01
0
LINE
8
BLACK
6
CONTINUOUS
10
170.646
20
-141.01
11
170.741
21
-141.105
0
LINE
8
BLACK
6
CONTINUOUS
10
170.741
20
-141.105
11
170.836
21
-141.296
0
LINE
8
BLACK
6
CONTINUOUS
10
170.836
20
-141.296
11
170.931
21
-141.677
0
LINE
8
BLACK
6
CONTINUOUS
10
170.931
20
-141.677
11
170.931
21
-142.153
0
LINE
8
BLACK
6
CONTINUOUS
10
170.931
20
-142.153
11
170.836
21
-142.534
0
LINE
8
BLACK
6
CONTINUOUS
10
170.836
20
-142.534
11
170.741
21
-142.724
0
LINE
8
BLACK
6
CONTINUOUS
10
170.741
20
-142.724
11
170.646
21
-142.82
0
LINE
8
BLACK
6
CONTINUOUS
10
170.646
20
-142.82
11
170.455
21
-142.915
0
LINE
8
BLACK
6
CONTINUOUS
10
170.455
20
-142.915
11
170.265
21
-142.915
0
LINE
8
BLACK
6
CONTINUOUS
10
170.265
20
-142.915
11
170.074
21
-142.82
0
LINE
8
BLACK
6
CONTINUOUS
10
170.074
20
-142.82
11
169.979
21
-142.724
0
LINE
8
BLACK
6
CONTINUOUS
10
169.979
20
-142.724
11
169.884
21
-142.534
0
LINE
8
BLACK
6
CONTINUOUS
10
169.884
20
-142.534
11
169.789
21
-142.153
0
LINE
8
BLACK
6
CONTINUOUS
10
169.789
20
-142.153
11
169.789
21
-141.677
0
LINE
8
BLACK
6
CONTINUOUS
10
169.789
20
-141.677
11
169.884
21
-141.296
0
LINE
8
BLACK
6
CONTINUOUS
10
169.884
20
-141.296
11
169.979
21
-141.105
0
LINE
8
BLACK
6
CONTINUOUS
10
169.979
20
-141.105
11
170.074
21
-141.01
0
LINE
8
BLACK
6
CONTINUOUS
10
170.074
20
-141.01
11
170.265
21
-140.915
0
LINE
8
BLACK
6
CONTINUOUS
10
171.789
20
-142.724
11
171.884
21
-142.82
0
LINE
8
BLACK
6
CONTINUOUS
10
171.884
20
-142.82
11
171.789
21
-142.915
0
LINE
8
BLACK
6
CONTINUOUS
10
171.789
20
-142.915
11
171.693
21
-142.82
0
LINE
8
BLACK
6
CONTINUOUS
10
171.693
20
-142.82
11
171.789
21
-142.724
0
LINE
8
BLACK
6
CONTINUOUS
10
171.789
20
-142.724
11
171.789
21
-142.915
0
LINE
8
BLACK
6
CONTINUOUS
10
173.122
20
-140.915
11
173.312
21
-140.915
0
LINE
8
BLACK
6
CONTINUOUS
10
173.312
20
-140.915
11
173.503
21
-141.01
0
LINE
8
BLACK
6
CONTINUOUS
10
173.503
20
-141.01
11
173.598
21
-141.105
0
LINE
8
BLACK
6
CONTINUOUS
10
173.598
20
-141.105
11
173.693
21
-141.296
0
LINE
8
BLACK
6
CONTINUOUS
10
173.693
20
-141.296
11
173.789
21
-141.677
0
LINE
8
BLACK
6
CONTINUOUS
10
173.789
20
-141.677
11
173.789
21
-142.153
0
LINE
8
BLACK
6
CONTINUOUS
10
173.789
20
-142.153
11
173.693
21
-142.534
0
LINE
8
BLACK
6
CONTINUOUS
10
173.693
20
-142.534
11
173.598
21
-142.724
0
LINE
8
BLACK
6
CONTINUOUS
10
173.598
20
-142.724
11
173.503
21
-142.82
0
LINE
8
BLACK
6
CONTINUOUS
10
173.503
20
-142.82
11
173.312
21
-142.915
0
LINE
8
BLACK
6
CONTINUOUS
10
173.312
20
-142.915
11
173.122
21
-142.915
0
LINE
8
BLACK
6
CONTINUOUS
10
173.122
20
-142.915
11
172.931
21
-142.82
0
LINE
8
BLACK
6
CONTINUOUS
10
172.931
20
-142.82
11
172.836
21
-142.724
0
LINE
8
BLACK
6
CONTINUOUS
10
172.836
20
-142.724
11
172.741
21
-142.534
0
LINE
8
BLACK
6
CONTINUOUS
10
172.741
20
-142.534
11
172.646
21
-142.153
0
LINE
8
BLACK
6
CONTINUOUS
10
172.646
20
-142.153
11
172.646
21
-141.677
0
LINE
8
BLACK
6
CONTINUOUS
10
172.646
20
-141.677
11
172.741
21
-141.296
0
LINE
8
BLACK
6
CONTINUOUS
10
172.741
20
-141.296
11
172.836
21
-141.105
0
LINE
8
BLACK
6
CONTINUOUS
10
172.836
20
-141.105
11
172.931
21
-141.01
0
LINE
8
BLACK
6
CONTINUOUS
10
172.931
20
-141.01
11
173.122
21
-140.915
0
LINE
8
BLACK
6
CONTINUOUS
10
175.503
20
-141.581
11
175.503
21
-142.915
0
LINE
8
BLACK
6
CONTINUOUS
10
175.027
20
-140.82
11
174.55
21
-142.248
0
LINE
8
BLACK
6
CONTINUOUS
10
174.55
20
-142.248
11
175.789
21
-142.248
0
LINE
8
BLACK
6
CONTINUOUS
10
176.36
20
-140.915
11
177.598
21
-140.915
0
LINE
8
BLACK
6
CONTINUOUS
10
177.598
20
-140.915
11
176.931
21
-141.677
0
LINE
8
BLACK
6
CONTINUOUS
10
176.931
20
-141.677
11
177.217
21
-141.677
0
LINE
8
BLACK
6
CONTINUOUS
10
177.217
20
-141.677
11
177.408
21
-141.772
0
LINE
8
BLACK
6
CONTINUOUS
10
177.408
20
-141.772
11
177.503
21
-141.867
0
LINE
8
BLACK
6
CONTINUOUS
10
177.503
20
-141.867
11
177.598
21
-142.058
0
LINE
8
BLACK
6
CONTINUOUS
10
177.598
20
-142.058
11
177.598
21
-142.534
0
LINE
8
BLACK
6
CONTINUOUS
10
177.598
20
-142.534
11
177.503
21
-142.724
0
LINE
8
BLACK
6
CONTINUOUS
10
177.503
20
-142.724
11
177.408
21
-142.82
0
LINE
8
BLACK
6
CONTINUOUS
10
177.408
20
-142.82
11
177.217
21
-142.915
0
LINE
8
BLACK
6
CONTINUOUS
10
177.217
20
-142.915
11
176.646
21
-142.915
0
LINE
8
BLACK
6
CONTINUOUS
10
176.646
20
-142.915
11
176.455
21
-142.82
0
LINE
8
BLACK
6
CONTINUOUS
10
176.455
20
-142.82
11
176.36
21
-142.724
0
LINE
8
BLACK
6
CONTINUOUS
10
178.265
20
-140.915
11
179.503
21
-140.915
0
LINE
8
BLACK
6
CONTINUOUS
10
179.503
20
-140.915
11
178.836
21
-141.677
0
LINE
8
BLACK
6
CONTINUOUS
10
178.836
20
-141.677
11
179.122
21
-141.677
0
LINE
8
BLACK
6
CONTINUOUS
10
179.122
20
-141.677
11
179.312
21
-141.772
0
LINE
8
BLACK
6
CONTINUOUS
10
179.312
20
-141.772
11
179.408
21
-141.867
0
LINE
8
BLACK
6
CONTINUOUS
10
179.408
20
-141.867
11
179.503
21
-142.058
0
LINE
8
BLACK
6
CONTINUOUS
10
179.503
20
-142.058
11
179.503
21
-142.534
0
LINE
8
BLACK
6
CONTINUOUS
10
179.503
20
-142.534
11
179.408
21
-142.724
0
LINE
8
BLACK
6
CONTINUOUS
10
179.408
20
-142.724
11
179.312
21
-142.82
0
LINE
8
BLACK
6
CONTINUOUS
10
179.312
20
-142.82
11
179.122
21
-142.915
0
LINE
8
BLACK
6
CONTINUOUS
10
179.122
20
-142.915
11
178.55
21
-142.915
0
LINE
8
BLACK
6
CONTINUOUS
10
178.55
20
-142.915
11
178.36
21
-142.82
0
LINE
8
BLACK
6
CONTINUOUS
10
178.36
20
-142.82
11
178.265
21
-142.724
0
LINE
8
BLACK
6
CONTINUOUS
10
180.265
20
-140.915
11
180.265
21
-141.296
0
LINE
8
BLACK
6
CONTINUOUS
10
181.027
20
-140.915
11
181.027
21
-141.296
0
LINE
8
BLACK
6
CONTINUOUS
10
183.979
20
-143.677
11
183.884
21
-143.581
0
LINE
8
BLACK
6
CONTINUOUS
10
183.884
20
-143.581
11
183.693
21
-143.296
0
LINE
8
BLACK
6
CONTINUOUS
10
183.693
20
-143.296
11
183.598
21
-143.105
0
LINE
8
BLACK
6
CONTINUOUS
10
183.598
20
-143.105
11
183.503
21
-142.82
0
LINE
8
BLACK
6
CONTINUOUS
10
183.503
20
-142.82
11
183.408
21
-142.343
0
LINE
8
BLACK
6
CONTINUOUS
10
183.408
20
-142.343
11
183.408
21
-141.962
0
LINE
8
BLACK
6
CONTINUOUS
10
183.408
20
-141.962
11
183.503
21
-141.486
0
LINE
8
BLACK
6
CONTINUOUS
10
183.503
20
-141.486
11
183.598
21
-141.2
0
LINE
8
BLACK
6
CONTINUOUS
10
183.598
20
-141.2
11
183.693
21
-141.01
0
LINE
8
BLACK
6
CONTINUOUS
10
183.693
20
-141.01
11
183.884
21
-140.724
0
LINE
8
BLACK
6
CONTINUOUS
10
183.884
20
-140.724
11
183.979
21
-140.629
0
LINE
8
BLACK
6
CONTINUOUS
10
184.646
20
-141.105
11
184.741
21
-141.01
0
LINE
8
BLACK
6
CONTINUOUS
10
184.741
20
-141.01
11
184.931
21
-140.915
0
LINE
8
BLACK
6
CONTINUOUS
10
184.931
20
-140.915
11
185.408
21
-140.915
0
LINE
8
BLACK
6
CONTINUOUS
10
185.408
20
-140.915
11
185.598
21
-141.01
0
LINE
8
BLACK
6
CONTINUOUS
10
185.598
20
-141.01
11
185.693
21
-141.105
0
LINE
8
BLACK
6
CONTINUOUS
10
185.693
20
-141.105
11
185.789
21
-141.296
0
LINE
8
BLACK
6
CONTINUOUS
10
185.789
20
-141.296
11
185.789
21
-141.486
0
LINE
8
BLACK
6
CONTINUOUS
10
185.789
20
-141.486
11
185.693
21
-141.772
0
LINE
8
BLACK
6
CONTINUOUS
10
185.693
20
-141.772
11
184.55
21
-142.915
0
LINE
8
BLACK
6
CONTINUOUS
10
184.55
20
-142.915
11
185.789
21
-142.915
0
LINE
8
BLACK
6
CONTINUOUS
10
187.598
20
-140.915
11
186.646
21
-140.915
0
LINE
8
BLACK
6
CONTINUOUS
10
186.646
20
-140.915
11
186.55
21
-141.867
0
LINE
8
BLACK
6
CONTINUOUS
10
186.55
20
-141.867
11
186.646
21
-141.772
0
LINE
8
BLACK
6
CONTINUOUS
10
186.646
20
-141.772
11
186.836
21
-141.677
0
LINE
8
BLACK
6
CONTINUOUS
10
186.836
20
-141.677
11
187.312
21
-141.677
0
LINE
8
BLACK
6
CONTINUOUS
10
187.312
20
-141.677
11
187.503
21
-141.772
0
LINE
8
BLACK
6
CONTINUOUS
10
187.503
20
-141.772
11
187.598
21
-141.867
0
LINE
8
BLACK
6
CONTINUOUS
10
187.598
20
-141.867
11
187.693
21
-142.058
0
LINE
8
BLACK
6
CONTINUOUS
10
187.693
20
-142.058
11
187.693
21
-142.534
0
LINE
8
BLACK
6
CONTINUOUS
10
187.693
20
-142.534
11
187.598
21
-142.724
0
LINE
8
BLACK
6
CONTINUOUS
10
187.598
20
-142.724
11
187.503
21
-142.82
0
LINE
8
BLACK
6
CONTINUOUS
10
187.503
20
-142.82
11
187.312
21
-142.915
0
LINE
8
BLACK
6
CONTINUOUS
10
187.312
20
-142.915
11
186.836
21
-142.915
0
LINE
8
BLACK
6
CONTINUOUS
10
186.836
20
-142.915
11
186.646
21
-142.82
0
LINE
8
BLACK
6
CONTINUOUS
10
186.646
20
-142.82
11
186.55
21
-142.724
0
LINE
8
BLACK
6
CONTINUOUS
10
190.074
20
-142.915
11
190.074
21
-140.915
0
LINE
8
BLACK
6
CONTINUOUS
10
190.931
20
-142.915
11
190.931
21
-141.867
0
LINE
8
BLACK
6
CONTINUOUS
10
190.931
20
-141.867
11
190.836
21
-141.677
0
LINE
8
BLACK
6
CONTINUOUS
10
190.836
20
-141.677
11
190.646
21
-141.581
0
LINE
8
BLACK
6
CONTINUOUS
10
190.646
20
-141.581
11
190.36
21
-141.581
0
LINE
8
BLACK
6
CONTINUOUS
10
190.36
20
-141.581
11
190.17
21
-141.677
0
LINE
8
BLACK
6
CONTINUOUS
10
190.17
20
-141.677
11
190.074
21
-141.772
0
LINE
8
BLACK
6
CONTINUOUS
10
192.17
20
-142.915
11
191.979
21
-142.82
0
LINE
8
BLACK
6
CONTINUOUS
10
191.979
20
-142.82
11
191.884
21
-142.724
0
LINE
8
BLACK
6
CONTINUOUS
10
191.884
20
-142.724
11
191.789
21
-142.534
0
LINE
8
BLACK
6
CONTINUOUS
10
191.789
20
-142.534
11
191.789
21
-141.962
0
LINE
8
BLACK
6
CONTINUOUS
10
191.789
20
-141.962
11
191.884
21
-141.772
0
LINE
8
BLACK
6
CONTINUOUS
10
191.884
20
-141.772
11
191.979
21
-141.677
0
LINE
8
BLACK
6
CONTINUOUS
10
191.979
20
-141.677
11
192.17
21
-141.581
0
LINE
8
BLACK
6
CONTINUOUS
10
192.17
20
-141.581
11
192.455
21
-141.581
0
LINE
8
BLACK
6
CONTINUOUS
10
192.455
20
-141.581
11
192.646
21
-141.677
0
LINE
8
BLACK
6
CONTINUOUS
10
192.646
20
-141.677
11
192.741
21
-141.772
0
LINE
8
BLACK
6
CONTINUOUS
10
192.741
20
-141.772
11
192.836
21
-141.962
0
LINE
8
BLACK
6
CONTINUOUS
10
192.836
20
-141.962
11
192.836
21
-142.534
0
LINE
8
BLACK
6
CONTINUOUS
10
192.836
20
-142.534
11
192.741
21
-142.724
0
LINE
8
BLACK
6
CONTINUOUS
10
192.741
20
-142.724
11
192.646
21
-142.82
0
LINE
8
BLACK
6
CONTINUOUS
10
192.646
20
-142.82
11
192.455
21
-142.915
0
LINE
8
BLACK
6
CONTINUOUS
10
192.455
20
-142.915
11
192.17
21
-142.915
0
LINE
8
BLACK
6
CONTINUOUS
10
193.979
20
-142.915
11
193.789
21
-142.82
0
LINE
8
BLACK
6
CONTINUOUS
10
193.789
20
-142.82
11
193.693
21
-142.629
0
LINE
8
BLACK
6
CONTINUOUS
10
193.693
20
-142.629
11
193.693
21
-140.915
0
LINE
8
BLACK
6
CONTINUOUS
10
195.503
20
-142.82
11
195.312
21
-142.915
0
LINE
8
BLACK
6
CONTINUOUS
10
195.312
20
-142.915
11
194.931
21
-142.915
0
LINE
8
BLACK
6
CONTINUOUS
10
194.931
20
-142.915
11
194.741
21
-142.82
0
LINE
8
BLACK
6
CONTINUOUS
10
194.741
20
-142.82
11
194.646
21
-142.629
0
LINE
8
BLACK
6
CONTINUOUS
10
194.646
20
-142.629
11
194.646
21
-141.867
0
LINE
8
BLACK
6
CONTINUOUS
10
194.646
20
-141.867
11
194.741
21
-141.677
0
LINE
8
BLACK
6
CONTINUOUS
10
194.741
20
-141.677
11
194.931
21
-141.581
0
LINE
8
BLACK
6
CONTINUOUS
10
194.931
20
-141.581
11
195.312
21
-141.581
0
LINE
8
BLACK
6
CONTINUOUS
10
195.312
20
-141.581
11
195.503
21
-141.677
0
LINE
8
BLACK
6
CONTINUOUS
10
195.503
20
-141.677
11
195.598
21
-141.867
0
LINE
8
BLACK
6
CONTINUOUS
10
195.598
20
-141.867
11
195.598
21
-142.058
0
LINE
8
BLACK
6
CONTINUOUS
10
195.598
20
-142.058
11
194.646
21
-142.248
0
LINE
8
BLACK
6
CONTINUOUS
10
196.36
20
-142.82
11
196.55
21
-142.915
0
LINE
8
BLACK
6
CONTINUOUS
10
196.55
20
-142.915
11
196.931
21
-142.915
0
LINE
8
BLACK
6
CONTINUOUS
10
196.931
20
-142.915
11
197.122
21
-142.82
0
LINE
8
BLACK
6
CONTINUOUS
10
197.122
20
-142.82
11
197.217
21
-142.629
0
LINE
8
BLACK
6
CONTINUOUS
10
197.217
20
-142.629
11
197.217
21
-142.534
0
LINE
8
BLACK
6
CONTINUOUS
10
197.217
20
-142.534
11
197.122
21
-142.343
0
LINE
8
BLACK
6
CONTINUOUS
10
197.122
20
-142.343
11
196.931
21
-142.248
0
LINE
8
BLACK
6
CONTINUOUS
10
196.931
20
-142.248
11
196.646
21
-142.248
0
LINE
8
BLACK
6
CONTINUOUS
10
196.646
20
-142.248
11
196.455
21
-142.153
0
LINE
8
BLACK
6
CONTINUOUS
10
196.455
20
-142.153
11
196.36
21
-141.962
0
LINE
8
BLACK
6
CONTINUOUS
10
196.36
20
-141.962
11
196.36
21
-141.867
0
LINE
8
BLACK
6
CONTINUOUS
10
196.36
20
-141.867
11
196.455
21
-141.677
0
LINE
8
BLACK
6
CONTINUOUS
10
196.455
20
-141.677
11
196.646
21
-141.581
0
LINE
8
BLACK
6
CONTINUOUS
10
196.646
20
-141.581
11
196.931
21
-141.581
0
LINE
8
BLACK
6
CONTINUOUS
10
196.931
20
-141.581
11
197.122
21
-141.677
0
LINE
8
BLACK
6
CONTINUOUS
10
197.884
20
-143.677
11
197.979
21
-143.581
0
LINE
8
BLACK
6
CONTINUOUS
10
197.979
20
-143.581
11
198.17
21
-143.296
0
LINE
8
BLACK
6
CONTINUOUS
10
198.17
20
-143.296
11
198.265
21
-143.105
0
LINE
8
BLACK
6
CONTINUOUS
10
198.265
20
-143.105
11
198.36
21
-142.82
0
LINE
8
BLACK
6
CONTINUOUS
10
198.36
20
-142.82
11
198.455
21
-142.343
0
LINE
8
BLACK
6
CONTINUOUS
10
198.455
20
-142.343
11
198.455
21
-141.962
0
LINE
8
BLACK
6
CONTINUOUS
10
198.455
20
-141.962
11
198.36
21
-141.486
0
LINE
8
BLACK
6
CONTINUOUS
10
198.36
20
-141.486
11
198.265
21
-141.2
0
LINE
8
BLACK
6
CONTINUOUS
10
198.265
20
-141.2
11
198.17
21
-141.01
0
LINE
8
BLACK
6
CONTINUOUS
10
198.17
20
-141.01
11
197.979
21
-140.724
0
LINE
8
BLACK
6
CONTINUOUS
10
197.979
20
-140.724
11
197.884
21
-140.629
0
LINE
8
BLACK
6
CONTINUOUS
10
146.26
20
-143.65
11
148.26
21
-145.65
0
LINE
8
BLACK
6
CONTINUOUS
10
148.26
20
-143.65
11
146.26
21
-145.65
0
CIRCLE
8
BLACK
10
147.26
20
-144.65
40
1
0
LINE
8
BLACK
6
CONTINUOUS
10
151.693
20
-144.221
11
151.693
21
-145.555
0
LINE
8
BLACK
6
CONTINUOUS
10
151.217
20
-143.46
11
150.741
21
-144.888
0
LINE
8
BLACK
6
CONTINUOUS
10
150.741
20
-144.888
11
151.979
21
-144.888
0
LINE
8
BLACK
6
CONTINUOUS
10
152.741
20
-145.364
11
152.836
21
-145.46
0
LINE
8
BLACK
6
CONTINUOUS
10
152.836
20
-145.46
11
152.741
21
-145.555
0
LINE
8
BLACK
6
CONTINUOUS
10
152.741
20
-145.555
11
152.646
21
-145.46
0
LINE
8
BLACK
6
CONTINUOUS
10
152.646
20
-145.46
11
152.741
21
-145.364
0
LINE
8
BLACK
6
CONTINUOUS
10
152.741
20
-145.364
11
152.741
21
-145.555
0
LINE
8
BLACK
6
CONTINUOUS
10
154.074
20
-143.555
11
154.265
21
-143.555
0
LINE
8
BLACK
6
CONTINUOUS
10
154.265
20
-143.555
11
154.455
21
-143.65
0
LINE
8
BLACK
6
CONTINUOUS
10
154.455
20
-143.65
11
154.55
21
-143.745
0
LINE
8
BLACK
6
CONTINUOUS
10
154.55
20
-143.745
11
154.646
21
-143.936
0
LINE
8
BLACK
6
CONTINUOUS
10
154.646
20
-143.936
11
154.741
21
-144.317
0
LINE
8
BLACK
6
CONTINUOUS
10
154.741
20
-144.317
11
154.741
21
-144.793
0
LINE
8
BLACK
6
CONTINUOUS
10
154.741
20
-144.793
11
154.646
21
-145.174
0
LINE
8
BLACK
6
CONTINUOUS
10
154.646
20
-145.174
11
154.55
21
-145.364
0
LINE
8
BLACK
6
CONTINUOUS
10
154.55
20
-145.364
11
154.455
21
-145.46
0
LINE
8
BLACK
6
CONTINUOUS
10
154.455
20
-145.46
11
154.265
21
-145.555
0
LINE
8
BLACK
6
CONTINUOUS
10
154.265
20
-145.555
11
154.074
21
-145.555
0
LINE
8
BLACK
6
CONTINUOUS
10
154.074
20
-145.555
11
153.884
21
-145.46
0
LINE
8
BLACK
6
CONTINUOUS
10
153.884
20
-145.46
11
153.789
21
-145.364
0
LINE
8
BLACK
6
CONTINUOUS
10
153.789
20
-145.364
11
153.693
21
-145.174
0
LINE
8
BLACK
6
CONTINUOUS
10
153.693
20
-145.174
11
153.598
21
-144.793
0
LINE
8
BLACK
6
CONTINUOUS
10
153.598
20
-144.793
11
153.598
21
-144.317
0
LINE
8
BLACK
6
CONTINUOUS
10
153.598
20
-144.317
11
153.693
21
-143.936
0
LINE
8
BLACK
6
CONTINUOUS
10
153.693
20
-143.936
11
153.789
21
-143.745
0
LINE
8
BLACK
6
CONTINUOUS
10
153.789
20
-143.745
11
153.884
21
-143.65
0
LINE
8
BLACK
6
CONTINUOUS
10
153.884
20
-143.65
11
154.074
21
-143.555
0
LINE
8
BLACK
6
CONTINUOUS
10
155.979
20
-143.555
11
156.17
21
-143.555
0
LINE
8
BLACK
6
CONTINUOUS
10
156.17
20
-143.555
11
156.36
21
-143.65
0
LINE
8
BLACK
6
CONTINUOUS
10
156.36
20
-143.65
11
156.455
21
-143.745
0
LINE
8
BLACK
6
CONTINUOUS
10
156.455
20
-143.745
11
156.55
21
-143.936
0
LINE
8
BLACK
6
CONTINUOUS
10
156.55
20
-143.936
11
156.646
21
-144.317
0
LINE
8
BLACK
6
CONTINUOUS
10
156.646
20
-144.317
11
156.646
21
-144.793
0
LINE
8
BLACK
6
CONTINUOUS
10
156.646
20
-144.793
11
156.55
21
-145.174
0
LINE
8
BLACK
6
CONTINUOUS
10
156.55
20
-145.174
11
156.455
21
-145.364
0
LINE
8
BLACK
6
CONTINUOUS
10
156.455
20
-145.364
11
156.36
21
-145.46
0
LINE
8
BLACK
6
CONTINUOUS
10
156.36
20
-145.46
11
156.17
21
-145.555
0
LINE
8
BLACK
6
CONTINUOUS
10
156.17
20
-145.555
11
155.979
21
-145.555
0
LINE
8
BLACK
6
CONTINUOUS
10
155.979
20
-145.555
11
155.789
21
-145.46
0
LINE
8
BLACK
6
CONTINUOUS
10
155.789
20
-145.46
11
155.693
21
-145.364
0
LINE
8
BLACK
6
CONTINUOUS
10
155.693
20
-145.364
11
155.598
21
-145.174
0
LINE
8
BLACK
6
CONTINUOUS
10
155.598
20
-145.174
11
155.503
21
-144.793
0
LINE
8
BLACK
6
CONTINUOUS
10
155.503
20
-144.793
11
155.503
21
-144.317
0
LINE
8
BLACK
6
CONTINUOUS
10
155.503
20
-144.317
11
155.598
21
-143.936
0
LINE
8
BLACK
6
CONTINUOUS
10
155.598
20
-143.936
11
155.693
21
-143.745
0
LINE
8
BLACK
6
CONTINUOUS
10
155.693
20
-143.745
11
155.789
21
-143.65
0
LINE
8
BLACK
6
CONTINUOUS
10
155.789
20
-143.65
11
155.979
21
-143.555
0
LINE
8
BLACK
6
CONTINUOUS
10
157.884
20
-143.555
11
158.074
21
-143.555
0
LINE
8
BLACK
6
CONTINUOUS
10
158.074
20
-143.555
11
158.265
21
-143.65
0
LINE
8
BLACK
6
CONTINUOUS
10
158.265
20
-143.65
11
158.36
21
-143.745
0
LINE
8
BLACK
6
CONTINUOUS
10
158.36
20
-143.745
11
158.455
21
-143.936
0
LINE
8
BLACK
6
CONTINUOUS
10
158.455
20
-143.936
11
158.55
21
-144.317
0
LINE
8
BLACK
6
CONTINUOUS
10
158.55
20
-144.317
11
158.55
21
-144.793
0
LINE
8
BLACK
6
CONTINUOUS
10
158.55
20
-144.793
11
158.455
21
-145.174
0
LINE
8
BLACK
6
CONTINUOUS
10
158.455
20
-145.174
11
158.36
21
-145.364
0
LINE
8
BLACK
6
CONTINUOUS
10
158.36
20
-145.364
11
158.265
21
-145.46
0
LINE
8
BLACK
6
CONTINUOUS
10
158.265
20
-145.46
11
158.074
21
-145.555
0
LINE
8
BLACK
6
CONTINUOUS
10
158.074
20
-145.555
11
157.884
21
-145.555
0
LINE
8
BLACK
6
CONTINUOUS
10
157.884
20
-145.555
11
157.693
21
-145.46
0
LINE
8
BLACK
6
CONTINUOUS
10
157.693
20
-145.46
11
157.598
21
-145.364
0
LINE
8
BLACK
6
CONTINUOUS
10
157.598
20
-145.364
11
157.503
21
-145.174
0
LINE
8
BLACK
6
CONTINUOUS
10
157.503
20
-145.174
11
157.408
21
-144.793
0
LINE
8
BLACK
6
CONTINUOUS
10
157.408
20
-144.793
11
157.408
21
-144.317
0
LINE
8
BLACK
6
CONTINUOUS
10
157.408
20
-144.317
11
157.503
21
-143.936
0
LINE
8
BLACK
6
CONTINUOUS
10
157.503
20
-143.936
11
157.598
21
-143.745
0
LINE
8
BLACK
6
CONTINUOUS
10
157.598
20
-143.745
11
157.693
21
-143.65
0
LINE
8
BLACK
6
CONTINUOUS
10
157.693
20
-143.65
11
157.884
21
-143.555
0
LINE
8
BLACK
6
CONTINUOUS
10
159.408
20
-145.555
11
159.408
21
-144.221
0
LINE
8
BLACK
6
CONTINUOUS
10
159.408
20
-144.412
11
159.503
21
-144.317
0
LINE
8
BLACK
6
CONTINUOUS
10
159.503
20
-144.317
11
159.693
21
-144.221
0
LINE
8
BLACK
6
CONTINUOUS
10
159.693
20
-144.221
11
159.979
21
-144.221
0
LINE
8
BLACK
6
CONTINUOUS
10
159.979
20
-144.221
11
160.17
21
-144.317
0
LINE
8
BLACK
6
CONTINUOUS
10
160.17
20
-144.317
11
160.265
21
-144.507
0
LINE
8
BLACK
6
CONTINUOUS
10
160.265
20
-144.507
11
160.265
21
-145.555
0
LINE
8
BLACK
6
CONTINUOUS
10
160.265
20
-144.507
11
160.36
21
-144.317
0
LINE
8
BLACK
6
CONTINUOUS
10
160.36
20
-144.317
11
160.55
21
-144.221
0
LINE
8
BLACK
6
CONTINUOUS
10
160.55
20
-144.221
11
160.836
21
-144.221
0
LINE
8
BLACK
6
CONTINUOUS
10
160.836
20
-144.221
11
161.027
21
-144.317
0
LINE
8
BLACK
6
CONTINUOUS
10
161.027
20
-144.317
11
161.122
21
-144.507
0
LINE
8
BLACK
6
CONTINUOUS
10
161.122
20
-144.507
11
161.122
21
-145.555
0
LINE
8
BLACK
6
CONTINUOUS
10
162.074
20
-145.555
11
162.074
21
-144.221
0
LINE
8
BLACK
6
CONTINUOUS
10
162.074
20
-144.412
11
162.17
21
-144.317
0
LINE
8
BLACK
6
CONTINUOUS
10
162.17
20
-144.317
11
162.36
21
-144.221
0
LINE
8
BLACK
6
CONTINUOUS
10
162.36
20
-144.221
11
162.646
21
-144.221
0
LINE
8
BLACK
6
CONTINUOUS
10
162.646
20
-144.221
11
162.836
21
-144.317
0
LINE
8
BLACK
6
CONTINUOUS
10
162.836
20
-144.317
11
162.931
21
-144.507
0
LINE
8
BLACK
6
CONTINUOUS
10
162.931
20
-144.507
11
162.931
21
-145.555
0
LINE
8
BLACK
6
CONTINUOUS
10
162.931
20
-144.507
11
163.027
21
-144.317
0
LINE
8
BLACK
6
CONTINUOUS
10
163.027
20
-144.317
11
163.217
21
-144.221
0
LINE
8
BLACK
6
CONTINUOUS
10
163.217
20
-144.221
11
163.503
21
-144.221
0
LINE
8
BLACK
6
CONTINUOUS
10
163.503
20
-144.221
11
163.693
21
-144.317
0
LINE
8
BLACK
6
CONTINUOUS
10
163.693
20
-144.317
11
163.789
21
-144.507
0
LINE
8
BLACK
6
CONTINUOUS
10
163.789
20
-144.507
11
163.789
21
-145.555
0
LINE
8
BLACK
6
CONTINUOUS
10
167.693
20
-143.46
11
165.979
21
-146.031
0
LINE
8
BLACK
6
CONTINUOUS
10
170.265
20
-143.555
11
170.455
21
-143.555
0
LINE
8
BLACK
6
CONTINUOUS
10
170.455
20
-143.555
11
170.646
21
-143.65
0
LINE
8
BLACK
6
CONTINUOUS
10
170.646
20
-143.65
11
170.741
21
-143.745
0
LINE
8
BLACK
6
CONTINUOUS
10
170.741
20
-143.745
11
170.836
21
-143.936
0
LINE
8
BLACK
6
CONTINUOUS
10
170.836
20
-143.936
11
170.931
21
-144.317
0
LINE
8
BLACK
6
CONTINUOUS
10
170.931
20
-144.317
11
170.931
21
-144.793
0
LINE
8
BLACK
6
CONTINUOUS
10
170.931
20
-144.793
11
170.836
21
-145.174
0
LINE
8
BLACK
6
CONTINUOUS
10
170.836
20
-145.174
11
170.741
21
-145.364
0
LINE
8
BLACK
6
CONTINUOUS
10
170.741
20
-145.364
11
170.646
21
-145.46
0
LINE
8
BLACK
6
CONTINUOUS
10
170.646
20
-145.46
11
170.455
21
-145.555
0
LINE
8
BLACK
6
CONTINUOUS
10
170.455
20
-145.555
11
170.265
21
-145.555
0
LINE
8
BLACK
6
CONTINUOUS
10
170.265
20
-145.555
11
170.074
21
-145.46
0
LINE
8
BLACK
6
CONTINUOUS
10
170.074
20
-145.46
11
169.979
21
-145.364
0
LINE
8
BLACK
6
CONTINUOUS
10
169.979
20
-145.364
11
169.884
21
-145.174
0
LINE
8
BLACK
6
CONTINUOUS
10
169.884
20
-145.174
11
169.789
21
-144.793
0
LINE
8
BLACK
6
CONTINUOUS
10
169.789
20
-144.793
11
169.789
21
-144.317
0
LINE
8
BLACK
6
CONTINUOUS
10
169.789
20
-144.317
11
169.884
21
-143.936
0
LINE
8
BLACK
6
CONTINUOUS
10
169.884
20
-143.936
11
169.979
21
-143.745
0
LINE
8
BLACK
6
CONTINUOUS
10
169.979
20
-143.745
11
170.074
21
-143.65
0
LINE
8
BLACK
6
CONTINUOUS
10
170.074
20
-143.65
11
170.265
21
-143.555
0
LINE
8
BLACK
6
CONTINUOUS
10
171.789
20
-145.364
11
171.884
21
-145.46
0
LINE
8
BLACK
6
CONTINUOUS
10
171.884
20
-145.46
11
171.789
21
-145.555
0
LINE
8
BLACK
6
CONTINUOUS
10
171.789
20
-145.555
11
171.693
21
-145.46
0
LINE
8
BLACK
6
CONTINUOUS
10
171.693
20
-145.46
11
171.789
21
-145.364
0
LINE
8
BLACK
6
CONTINUOUS
10
171.789
20
-145.364
11
171.789
21
-145.555
0
LINE
8
BLACK
6
CONTINUOUS
10
173.789
20
-145.555
11
172.646
21
-145.555
0
LINE
8
BLACK
6
CONTINUOUS
10
173.217
20
-145.555
11
173.217
21
-143.555
0
LINE
8
BLACK
6
CONTINUOUS
10
173.217
20
-143.555
11
173.027
21
-143.84
0
LINE
8
BLACK
6
CONTINUOUS
10
173.027
20
-143.84
11
172.836
21
-144.031
0
LINE
8
BLACK
6
CONTINUOUS
10
172.836
20
-144.031
11
172.646
21
-144.126
0
LINE
8
BLACK
6
CONTINUOUS
10
175.598
20
-143.555
11
174.646
21
-143.555
0
LINE
8
BLACK
6
CONTINUOUS
10
174.646
20
-143.555
11
174.55
21
-144.507
0
LINE
8
BLACK
6
CONTINUOUS
10
174.55
20
-144.507
11
174.646
21
-144.412
0
LINE
8
BLACK
6
CONTINUOUS
10
174.646
20
-144.412
11
174.836
21
-144.317
0
LINE
8
BLACK
6
CONTINUOUS
10
174.836
20
-144.317
11
175.312
21
-144.317
0
LINE
8
BLACK
6
CONTINUOUS
10
175.312
20
-144.317
11
175.503
21
-144.412
0
LINE
8
BLACK
6
CONTINUOUS
10
175.503
20
-144.412
11
175.598
21
-144.507
0
LINE
8
BLACK
6
CONTINUOUS
10
175.598
20
-144.507
11
175.693
21
-144.698
0
LINE
8
BLACK
6
CONTINUOUS
10
175.693
20
-144.698
11
175.693
21
-145.174
0
LINE
8
BLACK
6
CONTINUOUS
10
175.693
20
-145.174
11
175.598
21
-145.364
0
LINE
8
BLACK
6
CONTINUOUS
10
175.598
20
-145.364
11
175.503
21
-145.46
0
LINE
8
BLACK
6
CONTINUOUS
10
175.503
20
-145.46
11
175.312
21
-145.555
0
LINE
8
BLACK
6
CONTINUOUS
10
175.312
20
-145.555
11
174.836
21
-145.555
0
LINE
8
BLACK
6
CONTINUOUS
10
174.836
20
-145.555
11
174.646
21
-145.46
0
LINE
8
BLACK
6
CONTINUOUS
10
174.646
20
-145.46
11
174.55
21
-145.364
0
LINE
8
BLACK
6
CONTINUOUS
10
176.36
20
-143.555
11
177.693
21
-143.555
0
LINE
8
BLACK
6
CONTINUOUS
10
177.693
20
-143.555
11
176.836
21
-145.555
0
LINE
8
BLACK
6
CONTINUOUS
10
179.408
20
-143.555
11
178.455
21
-143.555
0
LINE
8
BLACK
6
CONTINUOUS
10
178.455
20
-143.555
11
178.36
21
-144.507
0
LINE
8
BLACK
6
CONTINUOUS
10
178.36
20
-144.507
11
178.455
21
-144.412
0
LINE
8
BLACK
6
CONTINUOUS
10
178.455
20
-144.412
11
178.646
21
-144.317
0
LINE
8
BLACK
6
CONTINUOUS
10
178.646
20
-144.317
11
179.122
21
-144.317
0
LINE
8
BLACK
6
CONTINUOUS
10
179.122
20
-144.317
11
179.312
21
-144.412
0
LINE
8
BLACK
6
CONTINUOUS
10
179.312
20
-144.412
11
179.408
21
-144.507
0
LINE
8
BLACK
6
CONTINUOUS
10
179.408
20
-144.507
11
179.503
21
-144.698
0
LINE
8
BLACK
6
CONTINUOUS
10
179.503
20
-144.698
11
179.503
21
-145.174
0
LINE
8
BLACK
6
CONTINUOUS
10
179.503
20
-145.174
11
179.408
21
-145.364
0
LINE
8
BLACK
6
CONTINUOUS
10
179.408
20
-145.364
11
179.312
21
-145.46
0
LINE
8
BLACK
6
CONTINUOUS
10
179.312
20
-145.46
11
179.122
21
-145.555
0
LINE
8
BLACK
6
CONTINUOUS
10
179.122
20
-145.555
11
178.646
21
-145.555
0
LINE
8
BLACK
6
CONTINUOUS
10
178.646
20
-145.555
11
178.455
21
-145.46
0
LINE
8
BLACK
6
CONTINUOUS
10
178.455
20
-145.46
11
178.36
21
-145.364
0
LINE
8
BLACK
6
CONTINUOUS
10
180.265
20
-143.555
11
180.265
21
-143.936
0
LINE
8
BLACK
6
CONTINUOUS
10
181.027
20
-143.555
11
181.027
21
-143.936
0
LINE
8
BLACK
6
CONTINUOUS
10
183.979
20
-146.317
11
183.884
21
-146.221
0
LINE
8
BLACK
6
CONTINUOUS
10
183.884
20
-146.221
11
183.693
21
-145.936
0
LINE
8
BLACK
6
CONTINUOUS
10
183.693
20
-145.936
11
183.598
21
-145.745
0
LINE
8
BLACK
6
CONTINUOUS
10
183.598
20
-145.745
11
183.503
21
-145.46
0
LINE
8
BLACK
6
CONTINUOUS
10
183.503
20
-145.46
11
183.408
21
-144.983
0
LINE
8
BLACK
6
CONTINUOUS
10
183.408
20
-144.983
11
183.408
21
-144.602
0
LINE
8
BLACK
6
CONTINUOUS
10
183.408
20
-144.602
11
183.503
21
-144.126
0
LINE
8
BLACK
6
CONTINUOUS
10
183.503
20
-144.126
11
183.598
21
-143.84
0
LINE
8
BLACK
6
CONTINUOUS
10
183.598
20
-143.84
11
183.693
21
-143.65
0
LINE
8
BLACK
6
CONTINUOUS
10
183.693
20
-143.65
11
183.884
21
-143.364
0
LINE
8
BLACK
6
CONTINUOUS
10
183.884
20
-143.364
11
183.979
21
-143.269
0
LINE
8
BLACK
6
CONTINUOUS
10
184.646
20
-143.745
11
184.741
21
-143.65
0
LINE
8
BLACK
6
CONTINUOUS
10
184.741
20
-143.65
11
184.931
21
-143.555
0
LINE
8
BLACK
6
CONTINUOUS
10
184.931
20
-143.555
11
185.408
21
-143.555
0
LINE
8
BLACK
6
CONTINUOUS
10
185.408
20
-143.555
11
185.598
21
-143.65
0
LINE
8
BLACK
6
CONTINUOUS
10
185.598
20
-143.65
11
185.693
21
-143.745
0
LINE
8
BLACK
6
CONTINUOUS
10
185.693
20
-143.745
11
185.789
21
-143.936
0
LINE
8
BLACK
6
CONTINUOUS
10
185.789
20
-143.936
11
185.789
21
-144.126
0
LINE
8
BLACK
6
CONTINUOUS
10
185.789
20
-144.126
11
185.693
21
-144.412
0
LINE
8
BLACK
6
CONTINUOUS
10
185.693
20
-144.412
11
184.55
21
-145.555
0
LINE
8
BLACK
6
CONTINUOUS
10
184.55
20
-145.555
11
185.789
21
-145.555
0
LINE
8
BLACK
6
CONTINUOUS
10
188.17
20
-145.555
11
188.17
21
-143.555
0
LINE
8
BLACK
6
CONTINUOUS
10
189.027
20
-145.555
11
189.027
21
-144.507
0
LINE
8
BLACK
6
CONTINUOUS
10
189.027
20
-144.507
11
188.931
21
-144.317
0
LINE
8
BLACK
6
CONTINUOUS
10
188.931
20
-144.317
11
188.741
21
-144.221
0
LINE
8
BLACK
6
CONTINUOUS
10
188.741
20
-144.221
11
188.455
21
-144.221
0
LINE
8
BLACK
6
CONTINUOUS
10
188.455
20
-144.221
11
188.265
21
-144.317
0
LINE
8
BLACK
6
CONTINUOUS
10
188.265
20
-144.317
11
188.17
21
-144.412
0
LINE
8
BLACK
6
CONTINUOUS
10
190.265
20
-145.555
11
190.074
21
-145.46
0
LINE
8
BLACK
6
CONTINUOUS
10
190.074
20
-145.46
11
189.979
21
-145.364
0
LINE
8
BLACK
6
CONTINUOUS
10
189.979
20
-145.364
11
189.884
21
-145.174
0
LINE
8
BLACK
6
CONTINUOUS
10
189.884
20
-145.174
11
189.884
21
-144.602
0
LINE
8
BLACK
6
CONTINUOUS
10
189.884
20
-144.602
11
189.979
21
-144.412
0
LINE
8
BLACK
6
CONTINUOUS
10
189.979
20
-144.412
11
190.074
21
-144.317
0
LINE
8
BLACK
6
CONTINUOUS
10
190.074
20
-144.317
11
190.265
21
-144.221
0
LINE
8
BLACK
6
CONTINUOUS
10
190.265
20
-144.221
11
190.55
21
-144.221
0
LINE
8
BLACK
6
CONTINUOUS
10
190.55
20
-144.221
11
190.741
21
-144.317
0
LINE
8
BLACK
6
CONTINUOUS
10
190.741
20
-144.317
11
190.836
21
-144.412
0
LINE
8
BLACK
6
CONTINUOUS
10
190.836
20
-144.412
11
190.931
21
-144.602
0
LINE
8
BLACK
6
CONTINUOUS
10
190.931
20
-144.602
11
190.931
21
-145.174
0
LINE
8
BLACK
6
CONTINUOUS
10
190.931
20
-145.174
11
190.836
21
-145.364
0
LINE
8
BLACK
6
CONTINUOUS
10
190.836
20
-145.364
11
190.741
21
-145.46
0
LINE
8
BLACK
6
CONTINUOUS
10
190.741
20
-145.46
11
190.55
21
-145.555
0
LINE
8
BLACK
6
CONTINUOUS
10
190.55
20
-145.555
11
190.265
21
-145.555
0
LINE
8
BLACK
6
CONTINUOUS
10
192.074
20
-145.555
11
191.884
21
-145.46
0
LINE
8
BLACK
6
CONTINUOUS
10
191.884
20
-145.46
11
191.789
21
-145.269
0
LINE
8
BLACK
6
CONTINUOUS
10
191.789
20
-145.269
11
191.789
21
-143.555
0
LINE
8
BLACK
6
CONTINUOUS
10
193.598
20
-145.46
11
193.408
21
-145.555
0
LINE
8
BLACK
6
CONTINUOUS
10
193.408
20
-145.555
11
193.027
21
-145.555
0
LINE
8
BLACK
6
CONTINUOUS
10
193.027
20
-145.555
11
192.836
21
-145.46
0
LINE
8
BLACK
6
CONTINUOUS
10
192.836
20
-145.46
11
192.741
21
-145.269
0
LINE
8
BLACK
6
CONTINUOUS
10
192.741
20
-145.269
11
192.741
21
-144.507
0
LINE
8
BLACK
6
CONTINUOUS
10
192.741
20
-144.507
11
192.836
21
-144.317
0
LINE
8
BLACK
6
CONTINUOUS
10
192.836
20
-144.317
11
193.027
21
-144.221
0
LINE
8
BLACK
6
CONTINUOUS
10
193.027
20
-144.221
11
193.408
21
-144.221
0
LINE
8
BLACK
6
CONTINUOUS
10
193.408
20
-144.221
11
193.598
21
-144.317
0
LINE
8
BLACK
6
CONTINUOUS
10
193.598
20
-144.317
11
193.693
21
-144.507
0
LINE
8
BLACK
6
CONTINUOUS
10
193.693
20
-144.507
11
193.693
21
-144.698
0
LINE
8
BLACK
6
CONTINUOUS
10
193.693
20
-144.698
11
192.741
21
-144.888
0
LINE
8
BLACK
6
CONTINUOUS
10
194.455
20
-145.46
11
194.646
21
-145.555
0
LINE
8
BLACK
6
CONTINUOUS
10
194.646
20
-145.555
11
195.027
21
-145.555
0
LINE
8
BLACK
6
CONTINUOUS
10
195.027
20
-145.555
11
195.217
21
-145.46
0
LINE
8
BLACK
6
CONTINUOUS
10
195.217
20
-145.46
11
195.312
21
-145.269
0
LINE
8
BLACK
6
CONTINUOUS
10
195.312
20
-145.269
11
195.312
21
-145.174
0
LINE
8
BLACK
6
CONTINUOUS
10
195.312
20
-145.174
11
195.217
21
-144.983
0
LINE
8
BLACK
6
CONTINUOUS
10
195.217
20
-144.983
11
195.027
21
-144.888
0
LINE
8
BLACK
6
CONTINUOUS
10
195.027
20
-144.888
11
194.741
21
-144.888
0
LINE
8
BLACK
6
CONTINUOUS
10
194.741
20
-144.888
11
194.55
21
-144.793
0
LINE
8
BLACK
6
CONTINUOUS
10
194.55
20
-144.793
11
194.455
21
-144.602
0
LINE
8
BLACK
6
CONTINUOUS
10
194.455
20
-144.602
11
194.455
21
-144.507
0
LINE
8
BLACK
6
CONTINUOUS
10
194.455
20
-144.507
11
194.55
21
-144.317
0
LINE
8
BLACK
6
CONTINUOUS
10
194.55
20
-144.317
11
194.741
21
-144.221
0
LINE
8
BLACK
6
CONTINUOUS
10
194.741
20
-144.221
11
195.027
21
-144.221
0
LINE
8
BLACK
6
CONTINUOUS
10
195.027
20
-144.221
11
195.217
21
-144.317
0
LINE
8
BLACK
6
CONTINUOUS
10
195.979
20
-146.317
11
196.074
21
-146.221
0
LINE
8
BLACK
6
CONTINUOUS
10
196.074
20
-146.221
11
196.265
21
-145.936
0
LINE
8
BLACK
6
CONTINUOUS
10
196.265
20
-145.936
11
196.36
21
-145.745
0
LINE
8
BLACK
6
CONTINUOUS
10
196.36
20
-145.745
11
196.455
21
-145.46
0
LINE
8
BLACK
6
CONTINUOUS
10
196.455
20
-145.46
11
196.55
21
-144.983
0
LINE
8
BLACK
6
CONTINUOUS
10
196.55
20
-144.983
11
196.55
21
-144.602
0
LINE
8
BLACK
6
CONTINUOUS
10
196.55
20
-144.602
11
196.455
21
-144.126
0
LINE
8
BLACK
6
CONTINUOUS
10
196.455
20
-144.126
11
196.36
21
-143.84
0
LINE
8
BLACK
6
CONTINUOUS
10
196.36
20
-143.84
11
196.265
21
-143.65
0
LINE
8
BLACK
6
CONTINUOUS
10
196.265
20
-143.65
11
196.074
21
-143.364
0
LINE
8
BLACK
6
CONTINUOUS
10
196.074
20
-143.364
11
195.979
21
-143.269
  0
ENDSEC
  0
EOF
