M48
; DRILL file {KiCad (6.0.7)} date Mon Aug 22 18:41:09 2022
; FORMAT={-:-/ absolute / metric / decimal}
; #@! TF.CreationDate,2022-08-22T18:41:09+08:00
; #@! TF.GenerationSoftware,Kicad,Pcbnew,(6.0.7)
; #@! TF.FileFunction,MixedPlating,1,2
FMAT,2
METRIC
; #@! TA.AperFunction,Plated,PTH,ViaDrill
T1C0.600
; #@! TA.AperFunction,Plated,PTH,ComponentDrill
T2C0.800
; #@! TA.AperFunction,Plated,PTH,ComponentDrill
T3C0.900
; #@! TA.AperFunction,Plated,PTH,ComponentDrill
T4C1.000
; #@! TA.AperFunction,Plated,PTH,ComponentDrill
T5C1.100
; #@! TA.AperFunction,Plated,PTH,ViaDrill
T6C4.000
%
G90
G05
T1
X8.255Y29.21
X12.065Y28.575
X13.97Y44.45
X15.875Y68.58
X15.875Y29.21
X15.875Y25.4
X19.05Y29.21
X19.05Y17.145
X22.86Y38.735
X22.86Y34.29
X26.035Y12.7
X26.67Y16.51
X29.845Y28.575
X31.75Y51.435
X35.56Y47.625
X38.75Y62.865
X42.545Y74.93
X47.625Y74.93
X55.88Y74.93
X60.88Y40.72
X60.96Y45.72
X60.96Y35.56
X60.96Y30.48
X60.96Y25.4
X60.96Y20.32
X60.96Y15.24
X60.96Y10.16
X63.5Y43.18
X63.5Y38.1
X63.5Y33.02
X63.5Y27.94
X63.5Y22.86
X63.5Y17.78
X63.5Y12.7
X63.5Y7.62
T2
X8.662Y4.564
X8.662Y2.064
X16.155Y6.89
X16.155Y1.81
X18.695Y4.35
X24.41Y4.945
X24.41Y2.445
X32.995Y59.69
X33.065Y54.595
X33.065Y49.515
X35.495Y59.69
X35.605Y52.055
X57.785Y45.72
X57.785Y43.22
X57.785Y40.72
X57.785Y38.22
X57.785Y35.72
X57.785Y33.22
X57.785Y30.72
X57.785Y28.22
X57.785Y25.72
X57.785Y23.22
X57.785Y20.72
X57.785Y18.22
X57.785Y15.72
X57.785Y13.22
X57.785Y10.72
X57.785Y8.22
X57.785Y5.72
T3
X59.185Y68.349
X60.963Y66.825
X62.487Y68.349
X64.011Y66.825
T4
X3.81Y28.575
X3.81Y26.035
X3.81Y23.495
X3.81Y20.955
X3.81Y17.145
X3.81Y14.605
X3.81Y12.065
X3.81Y9.525
X3.81Y6.985
X3.81Y4.445
X5.715Y36.712
X5.715Y34.172
X8.255Y36.712
X8.255Y34.172
X10.795Y36.712
X10.795Y34.172
X13.335Y36.712
X13.335Y34.172
X15.875Y64.77
X15.875Y36.712
X15.875Y34.172
X17.145Y44.45
X18.415Y64.77
X19.685Y44.45
X20.955Y64.77
X22.225Y44.45
X23.495Y64.77
X24.765Y44.45
X26.035Y64.77
X27.305Y44.45
X28.575Y64.77
X29.21Y15.24
X29.845Y44.45
X31.115Y64.77
X31.75Y15.24
X32.385Y44.45
X33.655Y64.77
X34.29Y15.24
X34.925Y44.45
X35.56Y27.94
X35.56Y25.4
X35.56Y22.86
X35.56Y20.32
X36.83Y15.24
X42.545Y78.105
X45.085Y78.105
X47.625Y78.105
X50.165Y78.105
X52.705Y78.105
X55.245Y78.105
X59.055Y78.105
X61.595Y78.105
X64.135Y78.105
X66.675Y78.105
X66.675Y45.72
X66.675Y43.18
X66.675Y40.64
X66.675Y38.1
X66.675Y35.56
X66.675Y33.02
X66.675Y30.48
X66.675Y27.94
X66.675Y25.4
X66.675Y22.86
X66.675Y20.32
X66.675Y17.78
X66.675Y15.24
X66.675Y12.7
X66.675Y10.16
X66.675Y7.62
T5
X12.726Y11.716
X12.726Y6.636
X18.695Y10.0
X21.235Y10.0
X23.775Y10.0
X27.305Y37.615
X27.305Y31.115
X31.805Y37.615
X31.805Y31.115
X43.125Y70.635
X43.125Y64.135
X43.125Y60.6
X43.125Y54.1
X47.625Y70.635
X47.625Y64.135
X47.625Y60.6
X47.625Y54.1
X51.38Y70.635
X51.38Y64.135
X51.38Y60.6
X51.38Y54.1
X55.88Y70.635
X55.88Y64.135
X55.88Y60.6
X55.88Y54.1
T6
X10.0Y20.0
X30.0Y70.0
T4
G00X29.69Y4.042
M15
G01X29.69Y6.042
M16
G05
G00X33.69Y9.742
M15
G01X31.69Y9.742
M16
G05
G00X35.69Y4.042
M15
G01X35.69Y6.042
M16
G05
T0
M30
