M48
; DRILL file {KiCad (6.0.2)} date Mon Aug  8 23:27:20 2022
; FORMAT={-:-/ absolute / metric / decimal}
; #@! TF.CreationDate,2022-08-08T23:27:20+08:00
; #@! TF.GenerationSoftware,Kicad,Pcbnew,(6.0.2)
; #@! TF.FileFunction,Plated,1,2,PTH
FMAT,2
METRIC
; #@! TA.AperFunction,Plated,PTH,ViaDrill
T1C0.600
; #@! TA.AperFunction,Plated,PTH,ComponentDrill
T2C0.800
; #@! TA.AperFunction,Plated,PTH,ComponentDrill
T3C0.900
; #@! TA.AperFunction,Plated,PTH,ComponentDrill
T4C1.000
; #@! TA.AperFunction,Plated,PTH,ComponentDrill
T5C1.100
; #@! TA.AperFunction,Plated,PTH,ViaDrill
T6C4.000
%
G90
G05
T1
X156.565Y-95.79
X160.375Y-96.425
X162.28Y-80.55
X164.185Y-56.42
X164.185Y-95.79
X164.185Y-99.6
X167.36Y-95.79
X167.36Y-107.855
X171.17Y-86.265
X171.17Y-90.71
X174.345Y-112.3
X174.98Y-108.49
X178.155Y-96.425
X180.06Y-73.565
X183.87Y-77.375
X187.06Y-62.135
X190.855Y-50.07
X195.935Y-50.07
X204.19Y-50.07
X209.19Y-84.28
X209.27Y-79.28
X209.27Y-89.44
X209.27Y-94.52
X209.27Y-99.6
X209.27Y-104.68
X209.27Y-109.76
X209.27Y-114.84
X211.81Y-81.82
X211.81Y-86.9
X211.81Y-91.98
X211.81Y-97.06
X211.81Y-102.14
X211.81Y-107.22
X211.81Y-112.3
X211.81Y-117.38
T2
X156.972Y-120.436
X156.972Y-122.936
X164.465Y-118.11
X164.465Y-123.19
X167.005Y-120.65
X172.72Y-120.055
X172.72Y-122.555
X181.305Y-65.31
X181.375Y-70.405
X181.375Y-75.485
X183.805Y-65.31
X183.915Y-72.945
X206.095Y-79.28
X206.095Y-81.78
X206.095Y-84.28
X206.095Y-86.78
X206.095Y-89.28
X206.095Y-91.78
X206.095Y-94.28
X206.095Y-96.78
X206.095Y-99.28
X206.095Y-101.78
X206.095Y-104.28
X206.095Y-106.78
X206.095Y-109.28
X206.095Y-111.78
X206.095Y-114.28
X206.095Y-116.78
X206.095Y-119.28
T3
X207.495Y-56.651
X209.273Y-58.175
X210.797Y-56.651
X212.321Y-58.175
T4
X152.12Y-96.425
X152.12Y-98.965
X152.12Y-101.505
X152.12Y-104.045
X152.12Y-107.855
X152.12Y-110.395
X152.12Y-112.935
X152.12Y-115.475
X152.12Y-118.015
X152.12Y-120.555
X154.025Y-88.287
X154.025Y-90.828
X156.565Y-88.287
X156.565Y-90.828
X159.105Y-88.287
X159.105Y-90.828
X161.645Y-88.287
X161.645Y-90.828
X164.185Y-60.23
X164.185Y-88.287
X164.185Y-90.828
X165.455Y-80.55
X166.725Y-60.23
X167.995Y-80.55
X169.265Y-60.23
X170.535Y-80.55
X171.805Y-60.23
X173.075Y-80.55
X174.345Y-60.23
X175.615Y-80.55
X176.885Y-60.23
X177.52Y-109.76
X178.155Y-80.55
X179.425Y-60.23
X180.06Y-109.76
X180.695Y-80.55
X181.965Y-60.23
X182.6Y-109.76
X183.235Y-80.55
X183.87Y-97.06
X183.87Y-99.6
X183.87Y-102.14
X183.87Y-104.68
X185.14Y-109.76
X190.855Y-46.895
X193.395Y-46.895
X195.935Y-46.895
X198.475Y-46.895
X201.015Y-46.895
X203.555Y-46.895
X207.365Y-46.895
X209.905Y-46.895
X212.445Y-46.895
X214.985Y-46.895
X214.985Y-79.28
X214.985Y-81.82
X214.985Y-84.36
X214.985Y-86.9
X214.985Y-89.44
X214.985Y-91.98
X214.985Y-94.52
X214.985Y-97.06
X214.985Y-99.6
X214.985Y-102.14
X214.985Y-104.68
X214.985Y-107.22
X214.985Y-109.76
X214.985Y-112.3
X214.985Y-114.84
X214.985Y-117.38
T5
X161.036Y-113.284
X161.036Y-118.364
X167.005Y-115.0
X169.545Y-115.0
X172.085Y-115.0
X175.615Y-87.385
X175.615Y-93.885
X180.115Y-87.385
X180.115Y-93.885
X191.435Y-54.365
X191.435Y-60.865
X191.435Y-64.4
X191.435Y-70.9
X195.935Y-54.365
X195.935Y-60.865
X195.935Y-64.4
X195.935Y-70.9
X199.69Y-54.365
X199.69Y-60.865
X199.69Y-64.4
X199.69Y-70.9
X204.19Y-54.365
X204.19Y-60.865
X204.19Y-64.4
X204.19Y-70.9
T6
X158.31Y-105.0
X178.31Y-55.0
T4
G00X178.0Y-120.957
M15
G01X178.0Y-118.957
M16
G05
G00X182.0Y-115.257
M15
G01X180.0Y-115.257
M16
G05
G00X184.0Y-120.957
M15
G01X184.0Y-118.957
M16
G05
T0
M30
