<?xml version="1.0" standalone="no"?>
 <!DOCTYPE svg PUBLIC "-//W3C//DTD SVG 1.1//EN" 
 "http://www.w3.org/Graphics/SVG/1.1/DTD/svg11.dtd"> 
<svg
  xmlns:svg="http://www.w3.org/2000/svg"
  xmlns="http://www.w3.org/2000/svg"
  xmlns:xlink="http://www.w3.org/1999/xlink"
  version="1.1"
  width="29.700220cm" height="21.000720cm" viewBox="0 0 116930 82680">
<title>SVG Picture created as TurnsCounter-drl_map.svg date 2022/08/10 22:11:18 </title>
  <desc>Picture generated by PCBNEW </desc>
<g style="fill:#000000; fill-opacity:1.000000;stroke:#000000; stroke-opacity:1.000000;
stroke-linecap:round; stroke-linejoin:round;"
 transform="translate(0 0) scale(1 1)">
</g>
<g style="fill:#000000; fill-opacity:0.0; 
stroke:#000000; stroke-width:0.000000; stroke-opacity:1; 
stroke-linecap:round; stroke-linejoin:round;">
</g>
<g style="fill:#000000; fill-opacity:0.0; 
stroke:#000000; stroke-width:57.010351; stroke-opacity:1; 
stroke-linecap:round; stroke-linejoin:round;">
</g>
<g style="fill:#000000; fill-opacity:1.0; 
stroke:#000000; stroke-width:0.000570; stroke-opacity:1; 
stroke-linecap:round; stroke-linejoin:round;">
<circle cx="44151.126386" cy="22241.384925" r="28.505746" /> 
</g>
<g style="fill:#000000; fill-opacity:1.0; 
stroke:#000000; stroke-width:57.010351; stroke-opacity:1; 
stroke-linecap:round; stroke-linejoin:round;">
</g>
<g style="fill:#000000; fill-opacity:0.0; 
stroke:#000000; stroke-width:57.010351; stroke-opacity:1; 
stroke-linecap:round; stroke-linejoin:round;">
<path d="M61539 2002
L52565 2002
" />
<path d="M78194 47610
L78194 1997
" />
<path d="M61539 47610
L61539 2002
" />
<path d="M38735 47610
L38735 24384
" />
<path d="M61904 47610
L78194 47610
" />
<path d="M44778 9784
L52565 2002
" />
<path d="M61904 1997
L61904 47610
" />
<path d="M38735 47610
L61539 47610
" />
<path d="M78194 1997
L61904 1997
" />
<path d="M38735.143048 24384.978110 A8550.798392 8550.798392 0.0 0 0 44778.240076 9784.623417" />
</g>
<g style="fill:#000000; fill-opacity:0.0; 
stroke:#000000; stroke-width:114.020702; stroke-opacity:1; 
stroke-linecap:round; stroke-linejoin:round;">
</g>
<g style="fill:#000000; fill-opacity:0.0; 
stroke:#000000; stroke-width:34.206211; stroke-opacity:1; 
stroke-linecap:round; stroke-linejoin:round;">
<path d="M43270 30787
L43612 31129
" />
<path d="M43612 30787
L43270 31129
" />
<path d="M45442 31149
L45784 31491
" />
<path d="M45784 31149
L45442 31491
" />
<path d="M46528 22098
L46870 22440
" />
<path d="M46870 22098
L46528 22440
" />
<path d="M47614 8342
L47956 8684
" />
<path d="M47956 8342
L47614 8684
" />
<path d="M47614 30787
L47956 31129
" />
<path d="M47956 30787
L47614 31129
" />
<path d="M47614 32959
L47956 33301
" />
<path d="M47956 32959
L47614 33301
" />
<path d="M49424 30787
L49766 31129
" />
<path d="M49766 30787
L49424 31129
" />
<path d="M49424 37665
L49766 38007
" />
<path d="M49766 37665
L49424 38007
" />
<path d="M51596 25357
L51938 25699
" />
<path d="M51938 25357
L51596 25699
" />
<path d="M51596 27891
L51938 28233
" />
<path d="M51938 27891
L51596 28233
" />
<path d="M53406 40199
L53748 40541
" />
<path d="M53748 40199
L53406 40541
" />
<path d="M53768 38027
L54110 38369
" />
<path d="M54110 38027
L53768 38369
" />
<path d="M55578 31149
L55920 31491
" />
<path d="M55920 31149
L55578 31491
" />
<path d="M56664 18116
L57006 18458
" />
<path d="M57006 18116
L56664 18458
" />
<path d="M58836 20288
L59179 20630
" />
<path d="M59179 20288
L58836 20630
" />
<path d="M60655 11600
L60997 11942
" />
<path d="M60997 11600
L60655 11942
" />
<path d="M62819 4722
L63161 5064
" />
<path d="M63161 4722
L62819 5064
" />
<path d="M65715 4722
L66057 5064
" />
<path d="M66057 4722
L65715 5064
" />
<path d="M70421 4722
L70763 5064
" />
<path d="M70763 4722
L70421 5064
" />
<path d="M73272 24225
L73614 24567
" />
<path d="M73614 24225
L73272 24567
" />
<path d="M73317 21374
L73659 21716
" />
<path d="M73659 21374
L73317 21716
" />
<path d="M73317 27167
L73659 27509
" />
<path d="M73659 27167
L73317 27509
" />
<path d="M73317 30063
L73659 30405
" />
<path d="M73659 30063
L73317 30405
" />
<path d="M73317 32959
L73659 33301
" />
<path d="M73659 32959
L73317 33301
" />
<path d="M73317 35855
L73659 36197
" />
<path d="M73659 35855
L73317 36197
" />
<path d="M73317 38751
L73659 39093
" />
<path d="M73659 38751
L73317 39093
" />
<path d="M73317 41647
L73659 41989
" />
<path d="M73659 41647
L73317 41989
" />
<path d="M74765 22822
L75107 23164
" />
<path d="M75107 22822
L74765 23164
" />
<path d="M74765 25719
L75107 26061
" />
<path d="M75107 25719
L74765 26061
" />
<path d="M74765 28615
L75107 28957
" />
<path d="M75107 28615
L74765 28957
" />
<path d="M74765 31511
L75107 31853
" />
<path d="M75107 31511
L74765 31853
" />
<path d="M74765 34407
L75107 34749
" />
<path d="M75107 34407
L74765 34749
" />
<path d="M74765 37303
L75107 37645
" />
<path d="M75107 37303
L74765 37645
" />
<path d="M74765 40199
L75107 40541
" />
<path d="M75107 40199
L74765 40541
" />
<path d="M74765 43095
L75107 43437
" />
<path d="M75107 43095
L74765 43437
" />
</g>
<g style="fill:#000000; fill-opacity:0.0; 
stroke:#000000; stroke-width:45.608281; stroke-opacity:1; 
stroke-linecap:round; stroke-linejoin:round;">
<circle cx="43673.379645" cy="45009.038670" r="228.041404" /> 
<circle cx="43673.379645" cy="46434.297443" r="228.041404" /> 
<circle cx="47945.165240" cy="43682.977908" r="228.041404" /> 
<circle cx="47945.165240" cy="46579.103735" r="228.041404" /> 
<circle cx="49393.228153" cy="45131.040821" r="228.041404" /> 
<circle cx="52651.369709" cy="44791.829233" r="228.041404" /> 
<circle cx="52651.369709" cy="46217.088006" r="228.041404" /> 
<circle cx="57545.772187" cy="13581.512619" r="228.041404" /> 
<circle cx="57585.615581" cy="16486.189999" r="228.041404" /> 
<circle cx="57585.615581" cy="19382.315826" r="228.041404" /> 
<circle cx="58971.030960" cy="13581.512619" r="228.041404" /> 
<circle cx="59033.678495" cy="17934.252912" r="228.041404" /> 
<circle cx="71678.574330" cy="21545.858644" r="228.041404" /> 
<circle cx="71678.574330" cy="22971.117417" r="228.041404" /> 
<circle cx="71678.574330" cy="24396.376190" r="228.041404" /> 
<circle cx="71678.574330" cy="25821.634963" r="228.041404" /> 
<circle cx="71678.574330" cy="27246.893736" r="228.041404" /> 
<circle cx="71678.574330" cy="28672.152509" r="228.041404" /> 
<circle cx="71678.574330" cy="30097.411282" r="228.041404" /> 
<circle cx="71678.574330" cy="31522.670055" r="228.041404" /> 
<circle cx="71678.574330" cy="32947.928829" r="228.041404" /> 
<circle cx="71678.574330" cy="34373.187602" r="228.041404" /> 
<circle cx="71678.574330" cy="35798.446375" r="228.041404" /> 
<circle cx="71678.574330" cy="37223.705148" r="228.041404" /> 
<circle cx="71678.574330" cy="38648.963921" r="228.041404" /> 
<circle cx="71678.574330" cy="40074.222694" r="228.041404" /> 
<circle cx="71678.574330" cy="41499.481467" r="228.041404" /> 
<circle cx="71678.574330" cy="42924.740240" r="228.041404" /> 
<circle cx="71678.574330" cy="44349.999014" r="228.041404" /> 
</g>
<g style="fill:#000000; fill-opacity:0.0; 
stroke:#000000; stroke-width:51.309316; stroke-opacity:1; 
stroke-linecap:round; stroke-linejoin:round;">
<path d="M72476 8388
L72476 8901
" />
<path d="M72220 8644
L72733 8644
" />
<path d="M73490 9257
L73490 9770
" />
<path d="M73233 9513
L73746 9513
" />
<path d="M74359 8388
L74359 8901
" />
<path d="M74102 8644
L74615 8644
" />
<path d="M75228 9257
L75228 9770
" />
<path d="M74971 9513
L75484 9513
" />
</g>
<g style="fill:#000000; fill-opacity:0.0; 
stroke:#000000; stroke-width:57.010351; stroke-opacity:1; 
stroke-linecap:round; stroke-linejoin:round;">
<path style="fill:#000000; fill-opacity:0.0; 
stroke:#000000; stroke-width:57.010351; stroke-opacity:1; 
stroke-linecap:round; stroke-linejoin:round;fill:none"
d="M 41108.801505,31521.847396
41108.801505,31118.719223
40705.673332,31118.719223
40705.673332,31521.847396
Z" /> 
<path style="fill:#000000; fill-opacity:0.0; 
stroke:#000000; stroke-width:57.010351; stroke-opacity:1; 
stroke-linecap:round; stroke-linejoin:round;fill:none"
d="M 41108.801505,32969.910310
41108.801505,32566.782137
40705.673332,32566.782137
40705.673332,32969.910310
Z" /> 
<path style="fill:#000000; fill-opacity:0.0; 
stroke:#000000; stroke-width:57.010351; stroke-opacity:1; 
stroke-linecap:round; stroke-linejoin:round;fill:none"
d="M 41108.801505,34417.973223
41108.801505,34014.845050
40705.673332,34014.845050
40705.673332,34417.973223
Z" /> 
<path style="fill:#000000; fill-opacity:0.0; 
stroke:#000000; stroke-width:57.010351; stroke-opacity:1; 
stroke-linecap:round; stroke-linejoin:round;fill:none"
d="M 41108.801505,35866.036137
41108.801505,35462.907964
40705.673332,35462.907964
40705.673332,35866.036137
Z" /> 
<path style="fill:#000000; fill-opacity:0.0; 
stroke:#000000; stroke-width:57.010351; stroke-opacity:1; 
stroke-linecap:round; stroke-linejoin:round;fill:none"
d="M 41108.801505,38038.130507
41108.801505,37635.002334
40705.673332,37635.002334
40705.673332,38038.130507
Z" /> 
<path style="fill:#000000; fill-opacity:0.0; 
stroke:#000000; stroke-width:57.010351; stroke-opacity:1; 
stroke-linecap:round; stroke-linejoin:round;fill:none"
d="M 41108.801505,39486.193420
41108.801505,39083.065247
40705.673332,39083.065247
40705.673332,39486.193420
Z" /> 
<path style="fill:#000000; fill-opacity:0.0; 
stroke:#000000; stroke-width:57.010351; stroke-opacity:1; 
stroke-linecap:round; stroke-linejoin:round;fill:none"
d="M 41108.801505,40934.256334
41108.801505,40531.128161
40705.673332,40531.128161
40705.673332,40934.256334
Z" /> 
<path style="fill:#000000; fill-opacity:0.0; 
stroke:#000000; stroke-width:57.010351; stroke-opacity:1; 
stroke-linecap:round; stroke-linejoin:round;fill:none"
d="M 41108.801505,42382.319247
41108.801505,41979.191074
40705.673332,41979.191074
40705.673332,42382.319247
Z" /> 
<path style="fill:#000000; fill-opacity:0.0; 
stroke:#000000; stroke-width:57.010351; stroke-opacity:1; 
stroke-linecap:round; stroke-linejoin:round;fill:none"
d="M 41108.801505,43830.382161
41108.801505,43427.253988
40705.673332,43427.253988
40705.673332,43830.382161
Z" /> 
<path style="fill:#000000; fill-opacity:0.0; 
stroke:#000000; stroke-width:57.010351; stroke-opacity:1; 
stroke-linecap:round; stroke-linejoin:round;fill:none"
d="M 41108.801505,45278.445074
41108.801505,44875.316901
40705.673332,44875.316901
40705.673332,45278.445074
Z" /> 
<path style="fill:#000000; fill-opacity:0.0; 
stroke:#000000; stroke-width:57.010351; stroke-opacity:1; 
stroke-linecap:round; stroke-linejoin:round;fill:none"
d="M 42194.848690,26882.630090
42194.848690,26479.501917
41791.720517,26479.501917
41791.720517,26882.630090
Z" /> 
<path style="fill:#000000; fill-opacity:0.0; 
stroke:#000000; stroke-width:57.010351; stroke-opacity:1; 
stroke-linecap:round; stroke-linejoin:round;fill:none"
d="M 42194.848690,28330.693003
42194.848690,27927.564830
41791.720517,27927.564830
41791.720517,28330.693003
Z" /> 
<path style="fill:#000000; fill-opacity:0.0; 
stroke:#000000; stroke-width:57.010351; stroke-opacity:1; 
stroke-linecap:round; stroke-linejoin:round;fill:none"
d="M 43642.911603,26882.630090
43642.911603,26479.501917
43239.783430,26479.501917
43239.783430,26882.630090
Z" /> 
<path style="fill:#000000; fill-opacity:0.0; 
stroke:#000000; stroke-width:57.010351; stroke-opacity:1; 
stroke-linecap:round; stroke-linejoin:round;fill:none"
d="M 43642.911603,28330.693003
43642.911603,27927.564830
43239.783430,27927.564830
43239.783430,28330.693003
Z" /> 
<path style="fill:#000000; fill-opacity:0.0; 
stroke:#000000; stroke-width:57.010351; stroke-opacity:1; 
stroke-linecap:round; stroke-linejoin:round;fill:none"
d="M 45090.974517,26882.630090
45090.974517,26479.501917
44687.846344,26479.501917
44687.846344,26882.630090
Z" /> 
<path style="fill:#000000; fill-opacity:0.0; 
stroke:#000000; stroke-width:57.010351; stroke-opacity:1; 
stroke-linecap:round; stroke-linejoin:round;fill:none"
d="M 45090.974517,28330.693003
45090.974517,27927.564830
44687.846344,27927.564830
44687.846344,28330.693003
Z" /> 
<path style="fill:#000000; fill-opacity:0.0; 
stroke:#000000; stroke-width:57.010351; stroke-opacity:1; 
stroke-linecap:round; stroke-linejoin:round;fill:none"
d="M 46539.037430,26882.630090
46539.037430,26479.501917
46135.909257,26479.501917
46135.909257,26882.630090
Z" /> 
<path style="fill:#000000; fill-opacity:0.0; 
stroke:#000000; stroke-width:57.010351; stroke-opacity:1; 
stroke-linecap:round; stroke-linejoin:round;fill:none"
d="M 46539.037430,28330.693003
46539.037430,27927.564830
46135.909257,27927.564830
46135.909257,28330.693003
Z" /> 
<path style="fill:#000000; fill-opacity:0.0; 
stroke:#000000; stroke-width:57.010351; stroke-opacity:1; 
stroke-linecap:round; stroke-linejoin:round;fill:none"
d="M 47987.100344,10886.950879
47987.100344,10483.822706
47583.972171,10483.822706
47583.972171,10886.950879
Z" /> 
<path style="fill:#000000; fill-opacity:0.0; 
stroke:#000000; stroke-width:57.010351; stroke-opacity:1; 
stroke-linecap:round; stroke-linejoin:round;fill:none"
d="M 47987.100344,26882.630090
47987.100344,26479.501917
47583.972171,26479.501917
47583.972171,26882.630090
Z" /> 
<path style="fill:#000000; fill-opacity:0.0; 
stroke:#000000; stroke-width:57.010351; stroke-opacity:1; 
stroke-linecap:round; stroke-linejoin:round;fill:none"
d="M 47987.100344,28330.693003
47987.100344,27927.564830
47583.972171,27927.564830
47583.972171,28330.693003
Z" /> 
<path style="fill:#000000; fill-opacity:0.0; 
stroke:#000000; stroke-width:57.010351; stroke-opacity:1; 
stroke-linecap:round; stroke-linejoin:round;fill:none"
d="M 48711.131800,22471.454187
48711.131800,22068.326014
48308.003628,22068.326014
48308.003628,22471.454187
Z" /> 
<path style="fill:#000000; fill-opacity:0.0; 
stroke:#000000; stroke-width:57.010351; stroke-opacity:1; 
stroke-linecap:round; stroke-linejoin:round;fill:none"
d="M 49435.163257,10886.950879
49435.163257,10483.822706
49032.035084,10483.822706
49032.035084,10886.950879
Z" /> 
<path style="fill:#000000; fill-opacity:0.0; 
stroke:#000000; stroke-width:57.010351; stroke-opacity:1; 
stroke-linecap:round; stroke-linejoin:round;fill:none"
d="M 50159.194714,22471.454187
50159.194714,22068.326014
49756.066541,22068.326014
49756.066541,22471.454187
Z" /> 
<path style="fill:#000000; fill-opacity:0.0; 
stroke:#000000; stroke-width:57.010351; stroke-opacity:1; 
stroke-linecap:round; stroke-linejoin:round;fill:none"
d="M 50883.226171,10886.950879
50883.226171,10483.822706
50480.097998,10483.822706
50480.097998,10886.950879
Z" /> 
<path style="fill:#000000; fill-opacity:0.0; 
stroke:#000000; stroke-width:57.010351; stroke-opacity:1; 
stroke-linecap:round; stroke-linejoin:round;fill:none"
d="M 51607.257627,22471.454187
51607.257627,22068.326014
51204.129455,22068.326014
51204.129455,22471.454187
Z" /> 
<path style="fill:#000000; fill-opacity:0.0; 
stroke:#000000; stroke-width:57.010351; stroke-opacity:1; 
stroke-linecap:round; stroke-linejoin:round;fill:none"
d="M 52331.289084,10886.950879
52331.289084,10483.822706
51928.160911,10483.822706
51928.160911,10886.950879
Z" /> 
<path style="fill:#000000; fill-opacity:0.0; 
stroke:#000000; stroke-width:57.010351; stroke-opacity:1; 
stroke-linecap:round; stroke-linejoin:round;fill:none"
d="M 53055.320541,22471.454187
53055.320541,22068.326014
52652.192368,22068.326014
52652.192368,22471.454187
Z" /> 
<path style="fill:#000000; fill-opacity:0.0; 
stroke:#000000; stroke-width:57.010351; stroke-opacity:1; 
stroke-linecap:round; stroke-linejoin:round;fill:none"
d="M 53779.351998,10886.950879
53779.351998,10483.822706
53376.223825,10483.822706
53376.223825,10886.950879
Z" /> 
<path style="fill:#000000; fill-opacity:0.0; 
stroke:#000000; stroke-width:57.010351; stroke-opacity:1; 
stroke-linecap:round; stroke-linejoin:round;fill:none"
d="M 54503.383454,22471.454187
54503.383454,22068.326014
54100.255282,22068.326014
54100.255282,22471.454187
Z" /> 
<path style="fill:#000000; fill-opacity:0.0; 
stroke:#000000; stroke-width:57.010351; stroke-opacity:1; 
stroke-linecap:round; stroke-linejoin:round;fill:none"
d="M 55227.414911,10886.950879
55227.414911,10483.822706
54824.286738,10483.822706
54824.286738,10886.950879
Z" /> 
<path style="fill:#000000; fill-opacity:0.0; 
stroke:#000000; stroke-width:57.010351; stroke-opacity:1; 
stroke-linecap:round; stroke-linejoin:round;fill:none"
d="M 55589.430640,39124.177692
55589.430640,38721.049519
55186.302467,38721.049519
55186.302467,39124.177692
Z" /> 
<path style="fill:#000000; fill-opacity:0.0; 
stroke:#000000; stroke-width:57.010351; stroke-opacity:1; 
stroke-linecap:round; stroke-linejoin:round;fill:none"
d="M 55863.080324,44937.808227
55863.080324,44534.680055
55459.952151,44534.680055
55459.952151,44937.808227
Z" /> 
</g>
<g style="fill:#000000; fill-opacity:0.0; 
stroke:#000000; stroke-width:114.020702; stroke-opacity:1; 
stroke-linecap:round; stroke-linejoin:round;">
<path d="M55946 45306
L55946 44166
" />
<path d="M55376 45306
L55376 44166
" />
<path d="M55946.567992 44166.140632 A285.051755 285.051755 0.0 0 0 55376.464483 44166.140632" />
<path d="M55376.464483 45306.347650 A285.051755 285.051755 0.0 0 0 55946.567992 45306.347650" />
</g>
<g style="fill:#000000; fill-opacity:0.0; 
stroke:#000000; stroke-width:57.010351; stroke-opacity:1; 
stroke-linecap:round; stroke-linejoin:round;">
<path style="fill:#000000; fill-opacity:0.0; 
stroke:#000000; stroke-width:57.010351; stroke-opacity:1; 
stroke-linecap:round; stroke-linejoin:round;fill:none"
d="M 55951.446368,22471.454187
55951.446368,22068.326014
55548.318195,22068.326014
55548.318195,22471.454187
Z" /> 
<path style="fill:#000000; fill-opacity:0.0; 
stroke:#000000; stroke-width:57.010351; stroke-opacity:1; 
stroke-linecap:round; stroke-linejoin:round;fill:none"
d="M 56675.477825,10886.950879
56675.477825,10483.822706
56272.349652,10483.822706
56272.349652,10886.950879
Z" /> 
<path style="fill:#000000; fill-opacity:0.0; 
stroke:#000000; stroke-width:57.010351; stroke-opacity:1; 
stroke-linecap:round; stroke-linejoin:round;fill:none"
d="M 57037.493553,39124.177692
57037.493553,38721.049519
56634.365380,38721.049519
56634.365380,39124.177692
Z" /> 
<path style="fill:#000000; fill-opacity:0.0; 
stroke:#000000; stroke-width:57.010351; stroke-opacity:1; 
stroke-linecap:round; stroke-linejoin:round;fill:none"
d="M 57399.509281,22471.454187
57399.509281,22068.326014
56996.381109,22068.326014
56996.381109,22471.454187
Z" /> 
<path style="fill:#000000; fill-opacity:0.0; 
stroke:#000000; stroke-width:57.010351; stroke-opacity:1; 
stroke-linecap:round; stroke-linejoin:round;fill:none"
d="M 57573.390852,42258.321734
57573.390852,41855.193561
57170.262679,41855.193561
57170.262679,42258.321734
Z" /> 
</g>
<g style="fill:#000000; fill-opacity:0.0; 
stroke:#000000; stroke-width:114.020702; stroke-opacity:1; 
stroke-linecap:round; stroke-linejoin:round;">
<path d="M57941 41771
L56801 41771
" />
<path d="M57941 42341
L56801 42341
" />
<path d="M56801.723256 41771.705893 A285.051755 285.051755 0.0 0 0 56801.723256 42341.809402" />
<path d="M57941.930275 42341.809402 A285.051755 285.051755 0.0 0 0 57941.930275 41771.705893" />
</g>
<g style="fill:#000000; fill-opacity:0.0; 
stroke:#000000; stroke-width:57.010351; stroke-opacity:1; 
stroke-linecap:round; stroke-linejoin:round;">
<path style="fill:#000000; fill-opacity:0.0; 
stroke:#000000; stroke-width:57.010351; stroke-opacity:1; 
stroke-linecap:round; stroke-linejoin:round;fill:none"
d="M 58123.540738,10886.950879
58123.540738,10483.822706
57720.412565,10483.822706
57720.412565,10886.950879
Z" /> 
<path style="fill:#000000; fill-opacity:0.0; 
stroke:#000000; stroke-width:57.010351; stroke-opacity:1; 
stroke-linecap:round; stroke-linejoin:round;fill:none"
d="M 58485.556467,39124.177692
58485.556467,38721.049519
58082.428294,38721.049519
58082.428294,39124.177692
Z" /> 
<path style="fill:#000000; fill-opacity:0.0; 
stroke:#000000; stroke-width:57.010351; stroke-opacity:1; 
stroke-linecap:round; stroke-linejoin:round;fill:none"
d="M 58847.572195,22471.454187
58847.572195,22068.326014
58444.444022,22068.326014
58444.444022,22471.454187
Z" /> 
<path style="fill:#000000; fill-opacity:0.0; 
stroke:#000000; stroke-width:57.010351; stroke-opacity:1; 
stroke-linecap:round; stroke-linejoin:round;fill:none"
d="M 59209.587923,31883.863124
59209.587923,31480.734952
58806.459750,31480.734952
58806.459750,31883.863124
Z" /> 
<path style="fill:#000000; fill-opacity:0.0; 
stroke:#000000; stroke-width:57.010351; stroke-opacity:1; 
stroke-linecap:round; stroke-linejoin:round;fill:none"
d="M 59209.587923,33331.926038
59209.587923,32928.797865
58806.459750,32928.797865
58806.459750,33331.926038
Z" /> 
<path style="fill:#000000; fill-opacity:0.0; 
stroke:#000000; stroke-width:57.010351; stroke-opacity:1; 
stroke-linecap:round; stroke-linejoin:round;fill:none"
d="M 59209.587923,34779.988951
59209.587923,34376.860779
58806.459750,34376.860779
58806.459750,34779.988951
Z" /> 
<path style="fill:#000000; fill-opacity:0.0; 
stroke:#000000; stroke-width:57.010351; stroke-opacity:1; 
stroke-linecap:round; stroke-linejoin:round;fill:none"
d="M 59209.587923,36228.051865
59209.587923,35824.923692
58806.459750,35824.923692
58806.459750,36228.051865
Z" /> 
<path style="fill:#000000; fill-opacity:0.0; 
stroke:#000000; stroke-width:57.010351; stroke-opacity:1; 
stroke-linecap:round; stroke-linejoin:round;fill:none"
d="M 59283.701379,44937.808227
59283.701379,44534.680055
58880.573207,44534.680055
58880.573207,44937.808227
Z" /> 
</g>
<g style="fill:#000000; fill-opacity:0.0; 
stroke:#000000; stroke-width:114.020702; stroke-opacity:1; 
stroke-linecap:round; stroke-linejoin:round;">
<path d="M59367 45306
L59367 44166
" />
<path d="M58797 45306
L58797 44166
" />
<path d="M59367.189048 44166.140632 A285.051755 285.051755 0.0 0 0 58797.085538 44166.140632" />
<path d="M58797.085538 45306.347650 A285.051755 285.051755 0.0 0 0 59367.189048 45306.347650" />
</g>
<g style="fill:#000000; fill-opacity:0.0; 
stroke:#000000; stroke-width:57.010351; stroke-opacity:1; 
stroke-linecap:round; stroke-linejoin:round;">
<path style="fill:#000000; fill-opacity:0.0; 
stroke:#000000; stroke-width:57.010351; stroke-opacity:1; 
stroke-linecap:round; stroke-linejoin:round;fill:none"
d="M 59933.619380,39124.177692
59933.619380,38721.049519
59530.491207,38721.049519
59530.491207,39124.177692
Z" /> 
<path style="fill:#000000; fill-opacity:0.0; 
stroke:#000000; stroke-width:57.010351; stroke-opacity:1; 
stroke-linecap:round; stroke-linejoin:round;fill:none"
d="M 63191.760935,3284.620583
63191.760935,2881.492410
62788.632763,2881.492410
62788.632763,3284.620583
Z" /> 
<path style="fill:#000000; fill-opacity:0.0; 
stroke:#000000; stroke-width:57.010351; stroke-opacity:1; 
stroke-linecap:round; stroke-linejoin:round;fill:none"
d="M 64639.823849,3284.620583
64639.823849,2881.492410
64236.695676,2881.492410
64236.695676,3284.620583
Z" /> 
<path style="fill:#000000; fill-opacity:0.0; 
stroke:#000000; stroke-width:57.010351; stroke-opacity:1; 
stroke-linecap:round; stroke-linejoin:round;fill:none"
d="M 66087.886762,3284.620583
66087.886762,2881.492410
65684.758590,2881.492410
65684.758590,3284.620583
Z" /> 
<path style="fill:#000000; fill-opacity:0.0; 
stroke:#000000; stroke-width:57.010351; stroke-opacity:1; 
stroke-linecap:round; stroke-linejoin:round;fill:none"
d="M 67535.949676,3284.620583
67535.949676,2881.492410
67132.821503,2881.492410
67132.821503,3284.620583
Z" /> 
<path style="fill:#000000; fill-opacity:0.0; 
stroke:#000000; stroke-width:57.010351; stroke-opacity:1; 
stroke-linecap:round; stroke-linejoin:round;fill:none"
d="M 68984.012589,3284.620583
68984.012589,2881.492410
68580.884417,2881.492410
68580.884417,3284.620583
Z" /> 
<path style="fill:#000000; fill-opacity:0.0; 
stroke:#000000; stroke-width:57.010351; stroke-opacity:1; 
stroke-linecap:round; stroke-linejoin:round;fill:none"
d="M 70432.075503,3284.620583
70432.075503,2881.492410
70028.947330,2881.492410
70028.947330,3284.620583
Z" /> 
<path style="fill:#000000; fill-opacity:0.0; 
stroke:#000000; stroke-width:57.010351; stroke-opacity:1; 
stroke-linecap:round; stroke-linejoin:round;fill:none"
d="M 72604.169873,3284.620583
72604.169873,2881.492410
72201.041700,2881.492410
72201.041700,3284.620583
Z" /> 
<path style="fill:#000000; fill-opacity:0.0; 
stroke:#000000; stroke-width:57.010351; stroke-opacity:1; 
stroke-linecap:round; stroke-linejoin:round;fill:none"
d="M 74052.232787,3284.620583
74052.232787,2881.492410
73649.104614,2881.492410
73649.104614,3284.620583
Z" /> 
<path style="fill:#000000; fill-opacity:0.0; 
stroke:#000000; stroke-width:57.010351; stroke-opacity:1; 
stroke-linecap:round; stroke-linejoin:round;fill:none"
d="M 75500.295700,3284.620583
75500.295700,2881.492410
75097.167527,2881.492410
75097.167527,3284.620583
Z" /> 
<path style="fill:#000000; fill-opacity:0.0; 
stroke:#000000; stroke-width:57.010351; stroke-opacity:1; 
stroke-linecap:round; stroke-linejoin:round;fill:none"
d="M 76948.358614,3284.620583
76948.358614,2881.492410
76545.230441,2881.492410
76545.230441,3284.620583
Z" /> 
<path style="fill:#000000; fill-opacity:0.0; 
stroke:#000000; stroke-width:57.010351; stroke-opacity:1; 
stroke-linecap:round; stroke-linejoin:round;fill:none"
d="M 76948.358614,21747.422730
76948.358614,21344.294557
76545.230441,21344.294557
76545.230441,21747.422730
Z" /> 
<path style="fill:#000000; fill-opacity:0.0; 
stroke:#000000; stroke-width:57.010351; stroke-opacity:1; 
stroke-linecap:round; stroke-linejoin:round;fill:none"
d="M 76948.358614,23195.485643
76948.358614,22792.357471
76545.230441,22792.357471
76545.230441,23195.485643
Z" /> 
<path style="fill:#000000; fill-opacity:0.0; 
stroke:#000000; stroke-width:57.010351; stroke-opacity:1; 
stroke-linecap:round; stroke-linejoin:round;fill:none"
d="M 76948.358614,24643.548557
76948.358614,24240.420384
76545.230441,24240.420384
76545.230441,24643.548557
Z" /> 
<path style="fill:#000000; fill-opacity:0.0; 
stroke:#000000; stroke-width:57.010351; stroke-opacity:1; 
stroke-linecap:round; stroke-linejoin:round;fill:none"
d="M 76948.358614,26091.611470
76948.358614,25688.483298
76545.230441,25688.483298
76545.230441,26091.611470
Z" /> 
<path style="fill:#000000; fill-opacity:0.0; 
stroke:#000000; stroke-width:57.010351; stroke-opacity:1; 
stroke-linecap:round; stroke-linejoin:round;fill:none"
d="M 76948.358614,27539.674384
76948.358614,27136.546211
76545.230441,27136.546211
76545.230441,27539.674384
Z" /> 
<path style="fill:#000000; fill-opacity:0.0; 
stroke:#000000; stroke-width:57.010351; stroke-opacity:1; 
stroke-linecap:round; stroke-linejoin:round;fill:none"
d="M 76948.358614,28987.737297
76948.358614,28584.609125
76545.230441,28584.609125
76545.230441,28987.737297
Z" /> 
<path style="fill:#000000; fill-opacity:0.0; 
stroke:#000000; stroke-width:57.010351; stroke-opacity:1; 
stroke-linecap:round; stroke-linejoin:round;fill:none"
d="M 76948.358614,30435.800211
76948.358614,30032.672038
76545.230441,30032.672038
76545.230441,30435.800211
Z" /> 
<path style="fill:#000000; fill-opacity:0.0; 
stroke:#000000; stroke-width:57.010351; stroke-opacity:1; 
stroke-linecap:round; stroke-linejoin:round;fill:none"
d="M 76948.358614,31883.863124
76948.358614,31480.734952
76545.230441,31480.734952
76545.230441,31883.863124
Z" /> 
<path style="fill:#000000; fill-opacity:0.0; 
stroke:#000000; stroke-width:57.010351; stroke-opacity:1; 
stroke-linecap:round; stroke-linejoin:round;fill:none"
d="M 76948.358614,33331.926038
76948.358614,32928.797865
76545.230441,32928.797865
76545.230441,33331.926038
Z" /> 
<path style="fill:#000000; fill-opacity:0.0; 
stroke:#000000; stroke-width:57.010351; stroke-opacity:1; 
stroke-linecap:round; stroke-linejoin:round;fill:none"
d="M 76948.358614,34779.988951
76948.358614,34376.860779
76545.230441,34376.860779
76545.230441,34779.988951
Z" /> 
<path style="fill:#000000; fill-opacity:0.0; 
stroke:#000000; stroke-width:57.010351; stroke-opacity:1; 
stroke-linecap:round; stroke-linejoin:round;fill:none"
d="M 76948.358614,36228.051865
76948.358614,35824.923692
76545.230441,35824.923692
76545.230441,36228.051865
Z" /> 
<path style="fill:#000000; fill-opacity:0.0; 
stroke:#000000; stroke-width:57.010351; stroke-opacity:1; 
stroke-linecap:round; stroke-linejoin:round;fill:none"
d="M 76948.358614,37676.114778
76948.358614,37272.986606
76545.230441,37272.986606
76545.230441,37676.114778
Z" /> 
<path style="fill:#000000; fill-opacity:0.0; 
stroke:#000000; stroke-width:57.010351; stroke-opacity:1; 
stroke-linecap:round; stroke-linejoin:round;fill:none"
d="M 76948.358614,39124.177692
76948.358614,38721.049519
76545.230441,38721.049519
76545.230441,39124.177692
Z" /> 
<path style="fill:#000000; fill-opacity:0.0; 
stroke:#000000; stroke-width:57.010351; stroke-opacity:1; 
stroke-linecap:round; stroke-linejoin:round;fill:none"
d="M 76948.358614,40572.240605
76948.358614,40169.112433
76545.230441,40169.112433
76545.230441,40572.240605
Z" /> 
<path style="fill:#000000; fill-opacity:0.0; 
stroke:#000000; stroke-width:57.010351; stroke-opacity:1; 
stroke-linecap:round; stroke-linejoin:round;fill:none"
d="M 76948.358614,42020.303519
76948.358614,41617.175346
76545.230441,41617.175346
76545.230441,42020.303519
Z" /> 
<path style="fill:#000000; fill-opacity:0.0; 
stroke:#000000; stroke-width:57.010351; stroke-opacity:1; 
stroke-linecap:round; stroke-linejoin:round;fill:none"
d="M 76948.358614,43468.366432
76948.358614,43065.238260
76545.230441,43065.238260
76545.230441,43468.366432
Z" /> 
</g>
<g style="fill:#000000; fill-opacity:0.0; 
stroke:#000000; stroke-width:62.711386; stroke-opacity:1; 
stroke-linecap:round; stroke-linejoin:round;">
<path style="fill:#000000; fill-opacity:0.0; 
stroke:#000000; stroke-width:62.711386; stroke-opacity:1; 
stroke-linecap:round; stroke-linejoin:round;fill:none"
d="M 45990.280307,41245.215302
46303.837237,40931.658372
45990.280307,40618.101442
45676.723377,40931.658372
Z" /> 
<path style="fill:#000000; fill-opacity:0.0; 
stroke:#000000; stroke-width:62.711386; stroke-opacity:1; 
stroke-linecap:round; stroke-linejoin:round;fill:none"
d="M 45990.280307,44141.341129
46303.837237,43827.784199
45990.280307,43514.227269
45676.723377,43827.784199
Z" /> 
<path style="fill:#000000; fill-opacity:0.0; 
stroke:#000000; stroke-width:62.711386; stroke-opacity:1; 
stroke-linecap:round; stroke-linejoin:round;fill:none"
d="M 49393.228153,42223.512924
49706.785083,41909.955994
49393.228153,41596.399064
49079.671223,41909.955994
Z" /> 
<path style="fill:#000000; fill-opacity:0.0; 
stroke:#000000; stroke-width:62.711386; stroke-opacity:1; 
stroke-linecap:round; stroke-linejoin:round;fill:none"
d="M 50841.291067,42223.512924
51154.847997,41909.955994
50841.291067,41596.399064
50527.734137,41909.955994
Z" /> 
<path style="fill:#000000; fill-opacity:0.0; 
stroke:#000000; stroke-width:62.711386; stroke-opacity:1; 
stroke-linecap:round; stroke-linejoin:round;fill:none"
d="M 52289.353980,42223.512924
52602.910910,41909.955994
52289.353980,41596.399064
51975.797050,41909.955994
Z" /> 
<path style="fill:#000000; fill-opacity:0.0; 
stroke:#000000; stroke-width:62.711386; stroke-opacity:1; 
stroke-linecap:round; stroke-linejoin:round;fill:none"
d="M 54301.819368,26480.104516
54615.376298,26166.547586
54301.819368,25852.990656
53988.262438,26166.547586
Z" /> 
<path style="fill:#000000; fill-opacity:0.0; 
stroke:#000000; stroke-width:62.711386; stroke-opacity:1; 
stroke-linecap:round; stroke-linejoin:round;fill:none"
d="M 54301.819368,30185.777326
54615.376298,29872.220396
54301.819368,29558.663466
53988.262438,29872.220396
Z" /> 
<path style="fill:#000000; fill-opacity:0.0; 
stroke:#000000; stroke-width:62.711386; stroke-opacity:1; 
stroke-linecap:round; stroke-linejoin:round;fill:none"
d="M 56867.285160,26480.104516
57180.842090,26166.547586
56867.285160,25852.990656
56553.728230,26166.547586
Z" /> 
<path style="fill:#000000; fill-opacity:0.0; 
stroke:#000000; stroke-width:62.711386; stroke-opacity:1; 
stroke-linecap:round; stroke-linejoin:round;fill:none"
d="M 56867.285160,30185.777326
57180.842090,29872.220396
56867.285160,29558.663466
56553.728230,29872.220396
Z" /> 
<path style="fill:#000000; fill-opacity:0.0; 
stroke:#000000; stroke-width:62.711386; stroke-opacity:1; 
stroke-linecap:round; stroke-linejoin:round;fill:none"
d="M 63320.856884,7655.286641
63634.413814,7341.729711
63320.856884,7028.172781
63007.299954,7341.729711
Z" /> 
<path style="fill:#000000; fill-opacity:0.0; 
stroke:#000000; stroke-width:62.711386; stroke-opacity:1; 
stroke-linecap:round; stroke-linejoin:round;fill:none"
d="M 63320.856884,11360.959451
63634.413814,11047.402521
63320.856884,10733.845591
63007.299954,11047.402521
Z" /> 
<path style="fill:#000000; fill-opacity:0.0; 
stroke:#000000; stroke-width:62.711386; stroke-opacity:1; 
stroke-linecap:round; stroke-linejoin:round;fill:none"
d="M 63320.856884,13376.275356
63634.413814,13062.718426
63320.856884,12749.161496
63007.299954,13062.718426
Z" /> 
<path style="fill:#000000; fill-opacity:0.0; 
stroke:#000000; stroke-width:62.711386; stroke-opacity:1; 
stroke-linecap:round; stroke-linejoin:round;fill:none"
d="M 63320.856884,17081.948166
63634.413814,16768.391236
63320.856884,16454.834306
63007.299954,16768.391236
Z" /> 
<path style="fill:#000000; fill-opacity:0.0; 
stroke:#000000; stroke-width:62.711386; stroke-opacity:1; 
stroke-linecap:round; stroke-linejoin:round;fill:none"
d="M 65886.322676,7655.286641
66199.879606,7341.729711
65886.322676,7028.172781
65572.765746,7341.729711
Z" /> 
<path style="fill:#000000; fill-opacity:0.0; 
stroke:#000000; stroke-width:62.711386; stroke-opacity:1; 
stroke-linecap:round; stroke-linejoin:round;fill:none"
d="M 65886.322676,11360.959451
66199.879606,11047.402521
65886.322676,10733.845591
65572.765746,11047.402521
Z" /> 
<path style="fill:#000000; fill-opacity:0.0; 
stroke:#000000; stroke-width:62.711386; stroke-opacity:1; 
stroke-linecap:round; stroke-linejoin:round;fill:none"
d="M 65886.322676,13376.275356
66199.879606,13062.718426
65886.322676,12749.161496
65572.765746,13062.718426
Z" /> 
<path style="fill:#000000; fill-opacity:0.0; 
stroke:#000000; stroke-width:62.711386; stroke-opacity:1; 
stroke-linecap:round; stroke-linejoin:round;fill:none"
d="M 65886.322676,17081.948166
66199.879606,16768.391236
65886.322676,16454.834306
65572.765746,16768.391236
Z" /> 
<path style="fill:#000000; fill-opacity:0.0; 
stroke:#000000; stroke-width:62.711386; stroke-opacity:1; 
stroke-linecap:round; stroke-linejoin:round;fill:none"
d="M 68027.061353,7655.286641
68340.618283,7341.729711
68027.061353,7028.172781
67713.504423,7341.729711
Z" /> 
<path style="fill:#000000; fill-opacity:0.0; 
stroke:#000000; stroke-width:62.711386; stroke-opacity:1; 
stroke-linecap:round; stroke-linejoin:round;fill:none"
d="M 68027.061353,11360.959451
68340.618283,11047.402521
68027.061353,10733.845591
67713.504423,11047.402521
Z" /> 
<path style="fill:#000000; fill-opacity:0.0; 
stroke:#000000; stroke-width:62.711386; stroke-opacity:1; 
stroke-linecap:round; stroke-linejoin:round;fill:none"
d="M 68027.061353,13376.275356
68340.618283,13062.718426
68027.061353,12749.161496
67713.504423,13062.718426
Z" /> 
<path style="fill:#000000; fill-opacity:0.0; 
stroke:#000000; stroke-width:62.711386; stroke-opacity:1; 
stroke-linecap:round; stroke-linejoin:round;fill:none"
d="M 68027.061353,17081.948166
68340.618283,16768.391236
68027.061353,16454.834306
67713.504423,16768.391236
Z" /> 
<path style="fill:#000000; fill-opacity:0.0; 
stroke:#000000; stroke-width:62.711386; stroke-opacity:1; 
stroke-linecap:round; stroke-linejoin:round;fill:none"
d="M 70592.527145,7655.286641
70906.084075,7341.729711
70592.527145,7028.172781
70278.970215,7341.729711
Z" /> 
<path style="fill:#000000; fill-opacity:0.0; 
stroke:#000000; stroke-width:62.711386; stroke-opacity:1; 
stroke-linecap:round; stroke-linejoin:round;fill:none"
d="M 70592.527145,11360.959451
70906.084075,11047.402521
70592.527145,10733.845591
70278.970215,11047.402521
Z" /> 
<path style="fill:#000000; fill-opacity:0.0; 
stroke:#000000; stroke-width:62.711386; stroke-opacity:1; 
stroke-linecap:round; stroke-linejoin:round;fill:none"
d="M 70592.527145,13376.275356
70906.084075,13062.718426
70592.527145,12749.161496
70278.970215,13062.718426
Z" /> 
<path style="fill:#000000; fill-opacity:0.0; 
stroke:#000000; stroke-width:62.711386; stroke-opacity:1; 
stroke-linecap:round; stroke-linejoin:round;fill:none"
d="M 70592.527145,17081.948166
70906.084075,16768.391236
70592.527145,16454.834306
70278.970215,16768.391236
Z" /> 
</g>
<g style="fill:#000000; fill-opacity:0.0; 
stroke:#000000; stroke-width:228.041404; stroke-opacity:1; 
stroke-linecap:round; stroke-linejoin:round;">
<path d="M43295 35068
L45576 37349
" />
<path d="M45576 35068
L43295 37349
" />
<circle cx="44436.178140" cy="36208.920901" r="1140.207018" /> 
<path d="M54698 6563
L56978 8843
" />
<path d="M56978 6563
L54698 8843
" />
<circle cx="55838.248325" cy="7703.745439" r="1140.207018" /> 
</g>
<g style="fill:#000000; fill-opacity:0.0; 
stroke:#000000; stroke-width:114.020702; stroke-opacity:1; 
stroke-linecap:round; stroke-linejoin:round;">
</g>
<g style="fill:#000000; fill-opacity:0.0; 
stroke:#000000; stroke-width:78.740416; stroke-opacity:1; 
stroke-linecap:round; stroke-linejoin:round;">
<text x="39494.039185" y="48899.338362"
textLength="5888.296992" font-size="1049.868416" lengthAdjust="spacingAndGlyphs"
text-anchor="start" opacity="0">Drill Map:</text>
<g class="stroked-text"><desc>Drill Map:</desc>
<path d="M39720 48861
L39720 48074
L39908 48074
L40020 48111
L40095 48186
L40133 48261
L40170 48411
L40170 48524
L40133 48674
L40095 48749
L40020 48824
L39908 48861
L39720 48861
" />
<path d="M40508 48861
L40508 48336
" />
<path d="M40508 48486
L40545 48411
L40583 48374
L40658 48336
L40733 48336
" />
<path d="M40995 48861
L40995 48336
" />
<path d="M40995 48074
L40958 48111
L40995 48149
L41033 48111
L40995 48074
L40995 48149
" />
<path d="M41483 48861
L41408 48824
L41370 48749
L41370 48074
" />
<path d="M41895 48861
L41820 48824
L41783 48749
L41783 48074
" />
<path d="M42795 48861
L42795 48074
L43057 48636
L43320 48074
L43320 48861
" />
<path d="M44032 48861
L44032 48449
L43995 48374
L43920 48336
L43770 48336
L43695 48374
" />
<path d="M44032 48824
L43957 48861
L43770 48861
L43695 48824
L43657 48749
L43657 48674
L43695 48599
L43770 48561
L43957 48561
L44032 48524
" />
<path d="M44407 48336
L44407 49124
" />
<path d="M44407 48374
L44482 48336
L44632 48336
L44707 48374
L44745 48411
L44782 48486
L44782 48711
L44745 48786
L44707 48824
L44632 48861
L44482 48861
L44407 48824
" />
<path d="M45120 48786
L45157 48824
L45120 48861
L45082 48824
L45120 48786
L45120 48861
" />
<path d="M45120 48374
L45157 48411
L45120 48449
L45082 48411
L45120 48374
L45120 48449
" />
</g></g>
<g style="fill:#000000; fill-opacity:0.0; 
stroke:#000000; stroke-width:34.206211; stroke-opacity:1; 
stroke-linecap:round; stroke-linejoin:round;">
<path d="M38364 49988
L38706 50330
" />
<path d="M38706 49988
L38364 50330
" />
</g>
<g style="fill:#000000; fill-opacity:0.0; 
stroke:#000000; stroke-width:114.020702; stroke-opacity:1; 
stroke-linecap:round; stroke-linejoin:round;">
</g>
<g style="fill:#000000; fill-opacity:0.0; 
stroke:#000000; stroke-width:78.740416; stroke-opacity:1; 
stroke-linecap:round; stroke-linejoin:round;">
<text x="39494.039185" y="50552.881403"
textLength="19201.343878" font-size="1049.868416" lengthAdjust="spacingAndGlyphs"
text-anchor="start" opacity="0">0.600mm / 0.0236" (35 holes)</text>
<g class="stroked-text"><desc>0.600mm / 0.0236" (35 holes)</desc>
<path d="M39870 49727
L39945 49727
L40020 49765
L40058 49802
L40095 49877
L40133 50027
L40133 50215
L40095 50365
L40058 50440
L40020 50477
L39945 50515
L39870 50515
L39795 50477
L39758 50440
L39720 50365
L39683 50215
L39683 50027
L39720 49877
L39758 49802
L39795 49765
L39870 49727
" />
<path d="M40470 50440
L40508 50477
L40470 50515
L40433 50477
L40470 50440
L40470 50515
" />
<path d="M41183 49727
L41033 49727
L40958 49765
L40920 49802
L40845 49915
L40808 50065
L40808 50365
L40845 50440
L40883 50477
L40958 50515
L41108 50515
L41183 50477
L41220 50440
L41258 50365
L41258 50177
L41220 50102
L41183 50065
L41108 50027
L40958 50027
L40883 50065
L40845 50102
L40808 50177
" />
<path d="M41745 49727
L41820 49727
L41895 49765
L41933 49802
L41970 49877
L42008 50027
L42008 50215
L41970 50365
L41933 50440
L41895 50477
L41820 50515
L41745 50515
L41670 50477
L41633 50440
L41595 50365
L41558 50215
L41558 50027
L41595 49877
L41633 49802
L41670 49765
L41745 49727
" />
<path d="M42495 49727
L42570 49727
L42645 49765
L42683 49802
L42720 49877
L42758 50027
L42758 50215
L42720 50365
L42683 50440
L42645 50477
L42570 50515
L42495 50515
L42420 50477
L42383 50440
L42345 50365
L42308 50215
L42308 50027
L42345 49877
L42383 49802
L42420 49765
L42495 49727
" />
<path d="M43095 50515
L43095 49990
" />
<path d="M43095 50065
L43132 50027
L43207 49990
L43320 49990
L43395 50027
L43432 50102
L43432 50515
" />
<path d="M43432 50102
L43470 50027
L43545 49990
L43657 49990
L43732 50027
L43770 50102
L43770 50515
" />
<path d="M44145 50515
L44145 49990
" />
<path d="M44145 50065
L44182 50027
L44257 49990
L44370 49990
L44445 50027
L44482 50102
L44482 50515
" />
<path d="M44482 50102
L44520 50027
L44595 49990
L44707 49990
L44782 50027
L44820 50102
L44820 50515
" />
<path d="M46357 49690
L45682 50702
" />
<path d="M47369 49727
L47444 49727
L47519 49765
L47557 49802
L47594 49877
L47632 50027
L47632 50215
L47594 50365
L47557 50440
L47519 50477
L47444 50515
L47369 50515
L47294 50477
L47257 50440
L47219 50365
L47182 50215
L47182 50027
L47219 49877
L47257 49802
L47294 49765
L47369 49727
" />
<path d="M47969 50440
L48007 50477
L47969 50515
L47932 50477
L47969 50440
L47969 50515
" />
<path d="M48494 49727
L48569 49727
L48644 49765
L48682 49802
L48719 49877
L48757 50027
L48757 50215
L48719 50365
L48682 50440
L48644 50477
L48569 50515
L48494 50515
L48419 50477
L48382 50440
L48344 50365
L48307 50215
L48307 50027
L48344 49877
L48382 49802
L48419 49765
L48494 49727
" />
<path d="M49057 49802
L49094 49765
L49169 49727
L49357 49727
L49432 49765
L49469 49802
L49507 49877
L49507 49952
L49469 50065
L49019 50515
L49507 50515
" />
<path d="M49769 49727
L50257 49727
L49994 50027
L50107 50027
L50182 50065
L50219 50102
L50257 50177
L50257 50365
L50219 50440
L50182 50477
L50107 50515
L49882 50515
L49807 50477
L49769 50440
" />
<path d="M50931 49727
L50781 49727
L50707 49765
L50669 49802
L50594 49915
L50557 50065
L50557 50365
L50594 50440
L50632 50477
L50707 50515
L50856 50515
L50931 50477
L50969 50440
L51006 50365
L51006 50177
L50969 50102
L50931 50065
L50856 50027
L50707 50027
L50632 50065
L50594 50102
L50557 50177
" />
<path d="M51306 49727
L51306 49877
" />
<path d="M51606 49727
L51606 49877
" />
<path d="M52769 50815
L52731 50777
L52656 50665
L52619 50590
L52581 50477
L52544 50290
L52544 50140
L52581 49952
L52619 49840
L52656 49765
L52731 49652
L52769 49615
" />
<path d="M52994 49727
L53481 49727
L53219 50027
L53331 50027
L53406 50065
L53444 50102
L53481 50177
L53481 50365
L53444 50440
L53406 50477
L53331 50515
L53106 50515
L53031 50477
L52994 50440
" />
<path d="M54194 49727
L53819 49727
L53781 50102
L53819 50065
L53894 50027
L54081 50027
L54156 50065
L54194 50102
L54231 50177
L54231 50365
L54194 50440
L54156 50477
L54081 50515
L53894 50515
L53819 50477
L53781 50440
" />
<path d="M55168 50515
L55168 49727
" />
<path d="M55506 50515
L55506 50102
L55468 50027
L55393 49990
L55281 49990
L55206 50027
L55168 50065
" />
<path d="M55993 50515
L55918 50477
L55881 50440
L55843 50365
L55843 50140
L55881 50065
L55918 50027
L55993 49990
L56106 49990
L56181 50027
L56218 50065
L56256 50140
L56256 50365
L56218 50440
L56181 50477
L56106 50515
L55993 50515
" />
<path d="M56706 50515
L56631 50477
L56593 50402
L56593 49727
" />
<path d="M57306 50477
L57231 50515
L57081 50515
L57006 50477
L56968 50402
L56968 50102
L57006 50027
L57081 49990
L57231 49990
L57306 50027
L57343 50102
L57343 50177
L56968 50252
" />
<path d="M57643 50477
L57718 50515
L57868 50515
L57943 50477
L57981 50402
L57981 50365
L57943 50290
L57868 50252
L57756 50252
L57681 50215
L57643 50140
L57643 50102
L57681 50027
L57756 49990
L57868 49990
L57943 50027
" />
<path d="M58243 50815
L58281 50777
L58356 50665
L58393 50590
L58431 50477
L58468 50290
L58468 50140
L58431 49952
L58393 49840
L58356 49765
L58281 49652
L58243 49615
" />
</g></g>
<g style="fill:#000000; fill-opacity:0.0; 
stroke:#000000; stroke-width:45.608281; stroke-opacity:1; 
stroke-linecap:round; stroke-linejoin:round;">
<circle cx="38478.596469" cy="51198.551562" r="228.041404" /> 
</g>
<g style="fill:#000000; fill-opacity:0.0; 
stroke:#000000; stroke-width:114.020702; stroke-opacity:1; 
stroke-linecap:round; stroke-linejoin:round;">
</g>
<g style="fill:#000000; fill-opacity:0.0; 
stroke:#000000; stroke-width:78.740416; stroke-opacity:1; 
stroke-linecap:round; stroke-linejoin:round;">
<text x="39494.039185" y="51592.251933"
textLength="19201.343878" font-size="1049.868416" lengthAdjust="spacingAndGlyphs"
text-anchor="start" opacity="0">0.800mm / 0.0315" (29 holes)</text>
<g class="stroked-text"><desc>0.800mm / 0.0315" (29 holes)</desc>
<path d="M39870 50767
L39945 50767
L40020 50804
L40058 50842
L40095 50917
L40133 51067
L40133 51254
L40095 51404
L40058 51479
L40020 51517
L39945 51554
L39870 51554
L39795 51517
L39758 51479
L39720 51404
L39683 51254
L39683 51067
L39720 50917
L39758 50842
L39795 50804
L39870 50767
" />
<path d="M40470 51479
L40508 51517
L40470 51554
L40433 51517
L40470 51479
L40470 51554
" />
<path d="M40958 51104
L40883 51067
L40845 51029
L40808 50954
L40808 50917
L40845 50842
L40883 50804
L40958 50767
L41108 50767
L41183 50804
L41220 50842
L41258 50917
L41258 50954
L41220 51029
L41183 51067
L41108 51104
L40958 51104
L40883 51142
L40845 51179
L40808 51254
L40808 51404
L40845 51479
L40883 51517
L40958 51554
L41108 51554
L41183 51517
L41220 51479
L41258 51404
L41258 51254
L41220 51179
L41183 51142
L41108 51104
" />
<path d="M41745 50767
L41820 50767
L41895 50804
L41933 50842
L41970 50917
L42008 51067
L42008 51254
L41970 51404
L41933 51479
L41895 51517
L41820 51554
L41745 51554
L41670 51517
L41633 51479
L41595 51404
L41558 51254
L41558 51067
L41595 50917
L41633 50842
L41670 50804
L41745 50767
" />
<path d="M42495 50767
L42570 50767
L42645 50804
L42683 50842
L42720 50917
L42758 51067
L42758 51254
L42720 51404
L42683 51479
L42645 51517
L42570 51554
L42495 51554
L42420 51517
L42383 51479
L42345 51404
L42308 51254
L42308 51067
L42345 50917
L42383 50842
L42420 50804
L42495 50767
" />
<path d="M43095 51554
L43095 51029
" />
<path d="M43095 51104
L43132 51067
L43207 51029
L43320 51029
L43395 51067
L43432 51142
L43432 51554
" />
<path d="M43432 51142
L43470 51067
L43545 51029
L43657 51029
L43732 51067
L43770 51142
L43770 51554
" />
<path d="M44145 51554
L44145 51029
" />
<path d="M44145 51104
L44182 51067
L44257 51029
L44370 51029
L44445 51067
L44482 51142
L44482 51554
" />
<path d="M44482 51142
L44520 51067
L44595 51029
L44707 51029
L44782 51067
L44820 51142
L44820 51554
" />
<path d="M46357 50729
L45682 51742
" />
<path d="M47369 50767
L47444 50767
L47519 50804
L47557 50842
L47594 50917
L47632 51067
L47632 51254
L47594 51404
L47557 51479
L47519 51517
L47444 51554
L47369 51554
L47294 51517
L47257 51479
L47219 51404
L47182 51254
L47182 51067
L47219 50917
L47257 50842
L47294 50804
L47369 50767
" />
<path d="M47969 51479
L48007 51517
L47969 51554
L47932 51517
L47969 51479
L47969 51554
" />
<path d="M48494 50767
L48569 50767
L48644 50804
L48682 50842
L48719 50917
L48757 51067
L48757 51254
L48719 51404
L48682 51479
L48644 51517
L48569 51554
L48494 51554
L48419 51517
L48382 51479
L48344 51404
L48307 51254
L48307 51067
L48344 50917
L48382 50842
L48419 50804
L48494 50767
" />
<path d="M49019 50767
L49507 50767
L49244 51067
L49357 51067
L49432 51104
L49469 51142
L49507 51217
L49507 51404
L49469 51479
L49432 51517
L49357 51554
L49132 51554
L49057 51517
L49019 51479
" />
<path d="M50257 51554
L49807 51554
" />
<path d="M50032 51554
L50032 50767
L49957 50879
L49882 50954
L49807 50992
" />
<path d="M50969 50767
L50594 50767
L50557 51142
L50594 51104
L50669 51067
L50856 51067
L50931 51104
L50969 51142
L51006 51217
L51006 51404
L50969 51479
L50931 51517
L50856 51554
L50669 51554
L50594 51517
L50557 51479
" />
<path d="M51306 50767
L51306 50917
" />
<path d="M51606 50767
L51606 50917
" />
<path d="M52769 51854
L52731 51817
L52656 51704
L52619 51629
L52581 51517
L52544 51329
L52544 51179
L52581 50992
L52619 50879
L52656 50804
L52731 50692
L52769 50654
" />
<path d="M53031 50842
L53069 50804
L53144 50767
L53331 50767
L53406 50804
L53444 50842
L53481 50917
L53481 50992
L53444 51104
L52994 51554
L53481 51554
" />
<path d="M53856 51554
L54006 51554
L54081 51517
L54119 51479
L54194 51367
L54231 51217
L54231 50917
L54194 50842
L54156 50804
L54081 50767
L53931 50767
L53856 50804
L53819 50842
L53781 50917
L53781 51104
L53819 51179
L53856 51217
L53931 51254
L54081 51254
L54156 51217
L54194 51179
L54231 51104
" />
<path d="M55168 51554
L55168 50767
" />
<path d="M55506 51554
L55506 51142
L55468 51067
L55393 51029
L55281 51029
L55206 51067
L55168 51104
" />
<path d="M55993 51554
L55918 51517
L55881 51479
L55843 51404
L55843 51179
L55881 51104
L55918 51067
L55993 51029
L56106 51029
L56181 51067
L56218 51104
L56256 51179
L56256 51404
L56218 51479
L56181 51517
L56106 51554
L55993 51554
" />
<path d="M56706 51554
L56631 51517
L56593 51442
L56593 50767
" />
<path d="M57306 51517
L57231 51554
L57081 51554
L57006 51517
L56968 51442
L56968 51142
L57006 51067
L57081 51029
L57231 51029
L57306 51067
L57343 51142
L57343 51217
L56968 51292
" />
<path d="M57643 51517
L57718 51554
L57868 51554
L57943 51517
L57981 51442
L57981 51404
L57943 51329
L57868 51292
L57756 51292
L57681 51254
L57643 51179
L57643 51142
L57681 51067
L57756 51029
L57868 51029
L57943 51067
" />
<path d="M58243 51854
L58281 51817
L58356 51704
L58393 51629
L58431 51517
L58468 51329
L58468 51179
L58431 50992
L58393 50879
L58356 50804
L58281 50692
L58243 50654
" />
</g></g>
<g style="fill:#000000; fill-opacity:0.0; 
stroke:#000000; stroke-width:51.309316; stroke-opacity:1; 
stroke-linecap:round; stroke-linejoin:round;">
<path d="M38450 51981
L38450 52494
" />
<path d="M38193 52237
L38706 52237
" />
</g>
<g style="fill:#000000; fill-opacity:0.0; 
stroke:#000000; stroke-width:114.020702; stroke-opacity:1; 
stroke-linecap:round; stroke-linejoin:round;">
</g>
<g style="fill:#000000; fill-opacity:0.0; 
stroke:#000000; stroke-width:78.740416; stroke-opacity:1; 
stroke-linecap:round; stroke-linejoin:round;">
<text x="39494.039185" y="52631.622463"
textLength="18451.437704" font-size="1049.868416" lengthAdjust="spacingAndGlyphs"
text-anchor="start" opacity="0">0.900mm / 0.0354" (4 holes)</text>
<g class="stroked-text"><desc>0.900mm / 0.0354" (4 holes)</desc>
<path d="M39870 51806
L39945 51806
L40020 51844
L40058 51881
L40095 51956
L40133 52106
L40133 52294
L40095 52444
L40058 52519
L40020 52556
L39945 52594
L39870 52594
L39795 52556
L39758 52519
L39720 52444
L39683 52294
L39683 52106
L39720 51956
L39758 51881
L39795 51844
L39870 51806
" />
<path d="M40470 52519
L40508 52556
L40470 52594
L40433 52556
L40470 52519
L40470 52594
" />
<path d="M40883 52594
L41033 52594
L41108 52556
L41145 52519
L41220 52406
L41258 52256
L41258 51956
L41220 51881
L41183 51844
L41108 51806
L40958 51806
L40883 51844
L40845 51881
L40808 51956
L40808 52144
L40845 52219
L40883 52256
L40958 52294
L41108 52294
L41183 52256
L41220 52219
L41258 52144
" />
<path d="M41745 51806
L41820 51806
L41895 51844
L41933 51881
L41970 51956
L42008 52106
L42008 52294
L41970 52444
L41933 52519
L41895 52556
L41820 52594
L41745 52594
L41670 52556
L41633 52519
L41595 52444
L41558 52294
L41558 52106
L41595 51956
L41633 51881
L41670 51844
L41745 51806
" />
<path d="M42495 51806
L42570 51806
L42645 51844
L42683 51881
L42720 51956
L42758 52106
L42758 52294
L42720 52444
L42683 52519
L42645 52556
L42570 52594
L42495 52594
L42420 52556
L42383 52519
L42345 52444
L42308 52294
L42308 52106
L42345 51956
L42383 51881
L42420 51844
L42495 51806
" />
<path d="M43095 52594
L43095 52069
" />
<path d="M43095 52144
L43132 52106
L43207 52069
L43320 52069
L43395 52106
L43432 52181
L43432 52594
" />
<path d="M43432 52181
L43470 52106
L43545 52069
L43657 52069
L43732 52106
L43770 52181
L43770 52594
" />
<path d="M44145 52594
L44145 52069
" />
<path d="M44145 52144
L44182 52106
L44257 52069
L44370 52069
L44445 52106
L44482 52181
L44482 52594
" />
<path d="M44482 52181
L44520 52106
L44595 52069
L44707 52069
L44782 52106
L44820 52181
L44820 52594
" />
<path d="M46357 51769
L45682 52781
" />
<path d="M47369 51806
L47444 51806
L47519 51844
L47557 51881
L47594 51956
L47632 52106
L47632 52294
L47594 52444
L47557 52519
L47519 52556
L47444 52594
L47369 52594
L47294 52556
L47257 52519
L47219 52444
L47182 52294
L47182 52106
L47219 51956
L47257 51881
L47294 51844
L47369 51806
" />
<path d="M47969 52519
L48007 52556
L47969 52594
L47932 52556
L47969 52519
L47969 52594
" />
<path d="M48494 51806
L48569 51806
L48644 51844
L48682 51881
L48719 51956
L48757 52106
L48757 52294
L48719 52444
L48682 52519
L48644 52556
L48569 52594
L48494 52594
L48419 52556
L48382 52519
L48344 52444
L48307 52294
L48307 52106
L48344 51956
L48382 51881
L48419 51844
L48494 51806
" />
<path d="M49019 51806
L49507 51806
L49244 52106
L49357 52106
L49432 52144
L49469 52181
L49507 52256
L49507 52444
L49469 52519
L49432 52556
L49357 52594
L49132 52594
L49057 52556
L49019 52519
" />
<path d="M50219 51806
L49844 51806
L49807 52181
L49844 52144
L49919 52106
L50107 52106
L50182 52144
L50219 52181
L50257 52256
L50257 52444
L50219 52519
L50182 52556
L50107 52594
L49919 52594
L49844 52556
L49807 52519
" />
<path d="M50931 52069
L50931 52594
" />
<path d="M50744 51769
L50557 52331
L51044 52331
" />
<path d="M51306 51806
L51306 51956
" />
<path d="M51606 51806
L51606 51956
" />
<path d="M52769 52894
L52731 52856
L52656 52744
L52619 52669
L52581 52556
L52544 52369
L52544 52219
L52581 52031
L52619 51919
L52656 51844
L52731 51731
L52769 51694
" />
<path d="M53406 52069
L53406 52594
" />
<path d="M53219 51769
L53031 52331
L53519 52331
" />
<path d="M54419 52594
L54419 51806
" />
<path d="M54756 52594
L54756 52181
L54719 52106
L54644 52069
L54531 52069
L54456 52106
L54419 52144
" />
<path d="M55243 52594
L55168 52556
L55131 52519
L55093 52444
L55093 52219
L55131 52144
L55168 52106
L55243 52069
L55356 52069
L55431 52106
L55468 52144
L55506 52219
L55506 52444
L55468 52519
L55431 52556
L55356 52594
L55243 52594
" />
<path d="M55956 52594
L55881 52556
L55843 52481
L55843 51806
" />
<path d="M56556 52556
L56481 52594
L56331 52594
L56256 52556
L56218 52481
L56218 52181
L56256 52106
L56331 52069
L56481 52069
L56556 52106
L56593 52181
L56593 52256
L56218 52331
" />
<path d="M56893 52556
L56968 52594
L57118 52594
L57193 52556
L57231 52481
L57231 52444
L57193 52369
L57118 52331
L57006 52331
L56931 52294
L56893 52219
L56893 52181
L56931 52106
L57006 52069
L57118 52069
L57193 52106
" />
<path d="M57493 52894
L57531 52856
L57606 52744
L57643 52669
L57681 52556
L57718 52369
L57718 52219
L57681 52031
L57643 51919
L57606 51844
L57531 51731
L57493 51694
" />
</g></g>
<g style="fill:#000000; fill-opacity:0.0; 
stroke:#000000; stroke-width:57.010351; stroke-opacity:1; 
stroke-linecap:round; stroke-linejoin:round;">
<path style="fill:#000000; fill-opacity:0.0; 
stroke:#000000; stroke-width:57.010351; stroke-opacity:1; 
stroke-linecap:round; stroke-linejoin:round;fill:none"
d="M 38623.150204,53478.856709
38623.150204,53075.728536
38220.022031,53075.728536
38220.022031,53478.856709
Z" /> 
</g>
<g style="fill:#000000; fill-opacity:0.0; 
stroke:#000000; stroke-width:114.020702; stroke-opacity:1; 
stroke-linecap:round; stroke-linejoin:round;">
</g>
<g style="fill:#000000; fill-opacity:0.0; 
stroke:#000000; stroke-width:78.740416; stroke-opacity:1; 
stroke-linecap:round; stroke-linejoin:round;">
<text x="39494.039185" y="53670.992994"
textLength="25575.544652" font-size="1049.868416" lengthAdjust="spacingAndGlyphs"
text-anchor="start" opacity="0">1.000mm / 0.0394" (70 holes + 3 slots)</text>
<g class="stroked-text"><desc>1.000mm / 0.0394" (70 holes + 3 slots)</desc>
<path d="M40133 53633
L39683 53633
" />
<path d="M39908 53633
L39908 52846
L39833 52958
L39758 53033
L39683 53071
" />
<path d="M40470 53558
L40508 53596
L40470 53633
L40433 53596
L40470 53558
L40470 53633
" />
<path d="M40995 52846
L41070 52846
L41145 52883
L41183 52921
L41220 52996
L41258 53146
L41258 53333
L41220 53483
L41183 53558
L41145 53596
L41070 53633
L40995 53633
L40920 53596
L40883 53558
L40845 53483
L40808 53333
L40808 53146
L40845 52996
L40883 52921
L40920 52883
L40995 52846
" />
<path d="M41745 52846
L41820 52846
L41895 52883
L41933 52921
L41970 52996
L42008 53146
L42008 53333
L41970 53483
L41933 53558
L41895 53596
L41820 53633
L41745 53633
L41670 53596
L41633 53558
L41595 53483
L41558 53333
L41558 53146
L41595 52996
L41633 52921
L41670 52883
L41745 52846
" />
<path d="M42495 52846
L42570 52846
L42645 52883
L42683 52921
L42720 52996
L42758 53146
L42758 53333
L42720 53483
L42683 53558
L42645 53596
L42570 53633
L42495 53633
L42420 53596
L42383 53558
L42345 53483
L42308 53333
L42308 53146
L42345 52996
L42383 52921
L42420 52883
L42495 52846
" />
<path d="M43095 53633
L43095 53108
" />
<path d="M43095 53183
L43132 53146
L43207 53108
L43320 53108
L43395 53146
L43432 53221
L43432 53633
" />
<path d="M43432 53221
L43470 53146
L43545 53108
L43657 53108
L43732 53146
L43770 53221
L43770 53633
" />
<path d="M44145 53633
L44145 53108
" />
<path d="M44145 53183
L44182 53146
L44257 53108
L44370 53108
L44445 53146
L44482 53221
L44482 53633
" />
<path d="M44482 53221
L44520 53146
L44595 53108
L44707 53108
L44782 53146
L44820 53221
L44820 53633
" />
<path d="M46357 52808
L45682 53820
" />
<path d="M47369 52846
L47444 52846
L47519 52883
L47557 52921
L47594 52996
L47632 53146
L47632 53333
L47594 53483
L47557 53558
L47519 53596
L47444 53633
L47369 53633
L47294 53596
L47257 53558
L47219 53483
L47182 53333
L47182 53146
L47219 52996
L47257 52921
L47294 52883
L47369 52846
" />
<path d="M47969 53558
L48007 53596
L47969 53633
L47932 53596
L47969 53558
L47969 53633
" />
<path d="M48494 52846
L48569 52846
L48644 52883
L48682 52921
L48719 52996
L48757 53146
L48757 53333
L48719 53483
L48682 53558
L48644 53596
L48569 53633
L48494 53633
L48419 53596
L48382 53558
L48344 53483
L48307 53333
L48307 53146
L48344 52996
L48382 52921
L48419 52883
L48494 52846
" />
<path d="M49019 52846
L49507 52846
L49244 53146
L49357 53146
L49432 53183
L49469 53221
L49507 53296
L49507 53483
L49469 53558
L49432 53596
L49357 53633
L49132 53633
L49057 53596
L49019 53558
" />
<path d="M49882 53633
L50032 53633
L50107 53596
L50144 53558
L50219 53446
L50257 53296
L50257 52996
L50219 52921
L50182 52883
L50107 52846
L49957 52846
L49882 52883
L49844 52921
L49807 52996
L49807 53183
L49844 53258
L49882 53296
L49957 53333
L50107 53333
L50182 53296
L50219 53258
L50257 53183
" />
<path d="M50931 53108
L50931 53633
" />
<path d="M50744 52808
L50557 53371
L51044 53371
" />
<path d="M51306 52846
L51306 52996
" />
<path d="M51606 52846
L51606 52996
" />
<path d="M52769 53933
L52731 53895
L52656 53783
L52619 53708
L52581 53596
L52544 53408
L52544 53258
L52581 53071
L52619 52958
L52656 52883
L52731 52771
L52769 52733
" />
<path d="M52994 52846
L53519 52846
L53181 53633
" />
<path d="M53969 52846
L54044 52846
L54119 52883
L54156 52921
L54194 52996
L54231 53146
L54231 53333
L54194 53483
L54156 53558
L54119 53596
L54044 53633
L53969 53633
L53894 53596
L53856 53558
L53819 53483
L53781 53333
L53781 53146
L53819 52996
L53856 52921
L53894 52883
L53969 52846
" />
<path d="M55168 53633
L55168 52846
" />
<path d="M55506 53633
L55506 53221
L55468 53146
L55393 53108
L55281 53108
L55206 53146
L55168 53183
" />
<path d="M55993 53633
L55918 53596
L55881 53558
L55843 53483
L55843 53258
L55881 53183
L55918 53146
L55993 53108
L56106 53108
L56181 53146
L56218 53183
L56256 53258
L56256 53483
L56218 53558
L56181 53596
L56106 53633
L55993 53633
" />
<path d="M56706 53633
L56631 53596
L56593 53521
L56593 52846
" />
<path d="M57306 53596
L57231 53633
L57081 53633
L57006 53596
L56968 53521
L56968 53221
L57006 53146
L57081 53108
L57231 53108
L57306 53146
L57343 53221
L57343 53296
L56968 53371
" />
<path d="M57643 53596
L57718 53633
L57868 53633
L57943 53596
L57981 53521
L57981 53483
L57943 53408
L57868 53371
L57756 53371
L57681 53333
L57643 53258
L57643 53221
L57681 53146
L57756 53108
L57868 53108
L57943 53146
" />
<path d="M58918 53333
L59518 53333
" />
<path d="M59218 53633
L59218 53033
" />
<path d="M60418 52846
L60905 52846
L60643 53146
L60755 53146
L60830 53183
L60868 53221
L60905 53296
L60905 53483
L60868 53558
L60830 53596
L60755 53633
L60530 53633
L60455 53596
L60418 53558
" />
<path d="M61805 53596
L61880 53633
L62030 53633
L62105 53596
L62143 53521
L62143 53483
L62105 53408
L62030 53371
L61918 53371
L61843 53333
L61805 53258
L61805 53221
L61843 53146
L61918 53108
L62030 53108
L62105 53146
" />
<path d="M62593 53633
L62518 53596
L62480 53521
L62480 52846
" />
<path d="M63005 53633
L62930 53596
L62892 53558
L62855 53483
L62855 53258
L62892 53183
L62930 53146
L63005 53108
L63117 53108
L63192 53146
L63230 53183
L63267 53258
L63267 53483
L63230 53558
L63192 53596
L63117 53633
L63005 53633
" />
<path d="M63492 53108
L63792 53108
" />
<path d="M63605 52846
L63605 53521
L63642 53596
L63717 53633
L63792 53633
" />
<path d="M64017 53596
L64092 53633
L64242 53633
L64317 53596
L64355 53521
L64355 53483
L64317 53408
L64242 53371
L64130 53371
L64055 53333
L64017 53258
L64017 53221
L64055 53146
L64130 53108
L64242 53108
L64317 53146
" />
<path d="M64617 53933
L64655 53895
L64730 53783
L64767 53708
L64805 53596
L64842 53408
L64842 53258
L64805 53071
L64767 52958
L64730 52883
L64655 52771
L64617 52733
" />
</g></g>
<g style="fill:#000000; fill-opacity:0.0; 
stroke:#000000; stroke-width:62.711386; stroke-opacity:1; 
stroke-linecap:round; stroke-linejoin:round;">
<path style="fill:#000000; fill-opacity:0.0; 
stroke:#000000; stroke-width:62.711386; stroke-opacity:1; 
stroke-linecap:round; stroke-linejoin:round;fill:none"
d="M 38393.080942,54633.393849
38706.637872,54319.836919
38393.080942,54006.279989
38079.524012,54319.836919
Z" /> 
</g>
<g style="fill:#000000; fill-opacity:0.0; 
stroke:#000000; stroke-width:114.020702; stroke-opacity:1; 
stroke-linecap:round; stroke-linejoin:round;">
</g>
<g style="fill:#000000; fill-opacity:0.0; 
stroke:#000000; stroke-width:78.740416; stroke-opacity:1; 
stroke-linecap:round; stroke-linejoin:round;">
<text x="39494.039185" y="54713.537290"
textLength="19201.343878" font-size="1049.868416" lengthAdjust="spacingAndGlyphs"
text-anchor="start" opacity="0">1.100mm / 0.0433" (25 holes)</text>
<g class="stroked-text"><desc>1.100mm / 0.0433" (25 holes)</desc>
<path d="M40133 54676
L39683 54676
" />
<path d="M39908 54676
L39908 53888
L39833 54001
L39758 54076
L39683 54113
" />
<path d="M40470 54601
L40508 54638
L40470 54676
L40433 54638
L40470 54601
L40470 54676
" />
<path d="M41258 54676
L40808 54676
" />
<path d="M41033 54676
L41033 53888
L40958 54001
L40883 54076
L40808 54113
" />
<path d="M41745 53888
L41820 53888
L41895 53926
L41933 53963
L41970 54038
L42008 54188
L42008 54376
L41970 54526
L41933 54601
L41895 54638
L41820 54676
L41745 54676
L41670 54638
L41633 54601
L41595 54526
L41558 54376
L41558 54188
L41595 54038
L41633 53963
L41670 53926
L41745 53888
" />
<path d="M42495 53888
L42570 53888
L42645 53926
L42683 53963
L42720 54038
L42758 54188
L42758 54376
L42720 54526
L42683 54601
L42645 54638
L42570 54676
L42495 54676
L42420 54638
L42383 54601
L42345 54526
L42308 54376
L42308 54188
L42345 54038
L42383 53963
L42420 53926
L42495 53888
" />
<path d="M43095 54676
L43095 54151
" />
<path d="M43095 54226
L43132 54188
L43207 54151
L43320 54151
L43395 54188
L43432 54263
L43432 54676
" />
<path d="M43432 54263
L43470 54188
L43545 54151
L43657 54151
L43732 54188
L43770 54263
L43770 54676
" />
<path d="M44145 54676
L44145 54151
" />
<path d="M44145 54226
L44182 54188
L44257 54151
L44370 54151
L44445 54188
L44482 54263
L44482 54676
" />
<path d="M44482 54263
L44520 54188
L44595 54151
L44707 54151
L44782 54188
L44820 54263
L44820 54676
" />
<path d="M46357 53851
L45682 54863
" />
<path d="M47369 53888
L47444 53888
L47519 53926
L47557 53963
L47594 54038
L47632 54188
L47632 54376
L47594 54526
L47557 54601
L47519 54638
L47444 54676
L47369 54676
L47294 54638
L47257 54601
L47219 54526
L47182 54376
L47182 54188
L47219 54038
L47257 53963
L47294 53926
L47369 53888
" />
<path d="M47969 54601
L48007 54638
L47969 54676
L47932 54638
L47969 54601
L47969 54676
" />
<path d="M48494 53888
L48569 53888
L48644 53926
L48682 53963
L48719 54038
L48757 54188
L48757 54376
L48719 54526
L48682 54601
L48644 54638
L48569 54676
L48494 54676
L48419 54638
L48382 54601
L48344 54526
L48307 54376
L48307 54188
L48344 54038
L48382 53963
L48419 53926
L48494 53888
" />
<path d="M49432 54151
L49432 54676
" />
<path d="M49244 53851
L49057 54413
L49544 54413
" />
<path d="M49769 53888
L50257 53888
L49994 54188
L50107 54188
L50182 54226
L50219 54263
L50257 54338
L50257 54526
L50219 54601
L50182 54638
L50107 54676
L49882 54676
L49807 54638
L49769 54601
" />
<path d="M50519 53888
L51006 53888
L50744 54188
L50856 54188
L50931 54226
L50969 54263
L51006 54338
L51006 54526
L50969 54601
L50931 54638
L50856 54676
L50632 54676
L50557 54638
L50519 54601
" />
<path d="M51306 53888
L51306 54038
" />
<path d="M51606 53888
L51606 54038
" />
<path d="M52769 54976
L52731 54938
L52656 54826
L52619 54751
L52581 54638
L52544 54451
L52544 54301
L52581 54113
L52619 54001
L52656 53926
L52731 53813
L52769 53776
" />
<path d="M53031 53963
L53069 53926
L53144 53888
L53331 53888
L53406 53926
L53444 53963
L53481 54038
L53481 54113
L53444 54226
L52994 54676
L53481 54676
" />
<path d="M54194 53888
L53819 53888
L53781 54263
L53819 54226
L53894 54188
L54081 54188
L54156 54226
L54194 54263
L54231 54338
L54231 54526
L54194 54601
L54156 54638
L54081 54676
L53894 54676
L53819 54638
L53781 54601
" />
<path d="M55168 54676
L55168 53888
" />
<path d="M55506 54676
L55506 54263
L55468 54188
L55393 54151
L55281 54151
L55206 54188
L55168 54226
" />
<path d="M55993 54676
L55918 54638
L55881 54601
L55843 54526
L55843 54301
L55881 54226
L55918 54188
L55993 54151
L56106 54151
L56181 54188
L56218 54226
L56256 54301
L56256 54526
L56218 54601
L56181 54638
L56106 54676
L55993 54676
" />
<path d="M56706 54676
L56631 54638
L56593 54563
L56593 53888
" />
<path d="M57306 54638
L57231 54676
L57081 54676
L57006 54638
L56968 54563
L56968 54263
L57006 54188
L57081 54151
L57231 54151
L57306 54188
L57343 54263
L57343 54338
L56968 54413
" />
<path d="M57643 54638
L57718 54676
L57868 54676
L57943 54638
L57981 54563
L57981 54526
L57943 54451
L57868 54413
L57756 54413
L57681 54376
L57643 54301
L57643 54263
L57681 54188
L57756 54151
L57868 54151
L57943 54188
" />
<path d="M58243 54976
L58281 54938
L58356 54826
L58393 54751
L58431 54638
L58468 54451
L58468 54301
L58431 54113
L58393 54001
L58356 53926
L58281 53813
L58243 53776
" />
</g></g>
<g style="fill:#000000; fill-opacity:0.0; 
stroke:#000000; stroke-width:78.739846; stroke-opacity:1; 
stroke-linecap:round; stroke-linejoin:round;">
<path d="M37919 55025
L38706 55813
" />
<path d="M38706 55025
L37919 55813
" />
<circle cx="38312.936931" cy="55419.391567" r="393.700371" /> 
</g>
<g style="fill:#000000; fill-opacity:0.0; 
stroke:#000000; stroke-width:114.020702; stroke-opacity:1; 
stroke-linecap:round; stroke-linejoin:round;">
</g>
<g style="fill:#000000; fill-opacity:0.0; 
stroke:#000000; stroke-width:78.740416; stroke-opacity:1; 
stroke-linecap:round; stroke-linejoin:round;">
<text x="39494.039185" y="55813.091938"
textLength="18451.437704" font-size="1049.868416" lengthAdjust="spacingAndGlyphs"
text-anchor="start" opacity="0">4.000mm / 0.1575" (2 holes)</text>
<g class="stroked-text"><desc>4.000mm / 0.1575" (2 holes)</desc>
<path d="M40058 55250
L40058 55775
" />
<path d="M39870 54950
L39683 55513
L40170 55513
" />
<path d="M40470 55700
L40508 55738
L40470 55775
L40433 55738
L40470 55700
L40470 55775
" />
<path d="M40995 54988
L41070 54988
L41145 55025
L41183 55063
L41220 55138
L41258 55288
L41258 55475
L41220 55625
L41183 55700
L41145 55738
L41070 55775
L40995 55775
L40920 55738
L40883 55700
L40845 55625
L40808 55475
L40808 55288
L40845 55138
L40883 55063
L40920 55025
L40995 54988
" />
<path d="M41745 54988
L41820 54988
L41895 55025
L41933 55063
L41970 55138
L42008 55288
L42008 55475
L41970 55625
L41933 55700
L41895 55738
L41820 55775
L41745 55775
L41670 55738
L41633 55700
L41595 55625
L41558 55475
L41558 55288
L41595 55138
L41633 55063
L41670 55025
L41745 54988
" />
<path d="M42495 54988
L42570 54988
L42645 55025
L42683 55063
L42720 55138
L42758 55288
L42758 55475
L42720 55625
L42683 55700
L42645 55738
L42570 55775
L42495 55775
L42420 55738
L42383 55700
L42345 55625
L42308 55475
L42308 55288
L42345 55138
L42383 55063
L42420 55025
L42495 54988
" />
<path d="M43095 55775
L43095 55250
" />
<path d="M43095 55325
L43132 55288
L43207 55250
L43320 55250
L43395 55288
L43432 55363
L43432 55775
" />
<path d="M43432 55363
L43470 55288
L43545 55250
L43657 55250
L43732 55288
L43770 55363
L43770 55775
" />
<path d="M44145 55775
L44145 55250
" />
<path d="M44145 55325
L44182 55288
L44257 55250
L44370 55250
L44445 55288
L44482 55363
L44482 55775
" />
<path d="M44482 55363
L44520 55288
L44595 55250
L44707 55250
L44782 55288
L44820 55363
L44820 55775
" />
<path d="M46357 54950
L45682 55963
" />
<path d="M47369 54988
L47444 54988
L47519 55025
L47557 55063
L47594 55138
L47632 55288
L47632 55475
L47594 55625
L47557 55700
L47519 55738
L47444 55775
L47369 55775
L47294 55738
L47257 55700
L47219 55625
L47182 55475
L47182 55288
L47219 55138
L47257 55063
L47294 55025
L47369 54988
" />
<path d="M47969 55700
L48007 55738
L47969 55775
L47932 55738
L47969 55700
L47969 55775
" />
<path d="M48757 55775
L48307 55775
" />
<path d="M48532 55775
L48532 54988
L48457 55100
L48382 55175
L48307 55213
" />
<path d="M49469 54988
L49094 54988
L49057 55363
L49094 55325
L49169 55288
L49357 55288
L49432 55325
L49469 55363
L49507 55438
L49507 55625
L49469 55700
L49432 55738
L49357 55775
L49169 55775
L49094 55738
L49057 55700
" />
<path d="M49769 54988
L50294 54988
L49957 55775
" />
<path d="M50969 54988
L50594 54988
L50557 55363
L50594 55325
L50669 55288
L50856 55288
L50931 55325
L50969 55363
L51006 55438
L51006 55625
L50969 55700
L50931 55738
L50856 55775
L50669 55775
L50594 55738
L50557 55700
" />
<path d="M51306 54988
L51306 55138
" />
<path d="M51606 54988
L51606 55138
" />
<path d="M52769 56075
L52731 56038
L52656 55925
L52619 55850
L52581 55738
L52544 55550
L52544 55400
L52581 55213
L52619 55100
L52656 55025
L52731 54913
L52769 54875
" />
<path d="M53031 55063
L53069 55025
L53144 54988
L53331 54988
L53406 55025
L53444 55063
L53481 55138
L53481 55213
L53444 55325
L52994 55775
L53481 55775
" />
<path d="M54419 55775
L54419 54988
" />
<path d="M54756 55775
L54756 55363
L54719 55288
L54644 55250
L54531 55250
L54456 55288
L54419 55325
" />
<path d="M55243 55775
L55168 55738
L55131 55700
L55093 55625
L55093 55400
L55131 55325
L55168 55288
L55243 55250
L55356 55250
L55431 55288
L55468 55325
L55506 55400
L55506 55625
L55468 55700
L55431 55738
L55356 55775
L55243 55775
" />
<path d="M55956 55775
L55881 55738
L55843 55663
L55843 54988
" />
<path d="M56556 55738
L56481 55775
L56331 55775
L56256 55738
L56218 55663
L56218 55363
L56256 55288
L56331 55250
L56481 55250
L56556 55288
L56593 55363
L56593 55438
L56218 55513
" />
<path d="M56893 55738
L56968 55775
L57118 55775
L57193 55738
L57231 55663
L57231 55625
L57193 55550
L57118 55513
L57006 55513
L56931 55475
L56893 55400
L56893 55363
L56931 55288
L57006 55250
L57118 55250
L57193 55288
" />
<path d="M57493 56075
L57531 56038
L57606 55925
L57643 55850
L57681 55738
L57718 55550
L57718 55400
L57681 55213
L57643 55100
L57606 55025
L57531 54913
L57493 54875
" />
</g></g> 
</svg>
