%TF.GenerationSoftware,KiCad,Pcbnew,(6.0.7)*%
%TF.CreationDate,2022-08-10T21:00:46+08:00*%
%TF.ProjectId,TurnsCounter,5475726e-7343-46f7-956e-7465722e6b69,rev?*%
%TF.SameCoordinates,PX8d707f0PY7735940*%
%TF.FileFunction,Drillmap*%
%TF.FilePolarity,Positive*%
%FSLAX45Y45*%
G04 Gerber Fmt 4.5, Leading zero omitted, Abs format (unit mm)*
G04 Created by KiCad (PCBNEW (6.0.7)) date 2022-08-10 21:00:46*
%MOMM*%
%LPD*%
G01*
G04 APERTURE LIST*
%ADD10C,0.100000*%
%ADD11C,0.200000*%
%ADD12C,0.060000*%
%ADD13C,0.080000*%
%ADD14C,0.090000*%
%ADD15C,0.110000*%
%ADD16C,0.400000*%
G04 APERTURE END LIST*
D10*
X950000Y4450000D02*
G75*
G03*
X950000Y4450000I0J0D01*
G01*
X4000000Y8000000D02*
X2426000Y8000000D01*
X6921500Y0D02*
X6921500Y8001000D01*
X4000000Y0D02*
X4000000Y8000000D01*
X0Y0D02*
X0Y4074000D01*
X4064000Y0D02*
X6921500Y0D01*
X1060000Y6635000D02*
X2426000Y8000000D01*
X4064000Y8001000D02*
X4064000Y0D01*
X0Y0D02*
X4000000Y0D01*
X6921500Y8001000D02*
X4064000Y8001000D01*
X0Y4073999D02*
G75*
G03*
X1060000Y6635000I0J1499868D01*
G01*
D11*
D12*
X795500Y2951000D02*
X855500Y2891000D01*
X855500Y2951000D02*
X795500Y2891000D01*
X1176500Y2887500D02*
X1236500Y2827500D01*
X1236500Y2887500D02*
X1176500Y2827500D01*
X1367000Y4475000D02*
X1427000Y4415000D01*
X1427000Y4475000D02*
X1367000Y4415000D01*
X1557500Y6888000D02*
X1617500Y6828000D01*
X1617500Y6888000D02*
X1557500Y6828000D01*
X1557500Y2951000D02*
X1617500Y2891000D01*
X1617500Y2951000D02*
X1557500Y2891000D01*
X1557500Y2570000D02*
X1617500Y2510000D01*
X1617500Y2570000D02*
X1557500Y2510000D01*
X1875000Y2951000D02*
X1935000Y2891000D01*
X1935000Y2951000D02*
X1875000Y2891000D01*
X1875000Y1744500D02*
X1935000Y1684500D01*
X1935000Y1744500D02*
X1875000Y1684500D01*
X2256000Y3903500D02*
X2316000Y3843500D01*
X2316000Y3903500D02*
X2256000Y3843500D01*
X2256000Y3459000D02*
X2316000Y3399000D01*
X2316000Y3459000D02*
X2256000Y3399000D01*
X2573500Y1300000D02*
X2633500Y1240000D01*
X2633500Y1300000D02*
X2573500Y1240000D01*
X2637000Y1681000D02*
X2697000Y1621000D01*
X2697000Y1681000D02*
X2637000Y1621000D01*
X2954500Y2887500D02*
X3014500Y2827500D01*
X3014500Y2887500D02*
X2954500Y2827500D01*
X3145000Y5173500D02*
X3205000Y5113500D01*
X3205000Y5173500D02*
X3145000Y5113500D01*
X3526000Y4792500D02*
X3586000Y4732500D01*
X3586000Y4792500D02*
X3526000Y4732500D01*
X3845048Y6316500D02*
X3905048Y6256500D01*
X3905048Y6316500D02*
X3845048Y6256500D01*
X4224500Y7523000D02*
X4284500Y7463000D01*
X4284500Y7523000D02*
X4224500Y7463000D01*
X4732500Y7523000D02*
X4792500Y7463000D01*
X4792500Y7523000D02*
X4732500Y7463000D01*
X5558000Y7523000D02*
X5618000Y7463000D01*
X5618000Y7523000D02*
X5558000Y7463000D01*
X6058000Y4102000D02*
X6118000Y4042000D01*
X6118000Y4102000D02*
X6058000Y4042000D01*
X6066000Y4602000D02*
X6126000Y4542000D01*
X6126000Y4602000D02*
X6066000Y4542000D01*
X6066000Y3586000D02*
X6126000Y3526000D01*
X6126000Y3586000D02*
X6066000Y3526000D01*
X6066000Y3078000D02*
X6126000Y3018000D01*
X6126000Y3078000D02*
X6066000Y3018000D01*
X6066000Y2570000D02*
X6126000Y2510000D01*
X6126000Y2570000D02*
X6066000Y2510000D01*
X6066000Y2062000D02*
X6126000Y2002000D01*
X6126000Y2062000D02*
X6066000Y2002000D01*
X6066000Y1554000D02*
X6126000Y1494000D01*
X6126000Y1554000D02*
X6066000Y1494000D01*
X6066000Y1046000D02*
X6126000Y986000D01*
X6126000Y1046000D02*
X6066000Y986000D01*
X6320000Y4348000D02*
X6380000Y4288000D01*
X6380000Y4348000D02*
X6320000Y4288000D01*
X6320000Y3840000D02*
X6380000Y3780000D01*
X6380000Y3840000D02*
X6320000Y3780000D01*
X6320000Y3332000D02*
X6380000Y3272000D01*
X6380000Y3332000D02*
X6320000Y3272000D01*
X6320000Y2824000D02*
X6380000Y2764000D01*
X6380000Y2824000D02*
X6320000Y2764000D01*
X6320000Y2316000D02*
X6380000Y2256000D01*
X6380000Y2316000D02*
X6320000Y2256000D01*
X6320000Y1808000D02*
X6380000Y1748000D01*
X6380000Y1808000D02*
X6320000Y1748000D01*
X6320000Y1300000D02*
X6380000Y1240000D01*
X6380000Y1300000D02*
X6320000Y1240000D01*
X6320000Y792000D02*
X6380000Y732000D01*
X6380000Y792000D02*
X6320000Y732000D01*
D13*
X906200Y456400D02*
G75*
G03*
X906200Y456400I-40000J0D01*
G01*
X906200Y206400D02*
G75*
G03*
X906200Y206400I-40000J0D01*
G01*
X1655500Y689000D02*
G75*
G03*
X1655500Y689000I-40000J0D01*
G01*
X1655500Y181000D02*
G75*
G03*
X1655500Y181000I-40000J0D01*
G01*
X1909500Y435000D02*
G75*
G03*
X1909500Y435000I-40000J0D01*
G01*
X2481000Y494500D02*
G75*
G03*
X2481000Y494500I-40000J0D01*
G01*
X2481000Y244500D02*
G75*
G03*
X2481000Y244500I-40000J0D01*
G01*
X3339511Y5969000D02*
G75*
G03*
X3339511Y5969000I-40000J0D01*
G01*
X3346500Y5459500D02*
G75*
G03*
X3346500Y5459500I-40000J0D01*
G01*
X3346500Y4951500D02*
G75*
G03*
X3346500Y4951500I-40000J0D01*
G01*
X3589511Y5969000D02*
G75*
G03*
X3589511Y5969000I-40000J0D01*
G01*
X3600500Y5205500D02*
G75*
G03*
X3600500Y5205500I-40000J0D01*
G01*
X5818500Y4572000D02*
G75*
G03*
X5818500Y4572000I-40000J0D01*
G01*
X5818500Y4322000D02*
G75*
G03*
X5818500Y4322000I-40000J0D01*
G01*
X5818500Y4072000D02*
G75*
G03*
X5818500Y4072000I-40000J0D01*
G01*
X5818500Y3822000D02*
G75*
G03*
X5818500Y3822000I-40000J0D01*
G01*
X5818500Y3572000D02*
G75*
G03*
X5818500Y3572000I-40000J0D01*
G01*
X5818500Y3322000D02*
G75*
G03*
X5818500Y3322000I-40000J0D01*
G01*
X5818500Y3072000D02*
G75*
G03*
X5818500Y3072000I-40000J0D01*
G01*
X5818500Y2822000D02*
G75*
G03*
X5818500Y2822000I-40000J0D01*
G01*
X5818500Y2572000D02*
G75*
G03*
X5818500Y2572000I-40000J0D01*
G01*
X5818500Y2322000D02*
G75*
G03*
X5818500Y2322000I-40000J0D01*
G01*
X5818500Y2072000D02*
G75*
G03*
X5818500Y2072000I-40000J0D01*
G01*
X5818500Y1822000D02*
G75*
G03*
X5818500Y1822000I-40000J0D01*
G01*
X5818500Y1572000D02*
G75*
G03*
X5818500Y1572000I-40000J0D01*
G01*
X5818500Y1322000D02*
G75*
G03*
X5818500Y1322000I-40000J0D01*
G01*
X5818500Y1072000D02*
G75*
G03*
X5818500Y1072000I-40000J0D01*
G01*
X5818500Y822000D02*
G75*
G03*
X5818500Y822000I-40000J0D01*
G01*
X5818500Y572000D02*
G75*
G03*
X5818500Y572000I-40000J0D01*
G01*
D14*
X5918500Y6879900D02*
X5918500Y6789900D01*
X5873500Y6834900D02*
X5963500Y6834900D01*
X6096300Y6727500D02*
X6096300Y6637500D01*
X6051300Y6682500D02*
X6141300Y6682500D01*
X6248700Y6879900D02*
X6248700Y6789900D01*
X6203700Y6834900D02*
X6293700Y6834900D01*
X6401100Y6727500D02*
X6401100Y6637500D01*
X6356100Y6682500D02*
X6446100Y6682500D01*
D10*
X416356Y2822144D02*
X416356Y2892856D01*
X345644Y2892856D01*
X345644Y2822144D01*
X416356Y2822144D01*
X416356Y2568144D02*
X416356Y2638856D01*
X345644Y2638856D01*
X345644Y2568144D01*
X416356Y2568144D01*
X416356Y2314144D02*
X416356Y2384856D01*
X345644Y2384856D01*
X345644Y2314144D01*
X416356Y2314144D01*
X416356Y2060144D02*
X416356Y2130856D01*
X345644Y2130856D01*
X345644Y2060144D01*
X416356Y2060144D01*
X416356Y1679144D02*
X416356Y1749856D01*
X345644Y1749856D01*
X345644Y1679144D01*
X416356Y1679144D01*
X416356Y1425144D02*
X416356Y1495856D01*
X345644Y1495856D01*
X345644Y1425144D01*
X416356Y1425144D01*
X416356Y1171144D02*
X416356Y1241856D01*
X345644Y1241856D01*
X345644Y1171144D01*
X416356Y1171144D01*
X416356Y917144D02*
X416356Y987856D01*
X345644Y987856D01*
X345644Y917144D01*
X416356Y917144D01*
X416356Y663144D02*
X416356Y733856D01*
X345644Y733856D01*
X345644Y663144D01*
X416356Y663144D01*
X416356Y409144D02*
X416356Y479856D01*
X345644Y479856D01*
X345644Y409144D01*
X416356Y409144D01*
X606856Y3635894D02*
X606856Y3706606D01*
X536144Y3706606D01*
X536144Y3635894D01*
X606856Y3635894D01*
X606856Y3381894D02*
X606856Y3452606D01*
X536144Y3452606D01*
X536144Y3381894D01*
X606856Y3381894D01*
X860856Y3635894D02*
X860856Y3706606D01*
X790144Y3706606D01*
X790144Y3635894D01*
X860856Y3635894D01*
X860856Y3381894D02*
X860856Y3452606D01*
X790144Y3452606D01*
X790144Y3381894D01*
X860856Y3381894D01*
X1114856Y3635894D02*
X1114856Y3706606D01*
X1044144Y3706606D01*
X1044144Y3635894D01*
X1114856Y3635894D01*
X1114856Y3381894D02*
X1114856Y3452606D01*
X1044144Y3452606D01*
X1044144Y3381894D01*
X1114856Y3381894D01*
X1368856Y3635894D02*
X1368856Y3706606D01*
X1298144Y3706606D01*
X1298144Y3635894D01*
X1368856Y3635894D01*
X1368856Y3381894D02*
X1368856Y3452606D01*
X1298144Y3452606D01*
X1298144Y3381894D01*
X1368856Y3381894D01*
X1622856Y6441644D02*
X1622856Y6512356D01*
X1552144Y6512356D01*
X1552144Y6441644D01*
X1622856Y6441644D01*
X1622856Y3635894D02*
X1622856Y3706606D01*
X1552144Y3706606D01*
X1552144Y3635894D01*
X1622856Y3635894D01*
X1622856Y3381894D02*
X1622856Y3452606D01*
X1552144Y3452606D01*
X1552144Y3381894D01*
X1622856Y3381894D01*
X1749856Y4409644D02*
X1749856Y4480356D01*
X1679144Y4480356D01*
X1679144Y4409644D01*
X1749856Y4409644D01*
X1876856Y6441644D02*
X1876856Y6512356D01*
X1806144Y6512356D01*
X1806144Y6441644D01*
X1876856Y6441644D01*
X2003856Y4409644D02*
X2003856Y4480356D01*
X1933144Y4480356D01*
X1933144Y4409644D01*
X2003856Y4409644D01*
X2130856Y6441644D02*
X2130856Y6512356D01*
X2060144Y6512356D01*
X2060144Y6441644D01*
X2130856Y6441644D01*
X2257856Y4409644D02*
X2257856Y4480356D01*
X2187144Y4480356D01*
X2187144Y4409644D01*
X2257856Y4409644D01*
X2384856Y6441644D02*
X2384856Y6512356D01*
X2314144Y6512356D01*
X2314144Y6441644D01*
X2384856Y6441644D01*
X2511856Y4409644D02*
X2511856Y4480356D01*
X2441144Y4480356D01*
X2441144Y4409644D01*
X2511856Y4409644D01*
X2638856Y6441644D02*
X2638856Y6512356D01*
X2568144Y6512356D01*
X2568144Y6441644D01*
X2638856Y6441644D01*
X2765856Y4409644D02*
X2765856Y4480356D01*
X2695144Y4480356D01*
X2695144Y4409644D01*
X2765856Y4409644D01*
X2892856Y6441644D02*
X2892856Y6512356D01*
X2822144Y6512356D01*
X2822144Y6441644D01*
X2892856Y6441644D01*
X2956356Y1488644D02*
X2956356Y1559356D01*
X2885644Y1559356D01*
X2885644Y1488644D01*
X2956356Y1488644D01*
X3004356Y468894D02*
X3004356Y539606D01*
X2933644Y539606D01*
X2933644Y468894D01*
X3004356Y468894D01*
D11*
X3019000Y404250D02*
X3019000Y604250D01*
X2919000Y404250D02*
X2919000Y604250D01*
X3019000Y604250D02*
G75*
G03*
X2919000Y604250I-50000J0D01*
G01*
X2919000Y404250D02*
G75*
G03*
X3019000Y404250I50000J0D01*
G01*
D10*
X3019856Y4409644D02*
X3019856Y4480356D01*
X2949144Y4480356D01*
X2949144Y4409644D01*
X3019856Y4409644D01*
X3146856Y6441644D02*
X3146856Y6512356D01*
X3076144Y6512356D01*
X3076144Y6441644D01*
X3146856Y6441644D01*
X3210356Y1488644D02*
X3210356Y1559356D01*
X3139644Y1559356D01*
X3139644Y1488644D01*
X3210356Y1488644D01*
X3273856Y4409644D02*
X3273856Y4480356D01*
X3203144Y4480356D01*
X3203144Y4409644D01*
X3273856Y4409644D01*
X3304356Y938894D02*
X3304356Y1009606D01*
X3233644Y1009606D01*
X3233644Y938894D01*
X3304356Y938894D01*
D11*
X3369000Y1024250D02*
X3169000Y1024250D01*
X3369000Y924250D02*
X3169000Y924250D01*
X3169000Y1024250D02*
G75*
G03*
X3169000Y924250I0J-50000D01*
G01*
X3369000Y924250D02*
G75*
G03*
X3369000Y1024250I0J50000D01*
G01*
D10*
X3400856Y6441644D02*
X3400856Y6512356D01*
X3330144Y6512356D01*
X3330144Y6441644D01*
X3400856Y6441644D01*
X3464356Y1488644D02*
X3464356Y1559356D01*
X3393644Y1559356D01*
X3393644Y1488644D01*
X3464356Y1488644D01*
X3527856Y4409644D02*
X3527856Y4480356D01*
X3457144Y4480356D01*
X3457144Y4409644D01*
X3527856Y4409644D01*
X3591356Y2758644D02*
X3591356Y2829356D01*
X3520644Y2829356D01*
X3520644Y2758644D01*
X3591356Y2758644D01*
X3591356Y2504644D02*
X3591356Y2575356D01*
X3520644Y2575356D01*
X3520644Y2504644D01*
X3591356Y2504644D01*
X3591356Y2250644D02*
X3591356Y2321356D01*
X3520644Y2321356D01*
X3520644Y2250644D01*
X3591356Y2250644D01*
X3591356Y1996644D02*
X3591356Y2067356D01*
X3520644Y2067356D01*
X3520644Y1996644D01*
X3591356Y1996644D01*
X3604356Y468894D02*
X3604356Y539606D01*
X3533644Y539606D01*
X3533644Y468894D01*
X3604356Y468894D01*
D11*
X3619000Y404250D02*
X3619000Y604250D01*
X3519000Y404250D02*
X3519000Y604250D01*
X3619000Y604250D02*
G75*
G03*
X3519000Y604250I-50000J0D01*
G01*
X3519000Y404250D02*
G75*
G03*
X3619000Y404250I50000J0D01*
G01*
D10*
X3718356Y1488644D02*
X3718356Y1559356D01*
X3647644Y1559356D01*
X3647644Y1488644D01*
X3718356Y1488644D01*
X4289856Y7775144D02*
X4289856Y7845856D01*
X4219144Y7845856D01*
X4219144Y7775144D01*
X4289856Y7775144D01*
X4543856Y7775144D02*
X4543856Y7845856D01*
X4473144Y7845856D01*
X4473144Y7775144D01*
X4543856Y7775144D01*
X4797856Y7775144D02*
X4797856Y7845856D01*
X4727144Y7845856D01*
X4727144Y7775144D01*
X4797856Y7775144D01*
X5051856Y7775144D02*
X5051856Y7845856D01*
X4981144Y7845856D01*
X4981144Y7775144D01*
X5051856Y7775144D01*
X5305856Y7775144D02*
X5305856Y7845856D01*
X5235144Y7845856D01*
X5235144Y7775144D01*
X5305856Y7775144D01*
X5559856Y7775144D02*
X5559856Y7845856D01*
X5489144Y7845856D01*
X5489144Y7775144D01*
X5559856Y7775144D01*
X5940856Y7775144D02*
X5940856Y7845856D01*
X5870144Y7845856D01*
X5870144Y7775144D01*
X5940856Y7775144D01*
X6194856Y7775144D02*
X6194856Y7845856D01*
X6124144Y7845856D01*
X6124144Y7775144D01*
X6194856Y7775144D01*
X6448856Y7775144D02*
X6448856Y7845856D01*
X6378144Y7845856D01*
X6378144Y7775144D01*
X6448856Y7775144D01*
X6702856Y7775144D02*
X6702856Y7845856D01*
X6632144Y7845856D01*
X6632144Y7775144D01*
X6702856Y7775144D01*
X6702856Y4536644D02*
X6702856Y4607356D01*
X6632144Y4607356D01*
X6632144Y4536644D01*
X6702856Y4536644D01*
X6702856Y4282644D02*
X6702856Y4353356D01*
X6632144Y4353356D01*
X6632144Y4282644D01*
X6702856Y4282644D01*
X6702856Y4028644D02*
X6702856Y4099356D01*
X6632144Y4099356D01*
X6632144Y4028644D01*
X6702856Y4028644D01*
X6702856Y3774644D02*
X6702856Y3845356D01*
X6632144Y3845356D01*
X6632144Y3774644D01*
X6702856Y3774644D01*
X6702856Y3520644D02*
X6702856Y3591356D01*
X6632144Y3591356D01*
X6632144Y3520644D01*
X6702856Y3520644D01*
X6702856Y3266644D02*
X6702856Y3337356D01*
X6632144Y3337356D01*
X6632144Y3266644D01*
X6702856Y3266644D01*
X6702856Y3012644D02*
X6702856Y3083356D01*
X6632144Y3083356D01*
X6632144Y3012644D01*
X6702856Y3012644D01*
X6702856Y2758644D02*
X6702856Y2829356D01*
X6632144Y2829356D01*
X6632144Y2758644D01*
X6702856Y2758644D01*
X6702856Y2504644D02*
X6702856Y2575356D01*
X6632144Y2575356D01*
X6632144Y2504644D01*
X6702856Y2504644D01*
X6702856Y2250644D02*
X6702856Y2321356D01*
X6632144Y2321356D01*
X6632144Y2250644D01*
X6702856Y2250644D01*
X6702856Y1996644D02*
X6702856Y2067356D01*
X6632144Y2067356D01*
X6632144Y1996644D01*
X6702856Y1996644D01*
X6702856Y1742644D02*
X6702856Y1813356D01*
X6632144Y1813356D01*
X6632144Y1742644D01*
X6702856Y1742644D01*
X6702856Y1488644D02*
X6702856Y1559356D01*
X6632144Y1559356D01*
X6632144Y1488644D01*
X6702856Y1488644D01*
X6702856Y1234644D02*
X6702856Y1305356D01*
X6632144Y1305356D01*
X6632144Y1234644D01*
X6702856Y1234644D01*
X6702856Y980644D02*
X6702856Y1051356D01*
X6632144Y1051356D01*
X6632144Y980644D01*
X6702856Y980644D01*
X6702856Y726644D02*
X6702856Y797356D01*
X6632144Y797356D01*
X6632144Y726644D01*
X6702856Y726644D01*
D15*
X1272600Y1116600D02*
X1327600Y1171600D01*
X1272600Y1226600D01*
X1217600Y1171600D01*
X1272600Y1116600D01*
X1272600Y608600D02*
X1327600Y663600D01*
X1272600Y718600D01*
X1217600Y663600D01*
X1272600Y608600D01*
X1869500Y945000D02*
X1924500Y1000000D01*
X1869500Y1055000D01*
X1814500Y1000000D01*
X1869500Y945000D01*
X2123500Y945000D02*
X2178500Y1000000D01*
X2123500Y1055000D01*
X2068500Y1000000D01*
X2123500Y945000D01*
X2377500Y945000D02*
X2432500Y1000000D01*
X2377500Y1055000D01*
X2322500Y1000000D01*
X2377500Y945000D01*
X2730500Y3706500D02*
X2785500Y3761500D01*
X2730500Y3816500D01*
X2675500Y3761500D01*
X2730500Y3706500D01*
X2730500Y3056500D02*
X2785500Y3111500D01*
X2730500Y3166500D01*
X2675500Y3111500D01*
X2730500Y3056500D01*
X3180500Y3706500D02*
X3235500Y3761500D01*
X3180500Y3816500D01*
X3125500Y3761500D01*
X3180500Y3706500D01*
X3180500Y3056500D02*
X3235500Y3111500D01*
X3180500Y3166500D01*
X3125500Y3111500D01*
X3180500Y3056500D01*
X4312500Y7008500D02*
X4367500Y7063500D01*
X4312500Y7118500D01*
X4257500Y7063500D01*
X4312500Y7008500D01*
X4312500Y6358500D02*
X4367500Y6413500D01*
X4312500Y6468500D01*
X4257500Y6413500D01*
X4312500Y6358500D01*
X4312500Y6005000D02*
X4367500Y6060000D01*
X4312500Y6115000D01*
X4257500Y6060000D01*
X4312500Y6005000D01*
X4312500Y5355000D02*
X4367500Y5410000D01*
X4312500Y5465000D01*
X4257500Y5410000D01*
X4312500Y5355000D01*
X4762500Y7008500D02*
X4817500Y7063500D01*
X4762500Y7118500D01*
X4707500Y7063500D01*
X4762500Y7008500D01*
X4762500Y6358500D02*
X4817500Y6413500D01*
X4762500Y6468500D01*
X4707500Y6413500D01*
X4762500Y6358500D01*
X4762500Y6005000D02*
X4817500Y6060000D01*
X4762500Y6115000D01*
X4707500Y6060000D01*
X4762500Y6005000D01*
X4762500Y5355000D02*
X4817500Y5410000D01*
X4762500Y5465000D01*
X4707500Y5410000D01*
X4762500Y5355000D01*
X5138000Y7008500D02*
X5193000Y7063500D01*
X5138000Y7118500D01*
X5083000Y7063500D01*
X5138000Y7008500D01*
X5138000Y6358500D02*
X5193000Y6413500D01*
X5138000Y6468500D01*
X5083000Y6413500D01*
X5138000Y6358500D01*
X5138000Y6005000D02*
X5193000Y6060000D01*
X5138000Y6115000D01*
X5083000Y6060000D01*
X5138000Y6005000D01*
X5138000Y5355000D02*
X5193000Y5410000D01*
X5138000Y5465000D01*
X5083000Y5410000D01*
X5138000Y5355000D01*
X5588000Y7008500D02*
X5643000Y7063500D01*
X5588000Y7118500D01*
X5533000Y7063500D01*
X5588000Y7008500D01*
X5588000Y6358500D02*
X5643000Y6413500D01*
X5588000Y6468500D01*
X5533000Y6413500D01*
X5588000Y6358500D01*
X5588000Y6005000D02*
X5643000Y6060000D01*
X5588000Y6115000D01*
X5533000Y6060000D01*
X5588000Y6005000D01*
X5588000Y5355000D02*
X5643000Y5410000D01*
X5588000Y5465000D01*
X5533000Y5410000D01*
X5588000Y5355000D01*
D16*
X800000Y2200000D02*
X1200000Y1800000D01*
X1200000Y2200000D02*
X800000Y1800000D01*
X1200000Y2000000D02*
G75*
G03*
X1200000Y2000000I-200000J0D01*
G01*
X2800000Y7200000D02*
X3200000Y6800000D01*
X3200000Y7200000D02*
X2800000Y6800000D01*
X3200000Y7000000D02*
G75*
G03*
X3200000Y7000000I-200000J0D01*
G01*
D11*
X252619Y-315476D02*
X252619Y-115476D01*
X300238Y-115476D01*
X328810Y-125000D01*
X347857Y-144048D01*
X357381Y-163095D01*
X366905Y-201190D01*
X366905Y-229762D01*
X357381Y-267857D01*
X347857Y-286905D01*
X328810Y-305952D01*
X300238Y-315476D01*
X252619Y-315476D01*
X452619Y-315476D02*
X452619Y-182143D01*
X452619Y-220238D02*
X462143Y-201190D01*
X471667Y-191667D01*
X490714Y-182143D01*
X509762Y-182143D01*
X576429Y-315476D02*
X576429Y-182143D01*
X576429Y-115476D02*
X566905Y-125000D01*
X576429Y-134524D01*
X585952Y-125000D01*
X576429Y-115476D01*
X576429Y-134524D01*
X700238Y-315476D02*
X681190Y-305952D01*
X671667Y-286905D01*
X671667Y-115476D01*
X805000Y-315476D02*
X785952Y-305952D01*
X776428Y-286905D01*
X776428Y-115476D01*
X1033571Y-315476D02*
X1033571Y-115476D01*
X1100238Y-258333D01*
X1166905Y-115476D01*
X1166905Y-315476D01*
X1347857Y-315476D02*
X1347857Y-210714D01*
X1338333Y-191667D01*
X1319286Y-182143D01*
X1281190Y-182143D01*
X1262143Y-191667D01*
X1347857Y-305952D02*
X1328810Y-315476D01*
X1281190Y-315476D01*
X1262143Y-305952D01*
X1252619Y-286905D01*
X1252619Y-267857D01*
X1262143Y-248809D01*
X1281190Y-239286D01*
X1328810Y-239286D01*
X1347857Y-229762D01*
X1443095Y-182143D02*
X1443095Y-382143D01*
X1443095Y-191667D02*
X1462143Y-182143D01*
X1500238Y-182143D01*
X1519286Y-191667D01*
X1528809Y-201190D01*
X1538333Y-220238D01*
X1538333Y-277381D01*
X1528809Y-296429D01*
X1519286Y-305952D01*
X1500238Y-315476D01*
X1462143Y-315476D01*
X1443095Y-305952D01*
X1624048Y-296429D02*
X1633571Y-305952D01*
X1624048Y-315476D01*
X1614524Y-305952D01*
X1624048Y-296429D01*
X1624048Y-315476D01*
X1624048Y-191667D02*
X1633571Y-201190D01*
X1624048Y-210714D01*
X1614524Y-201190D01*
X1624048Y-191667D01*
X1624048Y-210714D01*
D12*
X-65000Y-615000D02*
X-5000Y-675000D01*
X-5000Y-615000D02*
X-65000Y-675000D01*
D11*
X290714Y-535476D02*
X309762Y-535476D01*
X328810Y-545000D01*
X338333Y-554524D01*
X347857Y-573571D01*
X357381Y-611667D01*
X357381Y-659286D01*
X347857Y-697381D01*
X338333Y-716428D01*
X328810Y-725952D01*
X309762Y-735476D01*
X290714Y-735476D01*
X271667Y-725952D01*
X262143Y-716428D01*
X252619Y-697381D01*
X243095Y-659286D01*
X243095Y-611667D01*
X252619Y-573571D01*
X262143Y-554524D01*
X271667Y-545000D01*
X290714Y-535476D01*
X443095Y-716428D02*
X452619Y-725952D01*
X443095Y-735476D01*
X433571Y-725952D01*
X443095Y-716428D01*
X443095Y-735476D01*
X624048Y-535476D02*
X585952Y-535476D01*
X566905Y-545000D01*
X557381Y-554524D01*
X538333Y-583095D01*
X528810Y-621190D01*
X528810Y-697381D01*
X538333Y-716428D01*
X547857Y-725952D01*
X566905Y-735476D01*
X605000Y-735476D01*
X624048Y-725952D01*
X633571Y-716428D01*
X643095Y-697381D01*
X643095Y-649762D01*
X633571Y-630714D01*
X624048Y-621190D01*
X605000Y-611667D01*
X566905Y-611667D01*
X547857Y-621190D01*
X538333Y-630714D01*
X528810Y-649762D01*
X766905Y-535476D02*
X785952Y-535476D01*
X805000Y-545000D01*
X814524Y-554524D01*
X824048Y-573571D01*
X833571Y-611667D01*
X833571Y-659286D01*
X824048Y-697381D01*
X814524Y-716428D01*
X805000Y-725952D01*
X785952Y-735476D01*
X766905Y-735476D01*
X747857Y-725952D01*
X738333Y-716428D01*
X728809Y-697381D01*
X719286Y-659286D01*
X719286Y-611667D01*
X728809Y-573571D01*
X738333Y-554524D01*
X747857Y-545000D01*
X766905Y-535476D01*
X957381Y-535476D02*
X976428Y-535476D01*
X995476Y-545000D01*
X1005000Y-554524D01*
X1014524Y-573571D01*
X1024048Y-611667D01*
X1024048Y-659286D01*
X1014524Y-697381D01*
X1005000Y-716428D01*
X995476Y-725952D01*
X976428Y-735476D01*
X957381Y-735476D01*
X938333Y-725952D01*
X928809Y-716428D01*
X919286Y-697381D01*
X909762Y-659286D01*
X909762Y-611667D01*
X919286Y-573571D01*
X928809Y-554524D01*
X938333Y-545000D01*
X957381Y-535476D01*
X1109762Y-735476D02*
X1109762Y-602143D01*
X1109762Y-621190D02*
X1119286Y-611667D01*
X1138333Y-602143D01*
X1166905Y-602143D01*
X1185952Y-611667D01*
X1195476Y-630714D01*
X1195476Y-735476D01*
X1195476Y-630714D02*
X1205000Y-611667D01*
X1224048Y-602143D01*
X1252619Y-602143D01*
X1271667Y-611667D01*
X1281190Y-630714D01*
X1281190Y-735476D01*
X1376429Y-735476D02*
X1376429Y-602143D01*
X1376429Y-621190D02*
X1385952Y-611667D01*
X1405000Y-602143D01*
X1433571Y-602143D01*
X1452619Y-611667D01*
X1462143Y-630714D01*
X1462143Y-735476D01*
X1462143Y-630714D02*
X1471667Y-611667D01*
X1490714Y-602143D01*
X1519286Y-602143D01*
X1538333Y-611667D01*
X1547857Y-630714D01*
X1547857Y-735476D01*
X1938333Y-525952D02*
X1766905Y-783095D01*
X2195476Y-535476D02*
X2214524Y-535476D01*
X2233571Y-545000D01*
X2243095Y-554524D01*
X2252619Y-573571D01*
X2262143Y-611667D01*
X2262143Y-659286D01*
X2252619Y-697381D01*
X2243095Y-716428D01*
X2233571Y-725952D01*
X2214524Y-735476D01*
X2195476Y-735476D01*
X2176429Y-725952D01*
X2166905Y-716428D01*
X2157381Y-697381D01*
X2147857Y-659286D01*
X2147857Y-611667D01*
X2157381Y-573571D01*
X2166905Y-554524D01*
X2176429Y-545000D01*
X2195476Y-535476D01*
X2347857Y-716428D02*
X2357381Y-725952D01*
X2347857Y-735476D01*
X2338333Y-725952D01*
X2347857Y-716428D01*
X2347857Y-735476D01*
X2481190Y-535476D02*
X2500238Y-535476D01*
X2519286Y-545000D01*
X2528810Y-554524D01*
X2538333Y-573571D01*
X2547857Y-611667D01*
X2547857Y-659286D01*
X2538333Y-697381D01*
X2528810Y-716428D01*
X2519286Y-725952D01*
X2500238Y-735476D01*
X2481190Y-735476D01*
X2462143Y-725952D01*
X2452619Y-716428D01*
X2443095Y-697381D01*
X2433571Y-659286D01*
X2433571Y-611667D01*
X2443095Y-573571D01*
X2452619Y-554524D01*
X2462143Y-545000D01*
X2481190Y-535476D01*
X2624048Y-554524D02*
X2633571Y-545000D01*
X2652619Y-535476D01*
X2700238Y-535476D01*
X2719286Y-545000D01*
X2728810Y-554524D01*
X2738333Y-573571D01*
X2738333Y-592619D01*
X2728810Y-621190D01*
X2614524Y-735476D01*
X2738333Y-735476D01*
X2805000Y-535476D02*
X2928809Y-535476D01*
X2862143Y-611667D01*
X2890714Y-611667D01*
X2909762Y-621190D01*
X2919286Y-630714D01*
X2928809Y-649762D01*
X2928809Y-697381D01*
X2919286Y-716428D01*
X2909762Y-725952D01*
X2890714Y-735476D01*
X2833571Y-735476D01*
X2814524Y-725952D01*
X2805000Y-716428D01*
X3100238Y-535476D02*
X3062143Y-535476D01*
X3043095Y-545000D01*
X3033571Y-554524D01*
X3014524Y-583095D01*
X3005000Y-621190D01*
X3005000Y-697381D01*
X3014524Y-716428D01*
X3024048Y-725952D01*
X3043095Y-735476D01*
X3081190Y-735476D01*
X3100238Y-725952D01*
X3109762Y-716428D01*
X3119286Y-697381D01*
X3119286Y-649762D01*
X3109762Y-630714D01*
X3100238Y-621190D01*
X3081190Y-611667D01*
X3043095Y-611667D01*
X3024048Y-621190D01*
X3014524Y-630714D01*
X3005000Y-649762D01*
X3195476Y-535476D02*
X3195476Y-573571D01*
X3271667Y-535476D02*
X3271667Y-573571D01*
X3566905Y-811667D02*
X3557381Y-802143D01*
X3538333Y-773571D01*
X3528809Y-754524D01*
X3519286Y-725952D01*
X3509762Y-678333D01*
X3509762Y-640238D01*
X3519286Y-592619D01*
X3528809Y-564048D01*
X3538333Y-545000D01*
X3557381Y-516428D01*
X3566905Y-506905D01*
X3624048Y-535476D02*
X3747857Y-535476D01*
X3681190Y-611667D01*
X3709762Y-611667D01*
X3728809Y-621190D01*
X3738333Y-630714D01*
X3747857Y-649762D01*
X3747857Y-697381D01*
X3738333Y-716428D01*
X3728809Y-725952D01*
X3709762Y-735476D01*
X3652619Y-735476D01*
X3633571Y-725952D01*
X3624048Y-716428D01*
X3928809Y-535476D02*
X3833571Y-535476D01*
X3824048Y-630714D01*
X3833571Y-621190D01*
X3852619Y-611667D01*
X3900238Y-611667D01*
X3919286Y-621190D01*
X3928809Y-630714D01*
X3938333Y-649762D01*
X3938333Y-697381D01*
X3928809Y-716428D01*
X3919286Y-725952D01*
X3900238Y-735476D01*
X3852619Y-735476D01*
X3833571Y-725952D01*
X3824048Y-716428D01*
X4176428Y-735476D02*
X4176428Y-535476D01*
X4262143Y-735476D02*
X4262143Y-630714D01*
X4252619Y-611667D01*
X4233571Y-602143D01*
X4205000Y-602143D01*
X4185952Y-611667D01*
X4176428Y-621190D01*
X4385952Y-735476D02*
X4366905Y-725952D01*
X4357381Y-716428D01*
X4347857Y-697381D01*
X4347857Y-640238D01*
X4357381Y-621190D01*
X4366905Y-611667D01*
X4385952Y-602143D01*
X4414524Y-602143D01*
X4433571Y-611667D01*
X4443095Y-621190D01*
X4452619Y-640238D01*
X4452619Y-697381D01*
X4443095Y-716428D01*
X4433571Y-725952D01*
X4414524Y-735476D01*
X4385952Y-735476D01*
X4566905Y-735476D02*
X4547857Y-725952D01*
X4538333Y-706905D01*
X4538333Y-535476D01*
X4719286Y-725952D02*
X4700238Y-735476D01*
X4662143Y-735476D01*
X4643095Y-725952D01*
X4633571Y-706905D01*
X4633571Y-630714D01*
X4643095Y-611667D01*
X4662143Y-602143D01*
X4700238Y-602143D01*
X4719286Y-611667D01*
X4728810Y-630714D01*
X4728810Y-649762D01*
X4633571Y-668810D01*
X4805000Y-725952D02*
X4824048Y-735476D01*
X4862143Y-735476D01*
X4881190Y-725952D01*
X4890714Y-706905D01*
X4890714Y-697381D01*
X4881190Y-678333D01*
X4862143Y-668810D01*
X4833571Y-668810D01*
X4814524Y-659286D01*
X4805000Y-640238D01*
X4805000Y-630714D01*
X4814524Y-611667D01*
X4833571Y-602143D01*
X4862143Y-602143D01*
X4881190Y-611667D01*
X4957381Y-811667D02*
X4966905Y-802143D01*
X4985952Y-773571D01*
X4995476Y-754524D01*
X5005000Y-725952D01*
X5014524Y-678333D01*
X5014524Y-640238D01*
X5005000Y-592619D01*
X4995476Y-564048D01*
X4985952Y-545000D01*
X4966905Y-516428D01*
X4957381Y-506905D01*
D13*
X-5000Y-909000D02*
G75*
G03*
X-5000Y-909000I-40000J0D01*
G01*
D11*
X290714Y-799476D02*
X309762Y-799476D01*
X328810Y-809000D01*
X338333Y-818524D01*
X347857Y-837571D01*
X357381Y-875667D01*
X357381Y-923286D01*
X347857Y-961381D01*
X338333Y-980428D01*
X328810Y-989952D01*
X309762Y-999476D01*
X290714Y-999476D01*
X271667Y-989952D01*
X262143Y-980428D01*
X252619Y-961381D01*
X243095Y-923286D01*
X243095Y-875667D01*
X252619Y-837571D01*
X262143Y-818524D01*
X271667Y-809000D01*
X290714Y-799476D01*
X443095Y-980428D02*
X452619Y-989952D01*
X443095Y-999476D01*
X433571Y-989952D01*
X443095Y-980428D01*
X443095Y-999476D01*
X566905Y-885190D02*
X547857Y-875667D01*
X538333Y-866143D01*
X528810Y-847095D01*
X528810Y-837571D01*
X538333Y-818524D01*
X547857Y-809000D01*
X566905Y-799476D01*
X605000Y-799476D01*
X624048Y-809000D01*
X633571Y-818524D01*
X643095Y-837571D01*
X643095Y-847095D01*
X633571Y-866143D01*
X624048Y-875667D01*
X605000Y-885190D01*
X566905Y-885190D01*
X547857Y-894714D01*
X538333Y-904238D01*
X528810Y-923286D01*
X528810Y-961381D01*
X538333Y-980428D01*
X547857Y-989952D01*
X566905Y-999476D01*
X605000Y-999476D01*
X624048Y-989952D01*
X633571Y-980428D01*
X643095Y-961381D01*
X643095Y-923286D01*
X633571Y-904238D01*
X624048Y-894714D01*
X605000Y-885190D01*
X766905Y-799476D02*
X785952Y-799476D01*
X805000Y-809000D01*
X814524Y-818524D01*
X824048Y-837571D01*
X833571Y-875667D01*
X833571Y-923286D01*
X824048Y-961381D01*
X814524Y-980428D01*
X805000Y-989952D01*
X785952Y-999476D01*
X766905Y-999476D01*
X747857Y-989952D01*
X738333Y-980428D01*
X728809Y-961381D01*
X719286Y-923286D01*
X719286Y-875667D01*
X728809Y-837571D01*
X738333Y-818524D01*
X747857Y-809000D01*
X766905Y-799476D01*
X957381Y-799476D02*
X976428Y-799476D01*
X995476Y-809000D01*
X1005000Y-818524D01*
X1014524Y-837571D01*
X1024048Y-875667D01*
X1024048Y-923286D01*
X1014524Y-961381D01*
X1005000Y-980428D01*
X995476Y-989952D01*
X976428Y-999476D01*
X957381Y-999476D01*
X938333Y-989952D01*
X928809Y-980428D01*
X919286Y-961381D01*
X909762Y-923286D01*
X909762Y-875667D01*
X919286Y-837571D01*
X928809Y-818524D01*
X938333Y-809000D01*
X957381Y-799476D01*
X1109762Y-999476D02*
X1109762Y-866143D01*
X1109762Y-885190D02*
X1119286Y-875667D01*
X1138333Y-866143D01*
X1166905Y-866143D01*
X1185952Y-875667D01*
X1195476Y-894714D01*
X1195476Y-999476D01*
X1195476Y-894714D02*
X1205000Y-875667D01*
X1224048Y-866143D01*
X1252619Y-866143D01*
X1271667Y-875667D01*
X1281190Y-894714D01*
X1281190Y-999476D01*
X1376429Y-999476D02*
X1376429Y-866143D01*
X1376429Y-885190D02*
X1385952Y-875667D01*
X1405000Y-866143D01*
X1433571Y-866143D01*
X1452619Y-875667D01*
X1462143Y-894714D01*
X1462143Y-999476D01*
X1462143Y-894714D02*
X1471667Y-875667D01*
X1490714Y-866143D01*
X1519286Y-866143D01*
X1538333Y-875667D01*
X1547857Y-894714D01*
X1547857Y-999476D01*
X1938333Y-789952D02*
X1766905Y-1047095D01*
X2195476Y-799476D02*
X2214524Y-799476D01*
X2233571Y-809000D01*
X2243095Y-818524D01*
X2252619Y-837571D01*
X2262143Y-875667D01*
X2262143Y-923286D01*
X2252619Y-961381D01*
X2243095Y-980428D01*
X2233571Y-989952D01*
X2214524Y-999476D01*
X2195476Y-999476D01*
X2176429Y-989952D01*
X2166905Y-980428D01*
X2157381Y-961381D01*
X2147857Y-923286D01*
X2147857Y-875667D01*
X2157381Y-837571D01*
X2166905Y-818524D01*
X2176429Y-809000D01*
X2195476Y-799476D01*
X2347857Y-980428D02*
X2357381Y-989952D01*
X2347857Y-999476D01*
X2338333Y-989952D01*
X2347857Y-980428D01*
X2347857Y-999476D01*
X2481190Y-799476D02*
X2500238Y-799476D01*
X2519286Y-809000D01*
X2528810Y-818524D01*
X2538333Y-837571D01*
X2547857Y-875667D01*
X2547857Y-923286D01*
X2538333Y-961381D01*
X2528810Y-980428D01*
X2519286Y-989952D01*
X2500238Y-999476D01*
X2481190Y-999476D01*
X2462143Y-989952D01*
X2452619Y-980428D01*
X2443095Y-961381D01*
X2433571Y-923286D01*
X2433571Y-875667D01*
X2443095Y-837571D01*
X2452619Y-818524D01*
X2462143Y-809000D01*
X2481190Y-799476D01*
X2614524Y-799476D02*
X2738333Y-799476D01*
X2671667Y-875667D01*
X2700238Y-875667D01*
X2719286Y-885190D01*
X2728810Y-894714D01*
X2738333Y-913762D01*
X2738333Y-961381D01*
X2728810Y-980428D01*
X2719286Y-989952D01*
X2700238Y-999476D01*
X2643095Y-999476D01*
X2624048Y-989952D01*
X2614524Y-980428D01*
X2928809Y-999476D02*
X2814524Y-999476D01*
X2871667Y-999476D02*
X2871667Y-799476D01*
X2852619Y-828048D01*
X2833571Y-847095D01*
X2814524Y-856619D01*
X3109762Y-799476D02*
X3014524Y-799476D01*
X3005000Y-894714D01*
X3014524Y-885190D01*
X3033571Y-875667D01*
X3081190Y-875667D01*
X3100238Y-885190D01*
X3109762Y-894714D01*
X3119286Y-913762D01*
X3119286Y-961381D01*
X3109762Y-980428D01*
X3100238Y-989952D01*
X3081190Y-999476D01*
X3033571Y-999476D01*
X3014524Y-989952D01*
X3005000Y-980428D01*
X3195476Y-799476D02*
X3195476Y-837571D01*
X3271667Y-799476D02*
X3271667Y-837571D01*
X3566905Y-1075667D02*
X3557381Y-1066143D01*
X3538333Y-1037571D01*
X3528809Y-1018524D01*
X3519286Y-989952D01*
X3509762Y-942333D01*
X3509762Y-904238D01*
X3519286Y-856619D01*
X3528809Y-828048D01*
X3538333Y-809000D01*
X3557381Y-780428D01*
X3566905Y-770905D01*
X3633571Y-818524D02*
X3643095Y-809000D01*
X3662143Y-799476D01*
X3709762Y-799476D01*
X3728809Y-809000D01*
X3738333Y-818524D01*
X3747857Y-837571D01*
X3747857Y-856619D01*
X3738333Y-885190D01*
X3624048Y-999476D01*
X3747857Y-999476D01*
X3843095Y-999476D02*
X3881190Y-999476D01*
X3900238Y-989952D01*
X3909762Y-980428D01*
X3928809Y-951857D01*
X3938333Y-913762D01*
X3938333Y-837571D01*
X3928809Y-818524D01*
X3919286Y-809000D01*
X3900238Y-799476D01*
X3862143Y-799476D01*
X3843095Y-809000D01*
X3833571Y-818524D01*
X3824048Y-837571D01*
X3824048Y-885190D01*
X3833571Y-904238D01*
X3843095Y-913762D01*
X3862143Y-923286D01*
X3900238Y-923286D01*
X3919286Y-913762D01*
X3928809Y-904238D01*
X3938333Y-885190D01*
X4176428Y-999476D02*
X4176428Y-799476D01*
X4262143Y-999476D02*
X4262143Y-894714D01*
X4252619Y-875667D01*
X4233571Y-866143D01*
X4205000Y-866143D01*
X4185952Y-875667D01*
X4176428Y-885190D01*
X4385952Y-999476D02*
X4366905Y-989952D01*
X4357381Y-980428D01*
X4347857Y-961381D01*
X4347857Y-904238D01*
X4357381Y-885190D01*
X4366905Y-875667D01*
X4385952Y-866143D01*
X4414524Y-866143D01*
X4433571Y-875667D01*
X4443095Y-885190D01*
X4452619Y-904238D01*
X4452619Y-961381D01*
X4443095Y-980428D01*
X4433571Y-989952D01*
X4414524Y-999476D01*
X4385952Y-999476D01*
X4566905Y-999476D02*
X4547857Y-989952D01*
X4538333Y-970905D01*
X4538333Y-799476D01*
X4719286Y-989952D02*
X4700238Y-999476D01*
X4662143Y-999476D01*
X4643095Y-989952D01*
X4633571Y-970905D01*
X4633571Y-894714D01*
X4643095Y-875667D01*
X4662143Y-866143D01*
X4700238Y-866143D01*
X4719286Y-875667D01*
X4728810Y-894714D01*
X4728810Y-913762D01*
X4633571Y-932809D01*
X4805000Y-989952D02*
X4824048Y-999476D01*
X4862143Y-999476D01*
X4881190Y-989952D01*
X4890714Y-970905D01*
X4890714Y-961381D01*
X4881190Y-942333D01*
X4862143Y-932809D01*
X4833571Y-932809D01*
X4814524Y-923286D01*
X4805000Y-904238D01*
X4805000Y-894714D01*
X4814524Y-875667D01*
X4833571Y-866143D01*
X4862143Y-866143D01*
X4881190Y-875667D01*
X4957381Y-1075667D02*
X4966905Y-1066143D01*
X4985952Y-1037571D01*
X4995476Y-1018524D01*
X5005000Y-989952D01*
X5014524Y-942333D01*
X5014524Y-904238D01*
X5005000Y-856619D01*
X4995476Y-828048D01*
X4985952Y-809000D01*
X4966905Y-780428D01*
X4957381Y-770905D01*
D14*
X-50000Y-1128000D02*
X-50000Y-1218000D01*
X-95000Y-1173000D02*
X-5000Y-1173000D01*
D11*
X290714Y-1063476D02*
X309762Y-1063476D01*
X328810Y-1073000D01*
X338333Y-1082524D01*
X347857Y-1101571D01*
X357381Y-1139667D01*
X357381Y-1187286D01*
X347857Y-1225381D01*
X338333Y-1244429D01*
X328810Y-1253952D01*
X309762Y-1263476D01*
X290714Y-1263476D01*
X271667Y-1253952D01*
X262143Y-1244429D01*
X252619Y-1225381D01*
X243095Y-1187286D01*
X243095Y-1139667D01*
X252619Y-1101571D01*
X262143Y-1082524D01*
X271667Y-1073000D01*
X290714Y-1063476D01*
X443095Y-1244429D02*
X452619Y-1253952D01*
X443095Y-1263476D01*
X433571Y-1253952D01*
X443095Y-1244429D01*
X443095Y-1263476D01*
X547857Y-1263476D02*
X585952Y-1263476D01*
X605000Y-1253952D01*
X614524Y-1244429D01*
X633571Y-1215857D01*
X643095Y-1177762D01*
X643095Y-1101571D01*
X633571Y-1082524D01*
X624048Y-1073000D01*
X605000Y-1063476D01*
X566905Y-1063476D01*
X547857Y-1073000D01*
X538333Y-1082524D01*
X528810Y-1101571D01*
X528810Y-1149190D01*
X538333Y-1168238D01*
X547857Y-1177762D01*
X566905Y-1187286D01*
X605000Y-1187286D01*
X624048Y-1177762D01*
X633571Y-1168238D01*
X643095Y-1149190D01*
X766905Y-1063476D02*
X785952Y-1063476D01*
X805000Y-1073000D01*
X814524Y-1082524D01*
X824048Y-1101571D01*
X833571Y-1139667D01*
X833571Y-1187286D01*
X824048Y-1225381D01*
X814524Y-1244429D01*
X805000Y-1253952D01*
X785952Y-1263476D01*
X766905Y-1263476D01*
X747857Y-1253952D01*
X738333Y-1244429D01*
X728809Y-1225381D01*
X719286Y-1187286D01*
X719286Y-1139667D01*
X728809Y-1101571D01*
X738333Y-1082524D01*
X747857Y-1073000D01*
X766905Y-1063476D01*
X957381Y-1063476D02*
X976428Y-1063476D01*
X995476Y-1073000D01*
X1005000Y-1082524D01*
X1014524Y-1101571D01*
X1024048Y-1139667D01*
X1024048Y-1187286D01*
X1014524Y-1225381D01*
X1005000Y-1244429D01*
X995476Y-1253952D01*
X976428Y-1263476D01*
X957381Y-1263476D01*
X938333Y-1253952D01*
X928809Y-1244429D01*
X919286Y-1225381D01*
X909762Y-1187286D01*
X909762Y-1139667D01*
X919286Y-1101571D01*
X928809Y-1082524D01*
X938333Y-1073000D01*
X957381Y-1063476D01*
X1109762Y-1263476D02*
X1109762Y-1130143D01*
X1109762Y-1149190D02*
X1119286Y-1139667D01*
X1138333Y-1130143D01*
X1166905Y-1130143D01*
X1185952Y-1139667D01*
X1195476Y-1158714D01*
X1195476Y-1263476D01*
X1195476Y-1158714D02*
X1205000Y-1139667D01*
X1224048Y-1130143D01*
X1252619Y-1130143D01*
X1271667Y-1139667D01*
X1281190Y-1158714D01*
X1281190Y-1263476D01*
X1376429Y-1263476D02*
X1376429Y-1130143D01*
X1376429Y-1149190D02*
X1385952Y-1139667D01*
X1405000Y-1130143D01*
X1433571Y-1130143D01*
X1452619Y-1139667D01*
X1462143Y-1158714D01*
X1462143Y-1263476D01*
X1462143Y-1158714D02*
X1471667Y-1139667D01*
X1490714Y-1130143D01*
X1519286Y-1130143D01*
X1538333Y-1139667D01*
X1547857Y-1158714D01*
X1547857Y-1263476D01*
X1938333Y-1053952D02*
X1766905Y-1311095D01*
X2195476Y-1063476D02*
X2214524Y-1063476D01*
X2233571Y-1073000D01*
X2243095Y-1082524D01*
X2252619Y-1101571D01*
X2262143Y-1139667D01*
X2262143Y-1187286D01*
X2252619Y-1225381D01*
X2243095Y-1244429D01*
X2233571Y-1253952D01*
X2214524Y-1263476D01*
X2195476Y-1263476D01*
X2176429Y-1253952D01*
X2166905Y-1244429D01*
X2157381Y-1225381D01*
X2147857Y-1187286D01*
X2147857Y-1139667D01*
X2157381Y-1101571D01*
X2166905Y-1082524D01*
X2176429Y-1073000D01*
X2195476Y-1063476D01*
X2347857Y-1244429D02*
X2357381Y-1253952D01*
X2347857Y-1263476D01*
X2338333Y-1253952D01*
X2347857Y-1244429D01*
X2347857Y-1263476D01*
X2481190Y-1063476D02*
X2500238Y-1063476D01*
X2519286Y-1073000D01*
X2528810Y-1082524D01*
X2538333Y-1101571D01*
X2547857Y-1139667D01*
X2547857Y-1187286D01*
X2538333Y-1225381D01*
X2528810Y-1244429D01*
X2519286Y-1253952D01*
X2500238Y-1263476D01*
X2481190Y-1263476D01*
X2462143Y-1253952D01*
X2452619Y-1244429D01*
X2443095Y-1225381D01*
X2433571Y-1187286D01*
X2433571Y-1139667D01*
X2443095Y-1101571D01*
X2452619Y-1082524D01*
X2462143Y-1073000D01*
X2481190Y-1063476D01*
X2614524Y-1063476D02*
X2738333Y-1063476D01*
X2671667Y-1139667D01*
X2700238Y-1139667D01*
X2719286Y-1149190D01*
X2728810Y-1158714D01*
X2738333Y-1177762D01*
X2738333Y-1225381D01*
X2728810Y-1244429D01*
X2719286Y-1253952D01*
X2700238Y-1263476D01*
X2643095Y-1263476D01*
X2624048Y-1253952D01*
X2614524Y-1244429D01*
X2919286Y-1063476D02*
X2824048Y-1063476D01*
X2814524Y-1158714D01*
X2824048Y-1149190D01*
X2843095Y-1139667D01*
X2890714Y-1139667D01*
X2909762Y-1149190D01*
X2919286Y-1158714D01*
X2928809Y-1177762D01*
X2928809Y-1225381D01*
X2919286Y-1244429D01*
X2909762Y-1253952D01*
X2890714Y-1263476D01*
X2843095Y-1263476D01*
X2824048Y-1253952D01*
X2814524Y-1244429D01*
X3100238Y-1130143D02*
X3100238Y-1263476D01*
X3052619Y-1053952D02*
X3005000Y-1196810D01*
X3128809Y-1196810D01*
X3195476Y-1063476D02*
X3195476Y-1101571D01*
X3271667Y-1063476D02*
X3271667Y-1101571D01*
X3566905Y-1339667D02*
X3557381Y-1330143D01*
X3538333Y-1301571D01*
X3528809Y-1282524D01*
X3519286Y-1253952D01*
X3509762Y-1206333D01*
X3509762Y-1168238D01*
X3519286Y-1120619D01*
X3528809Y-1092048D01*
X3538333Y-1073000D01*
X3557381Y-1044428D01*
X3566905Y-1034905D01*
X3728809Y-1130143D02*
X3728809Y-1263476D01*
X3681190Y-1053952D02*
X3633571Y-1196810D01*
X3757381Y-1196810D01*
X3985952Y-1263476D02*
X3985952Y-1063476D01*
X4071667Y-1263476D02*
X4071667Y-1158714D01*
X4062143Y-1139667D01*
X4043095Y-1130143D01*
X4014524Y-1130143D01*
X3995476Y-1139667D01*
X3985952Y-1149190D01*
X4195476Y-1263476D02*
X4176428Y-1253952D01*
X4166905Y-1244429D01*
X4157381Y-1225381D01*
X4157381Y-1168238D01*
X4166905Y-1149190D01*
X4176428Y-1139667D01*
X4195476Y-1130143D01*
X4224048Y-1130143D01*
X4243095Y-1139667D01*
X4252619Y-1149190D01*
X4262143Y-1168238D01*
X4262143Y-1225381D01*
X4252619Y-1244429D01*
X4243095Y-1253952D01*
X4224048Y-1263476D01*
X4195476Y-1263476D01*
X4376429Y-1263476D02*
X4357381Y-1253952D01*
X4347857Y-1234905D01*
X4347857Y-1063476D01*
X4528810Y-1253952D02*
X4509762Y-1263476D01*
X4471667Y-1263476D01*
X4452619Y-1253952D01*
X4443095Y-1234905D01*
X4443095Y-1158714D01*
X4452619Y-1139667D01*
X4471667Y-1130143D01*
X4509762Y-1130143D01*
X4528810Y-1139667D01*
X4538333Y-1158714D01*
X4538333Y-1177762D01*
X4443095Y-1196810D01*
X4614524Y-1253952D02*
X4633571Y-1263476D01*
X4671667Y-1263476D01*
X4690714Y-1253952D01*
X4700238Y-1234905D01*
X4700238Y-1225381D01*
X4690714Y-1206333D01*
X4671667Y-1196810D01*
X4643095Y-1196810D01*
X4624048Y-1187286D01*
X4614524Y-1168238D01*
X4614524Y-1158714D01*
X4624048Y-1139667D01*
X4643095Y-1130143D01*
X4671667Y-1130143D01*
X4690714Y-1139667D01*
X4766905Y-1339667D02*
X4776429Y-1330143D01*
X4795476Y-1301571D01*
X4805000Y-1282524D01*
X4814524Y-1253952D01*
X4824048Y-1206333D01*
X4824048Y-1168238D01*
X4814524Y-1120619D01*
X4805000Y-1092048D01*
X4795476Y-1073000D01*
X4776429Y-1044428D01*
X4766905Y-1034905D01*
D10*
X-19644Y-1472356D02*
X-19644Y-1401644D01*
X-90356Y-1401644D01*
X-90356Y-1472356D01*
X-19644Y-1472356D01*
D11*
X357381Y-1527476D02*
X243095Y-1527476D01*
X300238Y-1527476D02*
X300238Y-1327476D01*
X281190Y-1356048D01*
X262143Y-1375095D01*
X243095Y-1384619D01*
X443095Y-1508428D02*
X452619Y-1517952D01*
X443095Y-1527476D01*
X433571Y-1517952D01*
X443095Y-1508428D01*
X443095Y-1527476D01*
X576429Y-1327476D02*
X595476Y-1327476D01*
X614524Y-1337000D01*
X624048Y-1346524D01*
X633571Y-1365571D01*
X643095Y-1403667D01*
X643095Y-1451286D01*
X633571Y-1489381D01*
X624048Y-1508428D01*
X614524Y-1517952D01*
X595476Y-1527476D01*
X576429Y-1527476D01*
X557381Y-1517952D01*
X547857Y-1508428D01*
X538333Y-1489381D01*
X528810Y-1451286D01*
X528810Y-1403667D01*
X538333Y-1365571D01*
X547857Y-1346524D01*
X557381Y-1337000D01*
X576429Y-1327476D01*
X766905Y-1327476D02*
X785952Y-1327476D01*
X805000Y-1337000D01*
X814524Y-1346524D01*
X824048Y-1365571D01*
X833571Y-1403667D01*
X833571Y-1451286D01*
X824048Y-1489381D01*
X814524Y-1508428D01*
X805000Y-1517952D01*
X785952Y-1527476D01*
X766905Y-1527476D01*
X747857Y-1517952D01*
X738333Y-1508428D01*
X728809Y-1489381D01*
X719286Y-1451286D01*
X719286Y-1403667D01*
X728809Y-1365571D01*
X738333Y-1346524D01*
X747857Y-1337000D01*
X766905Y-1327476D01*
X957381Y-1327476D02*
X976428Y-1327476D01*
X995476Y-1337000D01*
X1005000Y-1346524D01*
X1014524Y-1365571D01*
X1024048Y-1403667D01*
X1024048Y-1451286D01*
X1014524Y-1489381D01*
X1005000Y-1508428D01*
X995476Y-1517952D01*
X976428Y-1527476D01*
X957381Y-1527476D01*
X938333Y-1517952D01*
X928809Y-1508428D01*
X919286Y-1489381D01*
X909762Y-1451286D01*
X909762Y-1403667D01*
X919286Y-1365571D01*
X928809Y-1346524D01*
X938333Y-1337000D01*
X957381Y-1327476D01*
X1109762Y-1527476D02*
X1109762Y-1394143D01*
X1109762Y-1413190D02*
X1119286Y-1403667D01*
X1138333Y-1394143D01*
X1166905Y-1394143D01*
X1185952Y-1403667D01*
X1195476Y-1422714D01*
X1195476Y-1527476D01*
X1195476Y-1422714D02*
X1205000Y-1403667D01*
X1224048Y-1394143D01*
X1252619Y-1394143D01*
X1271667Y-1403667D01*
X1281190Y-1422714D01*
X1281190Y-1527476D01*
X1376429Y-1527476D02*
X1376429Y-1394143D01*
X1376429Y-1413190D02*
X1385952Y-1403667D01*
X1405000Y-1394143D01*
X1433571Y-1394143D01*
X1452619Y-1403667D01*
X1462143Y-1422714D01*
X1462143Y-1527476D01*
X1462143Y-1422714D02*
X1471667Y-1403667D01*
X1490714Y-1394143D01*
X1519286Y-1394143D01*
X1538333Y-1403667D01*
X1547857Y-1422714D01*
X1547857Y-1527476D01*
X1938333Y-1317952D02*
X1766905Y-1575095D01*
X2195476Y-1327476D02*
X2214524Y-1327476D01*
X2233571Y-1337000D01*
X2243095Y-1346524D01*
X2252619Y-1365571D01*
X2262143Y-1403667D01*
X2262143Y-1451286D01*
X2252619Y-1489381D01*
X2243095Y-1508428D01*
X2233571Y-1517952D01*
X2214524Y-1527476D01*
X2195476Y-1527476D01*
X2176429Y-1517952D01*
X2166905Y-1508428D01*
X2157381Y-1489381D01*
X2147857Y-1451286D01*
X2147857Y-1403667D01*
X2157381Y-1365571D01*
X2166905Y-1346524D01*
X2176429Y-1337000D01*
X2195476Y-1327476D01*
X2347857Y-1508428D02*
X2357381Y-1517952D01*
X2347857Y-1527476D01*
X2338333Y-1517952D01*
X2347857Y-1508428D01*
X2347857Y-1527476D01*
X2481190Y-1327476D02*
X2500238Y-1327476D01*
X2519286Y-1337000D01*
X2528810Y-1346524D01*
X2538333Y-1365571D01*
X2547857Y-1403667D01*
X2547857Y-1451286D01*
X2538333Y-1489381D01*
X2528810Y-1508428D01*
X2519286Y-1517952D01*
X2500238Y-1527476D01*
X2481190Y-1527476D01*
X2462143Y-1517952D01*
X2452619Y-1508428D01*
X2443095Y-1489381D01*
X2433571Y-1451286D01*
X2433571Y-1403667D01*
X2443095Y-1365571D01*
X2452619Y-1346524D01*
X2462143Y-1337000D01*
X2481190Y-1327476D01*
X2614524Y-1327476D02*
X2738333Y-1327476D01*
X2671667Y-1403667D01*
X2700238Y-1403667D01*
X2719286Y-1413190D01*
X2728810Y-1422714D01*
X2738333Y-1441762D01*
X2738333Y-1489381D01*
X2728810Y-1508428D01*
X2719286Y-1517952D01*
X2700238Y-1527476D01*
X2643095Y-1527476D01*
X2624048Y-1517952D01*
X2614524Y-1508428D01*
X2833571Y-1527476D02*
X2871667Y-1527476D01*
X2890714Y-1517952D01*
X2900238Y-1508428D01*
X2919286Y-1479857D01*
X2928809Y-1441762D01*
X2928809Y-1365571D01*
X2919286Y-1346524D01*
X2909762Y-1337000D01*
X2890714Y-1327476D01*
X2852619Y-1327476D01*
X2833571Y-1337000D01*
X2824048Y-1346524D01*
X2814524Y-1365571D01*
X2814524Y-1413190D01*
X2824048Y-1432238D01*
X2833571Y-1441762D01*
X2852619Y-1451286D01*
X2890714Y-1451286D01*
X2909762Y-1441762D01*
X2919286Y-1432238D01*
X2928809Y-1413190D01*
X3100238Y-1394143D02*
X3100238Y-1527476D01*
X3052619Y-1317952D02*
X3005000Y-1460809D01*
X3128809Y-1460809D01*
X3195476Y-1327476D02*
X3195476Y-1365571D01*
X3271667Y-1327476D02*
X3271667Y-1365571D01*
X3566905Y-1603667D02*
X3557381Y-1594143D01*
X3538333Y-1565571D01*
X3528809Y-1546524D01*
X3519286Y-1517952D01*
X3509762Y-1470333D01*
X3509762Y-1432238D01*
X3519286Y-1384619D01*
X3528809Y-1356048D01*
X3538333Y-1337000D01*
X3557381Y-1308429D01*
X3566905Y-1298905D01*
X3624048Y-1327476D02*
X3757381Y-1327476D01*
X3671667Y-1527476D01*
X3871667Y-1327476D02*
X3890714Y-1327476D01*
X3909762Y-1337000D01*
X3919286Y-1346524D01*
X3928809Y-1365571D01*
X3938333Y-1403667D01*
X3938333Y-1451286D01*
X3928809Y-1489381D01*
X3919286Y-1508428D01*
X3909762Y-1517952D01*
X3890714Y-1527476D01*
X3871667Y-1527476D01*
X3852619Y-1517952D01*
X3843095Y-1508428D01*
X3833571Y-1489381D01*
X3824048Y-1451286D01*
X3824048Y-1403667D01*
X3833571Y-1365571D01*
X3843095Y-1346524D01*
X3852619Y-1337000D01*
X3871667Y-1327476D01*
X4176428Y-1527476D02*
X4176428Y-1327476D01*
X4262143Y-1527476D02*
X4262143Y-1422714D01*
X4252619Y-1403667D01*
X4233571Y-1394143D01*
X4205000Y-1394143D01*
X4185952Y-1403667D01*
X4176428Y-1413190D01*
X4385952Y-1527476D02*
X4366905Y-1517952D01*
X4357381Y-1508428D01*
X4347857Y-1489381D01*
X4347857Y-1432238D01*
X4357381Y-1413190D01*
X4366905Y-1403667D01*
X4385952Y-1394143D01*
X4414524Y-1394143D01*
X4433571Y-1403667D01*
X4443095Y-1413190D01*
X4452619Y-1432238D01*
X4452619Y-1489381D01*
X4443095Y-1508428D01*
X4433571Y-1517952D01*
X4414524Y-1527476D01*
X4385952Y-1527476D01*
X4566905Y-1527476D02*
X4547857Y-1517952D01*
X4538333Y-1498905D01*
X4538333Y-1327476D01*
X4719286Y-1517952D02*
X4700238Y-1527476D01*
X4662143Y-1527476D01*
X4643095Y-1517952D01*
X4633571Y-1498905D01*
X4633571Y-1422714D01*
X4643095Y-1403667D01*
X4662143Y-1394143D01*
X4700238Y-1394143D01*
X4719286Y-1403667D01*
X4728810Y-1422714D01*
X4728810Y-1441762D01*
X4633571Y-1460809D01*
X4805000Y-1517952D02*
X4824048Y-1527476D01*
X4862143Y-1527476D01*
X4881190Y-1517952D01*
X4890714Y-1498905D01*
X4890714Y-1489381D01*
X4881190Y-1470333D01*
X4862143Y-1460809D01*
X4833571Y-1460809D01*
X4814524Y-1451286D01*
X4805000Y-1432238D01*
X4805000Y-1422714D01*
X4814524Y-1403667D01*
X4833571Y-1394143D01*
X4862143Y-1394143D01*
X4881190Y-1403667D01*
X5128810Y-1451286D02*
X5281190Y-1451286D01*
X5205000Y-1527476D02*
X5205000Y-1375095D01*
X5509762Y-1327476D02*
X5633571Y-1327476D01*
X5566905Y-1403667D01*
X5595476Y-1403667D01*
X5614524Y-1413190D01*
X5624048Y-1422714D01*
X5633571Y-1441762D01*
X5633571Y-1489381D01*
X5624048Y-1508428D01*
X5614524Y-1517952D01*
X5595476Y-1527476D01*
X5538333Y-1527476D01*
X5519286Y-1517952D01*
X5509762Y-1508428D01*
X5862143Y-1517952D02*
X5881190Y-1527476D01*
X5919286Y-1527476D01*
X5938333Y-1517952D01*
X5947857Y-1498905D01*
X5947857Y-1489381D01*
X5938333Y-1470333D01*
X5919286Y-1460809D01*
X5890714Y-1460809D01*
X5871667Y-1451286D01*
X5862143Y-1432238D01*
X5862143Y-1422714D01*
X5871667Y-1403667D01*
X5890714Y-1394143D01*
X5919286Y-1394143D01*
X5938333Y-1403667D01*
X6062143Y-1527476D02*
X6043095Y-1517952D01*
X6033571Y-1498905D01*
X6033571Y-1327476D01*
X6166905Y-1527476D02*
X6147857Y-1517952D01*
X6138333Y-1508428D01*
X6128809Y-1489381D01*
X6128809Y-1432238D01*
X6138333Y-1413190D01*
X6147857Y-1403667D01*
X6166905Y-1394143D01*
X6195476Y-1394143D01*
X6214524Y-1403667D01*
X6224048Y-1413190D01*
X6233571Y-1432238D01*
X6233571Y-1489381D01*
X6224048Y-1508428D01*
X6214524Y-1517952D01*
X6195476Y-1527476D01*
X6166905Y-1527476D01*
X6290714Y-1394143D02*
X6366905Y-1394143D01*
X6319286Y-1327476D02*
X6319286Y-1498905D01*
X6328809Y-1517952D01*
X6347857Y-1527476D01*
X6366905Y-1527476D01*
X6424048Y-1517952D02*
X6443095Y-1527476D01*
X6481190Y-1527476D01*
X6500238Y-1517952D01*
X6509762Y-1498905D01*
X6509762Y-1489381D01*
X6500238Y-1470333D01*
X6481190Y-1460809D01*
X6452619Y-1460809D01*
X6433571Y-1451286D01*
X6424048Y-1432238D01*
X6424048Y-1422714D01*
X6433571Y-1403667D01*
X6452619Y-1394143D01*
X6481190Y-1394143D01*
X6500238Y-1403667D01*
X6576428Y-1603667D02*
X6585952Y-1594143D01*
X6605000Y-1565571D01*
X6614524Y-1546524D01*
X6624048Y-1517952D01*
X6633571Y-1470333D01*
X6633571Y-1432238D01*
X6624048Y-1384619D01*
X6614524Y-1356048D01*
X6605000Y-1337000D01*
X6585952Y-1308429D01*
X6576428Y-1298905D01*
D15*
X-60000Y-1756000D02*
X-5000Y-1701000D01*
X-60000Y-1646000D01*
X-115000Y-1701000D01*
X-60000Y-1756000D01*
D11*
X357381Y-1791476D02*
X243095Y-1791476D01*
X300238Y-1791476D02*
X300238Y-1591476D01*
X281190Y-1620048D01*
X262143Y-1639095D01*
X243095Y-1648619D01*
X443095Y-1772428D02*
X452619Y-1781952D01*
X443095Y-1791476D01*
X433571Y-1781952D01*
X443095Y-1772428D01*
X443095Y-1791476D01*
X643095Y-1791476D02*
X528810Y-1791476D01*
X585952Y-1791476D02*
X585952Y-1591476D01*
X566905Y-1620048D01*
X547857Y-1639095D01*
X528810Y-1648619D01*
X766905Y-1591476D02*
X785952Y-1591476D01*
X805000Y-1601000D01*
X814524Y-1610524D01*
X824048Y-1629571D01*
X833571Y-1667667D01*
X833571Y-1715286D01*
X824048Y-1753381D01*
X814524Y-1772428D01*
X805000Y-1781952D01*
X785952Y-1791476D01*
X766905Y-1791476D01*
X747857Y-1781952D01*
X738333Y-1772428D01*
X728809Y-1753381D01*
X719286Y-1715286D01*
X719286Y-1667667D01*
X728809Y-1629571D01*
X738333Y-1610524D01*
X747857Y-1601000D01*
X766905Y-1591476D01*
X957381Y-1591476D02*
X976428Y-1591476D01*
X995476Y-1601000D01*
X1005000Y-1610524D01*
X1014524Y-1629571D01*
X1024048Y-1667667D01*
X1024048Y-1715286D01*
X1014524Y-1753381D01*
X1005000Y-1772428D01*
X995476Y-1781952D01*
X976428Y-1791476D01*
X957381Y-1791476D01*
X938333Y-1781952D01*
X928809Y-1772428D01*
X919286Y-1753381D01*
X909762Y-1715286D01*
X909762Y-1667667D01*
X919286Y-1629571D01*
X928809Y-1610524D01*
X938333Y-1601000D01*
X957381Y-1591476D01*
X1109762Y-1791476D02*
X1109762Y-1658143D01*
X1109762Y-1677190D02*
X1119286Y-1667667D01*
X1138333Y-1658143D01*
X1166905Y-1658143D01*
X1185952Y-1667667D01*
X1195476Y-1686714D01*
X1195476Y-1791476D01*
X1195476Y-1686714D02*
X1205000Y-1667667D01*
X1224048Y-1658143D01*
X1252619Y-1658143D01*
X1271667Y-1667667D01*
X1281190Y-1686714D01*
X1281190Y-1791476D01*
X1376429Y-1791476D02*
X1376429Y-1658143D01*
X1376429Y-1677190D02*
X1385952Y-1667667D01*
X1405000Y-1658143D01*
X1433571Y-1658143D01*
X1452619Y-1667667D01*
X1462143Y-1686714D01*
X1462143Y-1791476D01*
X1462143Y-1686714D02*
X1471667Y-1667667D01*
X1490714Y-1658143D01*
X1519286Y-1658143D01*
X1538333Y-1667667D01*
X1547857Y-1686714D01*
X1547857Y-1791476D01*
X1938333Y-1581952D02*
X1766905Y-1839095D01*
X2195476Y-1591476D02*
X2214524Y-1591476D01*
X2233571Y-1601000D01*
X2243095Y-1610524D01*
X2252619Y-1629571D01*
X2262143Y-1667667D01*
X2262143Y-1715286D01*
X2252619Y-1753381D01*
X2243095Y-1772428D01*
X2233571Y-1781952D01*
X2214524Y-1791476D01*
X2195476Y-1791476D01*
X2176429Y-1781952D01*
X2166905Y-1772428D01*
X2157381Y-1753381D01*
X2147857Y-1715286D01*
X2147857Y-1667667D01*
X2157381Y-1629571D01*
X2166905Y-1610524D01*
X2176429Y-1601000D01*
X2195476Y-1591476D01*
X2347857Y-1772428D02*
X2357381Y-1781952D01*
X2347857Y-1791476D01*
X2338333Y-1781952D01*
X2347857Y-1772428D01*
X2347857Y-1791476D01*
X2481190Y-1591476D02*
X2500238Y-1591476D01*
X2519286Y-1601000D01*
X2528810Y-1610524D01*
X2538333Y-1629571D01*
X2547857Y-1667667D01*
X2547857Y-1715286D01*
X2538333Y-1753381D01*
X2528810Y-1772428D01*
X2519286Y-1781952D01*
X2500238Y-1791476D01*
X2481190Y-1791476D01*
X2462143Y-1781952D01*
X2452619Y-1772428D01*
X2443095Y-1753381D01*
X2433571Y-1715286D01*
X2433571Y-1667667D01*
X2443095Y-1629571D01*
X2452619Y-1610524D01*
X2462143Y-1601000D01*
X2481190Y-1591476D01*
X2719286Y-1658143D02*
X2719286Y-1791476D01*
X2671667Y-1581952D02*
X2624048Y-1724809D01*
X2747857Y-1724809D01*
X2805000Y-1591476D02*
X2928809Y-1591476D01*
X2862143Y-1667667D01*
X2890714Y-1667667D01*
X2909762Y-1677190D01*
X2919286Y-1686714D01*
X2928809Y-1705762D01*
X2928809Y-1753381D01*
X2919286Y-1772428D01*
X2909762Y-1781952D01*
X2890714Y-1791476D01*
X2833571Y-1791476D01*
X2814524Y-1781952D01*
X2805000Y-1772428D01*
X2995476Y-1591476D02*
X3119286Y-1591476D01*
X3052619Y-1667667D01*
X3081190Y-1667667D01*
X3100238Y-1677190D01*
X3109762Y-1686714D01*
X3119286Y-1705762D01*
X3119286Y-1753381D01*
X3109762Y-1772428D01*
X3100238Y-1781952D01*
X3081190Y-1791476D01*
X3024048Y-1791476D01*
X3005000Y-1781952D01*
X2995476Y-1772428D01*
X3195476Y-1591476D02*
X3195476Y-1629571D01*
X3271667Y-1591476D02*
X3271667Y-1629571D01*
X3566905Y-1867667D02*
X3557381Y-1858143D01*
X3538333Y-1829571D01*
X3528809Y-1810524D01*
X3519286Y-1781952D01*
X3509762Y-1734333D01*
X3509762Y-1696238D01*
X3519286Y-1648619D01*
X3528809Y-1620048D01*
X3538333Y-1601000D01*
X3557381Y-1572428D01*
X3566905Y-1562905D01*
X3633571Y-1610524D02*
X3643095Y-1601000D01*
X3662143Y-1591476D01*
X3709762Y-1591476D01*
X3728809Y-1601000D01*
X3738333Y-1610524D01*
X3747857Y-1629571D01*
X3747857Y-1648619D01*
X3738333Y-1677190D01*
X3624048Y-1791476D01*
X3747857Y-1791476D01*
X3928809Y-1591476D02*
X3833571Y-1591476D01*
X3824048Y-1686714D01*
X3833571Y-1677190D01*
X3852619Y-1667667D01*
X3900238Y-1667667D01*
X3919286Y-1677190D01*
X3928809Y-1686714D01*
X3938333Y-1705762D01*
X3938333Y-1753381D01*
X3928809Y-1772428D01*
X3919286Y-1781952D01*
X3900238Y-1791476D01*
X3852619Y-1791476D01*
X3833571Y-1781952D01*
X3824048Y-1772428D01*
X4176428Y-1791476D02*
X4176428Y-1591476D01*
X4262143Y-1791476D02*
X4262143Y-1686714D01*
X4252619Y-1667667D01*
X4233571Y-1658143D01*
X4205000Y-1658143D01*
X4185952Y-1667667D01*
X4176428Y-1677190D01*
X4385952Y-1791476D02*
X4366905Y-1781952D01*
X4357381Y-1772428D01*
X4347857Y-1753381D01*
X4347857Y-1696238D01*
X4357381Y-1677190D01*
X4366905Y-1667667D01*
X4385952Y-1658143D01*
X4414524Y-1658143D01*
X4433571Y-1667667D01*
X4443095Y-1677190D01*
X4452619Y-1696238D01*
X4452619Y-1753381D01*
X4443095Y-1772428D01*
X4433571Y-1781952D01*
X4414524Y-1791476D01*
X4385952Y-1791476D01*
X4566905Y-1791476D02*
X4547857Y-1781952D01*
X4538333Y-1762905D01*
X4538333Y-1591476D01*
X4719286Y-1781952D02*
X4700238Y-1791476D01*
X4662143Y-1791476D01*
X4643095Y-1781952D01*
X4633571Y-1762905D01*
X4633571Y-1686714D01*
X4643095Y-1667667D01*
X4662143Y-1658143D01*
X4700238Y-1658143D01*
X4719286Y-1667667D01*
X4728810Y-1686714D01*
X4728810Y-1705762D01*
X4633571Y-1724809D01*
X4805000Y-1781952D02*
X4824048Y-1791476D01*
X4862143Y-1791476D01*
X4881190Y-1781952D01*
X4890714Y-1762905D01*
X4890714Y-1753381D01*
X4881190Y-1734333D01*
X4862143Y-1724809D01*
X4833571Y-1724809D01*
X4814524Y-1715286D01*
X4805000Y-1696238D01*
X4805000Y-1686714D01*
X4814524Y-1667667D01*
X4833571Y-1658143D01*
X4862143Y-1658143D01*
X4881190Y-1667667D01*
X4957381Y-1867667D02*
X4966905Y-1858143D01*
X4985952Y-1829571D01*
X4995476Y-1810524D01*
X5005000Y-1781952D01*
X5014524Y-1734333D01*
X5014524Y-1696238D01*
X5005000Y-1648619D01*
X4995476Y-1620048D01*
X4985952Y-1601000D01*
X4966905Y-1572428D01*
X4957381Y-1562905D01*
X-205000Y-1865000D02*
X-5000Y-2065000D01*
X-5000Y-1865000D02*
X-205000Y-2065000D01*
X-5000Y-1965000D02*
G75*
G03*
X-5000Y-1965000I-100000J0D01*
G01*
X338333Y-1922143D02*
X338333Y-2055476D01*
X290714Y-1845952D02*
X243095Y-1988809D01*
X366905Y-1988809D01*
X443095Y-2036428D02*
X452619Y-2045952D01*
X443095Y-2055476D01*
X433571Y-2045952D01*
X443095Y-2036428D01*
X443095Y-2055476D01*
X576429Y-1855476D02*
X595476Y-1855476D01*
X614524Y-1865000D01*
X624048Y-1874524D01*
X633571Y-1893571D01*
X643095Y-1931667D01*
X643095Y-1979286D01*
X633571Y-2017381D01*
X624048Y-2036428D01*
X614524Y-2045952D01*
X595476Y-2055476D01*
X576429Y-2055476D01*
X557381Y-2045952D01*
X547857Y-2036428D01*
X538333Y-2017381D01*
X528810Y-1979286D01*
X528810Y-1931667D01*
X538333Y-1893571D01*
X547857Y-1874524D01*
X557381Y-1865000D01*
X576429Y-1855476D01*
X766905Y-1855476D02*
X785952Y-1855476D01*
X805000Y-1865000D01*
X814524Y-1874524D01*
X824048Y-1893571D01*
X833571Y-1931667D01*
X833571Y-1979286D01*
X824048Y-2017381D01*
X814524Y-2036428D01*
X805000Y-2045952D01*
X785952Y-2055476D01*
X766905Y-2055476D01*
X747857Y-2045952D01*
X738333Y-2036428D01*
X728809Y-2017381D01*
X719286Y-1979286D01*
X719286Y-1931667D01*
X728809Y-1893571D01*
X738333Y-1874524D01*
X747857Y-1865000D01*
X766905Y-1855476D01*
X957381Y-1855476D02*
X976428Y-1855476D01*
X995476Y-1865000D01*
X1005000Y-1874524D01*
X1014524Y-1893571D01*
X1024048Y-1931667D01*
X1024048Y-1979286D01*
X1014524Y-2017381D01*
X1005000Y-2036428D01*
X995476Y-2045952D01*
X976428Y-2055476D01*
X957381Y-2055476D01*
X938333Y-2045952D01*
X928809Y-2036428D01*
X919286Y-2017381D01*
X909762Y-1979286D01*
X909762Y-1931667D01*
X919286Y-1893571D01*
X928809Y-1874524D01*
X938333Y-1865000D01*
X957381Y-1855476D01*
X1109762Y-2055476D02*
X1109762Y-1922143D01*
X1109762Y-1941190D02*
X1119286Y-1931667D01*
X1138333Y-1922143D01*
X1166905Y-1922143D01*
X1185952Y-1931667D01*
X1195476Y-1950714D01*
X1195476Y-2055476D01*
X1195476Y-1950714D02*
X1205000Y-1931667D01*
X1224048Y-1922143D01*
X1252619Y-1922143D01*
X1271667Y-1931667D01*
X1281190Y-1950714D01*
X1281190Y-2055476D01*
X1376429Y-2055476D02*
X1376429Y-1922143D01*
X1376429Y-1941190D02*
X1385952Y-1931667D01*
X1405000Y-1922143D01*
X1433571Y-1922143D01*
X1452619Y-1931667D01*
X1462143Y-1950714D01*
X1462143Y-2055476D01*
X1462143Y-1950714D02*
X1471667Y-1931667D01*
X1490714Y-1922143D01*
X1519286Y-1922143D01*
X1538333Y-1931667D01*
X1547857Y-1950714D01*
X1547857Y-2055476D01*
X1938333Y-1845952D02*
X1766905Y-2103095D01*
X2195476Y-1855476D02*
X2214524Y-1855476D01*
X2233571Y-1865000D01*
X2243095Y-1874524D01*
X2252619Y-1893571D01*
X2262143Y-1931667D01*
X2262143Y-1979286D01*
X2252619Y-2017381D01*
X2243095Y-2036428D01*
X2233571Y-2045952D01*
X2214524Y-2055476D01*
X2195476Y-2055476D01*
X2176429Y-2045952D01*
X2166905Y-2036428D01*
X2157381Y-2017381D01*
X2147857Y-1979286D01*
X2147857Y-1931667D01*
X2157381Y-1893571D01*
X2166905Y-1874524D01*
X2176429Y-1865000D01*
X2195476Y-1855476D01*
X2347857Y-2036428D02*
X2357381Y-2045952D01*
X2347857Y-2055476D01*
X2338333Y-2045952D01*
X2347857Y-2036428D01*
X2347857Y-2055476D01*
X2547857Y-2055476D02*
X2433571Y-2055476D01*
X2490714Y-2055476D02*
X2490714Y-1855476D01*
X2471667Y-1884048D01*
X2452619Y-1903095D01*
X2433571Y-1912619D01*
X2728810Y-1855476D02*
X2633571Y-1855476D01*
X2624048Y-1950714D01*
X2633571Y-1941190D01*
X2652619Y-1931667D01*
X2700238Y-1931667D01*
X2719286Y-1941190D01*
X2728810Y-1950714D01*
X2738333Y-1969762D01*
X2738333Y-2017381D01*
X2728810Y-2036428D01*
X2719286Y-2045952D01*
X2700238Y-2055476D01*
X2652619Y-2055476D01*
X2633571Y-2045952D01*
X2624048Y-2036428D01*
X2805000Y-1855476D02*
X2938333Y-1855476D01*
X2852619Y-2055476D01*
X3109762Y-1855476D02*
X3014524Y-1855476D01*
X3005000Y-1950714D01*
X3014524Y-1941190D01*
X3033571Y-1931667D01*
X3081190Y-1931667D01*
X3100238Y-1941190D01*
X3109762Y-1950714D01*
X3119286Y-1969762D01*
X3119286Y-2017381D01*
X3109762Y-2036428D01*
X3100238Y-2045952D01*
X3081190Y-2055476D01*
X3033571Y-2055476D01*
X3014524Y-2045952D01*
X3005000Y-2036428D01*
X3195476Y-1855476D02*
X3195476Y-1893571D01*
X3271667Y-1855476D02*
X3271667Y-1893571D01*
X3566905Y-2131667D02*
X3557381Y-2122143D01*
X3538333Y-2093571D01*
X3528809Y-2074524D01*
X3519286Y-2045952D01*
X3509762Y-1998333D01*
X3509762Y-1960238D01*
X3519286Y-1912619D01*
X3528809Y-1884048D01*
X3538333Y-1865000D01*
X3557381Y-1836428D01*
X3566905Y-1826905D01*
X3633571Y-1874524D02*
X3643095Y-1865000D01*
X3662143Y-1855476D01*
X3709762Y-1855476D01*
X3728809Y-1865000D01*
X3738333Y-1874524D01*
X3747857Y-1893571D01*
X3747857Y-1912619D01*
X3738333Y-1941190D01*
X3624048Y-2055476D01*
X3747857Y-2055476D01*
X3985952Y-2055476D02*
X3985952Y-1855476D01*
X4071667Y-2055476D02*
X4071667Y-1950714D01*
X4062143Y-1931667D01*
X4043095Y-1922143D01*
X4014524Y-1922143D01*
X3995476Y-1931667D01*
X3985952Y-1941190D01*
X4195476Y-2055476D02*
X4176428Y-2045952D01*
X4166905Y-2036428D01*
X4157381Y-2017381D01*
X4157381Y-1960238D01*
X4166905Y-1941190D01*
X4176428Y-1931667D01*
X4195476Y-1922143D01*
X4224048Y-1922143D01*
X4243095Y-1931667D01*
X4252619Y-1941190D01*
X4262143Y-1960238D01*
X4262143Y-2017381D01*
X4252619Y-2036428D01*
X4243095Y-2045952D01*
X4224048Y-2055476D01*
X4195476Y-2055476D01*
X4376429Y-2055476D02*
X4357381Y-2045952D01*
X4347857Y-2026905D01*
X4347857Y-1855476D01*
X4528810Y-2045952D02*
X4509762Y-2055476D01*
X4471667Y-2055476D01*
X4452619Y-2045952D01*
X4443095Y-2026905D01*
X4443095Y-1950714D01*
X4452619Y-1931667D01*
X4471667Y-1922143D01*
X4509762Y-1922143D01*
X4528810Y-1931667D01*
X4538333Y-1950714D01*
X4538333Y-1969762D01*
X4443095Y-1988809D01*
X4614524Y-2045952D02*
X4633571Y-2055476D01*
X4671667Y-2055476D01*
X4690714Y-2045952D01*
X4700238Y-2026905D01*
X4700238Y-2017381D01*
X4690714Y-1998333D01*
X4671667Y-1988809D01*
X4643095Y-1988809D01*
X4624048Y-1979286D01*
X4614524Y-1960238D01*
X4614524Y-1950714D01*
X4624048Y-1931667D01*
X4643095Y-1922143D01*
X4671667Y-1922143D01*
X4690714Y-1931667D01*
X4766905Y-2131667D02*
X4776429Y-2122143D01*
X4795476Y-2093571D01*
X4805000Y-2074524D01*
X4814524Y-2045952D01*
X4824048Y-1998333D01*
X4824048Y-1960238D01*
X4814524Y-1912619D01*
X4805000Y-1884048D01*
X4795476Y-1865000D01*
X4776429Y-1836428D01*
X4766905Y-1826905D01*
M02*
